%TF.GenerationSoftware,KiCad,Pcbnew,7.0.8*%
%TF.CreationDate,2023-11-11T22:57:12+01:00*%
%TF.ProjectId,Roborock-CPAP,526f626f-726f-4636-9b2d-435041502e6b,rev?*%
%TF.SameCoordinates,Original*%
%TF.FileFunction,Profile,NP*%
%FSLAX46Y46*%
G04 Gerber Fmt 4.6, Leading zero omitted, Abs format (unit mm)*
G04 Created by KiCad (PCBNEW 7.0.8) date 2023-11-11 22:57:12*
%MOMM*%
%LPD*%
G01*
G04 APERTURE LIST*
%TA.AperFunction,Profile*%
%ADD10C,0.200000*%
%TD*%
G04 APERTURE END LIST*
D10*
X149407836Y-113474195D02*
G75*
G03*
X153083514Y-111148630I732964J2909095D01*
G01*
X162975460Y-81617331D02*
G75*
G03*
X168475067Y-87837687I4050640J-1960069D01*
G01*
X161442083Y-77546941D02*
G75*
G03*
X140415275Y-81817682I-7392083J-17503059D01*
G01*
X129499819Y-114057600D02*
G75*
G03*
X129680345Y-108838399I-4171219J2757000D01*
G01*
X178600183Y-76042400D02*
G75*
G03*
X178419657Y-81261601I4171217J-2757000D01*
G01*
X129499830Y-114057607D02*
G75*
G03*
X135042393Y-119600170I3336970J-2205593D01*
G01*
X140415279Y-81817686D02*
G75*
G03*
X140591422Y-86163683I2152821J-2089314D01*
G01*
X140261602Y-119419656D02*
G75*
G03*
X178419656Y-81261601I13788398J24369656D01*
G01*
X167838393Y-70680357D02*
G75*
G03*
X173057609Y-70499829I2462207J4351757D01*
G01*
X178600170Y-76042391D02*
G75*
G03*
X173057609Y-70499830I-3336970J2205591D01*
G01*
X137954250Y-94036808D02*
G75*
G03*
X135195866Y-97399799I218550J-2991992D01*
G01*
X172326927Y-89858129D02*
G75*
G03*
X168475067Y-87837688I-2885827J-819771D01*
G01*
X167838399Y-70680347D02*
G75*
G03*
X129680347Y-108838399I-13788399J-24369653D01*
G01*
X161220441Y-109495915D02*
G75*
G03*
X153083514Y-111148630I-3722841J-2527985D01*
G01*
X162975394Y-81617299D02*
G75*
G03*
X161442083Y-77546940I-2700494J1306699D01*
G01*
X165512055Y-110203261D02*
G75*
G03*
X172326888Y-89858140I-11462055J15153261D01*
G01*
X140261608Y-119419645D02*
G75*
G03*
X135042393Y-119600171I-2462208J-4351755D01*
G01*
X135195865Y-97399799D02*
G75*
G03*
X149407840Y-113474177I18854135J2349799D01*
G01*
X161220424Y-109495927D02*
G75*
G03*
X165512055Y-110203260I2481876J1685327D01*
G01*
X137954243Y-94036708D02*
G75*
G03*
X140591422Y-86163683I-327843J4488008D01*
G01*
M02*
