%TF.GenerationSoftware,KiCad,Pcbnew,7.0.7*%
%TF.CreationDate,2023-12-27T16:52:28+01:00*%
%TF.ProjectId,Roborock-CPAP,526f626f-726f-4636-9b2d-435041502e6b,rev?*%
%TF.SameCoordinates,Original*%
%TF.FileFunction,Drillmap*%
%TF.FilePolarity,Positive*%
%FSLAX45Y45*%
G04 Gerber Fmt 4.5, Leading zero omitted, Abs format (unit mm)*
G04 Created by KiCad (PCBNEW 7.0.7) date 2023-12-27 16:52:28*
%MOMM*%
%LPD*%
G01*
G04 APERTURE LIST*
%ADD10C,0.200000*%
%ADD11C,0.095000*%
%ADD12C,0.100000*%
%ADD13C,0.320000*%
%ADD14C,0.380000*%
G04 APERTURE END LIST*
D10*
X14940784Y-11347419D02*
G75*
G03*
X15308351Y-11114863I73296J290909D01*
G01*
X16297546Y-8161733D02*
G75*
G03*
X16847507Y-8783769I405064J-196007D01*
G01*
X16144208Y-7754694D02*
G75*
G03*
X14041527Y-8181768I-739208J-1750306D01*
G01*
X12949982Y-11405760D02*
G75*
G03*
X12968034Y-10883840I-417122J275700D01*
G01*
X17860018Y-7604240D02*
G75*
G03*
X17841966Y-8126160I417122J-275700D01*
G01*
X12949983Y-11405761D02*
G75*
G03*
X13504239Y-11960017I333697J-220559D01*
G01*
X14041528Y-8181769D02*
G75*
G03*
X14059142Y-8616368I215282J-208931D01*
G01*
X14026160Y-11941966D02*
G75*
G03*
X17841966Y-8126160I1378840J2436966D01*
G01*
X16783839Y-7068036D02*
G75*
G03*
X17305761Y-7049983I246221J435176D01*
G01*
X17860017Y-7604239D02*
G75*
G03*
X17305761Y-7049983I-333697J220559D01*
G01*
X13795425Y-9403681D02*
G75*
G03*
X13519587Y-9739980I21855J-299199D01*
G01*
X17232693Y-8985813D02*
G75*
G03*
X16847507Y-8783769I-288583J-81977D01*
G01*
X16783840Y-7068035D02*
G75*
G03*
X12968035Y-10883840I-1378840J-2436965D01*
G01*
X16122044Y-10949592D02*
G75*
G03*
X15308351Y-11114863I-372284J-252798D01*
G01*
X16297539Y-8161730D02*
G75*
G03*
X16144208Y-7754694I-270049J130670D01*
G01*
X16551205Y-11020326D02*
G75*
G03*
X17232689Y-8985814I-1146206J1515326D01*
G01*
X14026161Y-11941964D02*
G75*
G03*
X13504239Y-11960017I-246221J-435176D01*
G01*
X13519586Y-9739980D02*
G75*
G03*
X14940784Y-11347418I1885414J234980D01*
G01*
X16122042Y-10949593D02*
G75*
G03*
X16551205Y-11020326I248188J168533D01*
G01*
X13795424Y-9403671D02*
G75*
G03*
X14059142Y-8616368I-32784J448801D01*
G01*
D11*
X15202500Y-7005000D02*
X15297500Y-7100000D01*
X15297500Y-7005000D02*
X15202500Y-7100000D01*
X15452500Y-7005000D02*
X15547500Y-7100000D01*
X15547500Y-7005000D02*
X15452500Y-7100000D01*
X15702500Y-7005000D02*
X15797500Y-7100000D01*
X15797500Y-7005000D02*
X15702500Y-7100000D01*
X17677500Y-9147500D02*
X17772500Y-9242500D01*
X17772500Y-9147500D02*
X17677500Y-9242500D01*
X17677500Y-9397500D02*
X17772500Y-9492500D01*
X17772500Y-9397500D02*
X17677500Y-9492500D01*
X17677500Y-9647500D02*
X17772500Y-9742500D01*
X17772500Y-9647500D02*
X17677500Y-9742500D01*
D12*
X15430000Y-11927500D02*
G75*
G03*
X15430000Y-11927500I-50000J0D01*
G01*
X15680000Y-11927500D02*
G75*
G03*
X15680000Y-11927500I-50000J0D01*
G01*
D13*
X13283680Y-11466320D02*
X13283680Y-11786320D01*
X13123680Y-11626320D02*
X13443680Y-11626320D01*
X17526320Y-7223680D02*
X17526320Y-7543680D01*
X17366320Y-7383680D02*
X17686320Y-7383680D01*
D14*
X13949352Y-8044352D02*
X13949352Y-7775648D01*
X13680648Y-7775648D01*
X13680648Y-8044352D01*
X13949352Y-8044352D01*
X17149352Y-11244352D02*
X17149352Y-10975648D01*
X16880648Y-10975648D01*
X16880648Y-11244352D01*
X17149352Y-11244352D01*
D10*
X12855777Y-12626484D02*
X12855777Y-12426484D01*
X12855777Y-12426484D02*
X12903396Y-12426484D01*
X12903396Y-12426484D02*
X12931967Y-12436008D01*
X12931967Y-12436008D02*
X12951015Y-12455055D01*
X12951015Y-12455055D02*
X12960539Y-12474103D01*
X12960539Y-12474103D02*
X12970062Y-12512198D01*
X12970062Y-12512198D02*
X12970062Y-12540770D01*
X12970062Y-12540770D02*
X12960539Y-12578865D01*
X12960539Y-12578865D02*
X12951015Y-12597912D01*
X12951015Y-12597912D02*
X12931967Y-12616960D01*
X12931967Y-12616960D02*
X12903396Y-12626484D01*
X12903396Y-12626484D02*
X12855777Y-12626484D01*
X13055777Y-12626484D02*
X13055777Y-12493150D01*
X13055777Y-12531246D02*
X13065301Y-12512198D01*
X13065301Y-12512198D02*
X13074824Y-12502674D01*
X13074824Y-12502674D02*
X13093872Y-12493150D01*
X13093872Y-12493150D02*
X13112920Y-12493150D01*
X13179586Y-12626484D02*
X13179586Y-12493150D01*
X13179586Y-12426484D02*
X13170062Y-12436008D01*
X13170062Y-12436008D02*
X13179586Y-12445531D01*
X13179586Y-12445531D02*
X13189110Y-12436008D01*
X13189110Y-12436008D02*
X13179586Y-12426484D01*
X13179586Y-12426484D02*
X13179586Y-12445531D01*
X13303396Y-12626484D02*
X13284348Y-12616960D01*
X13284348Y-12616960D02*
X13274824Y-12597912D01*
X13274824Y-12597912D02*
X13274824Y-12426484D01*
X13408158Y-12626484D02*
X13389110Y-12616960D01*
X13389110Y-12616960D02*
X13379586Y-12597912D01*
X13379586Y-12597912D02*
X13379586Y-12426484D01*
X13636729Y-12626484D02*
X13636729Y-12426484D01*
X13636729Y-12426484D02*
X13703396Y-12569341D01*
X13703396Y-12569341D02*
X13770062Y-12426484D01*
X13770062Y-12426484D02*
X13770062Y-12626484D01*
X13951015Y-12626484D02*
X13951015Y-12521722D01*
X13951015Y-12521722D02*
X13941491Y-12502674D01*
X13941491Y-12502674D02*
X13922443Y-12493150D01*
X13922443Y-12493150D02*
X13884348Y-12493150D01*
X13884348Y-12493150D02*
X13865301Y-12502674D01*
X13951015Y-12616960D02*
X13931967Y-12626484D01*
X13931967Y-12626484D02*
X13884348Y-12626484D01*
X13884348Y-12626484D02*
X13865301Y-12616960D01*
X13865301Y-12616960D02*
X13855777Y-12597912D01*
X13855777Y-12597912D02*
X13855777Y-12578865D01*
X13855777Y-12578865D02*
X13865301Y-12559817D01*
X13865301Y-12559817D02*
X13884348Y-12550293D01*
X13884348Y-12550293D02*
X13931967Y-12550293D01*
X13931967Y-12550293D02*
X13951015Y-12540770D01*
X14046253Y-12493150D02*
X14046253Y-12693150D01*
X14046253Y-12502674D02*
X14065301Y-12493150D01*
X14065301Y-12493150D02*
X14103396Y-12493150D01*
X14103396Y-12493150D02*
X14122443Y-12502674D01*
X14122443Y-12502674D02*
X14131967Y-12512198D01*
X14131967Y-12512198D02*
X14141491Y-12531246D01*
X14141491Y-12531246D02*
X14141491Y-12588389D01*
X14141491Y-12588389D02*
X14131967Y-12607436D01*
X14131967Y-12607436D02*
X14122443Y-12616960D01*
X14122443Y-12616960D02*
X14103396Y-12626484D01*
X14103396Y-12626484D02*
X14065301Y-12626484D01*
X14065301Y-12626484D02*
X14046253Y-12616960D01*
X14227205Y-12607436D02*
X14236729Y-12616960D01*
X14236729Y-12616960D02*
X14227205Y-12626484D01*
X14227205Y-12626484D02*
X14217682Y-12616960D01*
X14217682Y-12616960D02*
X14227205Y-12607436D01*
X14227205Y-12607436D02*
X14227205Y-12626484D01*
X14227205Y-12502674D02*
X14236729Y-12512198D01*
X14236729Y-12512198D02*
X14227205Y-12521722D01*
X14227205Y-12521722D02*
X14217682Y-12512198D01*
X14217682Y-12512198D02*
X14227205Y-12502674D01*
X14227205Y-12502674D02*
X14227205Y-12521722D01*
D11*
X12500000Y-12907500D02*
X12595000Y-13002500D01*
X12595000Y-12907500D02*
X12500000Y-13002500D01*
D10*
X12893872Y-12846484D02*
X12912920Y-12846484D01*
X12912920Y-12846484D02*
X12931967Y-12856008D01*
X12931967Y-12856008D02*
X12941491Y-12865531D01*
X12941491Y-12865531D02*
X12951015Y-12884579D01*
X12951015Y-12884579D02*
X12960539Y-12922674D01*
X12960539Y-12922674D02*
X12960539Y-12970293D01*
X12960539Y-12970293D02*
X12951015Y-13008389D01*
X12951015Y-13008389D02*
X12941491Y-13027436D01*
X12941491Y-13027436D02*
X12931967Y-13036960D01*
X12931967Y-13036960D02*
X12912920Y-13046484D01*
X12912920Y-13046484D02*
X12893872Y-13046484D01*
X12893872Y-13046484D02*
X12874824Y-13036960D01*
X12874824Y-13036960D02*
X12865301Y-13027436D01*
X12865301Y-13027436D02*
X12855777Y-13008389D01*
X12855777Y-13008389D02*
X12846253Y-12970293D01*
X12846253Y-12970293D02*
X12846253Y-12922674D01*
X12846253Y-12922674D02*
X12855777Y-12884579D01*
X12855777Y-12884579D02*
X12865301Y-12865531D01*
X12865301Y-12865531D02*
X12874824Y-12856008D01*
X12874824Y-12856008D02*
X12893872Y-12846484D01*
X13046253Y-13027436D02*
X13055777Y-13036960D01*
X13055777Y-13036960D02*
X13046253Y-13046484D01*
X13046253Y-13046484D02*
X13036729Y-13036960D01*
X13036729Y-13036960D02*
X13046253Y-13027436D01*
X13046253Y-13027436D02*
X13046253Y-13046484D01*
X13151015Y-13046484D02*
X13189110Y-13046484D01*
X13189110Y-13046484D02*
X13208158Y-13036960D01*
X13208158Y-13036960D02*
X13217682Y-13027436D01*
X13217682Y-13027436D02*
X13236729Y-12998865D01*
X13236729Y-12998865D02*
X13246253Y-12960770D01*
X13246253Y-12960770D02*
X13246253Y-12884579D01*
X13246253Y-12884579D02*
X13236729Y-12865531D01*
X13236729Y-12865531D02*
X13227205Y-12856008D01*
X13227205Y-12856008D02*
X13208158Y-12846484D01*
X13208158Y-12846484D02*
X13170062Y-12846484D01*
X13170062Y-12846484D02*
X13151015Y-12856008D01*
X13151015Y-12856008D02*
X13141491Y-12865531D01*
X13141491Y-12865531D02*
X13131967Y-12884579D01*
X13131967Y-12884579D02*
X13131967Y-12932198D01*
X13131967Y-12932198D02*
X13141491Y-12951246D01*
X13141491Y-12951246D02*
X13151015Y-12960770D01*
X13151015Y-12960770D02*
X13170062Y-12970293D01*
X13170062Y-12970293D02*
X13208158Y-12970293D01*
X13208158Y-12970293D02*
X13227205Y-12960770D01*
X13227205Y-12960770D02*
X13236729Y-12951246D01*
X13236729Y-12951246D02*
X13246253Y-12932198D01*
X13427205Y-12846484D02*
X13331967Y-12846484D01*
X13331967Y-12846484D02*
X13322443Y-12941722D01*
X13322443Y-12941722D02*
X13331967Y-12932198D01*
X13331967Y-12932198D02*
X13351015Y-12922674D01*
X13351015Y-12922674D02*
X13398634Y-12922674D01*
X13398634Y-12922674D02*
X13417682Y-12932198D01*
X13417682Y-12932198D02*
X13427205Y-12941722D01*
X13427205Y-12941722D02*
X13436729Y-12960770D01*
X13436729Y-12960770D02*
X13436729Y-13008389D01*
X13436729Y-13008389D02*
X13427205Y-13027436D01*
X13427205Y-13027436D02*
X13417682Y-13036960D01*
X13417682Y-13036960D02*
X13398634Y-13046484D01*
X13398634Y-13046484D02*
X13351015Y-13046484D01*
X13351015Y-13046484D02*
X13331967Y-13036960D01*
X13331967Y-13036960D02*
X13322443Y-13027436D01*
X13560539Y-12846484D02*
X13579586Y-12846484D01*
X13579586Y-12846484D02*
X13598634Y-12856008D01*
X13598634Y-12856008D02*
X13608158Y-12865531D01*
X13608158Y-12865531D02*
X13617682Y-12884579D01*
X13617682Y-12884579D02*
X13627205Y-12922674D01*
X13627205Y-12922674D02*
X13627205Y-12970293D01*
X13627205Y-12970293D02*
X13617682Y-13008389D01*
X13617682Y-13008389D02*
X13608158Y-13027436D01*
X13608158Y-13027436D02*
X13598634Y-13036960D01*
X13598634Y-13036960D02*
X13579586Y-13046484D01*
X13579586Y-13046484D02*
X13560539Y-13046484D01*
X13560539Y-13046484D02*
X13541491Y-13036960D01*
X13541491Y-13036960D02*
X13531967Y-13027436D01*
X13531967Y-13027436D02*
X13522443Y-13008389D01*
X13522443Y-13008389D02*
X13512920Y-12970293D01*
X13512920Y-12970293D02*
X13512920Y-12922674D01*
X13512920Y-12922674D02*
X13522443Y-12884579D01*
X13522443Y-12884579D02*
X13531967Y-12865531D01*
X13531967Y-12865531D02*
X13541491Y-12856008D01*
X13541491Y-12856008D02*
X13560539Y-12846484D01*
X13712920Y-13046484D02*
X13712920Y-12913150D01*
X13712920Y-12932198D02*
X13722443Y-12922674D01*
X13722443Y-12922674D02*
X13741491Y-12913150D01*
X13741491Y-12913150D02*
X13770063Y-12913150D01*
X13770063Y-12913150D02*
X13789110Y-12922674D01*
X13789110Y-12922674D02*
X13798634Y-12941722D01*
X13798634Y-12941722D02*
X13798634Y-13046484D01*
X13798634Y-12941722D02*
X13808158Y-12922674D01*
X13808158Y-12922674D02*
X13827205Y-12913150D01*
X13827205Y-12913150D02*
X13855777Y-12913150D01*
X13855777Y-12913150D02*
X13874824Y-12922674D01*
X13874824Y-12922674D02*
X13884348Y-12941722D01*
X13884348Y-12941722D02*
X13884348Y-13046484D01*
X13979586Y-13046484D02*
X13979586Y-12913150D01*
X13979586Y-12932198D02*
X13989110Y-12922674D01*
X13989110Y-12922674D02*
X14008158Y-12913150D01*
X14008158Y-12913150D02*
X14036729Y-12913150D01*
X14036729Y-12913150D02*
X14055777Y-12922674D01*
X14055777Y-12922674D02*
X14065301Y-12941722D01*
X14065301Y-12941722D02*
X14065301Y-13046484D01*
X14065301Y-12941722D02*
X14074824Y-12922674D01*
X14074824Y-12922674D02*
X14093872Y-12913150D01*
X14093872Y-12913150D02*
X14122443Y-12913150D01*
X14122443Y-12913150D02*
X14141491Y-12922674D01*
X14141491Y-12922674D02*
X14151015Y-12941722D01*
X14151015Y-12941722D02*
X14151015Y-13046484D01*
X14541491Y-12836960D02*
X14370063Y-13094103D01*
X14798634Y-12846484D02*
X14817682Y-12846484D01*
X14817682Y-12846484D02*
X14836729Y-12856008D01*
X14836729Y-12856008D02*
X14846253Y-12865531D01*
X14846253Y-12865531D02*
X14855777Y-12884579D01*
X14855777Y-12884579D02*
X14865301Y-12922674D01*
X14865301Y-12922674D02*
X14865301Y-12970293D01*
X14865301Y-12970293D02*
X14855777Y-13008389D01*
X14855777Y-13008389D02*
X14846253Y-13027436D01*
X14846253Y-13027436D02*
X14836729Y-13036960D01*
X14836729Y-13036960D02*
X14817682Y-13046484D01*
X14817682Y-13046484D02*
X14798634Y-13046484D01*
X14798634Y-13046484D02*
X14779586Y-13036960D01*
X14779586Y-13036960D02*
X14770063Y-13027436D01*
X14770063Y-13027436D02*
X14760539Y-13008389D01*
X14760539Y-13008389D02*
X14751015Y-12970293D01*
X14751015Y-12970293D02*
X14751015Y-12922674D01*
X14751015Y-12922674D02*
X14760539Y-12884579D01*
X14760539Y-12884579D02*
X14770063Y-12865531D01*
X14770063Y-12865531D02*
X14779586Y-12856008D01*
X14779586Y-12856008D02*
X14798634Y-12846484D01*
X14951015Y-13027436D02*
X14960539Y-13036960D01*
X14960539Y-13036960D02*
X14951015Y-13046484D01*
X14951015Y-13046484D02*
X14941491Y-13036960D01*
X14941491Y-13036960D02*
X14951015Y-13027436D01*
X14951015Y-13027436D02*
X14951015Y-13046484D01*
X15084348Y-12846484D02*
X15103396Y-12846484D01*
X15103396Y-12846484D02*
X15122444Y-12856008D01*
X15122444Y-12856008D02*
X15131967Y-12865531D01*
X15131967Y-12865531D02*
X15141491Y-12884579D01*
X15141491Y-12884579D02*
X15151015Y-12922674D01*
X15151015Y-12922674D02*
X15151015Y-12970293D01*
X15151015Y-12970293D02*
X15141491Y-13008389D01*
X15141491Y-13008389D02*
X15131967Y-13027436D01*
X15131967Y-13027436D02*
X15122444Y-13036960D01*
X15122444Y-13036960D02*
X15103396Y-13046484D01*
X15103396Y-13046484D02*
X15084348Y-13046484D01*
X15084348Y-13046484D02*
X15065301Y-13036960D01*
X15065301Y-13036960D02*
X15055777Y-13027436D01*
X15055777Y-13027436D02*
X15046253Y-13008389D01*
X15046253Y-13008389D02*
X15036729Y-12970293D01*
X15036729Y-12970293D02*
X15036729Y-12922674D01*
X15036729Y-12922674D02*
X15046253Y-12884579D01*
X15046253Y-12884579D02*
X15055777Y-12865531D01*
X15055777Y-12865531D02*
X15065301Y-12856008D01*
X15065301Y-12856008D02*
X15084348Y-12846484D01*
X15217682Y-12846484D02*
X15341491Y-12846484D01*
X15341491Y-12846484D02*
X15274825Y-12922674D01*
X15274825Y-12922674D02*
X15303396Y-12922674D01*
X15303396Y-12922674D02*
X15322444Y-12932198D01*
X15322444Y-12932198D02*
X15331967Y-12941722D01*
X15331967Y-12941722D02*
X15341491Y-12960770D01*
X15341491Y-12960770D02*
X15341491Y-13008389D01*
X15341491Y-13008389D02*
X15331967Y-13027436D01*
X15331967Y-13027436D02*
X15322444Y-13036960D01*
X15322444Y-13036960D02*
X15303396Y-13046484D01*
X15303396Y-13046484D02*
X15246253Y-13046484D01*
X15246253Y-13046484D02*
X15227206Y-13036960D01*
X15227206Y-13036960D02*
X15217682Y-13027436D01*
X15408158Y-12846484D02*
X15541491Y-12846484D01*
X15541491Y-12846484D02*
X15455777Y-13046484D01*
X15703396Y-12913150D02*
X15703396Y-13046484D01*
X15655777Y-12836960D02*
X15608158Y-12979817D01*
X15608158Y-12979817D02*
X15731967Y-12979817D01*
X15798634Y-12846484D02*
X15798634Y-12884579D01*
X15874825Y-12846484D02*
X15874825Y-12884579D01*
X16170063Y-13122674D02*
X16160539Y-13113150D01*
X16160539Y-13113150D02*
X16141491Y-13084579D01*
X16141491Y-13084579D02*
X16131968Y-13065531D01*
X16131968Y-13065531D02*
X16122444Y-13036960D01*
X16122444Y-13036960D02*
X16112920Y-12989341D01*
X16112920Y-12989341D02*
X16112920Y-12951246D01*
X16112920Y-12951246D02*
X16122444Y-12903627D01*
X16122444Y-12903627D02*
X16131968Y-12875055D01*
X16131968Y-12875055D02*
X16141491Y-12856008D01*
X16141491Y-12856008D02*
X16160539Y-12827436D01*
X16160539Y-12827436D02*
X16170063Y-12817912D01*
X16331968Y-12846484D02*
X16293872Y-12846484D01*
X16293872Y-12846484D02*
X16274825Y-12856008D01*
X16274825Y-12856008D02*
X16265301Y-12865531D01*
X16265301Y-12865531D02*
X16246253Y-12894103D01*
X16246253Y-12894103D02*
X16236729Y-12932198D01*
X16236729Y-12932198D02*
X16236729Y-13008389D01*
X16236729Y-13008389D02*
X16246253Y-13027436D01*
X16246253Y-13027436D02*
X16255777Y-13036960D01*
X16255777Y-13036960D02*
X16274825Y-13046484D01*
X16274825Y-13046484D02*
X16312920Y-13046484D01*
X16312920Y-13046484D02*
X16331968Y-13036960D01*
X16331968Y-13036960D02*
X16341491Y-13027436D01*
X16341491Y-13027436D02*
X16351015Y-13008389D01*
X16351015Y-13008389D02*
X16351015Y-12960770D01*
X16351015Y-12960770D02*
X16341491Y-12941722D01*
X16341491Y-12941722D02*
X16331968Y-12932198D01*
X16331968Y-12932198D02*
X16312920Y-12922674D01*
X16312920Y-12922674D02*
X16274825Y-12922674D01*
X16274825Y-12922674D02*
X16255777Y-12932198D01*
X16255777Y-12932198D02*
X16246253Y-12941722D01*
X16246253Y-12941722D02*
X16236729Y-12960770D01*
X16589110Y-13046484D02*
X16589110Y-12846484D01*
X16674825Y-13046484D02*
X16674825Y-12941722D01*
X16674825Y-12941722D02*
X16665301Y-12922674D01*
X16665301Y-12922674D02*
X16646253Y-12913150D01*
X16646253Y-12913150D02*
X16617682Y-12913150D01*
X16617682Y-12913150D02*
X16598634Y-12922674D01*
X16598634Y-12922674D02*
X16589110Y-12932198D01*
X16798634Y-13046484D02*
X16779587Y-13036960D01*
X16779587Y-13036960D02*
X16770063Y-13027436D01*
X16770063Y-13027436D02*
X16760539Y-13008389D01*
X16760539Y-13008389D02*
X16760539Y-12951246D01*
X16760539Y-12951246D02*
X16770063Y-12932198D01*
X16770063Y-12932198D02*
X16779587Y-12922674D01*
X16779587Y-12922674D02*
X16798634Y-12913150D01*
X16798634Y-12913150D02*
X16827206Y-12913150D01*
X16827206Y-12913150D02*
X16846253Y-12922674D01*
X16846253Y-12922674D02*
X16855777Y-12932198D01*
X16855777Y-12932198D02*
X16865301Y-12951246D01*
X16865301Y-12951246D02*
X16865301Y-13008389D01*
X16865301Y-13008389D02*
X16855777Y-13027436D01*
X16855777Y-13027436D02*
X16846253Y-13036960D01*
X16846253Y-13036960D02*
X16827206Y-13046484D01*
X16827206Y-13046484D02*
X16798634Y-13046484D01*
X16979587Y-13046484D02*
X16960539Y-13036960D01*
X16960539Y-13036960D02*
X16951015Y-13017912D01*
X16951015Y-13017912D02*
X16951015Y-12846484D01*
X17131968Y-13036960D02*
X17112920Y-13046484D01*
X17112920Y-13046484D02*
X17074825Y-13046484D01*
X17074825Y-13046484D02*
X17055777Y-13036960D01*
X17055777Y-13036960D02*
X17046253Y-13017912D01*
X17046253Y-13017912D02*
X17046253Y-12941722D01*
X17046253Y-12941722D02*
X17055777Y-12922674D01*
X17055777Y-12922674D02*
X17074825Y-12913150D01*
X17074825Y-12913150D02*
X17112920Y-12913150D01*
X17112920Y-12913150D02*
X17131968Y-12922674D01*
X17131968Y-12922674D02*
X17141492Y-12941722D01*
X17141492Y-12941722D02*
X17141492Y-12960770D01*
X17141492Y-12960770D02*
X17046253Y-12979817D01*
X17217682Y-13036960D02*
X17236730Y-13046484D01*
X17236730Y-13046484D02*
X17274825Y-13046484D01*
X17274825Y-13046484D02*
X17293873Y-13036960D01*
X17293873Y-13036960D02*
X17303396Y-13017912D01*
X17303396Y-13017912D02*
X17303396Y-13008389D01*
X17303396Y-13008389D02*
X17293873Y-12989341D01*
X17293873Y-12989341D02*
X17274825Y-12979817D01*
X17274825Y-12979817D02*
X17246253Y-12979817D01*
X17246253Y-12979817D02*
X17227206Y-12970293D01*
X17227206Y-12970293D02*
X17217682Y-12951246D01*
X17217682Y-12951246D02*
X17217682Y-12941722D01*
X17217682Y-12941722D02*
X17227206Y-12922674D01*
X17227206Y-12922674D02*
X17246253Y-12913150D01*
X17246253Y-12913150D02*
X17274825Y-12913150D01*
X17274825Y-12913150D02*
X17293873Y-12922674D01*
X17370063Y-13122674D02*
X17379587Y-13113150D01*
X17379587Y-13113150D02*
X17398634Y-13084579D01*
X17398634Y-13084579D02*
X17408158Y-13065531D01*
X17408158Y-13065531D02*
X17417682Y-13036960D01*
X17417682Y-13036960D02*
X17427206Y-12989341D01*
X17427206Y-12989341D02*
X17427206Y-12951246D01*
X17427206Y-12951246D02*
X17417682Y-12903627D01*
X17417682Y-12903627D02*
X17408158Y-12875055D01*
X17408158Y-12875055D02*
X17398634Y-12856008D01*
X17398634Y-12856008D02*
X17379587Y-12827436D01*
X17379587Y-12827436D02*
X17370063Y-12817912D01*
D12*
X12595000Y-13219000D02*
G75*
G03*
X12595000Y-13219000I-50000J0D01*
G01*
D10*
X12960539Y-13310484D02*
X12846253Y-13310484D01*
X12903396Y-13310484D02*
X12903396Y-13110484D01*
X12903396Y-13110484D02*
X12884348Y-13139055D01*
X12884348Y-13139055D02*
X12865301Y-13158103D01*
X12865301Y-13158103D02*
X12846253Y-13167627D01*
X13046253Y-13291436D02*
X13055777Y-13300960D01*
X13055777Y-13300960D02*
X13046253Y-13310484D01*
X13046253Y-13310484D02*
X13036729Y-13300960D01*
X13036729Y-13300960D02*
X13046253Y-13291436D01*
X13046253Y-13291436D02*
X13046253Y-13310484D01*
X13179586Y-13110484D02*
X13198634Y-13110484D01*
X13198634Y-13110484D02*
X13217682Y-13120008D01*
X13217682Y-13120008D02*
X13227205Y-13129531D01*
X13227205Y-13129531D02*
X13236729Y-13148579D01*
X13236729Y-13148579D02*
X13246253Y-13186674D01*
X13246253Y-13186674D02*
X13246253Y-13234293D01*
X13246253Y-13234293D02*
X13236729Y-13272389D01*
X13236729Y-13272389D02*
X13227205Y-13291436D01*
X13227205Y-13291436D02*
X13217682Y-13300960D01*
X13217682Y-13300960D02*
X13198634Y-13310484D01*
X13198634Y-13310484D02*
X13179586Y-13310484D01*
X13179586Y-13310484D02*
X13160539Y-13300960D01*
X13160539Y-13300960D02*
X13151015Y-13291436D01*
X13151015Y-13291436D02*
X13141491Y-13272389D01*
X13141491Y-13272389D02*
X13131967Y-13234293D01*
X13131967Y-13234293D02*
X13131967Y-13186674D01*
X13131967Y-13186674D02*
X13141491Y-13148579D01*
X13141491Y-13148579D02*
X13151015Y-13129531D01*
X13151015Y-13129531D02*
X13160539Y-13120008D01*
X13160539Y-13120008D02*
X13179586Y-13110484D01*
X13370062Y-13110484D02*
X13389110Y-13110484D01*
X13389110Y-13110484D02*
X13408158Y-13120008D01*
X13408158Y-13120008D02*
X13417682Y-13129531D01*
X13417682Y-13129531D02*
X13427205Y-13148579D01*
X13427205Y-13148579D02*
X13436729Y-13186674D01*
X13436729Y-13186674D02*
X13436729Y-13234293D01*
X13436729Y-13234293D02*
X13427205Y-13272389D01*
X13427205Y-13272389D02*
X13417682Y-13291436D01*
X13417682Y-13291436D02*
X13408158Y-13300960D01*
X13408158Y-13300960D02*
X13389110Y-13310484D01*
X13389110Y-13310484D02*
X13370062Y-13310484D01*
X13370062Y-13310484D02*
X13351015Y-13300960D01*
X13351015Y-13300960D02*
X13341491Y-13291436D01*
X13341491Y-13291436D02*
X13331967Y-13272389D01*
X13331967Y-13272389D02*
X13322443Y-13234293D01*
X13322443Y-13234293D02*
X13322443Y-13186674D01*
X13322443Y-13186674D02*
X13331967Y-13148579D01*
X13331967Y-13148579D02*
X13341491Y-13129531D01*
X13341491Y-13129531D02*
X13351015Y-13120008D01*
X13351015Y-13120008D02*
X13370062Y-13110484D01*
X13560539Y-13110484D02*
X13579586Y-13110484D01*
X13579586Y-13110484D02*
X13598634Y-13120008D01*
X13598634Y-13120008D02*
X13608158Y-13129531D01*
X13608158Y-13129531D02*
X13617682Y-13148579D01*
X13617682Y-13148579D02*
X13627205Y-13186674D01*
X13627205Y-13186674D02*
X13627205Y-13234293D01*
X13627205Y-13234293D02*
X13617682Y-13272389D01*
X13617682Y-13272389D02*
X13608158Y-13291436D01*
X13608158Y-13291436D02*
X13598634Y-13300960D01*
X13598634Y-13300960D02*
X13579586Y-13310484D01*
X13579586Y-13310484D02*
X13560539Y-13310484D01*
X13560539Y-13310484D02*
X13541491Y-13300960D01*
X13541491Y-13300960D02*
X13531967Y-13291436D01*
X13531967Y-13291436D02*
X13522443Y-13272389D01*
X13522443Y-13272389D02*
X13512920Y-13234293D01*
X13512920Y-13234293D02*
X13512920Y-13186674D01*
X13512920Y-13186674D02*
X13522443Y-13148579D01*
X13522443Y-13148579D02*
X13531967Y-13129531D01*
X13531967Y-13129531D02*
X13541491Y-13120008D01*
X13541491Y-13120008D02*
X13560539Y-13110484D01*
X13712920Y-13310484D02*
X13712920Y-13177150D01*
X13712920Y-13196198D02*
X13722443Y-13186674D01*
X13722443Y-13186674D02*
X13741491Y-13177150D01*
X13741491Y-13177150D02*
X13770063Y-13177150D01*
X13770063Y-13177150D02*
X13789110Y-13186674D01*
X13789110Y-13186674D02*
X13798634Y-13205722D01*
X13798634Y-13205722D02*
X13798634Y-13310484D01*
X13798634Y-13205722D02*
X13808158Y-13186674D01*
X13808158Y-13186674D02*
X13827205Y-13177150D01*
X13827205Y-13177150D02*
X13855777Y-13177150D01*
X13855777Y-13177150D02*
X13874824Y-13186674D01*
X13874824Y-13186674D02*
X13884348Y-13205722D01*
X13884348Y-13205722D02*
X13884348Y-13310484D01*
X13979586Y-13310484D02*
X13979586Y-13177150D01*
X13979586Y-13196198D02*
X13989110Y-13186674D01*
X13989110Y-13186674D02*
X14008158Y-13177150D01*
X14008158Y-13177150D02*
X14036729Y-13177150D01*
X14036729Y-13177150D02*
X14055777Y-13186674D01*
X14055777Y-13186674D02*
X14065301Y-13205722D01*
X14065301Y-13205722D02*
X14065301Y-13310484D01*
X14065301Y-13205722D02*
X14074824Y-13186674D01*
X14074824Y-13186674D02*
X14093872Y-13177150D01*
X14093872Y-13177150D02*
X14122443Y-13177150D01*
X14122443Y-13177150D02*
X14141491Y-13186674D01*
X14141491Y-13186674D02*
X14151015Y-13205722D01*
X14151015Y-13205722D02*
X14151015Y-13310484D01*
X14541491Y-13100960D02*
X14370063Y-13358103D01*
X14798634Y-13110484D02*
X14817682Y-13110484D01*
X14817682Y-13110484D02*
X14836729Y-13120008D01*
X14836729Y-13120008D02*
X14846253Y-13129531D01*
X14846253Y-13129531D02*
X14855777Y-13148579D01*
X14855777Y-13148579D02*
X14865301Y-13186674D01*
X14865301Y-13186674D02*
X14865301Y-13234293D01*
X14865301Y-13234293D02*
X14855777Y-13272389D01*
X14855777Y-13272389D02*
X14846253Y-13291436D01*
X14846253Y-13291436D02*
X14836729Y-13300960D01*
X14836729Y-13300960D02*
X14817682Y-13310484D01*
X14817682Y-13310484D02*
X14798634Y-13310484D01*
X14798634Y-13310484D02*
X14779586Y-13300960D01*
X14779586Y-13300960D02*
X14770063Y-13291436D01*
X14770063Y-13291436D02*
X14760539Y-13272389D01*
X14760539Y-13272389D02*
X14751015Y-13234293D01*
X14751015Y-13234293D02*
X14751015Y-13186674D01*
X14751015Y-13186674D02*
X14760539Y-13148579D01*
X14760539Y-13148579D02*
X14770063Y-13129531D01*
X14770063Y-13129531D02*
X14779586Y-13120008D01*
X14779586Y-13120008D02*
X14798634Y-13110484D01*
X14951015Y-13291436D02*
X14960539Y-13300960D01*
X14960539Y-13300960D02*
X14951015Y-13310484D01*
X14951015Y-13310484D02*
X14941491Y-13300960D01*
X14941491Y-13300960D02*
X14951015Y-13291436D01*
X14951015Y-13291436D02*
X14951015Y-13310484D01*
X15084348Y-13110484D02*
X15103396Y-13110484D01*
X15103396Y-13110484D02*
X15122444Y-13120008D01*
X15122444Y-13120008D02*
X15131967Y-13129531D01*
X15131967Y-13129531D02*
X15141491Y-13148579D01*
X15141491Y-13148579D02*
X15151015Y-13186674D01*
X15151015Y-13186674D02*
X15151015Y-13234293D01*
X15151015Y-13234293D02*
X15141491Y-13272389D01*
X15141491Y-13272389D02*
X15131967Y-13291436D01*
X15131967Y-13291436D02*
X15122444Y-13300960D01*
X15122444Y-13300960D02*
X15103396Y-13310484D01*
X15103396Y-13310484D02*
X15084348Y-13310484D01*
X15084348Y-13310484D02*
X15065301Y-13300960D01*
X15065301Y-13300960D02*
X15055777Y-13291436D01*
X15055777Y-13291436D02*
X15046253Y-13272389D01*
X15046253Y-13272389D02*
X15036729Y-13234293D01*
X15036729Y-13234293D02*
X15036729Y-13186674D01*
X15036729Y-13186674D02*
X15046253Y-13148579D01*
X15046253Y-13148579D02*
X15055777Y-13129531D01*
X15055777Y-13129531D02*
X15065301Y-13120008D01*
X15065301Y-13120008D02*
X15084348Y-13110484D01*
X15217682Y-13110484D02*
X15341491Y-13110484D01*
X15341491Y-13110484D02*
X15274825Y-13186674D01*
X15274825Y-13186674D02*
X15303396Y-13186674D01*
X15303396Y-13186674D02*
X15322444Y-13196198D01*
X15322444Y-13196198D02*
X15331967Y-13205722D01*
X15331967Y-13205722D02*
X15341491Y-13224770D01*
X15341491Y-13224770D02*
X15341491Y-13272389D01*
X15341491Y-13272389D02*
X15331967Y-13291436D01*
X15331967Y-13291436D02*
X15322444Y-13300960D01*
X15322444Y-13300960D02*
X15303396Y-13310484D01*
X15303396Y-13310484D02*
X15246253Y-13310484D01*
X15246253Y-13310484D02*
X15227206Y-13300960D01*
X15227206Y-13300960D02*
X15217682Y-13291436D01*
X15436729Y-13310484D02*
X15474825Y-13310484D01*
X15474825Y-13310484D02*
X15493872Y-13300960D01*
X15493872Y-13300960D02*
X15503396Y-13291436D01*
X15503396Y-13291436D02*
X15522444Y-13262865D01*
X15522444Y-13262865D02*
X15531967Y-13224770D01*
X15531967Y-13224770D02*
X15531967Y-13148579D01*
X15531967Y-13148579D02*
X15522444Y-13129531D01*
X15522444Y-13129531D02*
X15512920Y-13120008D01*
X15512920Y-13120008D02*
X15493872Y-13110484D01*
X15493872Y-13110484D02*
X15455777Y-13110484D01*
X15455777Y-13110484D02*
X15436729Y-13120008D01*
X15436729Y-13120008D02*
X15427206Y-13129531D01*
X15427206Y-13129531D02*
X15417682Y-13148579D01*
X15417682Y-13148579D02*
X15417682Y-13196198D01*
X15417682Y-13196198D02*
X15427206Y-13215246D01*
X15427206Y-13215246D02*
X15436729Y-13224770D01*
X15436729Y-13224770D02*
X15455777Y-13234293D01*
X15455777Y-13234293D02*
X15493872Y-13234293D01*
X15493872Y-13234293D02*
X15512920Y-13224770D01*
X15512920Y-13224770D02*
X15522444Y-13215246D01*
X15522444Y-13215246D02*
X15531967Y-13196198D01*
X15703396Y-13177150D02*
X15703396Y-13310484D01*
X15655777Y-13100960D02*
X15608158Y-13243817D01*
X15608158Y-13243817D02*
X15731967Y-13243817D01*
X15798634Y-13110484D02*
X15798634Y-13148579D01*
X15874825Y-13110484D02*
X15874825Y-13148579D01*
X16170063Y-13386674D02*
X16160539Y-13377150D01*
X16160539Y-13377150D02*
X16141491Y-13348579D01*
X16141491Y-13348579D02*
X16131968Y-13329531D01*
X16131968Y-13329531D02*
X16122444Y-13300960D01*
X16122444Y-13300960D02*
X16112920Y-13253341D01*
X16112920Y-13253341D02*
X16112920Y-13215246D01*
X16112920Y-13215246D02*
X16122444Y-13167627D01*
X16122444Y-13167627D02*
X16131968Y-13139055D01*
X16131968Y-13139055D02*
X16141491Y-13120008D01*
X16141491Y-13120008D02*
X16160539Y-13091436D01*
X16160539Y-13091436D02*
X16170063Y-13081912D01*
X16236729Y-13129531D02*
X16246253Y-13120008D01*
X16246253Y-13120008D02*
X16265301Y-13110484D01*
X16265301Y-13110484D02*
X16312920Y-13110484D01*
X16312920Y-13110484D02*
X16331968Y-13120008D01*
X16331968Y-13120008D02*
X16341491Y-13129531D01*
X16341491Y-13129531D02*
X16351015Y-13148579D01*
X16351015Y-13148579D02*
X16351015Y-13167627D01*
X16351015Y-13167627D02*
X16341491Y-13196198D01*
X16341491Y-13196198D02*
X16227206Y-13310484D01*
X16227206Y-13310484D02*
X16351015Y-13310484D01*
X16589110Y-13310484D02*
X16589110Y-13110484D01*
X16674825Y-13310484D02*
X16674825Y-13205722D01*
X16674825Y-13205722D02*
X16665301Y-13186674D01*
X16665301Y-13186674D02*
X16646253Y-13177150D01*
X16646253Y-13177150D02*
X16617682Y-13177150D01*
X16617682Y-13177150D02*
X16598634Y-13186674D01*
X16598634Y-13186674D02*
X16589110Y-13196198D01*
X16798634Y-13310484D02*
X16779587Y-13300960D01*
X16779587Y-13300960D02*
X16770063Y-13291436D01*
X16770063Y-13291436D02*
X16760539Y-13272389D01*
X16760539Y-13272389D02*
X16760539Y-13215246D01*
X16760539Y-13215246D02*
X16770063Y-13196198D01*
X16770063Y-13196198D02*
X16779587Y-13186674D01*
X16779587Y-13186674D02*
X16798634Y-13177150D01*
X16798634Y-13177150D02*
X16827206Y-13177150D01*
X16827206Y-13177150D02*
X16846253Y-13186674D01*
X16846253Y-13186674D02*
X16855777Y-13196198D01*
X16855777Y-13196198D02*
X16865301Y-13215246D01*
X16865301Y-13215246D02*
X16865301Y-13272389D01*
X16865301Y-13272389D02*
X16855777Y-13291436D01*
X16855777Y-13291436D02*
X16846253Y-13300960D01*
X16846253Y-13300960D02*
X16827206Y-13310484D01*
X16827206Y-13310484D02*
X16798634Y-13310484D01*
X16979587Y-13310484D02*
X16960539Y-13300960D01*
X16960539Y-13300960D02*
X16951015Y-13281912D01*
X16951015Y-13281912D02*
X16951015Y-13110484D01*
X17131968Y-13300960D02*
X17112920Y-13310484D01*
X17112920Y-13310484D02*
X17074825Y-13310484D01*
X17074825Y-13310484D02*
X17055777Y-13300960D01*
X17055777Y-13300960D02*
X17046253Y-13281912D01*
X17046253Y-13281912D02*
X17046253Y-13205722D01*
X17046253Y-13205722D02*
X17055777Y-13186674D01*
X17055777Y-13186674D02*
X17074825Y-13177150D01*
X17074825Y-13177150D02*
X17112920Y-13177150D01*
X17112920Y-13177150D02*
X17131968Y-13186674D01*
X17131968Y-13186674D02*
X17141492Y-13205722D01*
X17141492Y-13205722D02*
X17141492Y-13224770D01*
X17141492Y-13224770D02*
X17046253Y-13243817D01*
X17217682Y-13300960D02*
X17236730Y-13310484D01*
X17236730Y-13310484D02*
X17274825Y-13310484D01*
X17274825Y-13310484D02*
X17293873Y-13300960D01*
X17293873Y-13300960D02*
X17303396Y-13281912D01*
X17303396Y-13281912D02*
X17303396Y-13272389D01*
X17303396Y-13272389D02*
X17293873Y-13253341D01*
X17293873Y-13253341D02*
X17274825Y-13243817D01*
X17274825Y-13243817D02*
X17246253Y-13243817D01*
X17246253Y-13243817D02*
X17227206Y-13234293D01*
X17227206Y-13234293D02*
X17217682Y-13215246D01*
X17217682Y-13215246D02*
X17217682Y-13205722D01*
X17217682Y-13205722D02*
X17227206Y-13186674D01*
X17227206Y-13186674D02*
X17246253Y-13177150D01*
X17246253Y-13177150D02*
X17274825Y-13177150D01*
X17274825Y-13177150D02*
X17293873Y-13186674D01*
X17370063Y-13386674D02*
X17379587Y-13377150D01*
X17379587Y-13377150D02*
X17398634Y-13348579D01*
X17398634Y-13348579D02*
X17408158Y-13329531D01*
X17408158Y-13329531D02*
X17417682Y-13300960D01*
X17417682Y-13300960D02*
X17427206Y-13253341D01*
X17427206Y-13253341D02*
X17427206Y-13215246D01*
X17427206Y-13215246D02*
X17417682Y-13167627D01*
X17417682Y-13167627D02*
X17408158Y-13139055D01*
X17408158Y-13139055D02*
X17398634Y-13120008D01*
X17398634Y-13120008D02*
X17379587Y-13091436D01*
X17379587Y-13091436D02*
X17370063Y-13081912D01*
X12495000Y-13383000D02*
X12495000Y-13583000D01*
X12395000Y-13483000D02*
X12595000Y-13483000D01*
X12836729Y-13374484D02*
X12960539Y-13374484D01*
X12960539Y-13374484D02*
X12893872Y-13450674D01*
X12893872Y-13450674D02*
X12922443Y-13450674D01*
X12922443Y-13450674D02*
X12941491Y-13460198D01*
X12941491Y-13460198D02*
X12951015Y-13469722D01*
X12951015Y-13469722D02*
X12960539Y-13488770D01*
X12960539Y-13488770D02*
X12960539Y-13536389D01*
X12960539Y-13536389D02*
X12951015Y-13555436D01*
X12951015Y-13555436D02*
X12941491Y-13564960D01*
X12941491Y-13564960D02*
X12922443Y-13574484D01*
X12922443Y-13574484D02*
X12865301Y-13574484D01*
X12865301Y-13574484D02*
X12846253Y-13564960D01*
X12846253Y-13564960D02*
X12836729Y-13555436D01*
X13046253Y-13555436D02*
X13055777Y-13564960D01*
X13055777Y-13564960D02*
X13046253Y-13574484D01*
X13046253Y-13574484D02*
X13036729Y-13564960D01*
X13036729Y-13564960D02*
X13046253Y-13555436D01*
X13046253Y-13555436D02*
X13046253Y-13574484D01*
X13131967Y-13393531D02*
X13141491Y-13384008D01*
X13141491Y-13384008D02*
X13160539Y-13374484D01*
X13160539Y-13374484D02*
X13208158Y-13374484D01*
X13208158Y-13374484D02*
X13227205Y-13384008D01*
X13227205Y-13384008D02*
X13236729Y-13393531D01*
X13236729Y-13393531D02*
X13246253Y-13412579D01*
X13246253Y-13412579D02*
X13246253Y-13431627D01*
X13246253Y-13431627D02*
X13236729Y-13460198D01*
X13236729Y-13460198D02*
X13122443Y-13574484D01*
X13122443Y-13574484D02*
X13246253Y-13574484D01*
X13370062Y-13374484D02*
X13389110Y-13374484D01*
X13389110Y-13374484D02*
X13408158Y-13384008D01*
X13408158Y-13384008D02*
X13417682Y-13393531D01*
X13417682Y-13393531D02*
X13427205Y-13412579D01*
X13427205Y-13412579D02*
X13436729Y-13450674D01*
X13436729Y-13450674D02*
X13436729Y-13498293D01*
X13436729Y-13498293D02*
X13427205Y-13536389D01*
X13427205Y-13536389D02*
X13417682Y-13555436D01*
X13417682Y-13555436D02*
X13408158Y-13564960D01*
X13408158Y-13564960D02*
X13389110Y-13574484D01*
X13389110Y-13574484D02*
X13370062Y-13574484D01*
X13370062Y-13574484D02*
X13351015Y-13564960D01*
X13351015Y-13564960D02*
X13341491Y-13555436D01*
X13341491Y-13555436D02*
X13331967Y-13536389D01*
X13331967Y-13536389D02*
X13322443Y-13498293D01*
X13322443Y-13498293D02*
X13322443Y-13450674D01*
X13322443Y-13450674D02*
X13331967Y-13412579D01*
X13331967Y-13412579D02*
X13341491Y-13393531D01*
X13341491Y-13393531D02*
X13351015Y-13384008D01*
X13351015Y-13384008D02*
X13370062Y-13374484D01*
X13560539Y-13374484D02*
X13579586Y-13374484D01*
X13579586Y-13374484D02*
X13598634Y-13384008D01*
X13598634Y-13384008D02*
X13608158Y-13393531D01*
X13608158Y-13393531D02*
X13617682Y-13412579D01*
X13617682Y-13412579D02*
X13627205Y-13450674D01*
X13627205Y-13450674D02*
X13627205Y-13498293D01*
X13627205Y-13498293D02*
X13617682Y-13536389D01*
X13617682Y-13536389D02*
X13608158Y-13555436D01*
X13608158Y-13555436D02*
X13598634Y-13564960D01*
X13598634Y-13564960D02*
X13579586Y-13574484D01*
X13579586Y-13574484D02*
X13560539Y-13574484D01*
X13560539Y-13574484D02*
X13541491Y-13564960D01*
X13541491Y-13564960D02*
X13531967Y-13555436D01*
X13531967Y-13555436D02*
X13522443Y-13536389D01*
X13522443Y-13536389D02*
X13512920Y-13498293D01*
X13512920Y-13498293D02*
X13512920Y-13450674D01*
X13512920Y-13450674D02*
X13522443Y-13412579D01*
X13522443Y-13412579D02*
X13531967Y-13393531D01*
X13531967Y-13393531D02*
X13541491Y-13384008D01*
X13541491Y-13384008D02*
X13560539Y-13374484D01*
X13712920Y-13574484D02*
X13712920Y-13441150D01*
X13712920Y-13460198D02*
X13722443Y-13450674D01*
X13722443Y-13450674D02*
X13741491Y-13441150D01*
X13741491Y-13441150D02*
X13770063Y-13441150D01*
X13770063Y-13441150D02*
X13789110Y-13450674D01*
X13789110Y-13450674D02*
X13798634Y-13469722D01*
X13798634Y-13469722D02*
X13798634Y-13574484D01*
X13798634Y-13469722D02*
X13808158Y-13450674D01*
X13808158Y-13450674D02*
X13827205Y-13441150D01*
X13827205Y-13441150D02*
X13855777Y-13441150D01*
X13855777Y-13441150D02*
X13874824Y-13450674D01*
X13874824Y-13450674D02*
X13884348Y-13469722D01*
X13884348Y-13469722D02*
X13884348Y-13574484D01*
X13979586Y-13574484D02*
X13979586Y-13441150D01*
X13979586Y-13460198D02*
X13989110Y-13450674D01*
X13989110Y-13450674D02*
X14008158Y-13441150D01*
X14008158Y-13441150D02*
X14036729Y-13441150D01*
X14036729Y-13441150D02*
X14055777Y-13450674D01*
X14055777Y-13450674D02*
X14065301Y-13469722D01*
X14065301Y-13469722D02*
X14065301Y-13574484D01*
X14065301Y-13469722D02*
X14074824Y-13450674D01*
X14074824Y-13450674D02*
X14093872Y-13441150D01*
X14093872Y-13441150D02*
X14122443Y-13441150D01*
X14122443Y-13441150D02*
X14141491Y-13450674D01*
X14141491Y-13450674D02*
X14151015Y-13469722D01*
X14151015Y-13469722D02*
X14151015Y-13574484D01*
X14541491Y-13364960D02*
X14370063Y-13622103D01*
X14798634Y-13374484D02*
X14817682Y-13374484D01*
X14817682Y-13374484D02*
X14836729Y-13384008D01*
X14836729Y-13384008D02*
X14846253Y-13393531D01*
X14846253Y-13393531D02*
X14855777Y-13412579D01*
X14855777Y-13412579D02*
X14865301Y-13450674D01*
X14865301Y-13450674D02*
X14865301Y-13498293D01*
X14865301Y-13498293D02*
X14855777Y-13536389D01*
X14855777Y-13536389D02*
X14846253Y-13555436D01*
X14846253Y-13555436D02*
X14836729Y-13564960D01*
X14836729Y-13564960D02*
X14817682Y-13574484D01*
X14817682Y-13574484D02*
X14798634Y-13574484D01*
X14798634Y-13574484D02*
X14779586Y-13564960D01*
X14779586Y-13564960D02*
X14770063Y-13555436D01*
X14770063Y-13555436D02*
X14760539Y-13536389D01*
X14760539Y-13536389D02*
X14751015Y-13498293D01*
X14751015Y-13498293D02*
X14751015Y-13450674D01*
X14751015Y-13450674D02*
X14760539Y-13412579D01*
X14760539Y-13412579D02*
X14770063Y-13393531D01*
X14770063Y-13393531D02*
X14779586Y-13384008D01*
X14779586Y-13384008D02*
X14798634Y-13374484D01*
X14951015Y-13555436D02*
X14960539Y-13564960D01*
X14960539Y-13564960D02*
X14951015Y-13574484D01*
X14951015Y-13574484D02*
X14941491Y-13564960D01*
X14941491Y-13564960D02*
X14951015Y-13555436D01*
X14951015Y-13555436D02*
X14951015Y-13574484D01*
X15151015Y-13574484D02*
X15036729Y-13574484D01*
X15093872Y-13574484D02*
X15093872Y-13374484D01*
X15093872Y-13374484D02*
X15074825Y-13403055D01*
X15074825Y-13403055D02*
X15055777Y-13422103D01*
X15055777Y-13422103D02*
X15036729Y-13431627D01*
X15227206Y-13393531D02*
X15236729Y-13384008D01*
X15236729Y-13384008D02*
X15255777Y-13374484D01*
X15255777Y-13374484D02*
X15303396Y-13374484D01*
X15303396Y-13374484D02*
X15322444Y-13384008D01*
X15322444Y-13384008D02*
X15331967Y-13393531D01*
X15331967Y-13393531D02*
X15341491Y-13412579D01*
X15341491Y-13412579D02*
X15341491Y-13431627D01*
X15341491Y-13431627D02*
X15331967Y-13460198D01*
X15331967Y-13460198D02*
X15217682Y-13574484D01*
X15217682Y-13574484D02*
X15341491Y-13574484D01*
X15512920Y-13374484D02*
X15474825Y-13374484D01*
X15474825Y-13374484D02*
X15455777Y-13384008D01*
X15455777Y-13384008D02*
X15446253Y-13393531D01*
X15446253Y-13393531D02*
X15427206Y-13422103D01*
X15427206Y-13422103D02*
X15417682Y-13460198D01*
X15417682Y-13460198D02*
X15417682Y-13536389D01*
X15417682Y-13536389D02*
X15427206Y-13555436D01*
X15427206Y-13555436D02*
X15436729Y-13564960D01*
X15436729Y-13564960D02*
X15455777Y-13574484D01*
X15455777Y-13574484D02*
X15493872Y-13574484D01*
X15493872Y-13574484D02*
X15512920Y-13564960D01*
X15512920Y-13564960D02*
X15522444Y-13555436D01*
X15522444Y-13555436D02*
X15531967Y-13536389D01*
X15531967Y-13536389D02*
X15531967Y-13488770D01*
X15531967Y-13488770D02*
X15522444Y-13469722D01*
X15522444Y-13469722D02*
X15512920Y-13460198D01*
X15512920Y-13460198D02*
X15493872Y-13450674D01*
X15493872Y-13450674D02*
X15455777Y-13450674D01*
X15455777Y-13450674D02*
X15436729Y-13460198D01*
X15436729Y-13460198D02*
X15427206Y-13469722D01*
X15427206Y-13469722D02*
X15417682Y-13488770D01*
X15655777Y-13374484D02*
X15674825Y-13374484D01*
X15674825Y-13374484D02*
X15693872Y-13384008D01*
X15693872Y-13384008D02*
X15703396Y-13393531D01*
X15703396Y-13393531D02*
X15712920Y-13412579D01*
X15712920Y-13412579D02*
X15722444Y-13450674D01*
X15722444Y-13450674D02*
X15722444Y-13498293D01*
X15722444Y-13498293D02*
X15712920Y-13536389D01*
X15712920Y-13536389D02*
X15703396Y-13555436D01*
X15703396Y-13555436D02*
X15693872Y-13564960D01*
X15693872Y-13564960D02*
X15674825Y-13574484D01*
X15674825Y-13574484D02*
X15655777Y-13574484D01*
X15655777Y-13574484D02*
X15636729Y-13564960D01*
X15636729Y-13564960D02*
X15627206Y-13555436D01*
X15627206Y-13555436D02*
X15617682Y-13536389D01*
X15617682Y-13536389D02*
X15608158Y-13498293D01*
X15608158Y-13498293D02*
X15608158Y-13450674D01*
X15608158Y-13450674D02*
X15617682Y-13412579D01*
X15617682Y-13412579D02*
X15627206Y-13393531D01*
X15627206Y-13393531D02*
X15636729Y-13384008D01*
X15636729Y-13384008D02*
X15655777Y-13374484D01*
X15798634Y-13374484D02*
X15798634Y-13412579D01*
X15874825Y-13374484D02*
X15874825Y-13412579D01*
X16170063Y-13650674D02*
X16160539Y-13641150D01*
X16160539Y-13641150D02*
X16141491Y-13612579D01*
X16141491Y-13612579D02*
X16131968Y-13593531D01*
X16131968Y-13593531D02*
X16122444Y-13564960D01*
X16122444Y-13564960D02*
X16112920Y-13517341D01*
X16112920Y-13517341D02*
X16112920Y-13479246D01*
X16112920Y-13479246D02*
X16122444Y-13431627D01*
X16122444Y-13431627D02*
X16131968Y-13403055D01*
X16131968Y-13403055D02*
X16141491Y-13384008D01*
X16141491Y-13384008D02*
X16160539Y-13355436D01*
X16160539Y-13355436D02*
X16170063Y-13345912D01*
X16236729Y-13393531D02*
X16246253Y-13384008D01*
X16246253Y-13384008D02*
X16265301Y-13374484D01*
X16265301Y-13374484D02*
X16312920Y-13374484D01*
X16312920Y-13374484D02*
X16331968Y-13384008D01*
X16331968Y-13384008D02*
X16341491Y-13393531D01*
X16341491Y-13393531D02*
X16351015Y-13412579D01*
X16351015Y-13412579D02*
X16351015Y-13431627D01*
X16351015Y-13431627D02*
X16341491Y-13460198D01*
X16341491Y-13460198D02*
X16227206Y-13574484D01*
X16227206Y-13574484D02*
X16351015Y-13574484D01*
X16589110Y-13574484D02*
X16589110Y-13374484D01*
X16674825Y-13574484D02*
X16674825Y-13469722D01*
X16674825Y-13469722D02*
X16665301Y-13450674D01*
X16665301Y-13450674D02*
X16646253Y-13441150D01*
X16646253Y-13441150D02*
X16617682Y-13441150D01*
X16617682Y-13441150D02*
X16598634Y-13450674D01*
X16598634Y-13450674D02*
X16589110Y-13460198D01*
X16798634Y-13574484D02*
X16779587Y-13564960D01*
X16779587Y-13564960D02*
X16770063Y-13555436D01*
X16770063Y-13555436D02*
X16760539Y-13536389D01*
X16760539Y-13536389D02*
X16760539Y-13479246D01*
X16760539Y-13479246D02*
X16770063Y-13460198D01*
X16770063Y-13460198D02*
X16779587Y-13450674D01*
X16779587Y-13450674D02*
X16798634Y-13441150D01*
X16798634Y-13441150D02*
X16827206Y-13441150D01*
X16827206Y-13441150D02*
X16846253Y-13450674D01*
X16846253Y-13450674D02*
X16855777Y-13460198D01*
X16855777Y-13460198D02*
X16865301Y-13479246D01*
X16865301Y-13479246D02*
X16865301Y-13536389D01*
X16865301Y-13536389D02*
X16855777Y-13555436D01*
X16855777Y-13555436D02*
X16846253Y-13564960D01*
X16846253Y-13564960D02*
X16827206Y-13574484D01*
X16827206Y-13574484D02*
X16798634Y-13574484D01*
X16979587Y-13574484D02*
X16960539Y-13564960D01*
X16960539Y-13564960D02*
X16951015Y-13545912D01*
X16951015Y-13545912D02*
X16951015Y-13374484D01*
X17131968Y-13564960D02*
X17112920Y-13574484D01*
X17112920Y-13574484D02*
X17074825Y-13574484D01*
X17074825Y-13574484D02*
X17055777Y-13564960D01*
X17055777Y-13564960D02*
X17046253Y-13545912D01*
X17046253Y-13545912D02*
X17046253Y-13469722D01*
X17046253Y-13469722D02*
X17055777Y-13450674D01*
X17055777Y-13450674D02*
X17074825Y-13441150D01*
X17074825Y-13441150D02*
X17112920Y-13441150D01*
X17112920Y-13441150D02*
X17131968Y-13450674D01*
X17131968Y-13450674D02*
X17141492Y-13469722D01*
X17141492Y-13469722D02*
X17141492Y-13488770D01*
X17141492Y-13488770D02*
X17046253Y-13507817D01*
X17217682Y-13564960D02*
X17236730Y-13574484D01*
X17236730Y-13574484D02*
X17274825Y-13574484D01*
X17274825Y-13574484D02*
X17293873Y-13564960D01*
X17293873Y-13564960D02*
X17303396Y-13545912D01*
X17303396Y-13545912D02*
X17303396Y-13536389D01*
X17303396Y-13536389D02*
X17293873Y-13517341D01*
X17293873Y-13517341D02*
X17274825Y-13507817D01*
X17274825Y-13507817D02*
X17246253Y-13507817D01*
X17246253Y-13507817D02*
X17227206Y-13498293D01*
X17227206Y-13498293D02*
X17217682Y-13479246D01*
X17217682Y-13479246D02*
X17217682Y-13469722D01*
X17217682Y-13469722D02*
X17227206Y-13450674D01*
X17227206Y-13450674D02*
X17246253Y-13441150D01*
X17246253Y-13441150D02*
X17274825Y-13441150D01*
X17274825Y-13441150D02*
X17293873Y-13450674D01*
X17370063Y-13650674D02*
X17379587Y-13641150D01*
X17379587Y-13641150D02*
X17398634Y-13612579D01*
X17398634Y-13612579D02*
X17408158Y-13593531D01*
X17408158Y-13593531D02*
X17417682Y-13564960D01*
X17417682Y-13564960D02*
X17427206Y-13517341D01*
X17427206Y-13517341D02*
X17427206Y-13479246D01*
X17427206Y-13479246D02*
X17417682Y-13431627D01*
X17417682Y-13431627D02*
X17408158Y-13403055D01*
X17408158Y-13403055D02*
X17398634Y-13384008D01*
X17398634Y-13384008D02*
X17379587Y-13355436D01*
X17379587Y-13355436D02*
X17370063Y-13345912D01*
X12565711Y-13873711D02*
X12565711Y-13732289D01*
X12424289Y-13732289D01*
X12424289Y-13873711D01*
X12565711Y-13873711D01*
X12836729Y-13694484D02*
X12960539Y-13694484D01*
X12960539Y-13694484D02*
X12893872Y-13770674D01*
X12893872Y-13770674D02*
X12922443Y-13770674D01*
X12922443Y-13770674D02*
X12941491Y-13780198D01*
X12941491Y-13780198D02*
X12951015Y-13789722D01*
X12951015Y-13789722D02*
X12960539Y-13808770D01*
X12960539Y-13808770D02*
X12960539Y-13856389D01*
X12960539Y-13856389D02*
X12951015Y-13875436D01*
X12951015Y-13875436D02*
X12941491Y-13884960D01*
X12941491Y-13884960D02*
X12922443Y-13894484D01*
X12922443Y-13894484D02*
X12865301Y-13894484D01*
X12865301Y-13894484D02*
X12846253Y-13884960D01*
X12846253Y-13884960D02*
X12836729Y-13875436D01*
X13046253Y-13875436D02*
X13055777Y-13884960D01*
X13055777Y-13884960D02*
X13046253Y-13894484D01*
X13046253Y-13894484D02*
X13036729Y-13884960D01*
X13036729Y-13884960D02*
X13046253Y-13875436D01*
X13046253Y-13875436D02*
X13046253Y-13894484D01*
X13170062Y-13780198D02*
X13151015Y-13770674D01*
X13151015Y-13770674D02*
X13141491Y-13761150D01*
X13141491Y-13761150D02*
X13131967Y-13742103D01*
X13131967Y-13742103D02*
X13131967Y-13732579D01*
X13131967Y-13732579D02*
X13141491Y-13713531D01*
X13141491Y-13713531D02*
X13151015Y-13704008D01*
X13151015Y-13704008D02*
X13170062Y-13694484D01*
X13170062Y-13694484D02*
X13208158Y-13694484D01*
X13208158Y-13694484D02*
X13227205Y-13704008D01*
X13227205Y-13704008D02*
X13236729Y-13713531D01*
X13236729Y-13713531D02*
X13246253Y-13732579D01*
X13246253Y-13732579D02*
X13246253Y-13742103D01*
X13246253Y-13742103D02*
X13236729Y-13761150D01*
X13236729Y-13761150D02*
X13227205Y-13770674D01*
X13227205Y-13770674D02*
X13208158Y-13780198D01*
X13208158Y-13780198D02*
X13170062Y-13780198D01*
X13170062Y-13780198D02*
X13151015Y-13789722D01*
X13151015Y-13789722D02*
X13141491Y-13799246D01*
X13141491Y-13799246D02*
X13131967Y-13818293D01*
X13131967Y-13818293D02*
X13131967Y-13856389D01*
X13131967Y-13856389D02*
X13141491Y-13875436D01*
X13141491Y-13875436D02*
X13151015Y-13884960D01*
X13151015Y-13884960D02*
X13170062Y-13894484D01*
X13170062Y-13894484D02*
X13208158Y-13894484D01*
X13208158Y-13894484D02*
X13227205Y-13884960D01*
X13227205Y-13884960D02*
X13236729Y-13875436D01*
X13236729Y-13875436D02*
X13246253Y-13856389D01*
X13246253Y-13856389D02*
X13246253Y-13818293D01*
X13246253Y-13818293D02*
X13236729Y-13799246D01*
X13236729Y-13799246D02*
X13227205Y-13789722D01*
X13227205Y-13789722D02*
X13208158Y-13780198D01*
X13370062Y-13694484D02*
X13389110Y-13694484D01*
X13389110Y-13694484D02*
X13408158Y-13704008D01*
X13408158Y-13704008D02*
X13417682Y-13713531D01*
X13417682Y-13713531D02*
X13427205Y-13732579D01*
X13427205Y-13732579D02*
X13436729Y-13770674D01*
X13436729Y-13770674D02*
X13436729Y-13818293D01*
X13436729Y-13818293D02*
X13427205Y-13856389D01*
X13427205Y-13856389D02*
X13417682Y-13875436D01*
X13417682Y-13875436D02*
X13408158Y-13884960D01*
X13408158Y-13884960D02*
X13389110Y-13894484D01*
X13389110Y-13894484D02*
X13370062Y-13894484D01*
X13370062Y-13894484D02*
X13351015Y-13884960D01*
X13351015Y-13884960D02*
X13341491Y-13875436D01*
X13341491Y-13875436D02*
X13331967Y-13856389D01*
X13331967Y-13856389D02*
X13322443Y-13818293D01*
X13322443Y-13818293D02*
X13322443Y-13770674D01*
X13322443Y-13770674D02*
X13331967Y-13732579D01*
X13331967Y-13732579D02*
X13341491Y-13713531D01*
X13341491Y-13713531D02*
X13351015Y-13704008D01*
X13351015Y-13704008D02*
X13370062Y-13694484D01*
X13560539Y-13694484D02*
X13579586Y-13694484D01*
X13579586Y-13694484D02*
X13598634Y-13704008D01*
X13598634Y-13704008D02*
X13608158Y-13713531D01*
X13608158Y-13713531D02*
X13617682Y-13732579D01*
X13617682Y-13732579D02*
X13627205Y-13770674D01*
X13627205Y-13770674D02*
X13627205Y-13818293D01*
X13627205Y-13818293D02*
X13617682Y-13856389D01*
X13617682Y-13856389D02*
X13608158Y-13875436D01*
X13608158Y-13875436D02*
X13598634Y-13884960D01*
X13598634Y-13884960D02*
X13579586Y-13894484D01*
X13579586Y-13894484D02*
X13560539Y-13894484D01*
X13560539Y-13894484D02*
X13541491Y-13884960D01*
X13541491Y-13884960D02*
X13531967Y-13875436D01*
X13531967Y-13875436D02*
X13522443Y-13856389D01*
X13522443Y-13856389D02*
X13512920Y-13818293D01*
X13512920Y-13818293D02*
X13512920Y-13770674D01*
X13512920Y-13770674D02*
X13522443Y-13732579D01*
X13522443Y-13732579D02*
X13531967Y-13713531D01*
X13531967Y-13713531D02*
X13541491Y-13704008D01*
X13541491Y-13704008D02*
X13560539Y-13694484D01*
X13712920Y-13894484D02*
X13712920Y-13761150D01*
X13712920Y-13780198D02*
X13722443Y-13770674D01*
X13722443Y-13770674D02*
X13741491Y-13761150D01*
X13741491Y-13761150D02*
X13770063Y-13761150D01*
X13770063Y-13761150D02*
X13789110Y-13770674D01*
X13789110Y-13770674D02*
X13798634Y-13789722D01*
X13798634Y-13789722D02*
X13798634Y-13894484D01*
X13798634Y-13789722D02*
X13808158Y-13770674D01*
X13808158Y-13770674D02*
X13827205Y-13761150D01*
X13827205Y-13761150D02*
X13855777Y-13761150D01*
X13855777Y-13761150D02*
X13874824Y-13770674D01*
X13874824Y-13770674D02*
X13884348Y-13789722D01*
X13884348Y-13789722D02*
X13884348Y-13894484D01*
X13979586Y-13894484D02*
X13979586Y-13761150D01*
X13979586Y-13780198D02*
X13989110Y-13770674D01*
X13989110Y-13770674D02*
X14008158Y-13761150D01*
X14008158Y-13761150D02*
X14036729Y-13761150D01*
X14036729Y-13761150D02*
X14055777Y-13770674D01*
X14055777Y-13770674D02*
X14065301Y-13789722D01*
X14065301Y-13789722D02*
X14065301Y-13894484D01*
X14065301Y-13789722D02*
X14074824Y-13770674D01*
X14074824Y-13770674D02*
X14093872Y-13761150D01*
X14093872Y-13761150D02*
X14122443Y-13761150D01*
X14122443Y-13761150D02*
X14141491Y-13770674D01*
X14141491Y-13770674D02*
X14151015Y-13789722D01*
X14151015Y-13789722D02*
X14151015Y-13894484D01*
X14541491Y-13684960D02*
X14370063Y-13942103D01*
X14798634Y-13694484D02*
X14817682Y-13694484D01*
X14817682Y-13694484D02*
X14836729Y-13704008D01*
X14836729Y-13704008D02*
X14846253Y-13713531D01*
X14846253Y-13713531D02*
X14855777Y-13732579D01*
X14855777Y-13732579D02*
X14865301Y-13770674D01*
X14865301Y-13770674D02*
X14865301Y-13818293D01*
X14865301Y-13818293D02*
X14855777Y-13856389D01*
X14855777Y-13856389D02*
X14846253Y-13875436D01*
X14846253Y-13875436D02*
X14836729Y-13884960D01*
X14836729Y-13884960D02*
X14817682Y-13894484D01*
X14817682Y-13894484D02*
X14798634Y-13894484D01*
X14798634Y-13894484D02*
X14779586Y-13884960D01*
X14779586Y-13884960D02*
X14770063Y-13875436D01*
X14770063Y-13875436D02*
X14760539Y-13856389D01*
X14760539Y-13856389D02*
X14751015Y-13818293D01*
X14751015Y-13818293D02*
X14751015Y-13770674D01*
X14751015Y-13770674D02*
X14760539Y-13732579D01*
X14760539Y-13732579D02*
X14770063Y-13713531D01*
X14770063Y-13713531D02*
X14779586Y-13704008D01*
X14779586Y-13704008D02*
X14798634Y-13694484D01*
X14951015Y-13875436D02*
X14960539Y-13884960D01*
X14960539Y-13884960D02*
X14951015Y-13894484D01*
X14951015Y-13894484D02*
X14941491Y-13884960D01*
X14941491Y-13884960D02*
X14951015Y-13875436D01*
X14951015Y-13875436D02*
X14951015Y-13894484D01*
X15151015Y-13894484D02*
X15036729Y-13894484D01*
X15093872Y-13894484D02*
X15093872Y-13694484D01*
X15093872Y-13694484D02*
X15074825Y-13723055D01*
X15074825Y-13723055D02*
X15055777Y-13742103D01*
X15055777Y-13742103D02*
X15036729Y-13751627D01*
X15322444Y-13761150D02*
X15322444Y-13894484D01*
X15274825Y-13684960D02*
X15227206Y-13827817D01*
X15227206Y-13827817D02*
X15351015Y-13827817D01*
X15436729Y-13894484D02*
X15474825Y-13894484D01*
X15474825Y-13894484D02*
X15493872Y-13884960D01*
X15493872Y-13884960D02*
X15503396Y-13875436D01*
X15503396Y-13875436D02*
X15522444Y-13846865D01*
X15522444Y-13846865D02*
X15531967Y-13808770D01*
X15531967Y-13808770D02*
X15531967Y-13732579D01*
X15531967Y-13732579D02*
X15522444Y-13713531D01*
X15522444Y-13713531D02*
X15512920Y-13704008D01*
X15512920Y-13704008D02*
X15493872Y-13694484D01*
X15493872Y-13694484D02*
X15455777Y-13694484D01*
X15455777Y-13694484D02*
X15436729Y-13704008D01*
X15436729Y-13704008D02*
X15427206Y-13713531D01*
X15427206Y-13713531D02*
X15417682Y-13732579D01*
X15417682Y-13732579D02*
X15417682Y-13780198D01*
X15417682Y-13780198D02*
X15427206Y-13799246D01*
X15427206Y-13799246D02*
X15436729Y-13808770D01*
X15436729Y-13808770D02*
X15455777Y-13818293D01*
X15455777Y-13818293D02*
X15493872Y-13818293D01*
X15493872Y-13818293D02*
X15512920Y-13808770D01*
X15512920Y-13808770D02*
X15522444Y-13799246D01*
X15522444Y-13799246D02*
X15531967Y-13780198D01*
X15703396Y-13694484D02*
X15665301Y-13694484D01*
X15665301Y-13694484D02*
X15646253Y-13704008D01*
X15646253Y-13704008D02*
X15636729Y-13713531D01*
X15636729Y-13713531D02*
X15617682Y-13742103D01*
X15617682Y-13742103D02*
X15608158Y-13780198D01*
X15608158Y-13780198D02*
X15608158Y-13856389D01*
X15608158Y-13856389D02*
X15617682Y-13875436D01*
X15617682Y-13875436D02*
X15627206Y-13884960D01*
X15627206Y-13884960D02*
X15646253Y-13894484D01*
X15646253Y-13894484D02*
X15684348Y-13894484D01*
X15684348Y-13894484D02*
X15703396Y-13884960D01*
X15703396Y-13884960D02*
X15712920Y-13875436D01*
X15712920Y-13875436D02*
X15722444Y-13856389D01*
X15722444Y-13856389D02*
X15722444Y-13808770D01*
X15722444Y-13808770D02*
X15712920Y-13789722D01*
X15712920Y-13789722D02*
X15703396Y-13780198D01*
X15703396Y-13780198D02*
X15684348Y-13770674D01*
X15684348Y-13770674D02*
X15646253Y-13770674D01*
X15646253Y-13770674D02*
X15627206Y-13780198D01*
X15627206Y-13780198D02*
X15617682Y-13789722D01*
X15617682Y-13789722D02*
X15608158Y-13808770D01*
X15798634Y-13694484D02*
X15798634Y-13732579D01*
X15874825Y-13694484D02*
X15874825Y-13732579D01*
X16170063Y-13970674D02*
X16160539Y-13961150D01*
X16160539Y-13961150D02*
X16141491Y-13932579D01*
X16141491Y-13932579D02*
X16131968Y-13913531D01*
X16131968Y-13913531D02*
X16122444Y-13884960D01*
X16122444Y-13884960D02*
X16112920Y-13837341D01*
X16112920Y-13837341D02*
X16112920Y-13799246D01*
X16112920Y-13799246D02*
X16122444Y-13751627D01*
X16122444Y-13751627D02*
X16131968Y-13723055D01*
X16131968Y-13723055D02*
X16141491Y-13704008D01*
X16141491Y-13704008D02*
X16160539Y-13675436D01*
X16160539Y-13675436D02*
X16170063Y-13665912D01*
X16236729Y-13713531D02*
X16246253Y-13704008D01*
X16246253Y-13704008D02*
X16265301Y-13694484D01*
X16265301Y-13694484D02*
X16312920Y-13694484D01*
X16312920Y-13694484D02*
X16331968Y-13704008D01*
X16331968Y-13704008D02*
X16341491Y-13713531D01*
X16341491Y-13713531D02*
X16351015Y-13732579D01*
X16351015Y-13732579D02*
X16351015Y-13751627D01*
X16351015Y-13751627D02*
X16341491Y-13780198D01*
X16341491Y-13780198D02*
X16227206Y-13894484D01*
X16227206Y-13894484D02*
X16351015Y-13894484D01*
X16589110Y-13894484D02*
X16589110Y-13694484D01*
X16674825Y-13894484D02*
X16674825Y-13789722D01*
X16674825Y-13789722D02*
X16665301Y-13770674D01*
X16665301Y-13770674D02*
X16646253Y-13761150D01*
X16646253Y-13761150D02*
X16617682Y-13761150D01*
X16617682Y-13761150D02*
X16598634Y-13770674D01*
X16598634Y-13770674D02*
X16589110Y-13780198D01*
X16798634Y-13894484D02*
X16779587Y-13884960D01*
X16779587Y-13884960D02*
X16770063Y-13875436D01*
X16770063Y-13875436D02*
X16760539Y-13856389D01*
X16760539Y-13856389D02*
X16760539Y-13799246D01*
X16760539Y-13799246D02*
X16770063Y-13780198D01*
X16770063Y-13780198D02*
X16779587Y-13770674D01*
X16779587Y-13770674D02*
X16798634Y-13761150D01*
X16798634Y-13761150D02*
X16827206Y-13761150D01*
X16827206Y-13761150D02*
X16846253Y-13770674D01*
X16846253Y-13770674D02*
X16855777Y-13780198D01*
X16855777Y-13780198D02*
X16865301Y-13799246D01*
X16865301Y-13799246D02*
X16865301Y-13856389D01*
X16865301Y-13856389D02*
X16855777Y-13875436D01*
X16855777Y-13875436D02*
X16846253Y-13884960D01*
X16846253Y-13884960D02*
X16827206Y-13894484D01*
X16827206Y-13894484D02*
X16798634Y-13894484D01*
X16979587Y-13894484D02*
X16960539Y-13884960D01*
X16960539Y-13884960D02*
X16951015Y-13865912D01*
X16951015Y-13865912D02*
X16951015Y-13694484D01*
X17131968Y-13884960D02*
X17112920Y-13894484D01*
X17112920Y-13894484D02*
X17074825Y-13894484D01*
X17074825Y-13894484D02*
X17055777Y-13884960D01*
X17055777Y-13884960D02*
X17046253Y-13865912D01*
X17046253Y-13865912D02*
X17046253Y-13789722D01*
X17046253Y-13789722D02*
X17055777Y-13770674D01*
X17055777Y-13770674D02*
X17074825Y-13761150D01*
X17074825Y-13761150D02*
X17112920Y-13761150D01*
X17112920Y-13761150D02*
X17131968Y-13770674D01*
X17131968Y-13770674D02*
X17141492Y-13789722D01*
X17141492Y-13789722D02*
X17141492Y-13808770D01*
X17141492Y-13808770D02*
X17046253Y-13827817D01*
X17217682Y-13884960D02*
X17236730Y-13894484D01*
X17236730Y-13894484D02*
X17274825Y-13894484D01*
X17274825Y-13894484D02*
X17293873Y-13884960D01*
X17293873Y-13884960D02*
X17303396Y-13865912D01*
X17303396Y-13865912D02*
X17303396Y-13856389D01*
X17303396Y-13856389D02*
X17293873Y-13837341D01*
X17293873Y-13837341D02*
X17274825Y-13827817D01*
X17274825Y-13827817D02*
X17246253Y-13827817D01*
X17246253Y-13827817D02*
X17227206Y-13818293D01*
X17227206Y-13818293D02*
X17217682Y-13799246D01*
X17217682Y-13799246D02*
X17217682Y-13789722D01*
X17217682Y-13789722D02*
X17227206Y-13770674D01*
X17227206Y-13770674D02*
X17246253Y-13761150D01*
X17246253Y-13761150D02*
X17274825Y-13761150D01*
X17274825Y-13761150D02*
X17293873Y-13770674D01*
X17370063Y-13970674D02*
X17379587Y-13961150D01*
X17379587Y-13961150D02*
X17398634Y-13932579D01*
X17398634Y-13932579D02*
X17408158Y-13913531D01*
X17408158Y-13913531D02*
X17417682Y-13884960D01*
X17417682Y-13884960D02*
X17427206Y-13837341D01*
X17427206Y-13837341D02*
X17427206Y-13799246D01*
X17427206Y-13799246D02*
X17417682Y-13751627D01*
X17417682Y-13751627D02*
X17408158Y-13723055D01*
X17408158Y-13723055D02*
X17398634Y-13704008D01*
X17398634Y-13704008D02*
X17379587Y-13675436D01*
X17379587Y-13675436D02*
X17370063Y-13665912D01*
M02*
