G04 #@! TF.GenerationSoftware,KiCad,Pcbnew,7.0.7*
G04 #@! TF.CreationDate,2023-12-27T16:52:26+01:00*
G04 #@! TF.ProjectId,Roborock-CPAP,526f626f-726f-4636-9b2d-435041502e6b,rev?*
G04 #@! TF.SameCoordinates,Original*
G04 #@! TF.FileFunction,Legend,Bot*
G04 #@! TF.FilePolarity,Positive*
%FSLAX46Y46*%
G04 Gerber Fmt 4.6, Leading zero omitted, Abs format (unit mm)*
G04 Created by KiCad (PCBNEW 7.0.7) date 2023-12-27 16:52:26*
%MOMM*%
%LPD*%
G01*
G04 APERTURE LIST*
G04 Aperture macros list*
%AMRoundRect*
0 Rectangle with rounded corners*
0 $1 Rounding radius*
0 $2 $3 $4 $5 $6 $7 $8 $9 X,Y pos of 4 corners*
0 Add a 4 corners polygon primitive as box body*
4,1,4,$2,$3,$4,$5,$6,$7,$8,$9,$2,$3,0*
0 Add four circle primitives for the rounded corners*
1,1,$1+$1,$2,$3*
1,1,$1+$1,$4,$5*
1,1,$1+$1,$6,$7*
1,1,$1+$1,$8,$9*
0 Add four rect primitives between the rounded corners*
20,1,$1+$1,$2,$3,$4,$5,0*
20,1,$1+$1,$4,$5,$6,$7,0*
20,1,$1+$1,$6,$7,$8,$9,0*
20,1,$1+$1,$8,$9,$2,$3,0*%
G04 Aperture macros list end*
%ADD10C,0.150000*%
%ADD11C,3.600000*%
%ADD12RoundRect,0.250000X0.725000X-0.600000X0.725000X0.600000X-0.725000X0.600000X-0.725000X-0.600000X0*%
%ADD13O,1.950000X1.700000*%
%ADD14RoundRect,0.250000X-0.600000X-0.725000X0.600000X-0.725000X0.600000X0.725000X-0.600000X0.725000X0*%
%ADD15O,1.700000X1.950000*%
%ADD16RoundRect,0.250000X0.600000X0.750000X-0.600000X0.750000X-0.600000X-0.750000X0.600000X-0.750000X0*%
%ADD17O,1.700000X2.000000*%
G04 APERTURE END LIST*
D10*
X152192857Y-73095180D02*
X152526190Y-72095180D01*
X152526190Y-72095180D02*
X152859523Y-73095180D01*
X155240476Y-73047561D02*
X155145238Y-73095180D01*
X155145238Y-73095180D02*
X155002381Y-73095180D01*
X155002381Y-73095180D02*
X154859524Y-73047561D01*
X154859524Y-73047561D02*
X154764286Y-72952323D01*
X154764286Y-72952323D02*
X154716667Y-72857085D01*
X154716667Y-72857085D02*
X154669048Y-72666609D01*
X154669048Y-72666609D02*
X154669048Y-72523752D01*
X154669048Y-72523752D02*
X154716667Y-72333276D01*
X154716667Y-72333276D02*
X154764286Y-72238038D01*
X154764286Y-72238038D02*
X154859524Y-72142800D01*
X154859524Y-72142800D02*
X155002381Y-72095180D01*
X155002381Y-72095180D02*
X155097619Y-72095180D01*
X155097619Y-72095180D02*
X155240476Y-72142800D01*
X155240476Y-72142800D02*
X155288095Y-72190419D01*
X155288095Y-72190419D02*
X155288095Y-72523752D01*
X155288095Y-72523752D02*
X155097619Y-72523752D01*
X157240477Y-72095180D02*
X157240477Y-73095180D01*
X157240477Y-73095180D02*
X157621429Y-73095180D01*
X157621429Y-73095180D02*
X157716667Y-73047561D01*
X157716667Y-73047561D02*
X157764286Y-72999942D01*
X157764286Y-72999942D02*
X157811905Y-72904704D01*
X157811905Y-72904704D02*
X157811905Y-72761847D01*
X157811905Y-72761847D02*
X157764286Y-72666609D01*
X157764286Y-72666609D02*
X157716667Y-72618990D01*
X157716667Y-72618990D02*
X157621429Y-72571371D01*
X157621429Y-72571371D02*
X157240477Y-72571371D01*
X179595180Y-97707142D02*
X178595180Y-97373809D01*
X178595180Y-97373809D02*
X179595180Y-97040476D01*
X179547561Y-94659523D02*
X179595180Y-94754761D01*
X179595180Y-94754761D02*
X179595180Y-94897618D01*
X179595180Y-94897618D02*
X179547561Y-95040475D01*
X179547561Y-95040475D02*
X179452323Y-95135713D01*
X179452323Y-95135713D02*
X179357085Y-95183332D01*
X179357085Y-95183332D02*
X179166609Y-95230951D01*
X179166609Y-95230951D02*
X179023752Y-95230951D01*
X179023752Y-95230951D02*
X178833276Y-95183332D01*
X178833276Y-95183332D02*
X178738038Y-95135713D01*
X178738038Y-95135713D02*
X178642800Y-95040475D01*
X178642800Y-95040475D02*
X178595180Y-94897618D01*
X178595180Y-94897618D02*
X178595180Y-94802380D01*
X178595180Y-94802380D02*
X178642800Y-94659523D01*
X178642800Y-94659523D02*
X178690419Y-94611904D01*
X178690419Y-94611904D02*
X179023752Y-94611904D01*
X179023752Y-94611904D02*
X179023752Y-94802380D01*
X178595180Y-92659522D02*
X179595180Y-92659522D01*
X179595180Y-92659522D02*
X179595180Y-92278570D01*
X179595180Y-92278570D02*
X179547561Y-92183332D01*
X179547561Y-92183332D02*
X179499942Y-92135713D01*
X179499942Y-92135713D02*
X179404704Y-92088094D01*
X179404704Y-92088094D02*
X179261847Y-92088094D01*
X179261847Y-92088094D02*
X179166609Y-92135713D01*
X179166609Y-92135713D02*
X179118990Y-92183332D01*
X179118990Y-92183332D02*
X179071371Y-92278570D01*
X179071371Y-92278570D02*
X179071371Y-92659522D01*
X155978571Y-116752438D02*
X156073809Y-116704819D01*
X156073809Y-116704819D02*
X156216666Y-116704819D01*
X156216666Y-116704819D02*
X156359523Y-116752438D01*
X156359523Y-116752438D02*
X156454761Y-116847676D01*
X156454761Y-116847676D02*
X156502380Y-116942914D01*
X156502380Y-116942914D02*
X156549999Y-117133390D01*
X156549999Y-117133390D02*
X156549999Y-117276247D01*
X156549999Y-117276247D02*
X156502380Y-117466723D01*
X156502380Y-117466723D02*
X156454761Y-117561961D01*
X156454761Y-117561961D02*
X156359523Y-117657200D01*
X156359523Y-117657200D02*
X156216666Y-117704819D01*
X156216666Y-117704819D02*
X156121428Y-117704819D01*
X156121428Y-117704819D02*
X155978571Y-117657200D01*
X155978571Y-117657200D02*
X155930952Y-117609580D01*
X155930952Y-117609580D02*
X155930952Y-117276247D01*
X155930952Y-117276247D02*
X156121428Y-117276247D01*
X154121427Y-116704819D02*
X153788094Y-117704819D01*
X153788094Y-117704819D02*
X153454761Y-116704819D01*
%LPC*%
D11*
X132836798Y-116263203D03*
D12*
X177250000Y-96950000D03*
D13*
X177250000Y-94450000D03*
X177250000Y-91950000D03*
D14*
X152500000Y-70525000D03*
D15*
X155000000Y-70525000D03*
X157500000Y-70525000D03*
D11*
X175263204Y-73836797D03*
D16*
X156300000Y-119275000D03*
D17*
X153800000Y-119275000D03*
%LPD*%
M02*
