%TF.GenerationSoftware,KiCad,Pcbnew,7.0.8*%
%TF.CreationDate,2024-01-11T14:36:18+01:00*%
%TF.ProjectId,Roborock-CPAP,526f626f-726f-4636-9b2d-435041502e6b,rev?*%
%TF.SameCoordinates,Original*%
%TF.FileFunction,Copper,L2,Bot*%
%TF.FilePolarity,Positive*%
%FSLAX46Y46*%
G04 Gerber Fmt 4.6, Leading zero omitted, Abs format (unit mm)*
G04 Created by KiCad (PCBNEW 7.0.8) date 2024-01-11 14:36:18*
%MOMM*%
%LPD*%
G01*
G04 APERTURE LIST*
G04 Aperture macros list*
%AMRoundRect*
0 Rectangle with rounded corners*
0 $1 Rounding radius*
0 $2 $3 $4 $5 $6 $7 $8 $9 X,Y pos of 4 corners*
0 Add a 4 corners polygon primitive as box body*
4,1,4,$2,$3,$4,$5,$6,$7,$8,$9,$2,$3,0*
0 Add four circle primitives for the rounded corners*
1,1,$1+$1,$2,$3*
1,1,$1+$1,$4,$5*
1,1,$1+$1,$6,$7*
1,1,$1+$1,$8,$9*
0 Add four rect primitives between the rounded corners*
20,1,$1+$1,$2,$3,$4,$5,0*
20,1,$1+$1,$4,$5,$6,$7,0*
20,1,$1+$1,$6,$7,$8,$9,0*
20,1,$1+$1,$8,$9,$2,$3,0*%
G04 Aperture macros list end*
%TA.AperFunction,ComponentPad*%
%ADD10C,3.600000*%
%TD*%
%TA.AperFunction,ComponentPad*%
%ADD11RoundRect,0.250000X0.725000X-0.600000X0.725000X0.600000X-0.725000X0.600000X-0.725000X-0.600000X0*%
%TD*%
%TA.AperFunction,ComponentPad*%
%ADD12O,1.950000X1.700000*%
%TD*%
%TA.AperFunction,ComponentPad*%
%ADD13RoundRect,0.250000X-0.600000X-0.725000X0.600000X-0.725000X0.600000X0.725000X-0.600000X0.725000X0*%
%TD*%
%TA.AperFunction,ComponentPad*%
%ADD14O,1.700000X1.950000*%
%TD*%
%TA.AperFunction,ComponentPad*%
%ADD15RoundRect,0.250000X0.600000X0.750000X-0.600000X0.750000X-0.600000X-0.750000X0.600000X-0.750000X0*%
%TD*%
%TA.AperFunction,ComponentPad*%
%ADD16O,1.700000X2.000000*%
%TD*%
%TA.AperFunction,ComponentPad*%
%ADD17C,4.250000*%
%TD*%
G04 APERTURE END LIST*
D10*
%TO.P,H2,2,1*%
%TO.N,GND*%
X132836798Y-116263203D03*
%TD*%
D11*
%TO.P,J2,1,Pin_1*%
%TO.N,VCC_FUSED*%
X177250000Y-96950000D03*
D12*
%TO.P,J2,2,Pin_2*%
%TO.N,GND*%
X177250000Y-94450000D03*
%TO.P,J2,3,Pin_3*%
%TO.N,PWM_OUT*%
X177250000Y-91950000D03*
%TD*%
D13*
%TO.P,J1,1,Pin_1*%
%TO.N,VCC*%
X152500000Y-70525000D03*
D14*
%TO.P,J1,2,Pin_2*%
%TO.N,GND*%
X155000000Y-70525000D03*
%TO.P,J1,3,Pin_3*%
%TO.N,PWM_IN*%
X157500000Y-70525000D03*
%TD*%
D10*
%TO.P,H1,1,1*%
%TO.N,GND*%
X175263204Y-73836797D03*
%TD*%
D15*
%TO.P,J3,1,Pin_1*%
%TO.N,VCC_FUSED*%
X156300000Y-119275000D03*
D16*
%TO.P,J3,2,Pin_2*%
%TO.N,GND*%
X153800000Y-119275000D03*
%TD*%
D17*
%TO.P,FAN1,HOLE1*%
%TO.N,N/C*%
X138150000Y-79100000D03*
%TO.P,FAN1,HOLE3*%
X170150000Y-111100000D03*
%TD*%
%TA.AperFunction,Conductor*%
%TO.N,GND*%
G36*
X153909571Y-67053598D02*
G01*
X154272317Y-67055804D01*
X154833673Y-67063300D01*
X154856506Y-67063870D01*
X154878558Y-67064421D01*
X155315664Y-67083566D01*
X155869104Y-67111541D01*
X155932471Y-67115515D01*
X156356444Y-67150129D01*
X156902961Y-67198158D01*
X156983727Y-67206287D01*
X157393018Y-67255285D01*
X157933773Y-67323128D01*
X158030858Y-67336611D01*
X158278157Y-67375719D01*
X158424000Y-67398783D01*
X158797632Y-67459831D01*
X158959974Y-67486356D01*
X159072228Y-67506283D01*
X159447175Y-67580155D01*
X159980128Y-67687696D01*
X160106548Y-67715089D01*
X160460890Y-67798886D01*
X160992508Y-67926876D01*
X161097883Y-67953903D01*
X161132225Y-67962711D01*
X161462757Y-68054156D01*
X161995889Y-68203665D01*
X162147865Y-68248811D01*
X162449804Y-68344732D01*
X162988636Y-68517669D01*
X163152024Y-68572985D01*
X163417643Y-68668529D01*
X163969547Y-68868561D01*
X164143244Y-68934764D01*
X164358544Y-69021502D01*
X164936958Y-69255797D01*
X165014219Y-69288629D01*
X165102977Y-69326347D01*
X165120068Y-69333610D01*
X165255959Y-69394404D01*
X165889640Y-69678923D01*
X166079841Y-69768353D01*
X166826194Y-70137359D01*
X167013561Y-70234239D01*
X167720171Y-70616891D01*
X167837599Y-70680482D01*
X168022185Y-70784966D01*
X168022188Y-70784967D01*
X168022191Y-70784969D01*
X168406588Y-70961428D01*
X168406590Y-70961429D01*
X168406593Y-70961430D01*
X168495760Y-70993557D01*
X168804512Y-71104801D01*
X168879219Y-71124778D01*
X168883406Y-71126058D01*
X168889514Y-71128162D01*
X168889523Y-71128164D01*
X168889532Y-71128167D01*
X168917530Y-71135023D01*
X169044534Y-71168984D01*
X169213121Y-71214065D01*
X169213125Y-71214065D01*
X169213130Y-71214067D01*
X169213129Y-71214067D01*
X169255031Y-71221551D01*
X169311631Y-71231660D01*
X169315503Y-71232479D01*
X169334345Y-71237094D01*
X169381872Y-71244207D01*
X169629496Y-71288438D01*
X169753040Y-71299864D01*
X169756476Y-71300280D01*
X169787273Y-71304890D01*
X169787280Y-71304890D01*
X169787284Y-71304891D01*
X169829934Y-71307324D01*
X169839754Y-71307884D01*
X170050663Y-71327391D01*
X170200470Y-71328543D01*
X170203484Y-71328640D01*
X170244503Y-71330981D01*
X170294149Y-71329263D01*
X170473616Y-71330644D01*
X170652561Y-71316866D01*
X170702204Y-71315150D01*
X170702212Y-71315149D01*
X170702215Y-71315149D01*
X170719848Y-71312912D01*
X170742952Y-71309981D01*
X170745986Y-71309672D01*
X170895333Y-71298174D01*
X171104391Y-71264141D01*
X171156539Y-71257528D01*
X171186921Y-71250806D01*
X171190343Y-71250149D01*
X171312802Y-71230214D01*
X171556768Y-71168981D01*
X171603700Y-71158599D01*
X171622200Y-71152686D01*
X171625947Y-71151618D01*
X171723043Y-71127249D01*
X172012528Y-71027950D01*
X172039941Y-71019192D01*
X172045861Y-71016682D01*
X172050008Y-71015095D01*
X172076108Y-71006141D01*
X172123126Y-70990014D01*
X172510192Y-70819488D01*
X172766439Y-70679664D01*
X172881474Y-70616894D01*
X172881479Y-70616891D01*
X173010187Y-70531783D01*
X173010277Y-70531756D01*
X173056585Y-70501106D01*
X173059181Y-70499478D01*
X173241472Y-70391411D01*
X173295217Y-70359550D01*
X173363191Y-70319418D01*
X173365945Y-70317883D01*
X173432356Y-70283090D01*
X173434827Y-70281865D01*
X173604625Y-70202485D01*
X173729136Y-70145099D01*
X173732071Y-70143836D01*
X173748233Y-70137359D01*
X173791188Y-70120143D01*
X173964567Y-70058911D01*
X174110870Y-70008727D01*
X174113874Y-70007780D01*
X174162060Y-69993938D01*
X174342458Y-69949471D01*
X174504455Y-69911712D01*
X174507496Y-69911083D01*
X174542131Y-69904840D01*
X174731216Y-69877449D01*
X174905845Y-69855053D01*
X174908975Y-69854732D01*
X174927256Y-69853323D01*
X175126096Y-69844161D01*
X175268038Y-69840453D01*
X175310246Y-69839351D01*
X175315132Y-69839413D01*
X175522818Y-69850175D01*
X175564517Y-69853322D01*
X175707617Y-69864120D01*
X175712192Y-69864637D01*
X175917322Y-69895553D01*
X176100503Y-69928274D01*
X176104813Y-69929203D01*
X176305483Y-69979888D01*
X176485074Y-70031180D01*
X176489025Y-70032453D01*
X176683524Y-70102399D01*
X176857420Y-70171784D01*
X176861076Y-70173379D01*
X177047642Y-70261904D01*
X177213931Y-70348705D01*
X177217206Y-70350542D01*
X177394155Y-70456815D01*
X177551037Y-70560165D01*
X177553931Y-70562191D01*
X177718533Y-70684405D01*
X177720772Y-70686147D01*
X177865433Y-70804080D01*
X177867932Y-70806229D01*
X178019789Y-70943913D01*
X178021987Y-70946007D01*
X178153991Y-71078011D01*
X178156088Y-71080213D01*
X178292089Y-71230213D01*
X178293764Y-71232060D01*
X178295912Y-71234557D01*
X178332398Y-71279313D01*
X178413855Y-71379233D01*
X178415607Y-71381484D01*
X178537805Y-71546064D01*
X178539834Y-71548963D01*
X178643183Y-71705844D01*
X178749465Y-71882805D01*
X178751306Y-71886090D01*
X178838105Y-72052378D01*
X178926611Y-72238906D01*
X178928208Y-72242567D01*
X178997616Y-72416520D01*
X179067532Y-72610933D01*
X179068822Y-72614938D01*
X179086469Y-72676723D01*
X179120122Y-72794555D01*
X179170787Y-72995149D01*
X179171723Y-72999500D01*
X179204456Y-73182744D01*
X179235353Y-73387743D01*
X179235878Y-73392393D01*
X179249827Y-73577243D01*
X179260584Y-73784855D01*
X179260647Y-73789762D01*
X179255834Y-73973991D01*
X179246679Y-74172671D01*
X179245269Y-74190993D01*
X179244943Y-74194172D01*
X179222533Y-74368902D01*
X179195163Y-74557831D01*
X179188933Y-74592410D01*
X179188286Y-74595540D01*
X179150489Y-74757702D01*
X179106068Y-74937909D01*
X179092231Y-74986080D01*
X179091271Y-74989129D01*
X179041018Y-75135632D01*
X178979874Y-75308763D01*
X178956162Y-75367926D01*
X178954899Y-75370859D01*
X178897346Y-75495731D01*
X178818152Y-75665127D01*
X178816886Y-75667683D01*
X178782128Y-75734028D01*
X178780573Y-75736821D01*
X178740426Y-75804822D01*
X178600535Y-76040795D01*
X178598877Y-76043439D01*
X178570948Y-76085637D01*
X178570781Y-76085957D01*
X178483124Y-76218525D01*
X178483122Y-76218529D01*
X178280525Y-76589815D01*
X178172766Y-76834412D01*
X178109997Y-76976887D01*
X178109997Y-76976888D01*
X178084921Y-77049988D01*
X178083340Y-77054118D01*
X178080824Y-77060055D01*
X178072037Y-77087549D01*
X177991198Y-77323221D01*
X177972765Y-77376962D01*
X177970101Y-77387578D01*
X177948410Y-77473993D01*
X177947317Y-77477832D01*
X177941415Y-77496299D01*
X177941414Y-77496306D01*
X177931029Y-77543248D01*
X177869800Y-77787200D01*
X177849868Y-77909637D01*
X177849199Y-77913121D01*
X177842489Y-77943452D01*
X177842485Y-77943476D01*
X177835871Y-77995619D01*
X177801841Y-78204672D01*
X177790344Y-78353976D01*
X177790029Y-78357064D01*
X177784866Y-78397782D01*
X177784865Y-78397796D01*
X177783147Y-78447465D01*
X177769371Y-78626385D01*
X177770751Y-78805842D01*
X177769034Y-78855511D01*
X177771371Y-78896461D01*
X177771471Y-78899566D01*
X177772624Y-79049337D01*
X177792129Y-79260230D01*
X177795123Y-79312712D01*
X177795126Y-79312735D01*
X177799729Y-79343489D01*
X177800155Y-79347012D01*
X177811577Y-79470505D01*
X177855802Y-79718098D01*
X177862921Y-79765657D01*
X177867531Y-79784482D01*
X177868357Y-79788387D01*
X177878627Y-79845881D01*
X177881309Y-79860897D01*
X177885951Y-79886880D01*
X177964974Y-80182400D01*
X177971852Y-80210483D01*
X177971854Y-80210490D01*
X177971855Y-80210492D01*
X177973954Y-80216585D01*
X177975251Y-80220830D01*
X177995214Y-80295484D01*
X178026897Y-80383418D01*
X178104474Y-80598732D01*
X178138586Y-80693407D01*
X178210297Y-80849622D01*
X178315048Y-81077810D01*
X178418203Y-81260048D01*
X178419179Y-81261773D01*
X178865654Y-82086237D01*
X178962747Y-82274016D01*
X179331565Y-83019988D01*
X179421176Y-83210576D01*
X179705380Y-83843556D01*
X179766315Y-83979761D01*
X179844304Y-84163287D01*
X180049587Y-84670078D01*
X180078188Y-84740685D01*
X180165194Y-84956649D01*
X180231541Y-85130730D01*
X180431343Y-85682000D01*
X180526978Y-85947871D01*
X180582396Y-86111563D01*
X180755105Y-86649682D01*
X180851142Y-86951984D01*
X180896422Y-87104412D01*
X181045733Y-87636843D01*
X181137244Y-87967607D01*
X181173186Y-88107745D01*
X181301012Y-88638680D01*
X181384876Y-88993299D01*
X181412380Y-89120238D01*
X181519750Y-89652346D01*
X181593687Y-90027615D01*
X181613689Y-90140294D01*
X181701158Y-90675632D01*
X181763374Y-91069052D01*
X181776910Y-91166521D01*
X181844673Y-91706647D01*
X181893696Y-92116117D01*
X181901868Y-92197322D01*
X181949848Y-92743279D01*
X181984473Y-93167372D01*
X181988480Y-93231294D01*
X182016424Y-93784121D01*
X182035573Y-94221283D01*
X182036706Y-94266746D01*
X182044193Y-94827374D01*
X182046925Y-95276409D01*
X182046594Y-95302276D01*
X182033049Y-95871359D01*
X182030151Y-95963031D01*
X182018511Y-96331202D01*
X182018432Y-96332757D01*
X182018255Y-96336245D01*
X181982954Y-96914716D01*
X181950785Y-97378212D01*
X181893931Y-97955891D01*
X181844076Y-98420117D01*
X181766087Y-98993221D01*
X181698463Y-99457370D01*
X181599575Y-100025260D01*
X181514172Y-100488372D01*
X181394570Y-101050736D01*
X181291456Y-101511736D01*
X181151381Y-102067950D01*
X181030616Y-102526078D01*
X180870326Y-103075516D01*
X180732036Y-103529911D01*
X180551777Y-104072032D01*
X180396123Y-104521875D01*
X180196195Y-105056011D01*
X180023346Y-105500585D01*
X179804055Y-106026114D01*
X179614232Y-106464654D01*
X179375873Y-106981025D01*
X179169377Y-107412695D01*
X178912308Y-107919255D01*
X178689366Y-108343459D01*
X178413937Y-108839622D01*
X178174899Y-109255594D01*
X177881482Y-109740770D01*
X177626695Y-110147830D01*
X177315682Y-110621435D01*
X177045542Y-111018892D01*
X176717327Y-111480374D01*
X176432196Y-111867651D01*
X176087240Y-112316395D01*
X175787597Y-112692807D01*
X175426323Y-113128296D01*
X175112595Y-113493283D01*
X174735486Y-113914951D01*
X174408154Y-114267936D01*
X174015679Y-114675270D01*
X173675276Y-115015673D01*
X173267915Y-115408174D01*
X172914974Y-115735465D01*
X172493275Y-116112602D01*
X172128296Y-116426323D01*
X171692815Y-116787591D01*
X171316389Y-117087246D01*
X170867620Y-117432220D01*
X170480385Y-117717319D01*
X170018925Y-118045520D01*
X169621426Y-118315688D01*
X169147812Y-118626707D01*
X168740770Y-118881482D01*
X168255605Y-119174893D01*
X167839618Y-119413940D01*
X167343461Y-119689365D01*
X166919292Y-119912290D01*
X166412698Y-120169375D01*
X165980982Y-120375893D01*
X165464648Y-120614235D01*
X165026097Y-120804062D01*
X164500611Y-121023335D01*
X164055949Y-121196218D01*
X163521944Y-121396098D01*
X163071962Y-121551800D01*
X162529923Y-121732033D01*
X162075493Y-121870333D01*
X161526089Y-122030613D01*
X161067929Y-122151387D01*
X160511745Y-122291454D01*
X160050736Y-122394570D01*
X159488376Y-122514172D01*
X159025286Y-122599571D01*
X158457365Y-122698464D01*
X157993235Y-122766085D01*
X157420126Y-122844075D01*
X156955855Y-122893935D01*
X156378210Y-122950785D01*
X155914760Y-122982951D01*
X155336157Y-123018260D01*
X155331202Y-123018511D01*
X155249951Y-123021079D01*
X154871442Y-123033046D01*
X154302265Y-123046595D01*
X154276409Y-123046925D01*
X153827374Y-123044193D01*
X153266744Y-123036706D01*
X153221282Y-123035573D01*
X152784120Y-123016424D01*
X152231243Y-122988478D01*
X152167408Y-122984476D01*
X151743285Y-122949848D01*
X151197278Y-122901864D01*
X151116142Y-122893699D01*
X150706658Y-122844675D01*
X150166530Y-122776911D01*
X150069053Y-122763374D01*
X149675578Y-122701149D01*
X149140279Y-122613687D01*
X149027617Y-122593688D01*
X148652421Y-122519765D01*
X148120237Y-122412380D01*
X147993289Y-122384874D01*
X147638695Y-122301016D01*
X147107747Y-122173187D01*
X147022749Y-122151387D01*
X146967614Y-122137246D01*
X146636898Y-122045749D01*
X146104401Y-121896418D01*
X145951975Y-121851139D01*
X145649822Y-121755149D01*
X145111551Y-121582392D01*
X144947867Y-121526976D01*
X144681915Y-121431313D01*
X144130699Y-121231530D01*
X143956661Y-121165198D01*
X143740811Y-121078238D01*
X143163276Y-120844299D01*
X142979741Y-120766307D01*
X142843995Y-120705577D01*
X142588575Y-120590895D01*
X142210576Y-120421176D01*
X142127171Y-120381961D01*
X142019998Y-120331569D01*
X141728669Y-120187533D01*
X141273960Y-119962719D01*
X141086279Y-119865676D01*
X140688008Y-119650000D01*
X152719627Y-119650000D01*
X152774149Y-119835686D01*
X152774153Y-119835696D01*
X152870408Y-120022406D01*
X152870414Y-120022415D01*
X153000265Y-120187533D01*
X153000276Y-120187545D01*
X153159036Y-120325110D01*
X153159036Y-120325111D01*
X153340964Y-120430146D01*
X153340966Y-120430147D01*
X153424999Y-120459232D01*
X153425000Y-120459232D01*
X153425000Y-119650000D01*
X152719627Y-119650000D01*
X140688008Y-119650000D01*
X140476790Y-119535619D01*
X140262412Y-119419526D01*
X140261853Y-119419210D01*
X140261854Y-119419210D01*
X140134089Y-119346889D01*
X153300000Y-119346889D01*
X153340507Y-119484844D01*
X153418239Y-119605798D01*
X153526900Y-119699952D01*
X153657685Y-119759680D01*
X153764237Y-119775000D01*
X153835763Y-119775000D01*
X153942315Y-119759680D01*
X154073100Y-119699952D01*
X154175000Y-119611656D01*
X154175000Y-120463023D01*
X154352502Y-120381961D01*
X154523623Y-120260106D01*
X154668592Y-120108066D01*
X154712195Y-120040218D01*
X154765851Y-119993725D01*
X154836124Y-119983620D01*
X154900706Y-120013113D01*
X154939090Y-120072839D01*
X154943542Y-120095532D01*
X154952112Y-120179425D01*
X155007885Y-120347738D01*
X155100970Y-120498652D01*
X155100975Y-120498658D01*
X155226341Y-120624024D01*
X155226347Y-120624029D01*
X155226348Y-120624030D01*
X155377262Y-120717115D01*
X155545574Y-120772887D01*
X155649455Y-120783500D01*
X156950544Y-120783499D01*
X157054426Y-120772887D01*
X157222738Y-120717115D01*
X157373652Y-120624030D01*
X157499030Y-120498652D01*
X157592115Y-120347738D01*
X157647887Y-120179426D01*
X157658500Y-120075545D01*
X157658499Y-118474456D01*
X157647887Y-118370574D01*
X157592115Y-118202262D01*
X157499030Y-118051348D01*
X157499029Y-118051347D01*
X157499024Y-118051341D01*
X157373658Y-117925975D01*
X157373652Y-117925970D01*
X157222738Y-117832885D01*
X157138582Y-117804999D01*
X157054427Y-117777113D01*
X157054420Y-117777112D01*
X156950553Y-117766500D01*
X155649455Y-117766500D01*
X155545574Y-117777112D01*
X155377261Y-117832885D01*
X155226347Y-117925970D01*
X155226341Y-117925975D01*
X155100975Y-118051341D01*
X155100970Y-118051347D01*
X155007885Y-118202262D01*
X154952113Y-118370572D01*
X154952112Y-118370579D01*
X154944014Y-118449839D01*
X154917192Y-118515573D01*
X154859088Y-118556371D01*
X154788151Y-118559280D01*
X154726903Y-118523375D01*
X154719625Y-118514919D01*
X154599734Y-118362466D01*
X154599723Y-118362454D01*
X154440963Y-118224889D01*
X154440963Y-118224888D01*
X154259034Y-118119852D01*
X154175000Y-118090767D01*
X154175000Y-118938343D01*
X154073100Y-118850048D01*
X153942315Y-118790320D01*
X153835763Y-118775000D01*
X153764237Y-118775000D01*
X153657685Y-118790320D01*
X153526900Y-118850048D01*
X153418239Y-118944202D01*
X153340507Y-119065156D01*
X153300000Y-119203111D01*
X153300000Y-119346889D01*
X140134089Y-119346889D01*
X140077816Y-119315036D01*
X140077817Y-119315036D01*
X140077813Y-119315034D01*
X140077811Y-119315033D01*
X139693413Y-119138574D01*
X139693410Y-119138572D01*
X139693408Y-119138572D01*
X139552069Y-119087647D01*
X139295489Y-118995200D01*
X139283695Y-118992046D01*
X139220828Y-118975234D01*
X139216596Y-118973942D01*
X139210500Y-118971843D01*
X139210493Y-118971841D01*
X139210487Y-118971839D01*
X139210467Y-118971834D01*
X139182456Y-118964973D01*
X138939469Y-118899999D01*
X152723119Y-118899999D01*
X152723120Y-118900000D01*
X153425000Y-118900000D01*
X153425000Y-118086975D01*
X153424999Y-118086974D01*
X153247502Y-118168036D01*
X153247498Y-118168038D01*
X153076376Y-118289893D01*
X152931406Y-118441934D01*
X152817830Y-118618661D01*
X152739756Y-118813681D01*
X152723119Y-118899999D01*
X138939469Y-118899999D01*
X138886881Y-118885937D01*
X138788386Y-118868342D01*
X138784480Y-118867516D01*
X138771294Y-118864287D01*
X138765657Y-118862907D01*
X138765654Y-118862906D01*
X138765648Y-118862905D01*
X138718082Y-118855785D01*
X138470508Y-118811563D01*
X138347002Y-118800140D01*
X138343479Y-118799714D01*
X138312727Y-118795111D01*
X138260242Y-118792116D01*
X138049338Y-118772611D01*
X137899596Y-118771458D01*
X137896493Y-118771358D01*
X137855502Y-118769020D01*
X137855499Y-118769020D01*
X137855498Y-118769020D01*
X137846786Y-118769321D01*
X137805834Y-118770737D01*
X137628690Y-118769374D01*
X137626386Y-118769357D01*
X137626385Y-118769357D01*
X137447466Y-118783132D01*
X137397789Y-118784851D01*
X137357064Y-118790015D01*
X137353976Y-118790330D01*
X137222396Y-118800462D01*
X137204669Y-118801827D01*
X137077234Y-118822571D01*
X136995623Y-118835857D01*
X136984376Y-118837284D01*
X136943463Y-118842472D01*
X136913104Y-118849188D01*
X136909621Y-118849856D01*
X136787199Y-118869786D01*
X136543276Y-118931007D01*
X136496302Y-118941400D01*
X136496286Y-118941405D01*
X136477817Y-118947307D01*
X136473979Y-118948400D01*
X136407952Y-118964973D01*
X136376959Y-118972752D01*
X136316438Y-118993511D01*
X136087578Y-119072013D01*
X136065667Y-119079016D01*
X136060061Y-119080808D01*
X136060059Y-119080809D01*
X136060048Y-119080813D01*
X136054108Y-119083329D01*
X136049978Y-119084910D01*
X135976873Y-119109988D01*
X135877000Y-119153988D01*
X135589810Y-119280512D01*
X135218523Y-119483109D01*
X135043413Y-119598896D01*
X135040792Y-119600538D01*
X134805211Y-119740198D01*
X134736871Y-119780544D01*
X134734079Y-119782099D01*
X134667598Y-119816928D01*
X134665042Y-119818194D01*
X134495763Y-119897334D01*
X134370919Y-119954875D01*
X134367983Y-119956138D01*
X134308677Y-119979905D01*
X134135708Y-120040992D01*
X133989189Y-120091251D01*
X133986141Y-120092210D01*
X133937826Y-120106089D01*
X133757685Y-120150494D01*
X133595604Y-120188272D01*
X133592475Y-120188919D01*
X133557758Y-120195174D01*
X133368864Y-120222539D01*
X133194231Y-120244937D01*
X133191057Y-120245262D01*
X133186292Y-120245629D01*
X133172588Y-120246684D01*
X132973997Y-120255835D01*
X132789772Y-120260648D01*
X132784865Y-120260585D01*
X132577265Y-120249829D01*
X132392385Y-120235878D01*
X132387737Y-120235353D01*
X132359203Y-120231052D01*
X132182787Y-120204464D01*
X132130774Y-120195174D01*
X131999479Y-120171721D01*
X131995128Y-120170784D01*
X131794550Y-120120122D01*
X131708452Y-120095532D01*
X131614940Y-120068824D01*
X131610933Y-120067532D01*
X131416512Y-119997614D01*
X131242571Y-119928211D01*
X131238910Y-119926614D01*
X131052387Y-119838110D01*
X130886075Y-119751298D01*
X130882790Y-119749457D01*
X130705847Y-119643186D01*
X130629874Y-119593137D01*
X130548954Y-119539828D01*
X130546056Y-119537800D01*
X130387520Y-119420091D01*
X130381475Y-119415603D01*
X130379239Y-119413861D01*
X130258014Y-119315036D01*
X130234556Y-119295912D01*
X130232056Y-119293762D01*
X130217442Y-119280512D01*
X130080216Y-119156092D01*
X130078006Y-119153988D01*
X129946028Y-119022009D01*
X129943908Y-119019783D01*
X129835302Y-118900000D01*
X129806207Y-118867909D01*
X129804079Y-118865435D01*
X129686152Y-118720780D01*
X129684423Y-118718559D01*
X129562179Y-118553917D01*
X129560158Y-118551027D01*
X129456819Y-118394160D01*
X129350545Y-118217212D01*
X129348703Y-118213927D01*
X129261891Y-118047616D01*
X129204170Y-117925970D01*
X129173378Y-117861076D01*
X129171783Y-117857419D01*
X129102392Y-117683507D01*
X129032460Y-117489049D01*
X129031180Y-117485078D01*
X128979887Y-117305489D01*
X128929203Y-117104819D01*
X128928278Y-117100527D01*
X128895545Y-116917273D01*
X128864637Y-116712200D01*
X128864122Y-116707641D01*
X128850172Y-116522781D01*
X128839411Y-116315109D01*
X128839349Y-116310233D01*
X128840578Y-116263207D01*
X130782008Y-116263207D01*
X130801144Y-116542983D01*
X130801145Y-116542989D01*
X130858203Y-116817572D01*
X130858205Y-116817580D01*
X130952123Y-117081840D01*
X131081149Y-117330845D01*
X131146393Y-117423275D01*
X131146395Y-117423276D01*
X131471774Y-117097896D01*
X131538368Y-117206568D01*
X131701928Y-117398073D01*
X131893433Y-117561633D01*
X132002102Y-117628225D01*
X131674590Y-117955738D01*
X131674590Y-117955739D01*
X131891460Y-118087620D01*
X132148684Y-118199348D01*
X132418741Y-118275015D01*
X132696563Y-118313202D01*
X132696574Y-118313203D01*
X132977022Y-118313203D01*
X132977032Y-118313202D01*
X133254854Y-118275015D01*
X133524911Y-118199348D01*
X133782132Y-118087622D01*
X133999004Y-117955738D01*
X133671492Y-117628226D01*
X133780163Y-117561633D01*
X133971668Y-117398073D01*
X134135228Y-117206568D01*
X134201821Y-117097897D01*
X134527200Y-117423276D01*
X134527201Y-117423276D01*
X134592444Y-117330846D01*
X134592452Y-117330833D01*
X134721472Y-117081840D01*
X134815390Y-116817580D01*
X134815392Y-116817572D01*
X134872450Y-116542989D01*
X134872451Y-116542983D01*
X134891588Y-116263207D01*
X134891588Y-116263198D01*
X134872451Y-115983422D01*
X134872450Y-115983416D01*
X134815392Y-115708833D01*
X134815390Y-115708825D01*
X134721472Y-115444565D01*
X134592449Y-115195565D01*
X134527200Y-115103128D01*
X134201820Y-115428507D01*
X134135228Y-115319838D01*
X133971668Y-115128333D01*
X133780163Y-114964773D01*
X133671491Y-114898179D01*
X133999004Y-114570666D01*
X133782132Y-114438783D01*
X133524911Y-114327057D01*
X133254854Y-114251390D01*
X132977032Y-114213203D01*
X132696563Y-114213203D01*
X132418741Y-114251390D01*
X132148684Y-114327057D01*
X131891460Y-114438785D01*
X131674591Y-114570665D01*
X131674590Y-114570666D01*
X132002103Y-114898179D01*
X131893433Y-114964773D01*
X131701928Y-115128333D01*
X131538368Y-115319838D01*
X131471774Y-115428508D01*
X131146394Y-115103128D01*
X131146393Y-115103129D01*
X131081147Y-115195564D01*
X131081146Y-115195565D01*
X130952123Y-115444565D01*
X130858205Y-115708825D01*
X130858203Y-115708833D01*
X130801145Y-115983416D01*
X130801144Y-115983422D01*
X130782008Y-116263198D01*
X130782008Y-116263207D01*
X128840578Y-116263207D01*
X128844162Y-116126052D01*
X128853317Y-115927383D01*
X128853689Y-115922544D01*
X128854738Y-115908912D01*
X128855061Y-115905765D01*
X128862586Y-115847101D01*
X128877452Y-115731187D01*
X128904824Y-115542240D01*
X128911087Y-115507479D01*
X128911727Y-115504388D01*
X128925671Y-115444565D01*
X128949480Y-115342415D01*
X128993917Y-115162141D01*
X129004294Y-115126021D01*
X129007785Y-115113866D01*
X129008744Y-115110819D01*
X129058908Y-114964568D01*
X129120107Y-114791284D01*
X129143867Y-114731999D01*
X129145131Y-114729064D01*
X129202588Y-114604403D01*
X129218360Y-114570666D01*
X129281821Y-114434921D01*
X129283052Y-114432435D01*
X129317907Y-114365907D01*
X129319437Y-114363157D01*
X129359745Y-114294884D01*
X129499082Y-114059846D01*
X129501537Y-114056029D01*
X129527254Y-114019061D01*
X129531025Y-114011311D01*
X129594743Y-113914951D01*
X129616881Y-113881471D01*
X129819477Y-113510185D01*
X129924725Y-113271289D01*
X129989998Y-113123131D01*
X129989998Y-113123130D01*
X129989999Y-113123125D01*
X129990002Y-113123120D01*
X130015091Y-113049977D01*
X130016659Y-113045882D01*
X130019180Y-113039936D01*
X130027946Y-113012500D01*
X130127237Y-112723038D01*
X130151601Y-112625964D01*
X130152683Y-112622170D01*
X130156305Y-112610834D01*
X130158586Y-112603701D01*
X130168970Y-112556762D01*
X130173848Y-112537329D01*
X130230202Y-112312799D01*
X130250136Y-112190342D01*
X130250792Y-112186921D01*
X130257515Y-112156536D01*
X130264125Y-112104411D01*
X130298161Y-111895330D01*
X130309662Y-111745945D01*
X130309962Y-111742997D01*
X130315137Y-111702202D01*
X130316854Y-111652542D01*
X130330631Y-111473614D01*
X130329250Y-111294147D01*
X130330968Y-111244503D01*
X130328627Y-111203481D01*
X130328530Y-111200468D01*
X130327378Y-111050663D01*
X130307871Y-110839750D01*
X130304877Y-110787274D01*
X130300265Y-110756467D01*
X130299852Y-110753051D01*
X130288425Y-110629497D01*
X130244195Y-110381878D01*
X130240540Y-110357460D01*
X130237081Y-110334346D01*
X130232463Y-110315489D01*
X130231651Y-110311653D01*
X130214052Y-110213123D01*
X130135012Y-109917540D01*
X130128152Y-109889526D01*
X130128149Y-109889515D01*
X130126042Y-109883398D01*
X130124762Y-109879211D01*
X130104789Y-109804516D01*
X129966103Y-109419601D01*
X129961418Y-109406598D01*
X129906877Y-109287787D01*
X129784957Y-109022196D01*
X129768568Y-108993243D01*
X129680810Y-108838204D01*
X129680782Y-108838152D01*
X129234270Y-108013618D01*
X129218691Y-107983488D01*
X129137352Y-107826181D01*
X128768366Y-107079868D01*
X128721891Y-106981025D01*
X128678913Y-106889620D01*
X128394286Y-106255696D01*
X128333612Y-106120074D01*
X128255772Y-105936897D01*
X128133095Y-105634039D01*
X128021541Y-105358642D01*
X127934764Y-105143244D01*
X127868542Y-104969496D01*
X127668561Y-104417733D01*
X127572977Y-104151999D01*
X127517672Y-103988646D01*
X127458029Y-103802813D01*
X127344774Y-103449935D01*
X127248812Y-103147869D01*
X127203651Y-102995843D01*
X127054211Y-102462953D01*
X126962713Y-102132234D01*
X126962713Y-102132233D01*
X126926877Y-101992514D01*
X126798868Y-101460818D01*
X126715086Y-101106538D01*
X126687695Y-100980122D01*
X126580198Y-100447389D01*
X126547170Y-100279755D01*
X126506282Y-100072222D01*
X126486365Y-99960030D01*
X126398796Y-99424077D01*
X126336607Y-99030830D01*
X126331384Y-98993221D01*
X126323128Y-98933775D01*
X126255290Y-98393051D01*
X126206289Y-97983756D01*
X126198159Y-97902976D01*
X126150133Y-97356487D01*
X126115515Y-96932467D01*
X126114359Y-96914036D01*
X135170122Y-96914036D01*
X135175272Y-97238736D01*
X135191700Y-97370442D01*
X135191696Y-97370481D01*
X135195369Y-97399861D01*
X135247571Y-97818919D01*
X135389159Y-98651561D01*
X135567600Y-99477090D01*
X135782543Y-100293876D01*
X136033562Y-101100306D01*
X136320163Y-101894787D01*
X136641779Y-102675750D01*
X136997774Y-103441653D01*
X137387447Y-104190983D01*
X137598441Y-104556108D01*
X137810027Y-104922259D01*
X138264679Y-105634039D01*
X138750507Y-106324917D01*
X139266550Y-106993527D01*
X139811789Y-107638549D01*
X140385147Y-108258710D01*
X140985493Y-108852785D01*
X141611640Y-109419601D01*
X142262351Y-109958037D01*
X142936343Y-110467032D01*
X143632283Y-110945578D01*
X144348798Y-111392733D01*
X145084471Y-111807611D01*
X145837851Y-112189394D01*
X146607449Y-112537329D01*
X146847695Y-112633329D01*
X146848779Y-112634180D01*
X146868978Y-112641833D01*
X147391746Y-112850727D01*
X147554754Y-112907603D01*
X147651331Y-112941301D01*
X147653996Y-112943208D01*
X147698623Y-112957802D01*
X148033972Y-113074811D01*
X148189192Y-113128970D01*
X148468084Y-113212580D01*
X148472397Y-113215386D01*
X148537762Y-113233469D01*
X148998213Y-113371509D01*
X149355671Y-113461550D01*
X149355707Y-113461572D01*
X149365281Y-113463985D01*
X149365292Y-113463991D01*
X149372173Y-113465722D01*
X149565161Y-113514367D01*
X149565160Y-113514367D01*
X149718757Y-113535808D01*
X149886788Y-113559264D01*
X150211382Y-113569190D01*
X150535151Y-113544030D01*
X150854314Y-113484079D01*
X151165144Y-113390035D01*
X151464010Y-113262998D01*
X151747422Y-113104451D01*
X152012070Y-112916246D01*
X152254862Y-112700581D01*
X152472964Y-112459975D01*
X152663827Y-112197238D01*
X152825222Y-111915439D01*
X152955266Y-111617868D01*
X153052438Y-111308002D01*
X153083734Y-111150090D01*
X153084335Y-111147382D01*
X153095977Y-111100001D01*
X167511687Y-111100001D01*
X167530922Y-111418010D01*
X167530923Y-111418013D01*
X167588351Y-111731389D01*
X167683135Y-112035563D01*
X167813884Y-112326074D01*
X167813887Y-112326080D01*
X167978710Y-112598732D01*
X168175188Y-112849519D01*
X168175200Y-112849532D01*
X168400467Y-113074799D01*
X168400480Y-113074811D01*
X168640682Y-113262996D01*
X168651267Y-113271289D01*
X168923915Y-113436110D01*
X168923917Y-113436111D01*
X168923919Y-113436112D01*
X168923925Y-113436115D01*
X169214436Y-113566864D01*
X169214437Y-113566864D01*
X169214441Y-113566866D01*
X169518610Y-113661648D01*
X169831987Y-113719077D01*
X170043995Y-113731901D01*
X170149999Y-113738313D01*
X170150000Y-113738313D01*
X170150001Y-113738313D01*
X170229503Y-113733504D01*
X170468013Y-113719077D01*
X170781390Y-113661648D01*
X171085559Y-113566866D01*
X171376085Y-113436110D01*
X171648733Y-113271289D01*
X171899525Y-113074806D01*
X172124806Y-112849525D01*
X172321289Y-112598733D01*
X172486110Y-112326085D01*
X172616866Y-112035559D01*
X172711648Y-111731390D01*
X172769077Y-111418013D01*
X172788313Y-111100000D01*
X172769077Y-110781987D01*
X172711648Y-110468610D01*
X172616866Y-110164441D01*
X172536000Y-109984765D01*
X172486115Y-109873925D01*
X172486112Y-109873919D01*
X172444155Y-109804514D01*
X172321289Y-109601267D01*
X172124811Y-109350480D01*
X172124799Y-109350467D01*
X171899532Y-109125200D01*
X171899519Y-109125188D01*
X171648732Y-108928710D01*
X171376080Y-108763887D01*
X171376074Y-108763884D01*
X171085563Y-108633135D01*
X170781389Y-108538351D01*
X170468013Y-108480923D01*
X170468010Y-108480922D01*
X170150001Y-108461687D01*
X170149999Y-108461687D01*
X169831989Y-108480922D01*
X169831986Y-108480923D01*
X169518610Y-108538351D01*
X169214436Y-108633135D01*
X168923925Y-108763884D01*
X168923919Y-108763887D01*
X168651267Y-108928710D01*
X168400480Y-109125188D01*
X168400467Y-109125200D01*
X168175200Y-109350467D01*
X168175188Y-109350480D01*
X167978710Y-109601267D01*
X167813887Y-109873919D01*
X167813884Y-109873925D01*
X167683135Y-110164436D01*
X167588351Y-110468610D01*
X167530923Y-110781986D01*
X167530922Y-110781989D01*
X167511687Y-111099998D01*
X167511687Y-111100001D01*
X153095977Y-111100001D01*
X153150040Y-110879967D01*
X153159996Y-110839760D01*
X153181177Y-110754220D01*
X153182750Y-110748894D01*
X153197689Y-110705462D01*
X153258577Y-110528442D01*
X153266790Y-110504981D01*
X153316703Y-110362388D01*
X153318655Y-110357492D01*
X153410334Y-110153102D01*
X153412757Y-110147830D01*
X153487676Y-109984765D01*
X153489969Y-109980267D01*
X153597851Y-109788304D01*
X153692647Y-109624514D01*
X153695243Y-109620405D01*
X153818851Y-109440641D01*
X153929890Y-109284653D01*
X153932689Y-109281014D01*
X154071263Y-109114041D01*
X154197368Y-108968098D01*
X154200334Y-108964900D01*
X154352876Y-108811649D01*
X154492810Y-108677520D01*
X154495880Y-108674769D01*
X154661259Y-108536218D01*
X154813716Y-108415372D01*
X154816839Y-108413054D01*
X154993747Y-108290198D01*
X155157334Y-108183891D01*
X155160467Y-108181984D01*
X155347556Y-108075697D01*
X155520755Y-107985021D01*
X155523841Y-107983512D01*
X155719687Y-107894573D01*
X155900923Y-107820429D01*
X155903902Y-107819301D01*
X156106958Y-107748402D01*
X156294539Y-107691535D01*
X156297404Y-107690742D01*
X156504762Y-107638773D01*
X156507350Y-107638186D01*
X156698340Y-107599393D01*
X156701048Y-107598907D01*
X156912164Y-107565875D01*
X156915137Y-107565484D01*
X157110053Y-107544662D01*
X157324660Y-107530725D01*
X157327820Y-107530603D01*
X157523695Y-107528166D01*
X157738646Y-107533650D01*
X157742101Y-107533835D01*
X157936980Y-107549759D01*
X158150662Y-107574630D01*
X158154321Y-107575166D01*
X158346416Y-107609229D01*
X158557209Y-107653327D01*
X158561052Y-107654259D01*
X158748573Y-107706051D01*
X158954821Y-107769079D01*
X158958764Y-107770430D01*
X159139970Y-107839350D01*
X159340166Y-107920927D01*
X159344179Y-107922730D01*
X159511838Y-108005259D01*
X159517195Y-108007896D01*
X159709921Y-108107571D01*
X159713984Y-108109867D01*
X159877023Y-108210141D01*
X160060978Y-108327443D01*
X160064979Y-108330219D01*
X160216158Y-108444044D01*
X160346366Y-108544686D01*
X160390348Y-108578681D01*
X160394267Y-108581973D01*
X160450373Y-108633135D01*
X160531147Y-108706791D01*
X160695270Y-108859191D01*
X160699033Y-108862996D01*
X160817361Y-108993243D01*
X160973087Y-109166535D01*
X160976635Y-109170855D01*
X161032183Y-109244942D01*
X161064028Y-109287417D01*
X161153077Y-109406593D01*
X161219028Y-109494859D01*
X161219921Y-109496172D01*
X161219966Y-109496238D01*
X161220247Y-109496651D01*
X161249067Y-109539009D01*
X161311212Y-109630545D01*
X161469538Y-109816751D01*
X161521569Y-109877945D01*
X161521573Y-109877949D01*
X161757399Y-110101204D01*
X162015923Y-110297693D01*
X162015934Y-110297701D01*
X162294170Y-110465157D01*
X162294171Y-110465158D01*
X162588853Y-110601610D01*
X162588856Y-110601611D01*
X162739839Y-110652574D01*
X162896536Y-110705466D01*
X163050589Y-110739496D01*
X163213631Y-110775512D01*
X163213637Y-110775513D01*
X163372691Y-110792965D01*
X163536435Y-110810932D01*
X163861175Y-110811310D01*
X163861175Y-110811309D01*
X163861177Y-110811310D01*
X163918254Y-110805181D01*
X164184060Y-110776643D01*
X164501318Y-110707335D01*
X164809245Y-110604195D01*
X165104243Y-110468430D01*
X165382868Y-110301623D01*
X165511616Y-110204217D01*
X165511957Y-110203960D01*
X165511958Y-110203961D01*
X165512357Y-110203660D01*
X165518995Y-110198640D01*
X165849171Y-109948922D01*
X166499466Y-109409983D01*
X166565110Y-109350467D01*
X166884487Y-109060902D01*
X166919046Y-109030787D01*
X166921502Y-109027342D01*
X167125175Y-108842683D01*
X167525062Y-108446360D01*
X167540329Y-108431764D01*
X167541299Y-108430268D01*
X167725061Y-108248145D01*
X168297940Y-107627540D01*
X168842680Y-106982097D01*
X169358206Y-106313088D01*
X169843499Y-105621835D01*
X170297601Y-104909704D01*
X170719616Y-104178100D01*
X171108709Y-103428470D01*
X171464113Y-102662292D01*
X171785125Y-101881081D01*
X172071111Y-101086379D01*
X172321507Y-100279755D01*
X172535818Y-99462803D01*
X172713621Y-98637136D01*
X172854565Y-97804385D01*
X172958371Y-96966194D01*
X173024835Y-96124219D01*
X173053825Y-95280122D01*
X173045283Y-94435571D01*
X172999228Y-93592233D01*
X172915749Y-92751774D01*
X172795011Y-91915854D01*
X172790503Y-91892144D01*
X175762815Y-91892144D01*
X175772630Y-92123178D01*
X175821351Y-92349240D01*
X175907575Y-92563815D01*
X175907577Y-92563819D01*
X176028819Y-92760727D01*
X176028821Y-92760730D01*
X176181602Y-92934324D01*
X176361524Y-93079600D01*
X176563409Y-93192380D01*
X176605472Y-93207242D01*
X176644716Y-93221108D01*
X176702282Y-93262661D01*
X176728244Y-93328741D01*
X176714359Y-93398366D01*
X176665036Y-93449433D01*
X176660477Y-93451903D01*
X176527589Y-93520411D01*
X176527584Y-93520414D01*
X176362466Y-93650265D01*
X176362454Y-93650276D01*
X176224889Y-93809036D01*
X176224888Y-93809036D01*
X176119853Y-93990964D01*
X176119852Y-93990966D01*
X176090767Y-94074999D01*
X176090768Y-94075000D01*
X176957427Y-94075000D01*
X176887327Y-94135742D01*
X176813481Y-94250649D01*
X176775000Y-94381705D01*
X176775000Y-94518295D01*
X176813481Y-94649351D01*
X176887327Y-94764258D01*
X176957427Y-94825000D01*
X176086976Y-94825000D01*
X176168038Y-95002502D01*
X176289893Y-95173623D01*
X176441936Y-95318595D01*
X176509781Y-95362196D01*
X176556274Y-95415851D01*
X176566379Y-95486125D01*
X176536886Y-95550706D01*
X176477160Y-95589090D01*
X176454467Y-95593542D01*
X176370574Y-95602112D01*
X176202261Y-95657885D01*
X176051347Y-95750970D01*
X176051341Y-95750975D01*
X175925975Y-95876341D01*
X175925970Y-95876347D01*
X175832885Y-96027262D01*
X175777113Y-96195572D01*
X175777112Y-96195579D01*
X175766500Y-96299446D01*
X175766500Y-97600544D01*
X175777112Y-97704425D01*
X175832885Y-97872738D01*
X175925970Y-98023652D01*
X175925975Y-98023658D01*
X176051341Y-98149024D01*
X176051347Y-98149029D01*
X176051348Y-98149030D01*
X176202262Y-98242115D01*
X176370574Y-98297887D01*
X176474455Y-98308500D01*
X178025544Y-98308499D01*
X178129426Y-98297887D01*
X178297738Y-98242115D01*
X178448652Y-98149030D01*
X178574030Y-98023652D01*
X178667115Y-97872738D01*
X178722887Y-97704426D01*
X178733500Y-97600545D01*
X178733499Y-96299456D01*
X178722887Y-96195574D01*
X178667115Y-96027262D01*
X178574030Y-95876348D01*
X178574029Y-95876347D01*
X178574024Y-95876341D01*
X178448658Y-95750975D01*
X178448652Y-95750970D01*
X178369478Y-95702135D01*
X178297738Y-95657885D01*
X178213582Y-95629999D01*
X178129427Y-95602113D01*
X178129420Y-95602112D01*
X178050161Y-95594014D01*
X177984426Y-95567192D01*
X177943628Y-95509088D01*
X177940719Y-95438151D01*
X177976624Y-95376903D01*
X177985080Y-95369624D01*
X178137539Y-95249728D01*
X178137545Y-95249723D01*
X178275110Y-95090963D01*
X178275111Y-95090963D01*
X178380146Y-94909035D01*
X178380147Y-94909033D01*
X178409232Y-94825000D01*
X177542573Y-94825000D01*
X177612673Y-94764258D01*
X177686519Y-94649351D01*
X177725000Y-94518295D01*
X177725000Y-94381705D01*
X177686519Y-94250649D01*
X177612673Y-94135742D01*
X177542573Y-94075000D01*
X178413023Y-94075000D01*
X178331961Y-93897497D01*
X178210106Y-93726376D01*
X178058065Y-93581406D01*
X177881341Y-93467832D01*
X177855778Y-93457598D01*
X177799972Y-93413710D01*
X177776752Y-93346618D01*
X177793491Y-93277623D01*
X177844874Y-93228630D01*
X177850675Y-93225825D01*
X178039929Y-93140278D01*
X178231523Y-93010783D01*
X178398476Y-92850772D01*
X178535985Y-92664847D01*
X178640095Y-92458357D01*
X178707811Y-92237243D01*
X178737184Y-92007865D01*
X178736957Y-92002525D01*
X178727369Y-91776821D01*
X178699059Y-91645463D01*
X178678649Y-91550762D01*
X178592426Y-91336187D01*
X178471179Y-91139270D01*
X178318398Y-90965676D01*
X178138476Y-90820400D01*
X177936591Y-90707620D01*
X177936590Y-90707619D01*
X177936589Y-90707619D01*
X177718557Y-90630582D01*
X177667046Y-90621749D01*
X177490625Y-90591500D01*
X177067287Y-90591500D01*
X176894582Y-90606198D01*
X176894578Y-90606199D01*
X176670798Y-90664468D01*
X176670794Y-90664469D01*
X176670793Y-90664470D01*
X176615982Y-90689246D01*
X176460076Y-90759719D01*
X176460070Y-90759722D01*
X176268478Y-90889216D01*
X176268477Y-90889217D01*
X176101521Y-91049230D01*
X175964013Y-91235154D01*
X175859903Y-91441647D01*
X175828662Y-91543660D01*
X175792189Y-91662757D01*
X175777583Y-91776822D01*
X175762815Y-91892144D01*
X172790503Y-91892144D01*
X172637254Y-91086124D01*
X172442788Y-90264222D01*
X172341665Y-89908319D01*
X172341666Y-89908203D01*
X172306172Y-89783205D01*
X172283055Y-89701794D01*
X172161123Y-89400807D01*
X172007422Y-89114736D01*
X171823747Y-88846922D01*
X171612244Y-88600493D01*
X171375384Y-88378327D01*
X171246736Y-88281485D01*
X171115929Y-88183017D01*
X170836914Y-88016849D01*
X170541595Y-87881759D01*
X170233441Y-87779334D01*
X170233438Y-87779333D01*
X170233431Y-87779331D01*
X169916007Y-87710754D01*
X169916006Y-87710753D01*
X169916002Y-87710753D01*
X169593031Y-87676832D01*
X169268285Y-87677962D01*
X168945573Y-87714128D01*
X168873032Y-87730329D01*
X168628626Y-87784913D01*
X168628622Y-87784914D01*
X168628619Y-87784915D01*
X168476253Y-87836755D01*
X168473531Y-87837613D01*
X168209426Y-87914318D01*
X168084694Y-87950300D01*
X168079270Y-87951607D01*
X167850508Y-87996149D01*
X167677636Y-88028836D01*
X167672340Y-88029607D01*
X167449510Y-88052402D01*
X167265121Y-88069581D01*
X167260005Y-88069849D01*
X167039818Y-88072401D01*
X166850630Y-88072198D01*
X166845738Y-88072003D01*
X166628255Y-88054835D01*
X166437713Y-88036672D01*
X166433085Y-88036057D01*
X166219227Y-87999538D01*
X166029838Y-87963309D01*
X166025509Y-87962321D01*
X165816595Y-87906860D01*
X165630460Y-87852733D01*
X165626457Y-87851423D01*
X165423902Y-87777520D01*
X165243007Y-87705906D01*
X165239350Y-87704323D01*
X165044570Y-87612575D01*
X164870731Y-87524067D01*
X164867435Y-87522263D01*
X164681895Y-87413412D01*
X164516791Y-87308768D01*
X164513865Y-87306796D01*
X164338992Y-87181711D01*
X164184190Y-87061847D01*
X164181633Y-87059758D01*
X164018782Y-86919419D01*
X163986473Y-86889148D01*
X163875737Y-86785396D01*
X163873564Y-86783259D01*
X163843339Y-86752036D01*
X163724975Y-86629763D01*
X163723069Y-86627703D01*
X163594042Y-86481767D01*
X163592262Y-86479659D01*
X163458107Y-86313354D01*
X163456264Y-86310951D01*
X163407983Y-86244734D01*
X163340769Y-86152547D01*
X163257585Y-86027891D01*
X163221423Y-85973700D01*
X163219696Y-85970958D01*
X163119695Y-85802621D01*
X163016969Y-85613721D01*
X163015370Y-85610574D01*
X162972839Y-85520714D01*
X162931763Y-85433929D01*
X162846450Y-85236412D01*
X162845081Y-85232967D01*
X162778539Y-85049586D01*
X162711332Y-84844978D01*
X162710214Y-84841172D01*
X162661318Y-84652916D01*
X162612777Y-84442775D01*
X162611974Y-84438681D01*
X162581057Y-84247274D01*
X162573332Y-84191093D01*
X162551612Y-84033138D01*
X162551169Y-84028776D01*
X162538416Y-83836338D01*
X162528375Y-83619597D01*
X162528333Y-83614988D01*
X162533655Y-83423600D01*
X162543265Y-83205642D01*
X162543666Y-83200827D01*
X162566656Y-83012964D01*
X162596164Y-82794771D01*
X162597049Y-82789772D01*
X162636683Y-82608920D01*
X162686638Y-82390440D01*
X162688024Y-82385380D01*
X162741646Y-82217818D01*
X162813912Y-81996147D01*
X162815861Y-81990957D01*
X162860426Y-81886561D01*
X162975911Y-81617549D01*
X162975910Y-81617548D01*
X162975993Y-81617357D01*
X162977177Y-81614762D01*
X163000360Y-81566864D01*
X163046583Y-81471364D01*
X163155659Y-81165485D01*
X163231089Y-80849622D01*
X163271993Y-80527463D01*
X163277894Y-80202772D01*
X163248721Y-79879340D01*
X163245019Y-79860897D01*
X163184818Y-79560951D01*
X163184816Y-79560941D01*
X163106339Y-79312712D01*
X163086926Y-79251305D01*
X162956194Y-78954037D01*
X162794145Y-78672613D01*
X162760399Y-78626385D01*
X162602678Y-78410324D01*
X162602676Y-78410322D01*
X162602674Y-78410319D01*
X162384016Y-78170219D01*
X162245811Y-78048028D01*
X162140722Y-77955116D01*
X161875641Y-77767525D01*
X161875636Y-77767522D01*
X161591862Y-77609635D01*
X161512836Y-77576270D01*
X161442737Y-77546674D01*
X161442738Y-77546674D01*
X161442278Y-77546479D01*
X161442138Y-77546420D01*
X161441749Y-77546256D01*
X161053261Y-77382160D01*
X160261378Y-77088457D01*
X159766664Y-76929593D01*
X159723229Y-76914697D01*
X159719006Y-76914289D01*
X159457228Y-76830227D01*
X158914236Y-76682124D01*
X158893810Y-76676157D01*
X158892018Y-76676064D01*
X158642399Y-76607980D01*
X157818501Y-76422154D01*
X156987160Y-76273117D01*
X156150018Y-76161163D01*
X155308729Y-76086513D01*
X154464955Y-76049315D01*
X153620360Y-76049641D01*
X152776614Y-76087492D01*
X151935383Y-76162792D01*
X151098329Y-76275393D01*
X150267103Y-76425072D01*
X149443349Y-76611535D01*
X148628692Y-76834412D01*
X147824742Y-77093263D01*
X147033086Y-77387578D01*
X146255288Y-77716774D01*
X145492885Y-78080203D01*
X144747381Y-78477145D01*
X144020249Y-78906818D01*
X143312924Y-79368372D01*
X142626805Y-79860897D01*
X142423512Y-80020980D01*
X142422228Y-80021494D01*
X142405413Y-80035232D01*
X141963246Y-80383418D01*
X141754991Y-80562958D01*
X141752007Y-80564311D01*
X141717025Y-80595689D01*
X141422477Y-80849625D01*
X141323557Y-80934906D01*
X140709002Y-81514269D01*
X140414916Y-81817334D01*
X140414568Y-81817693D01*
X140410113Y-81822288D01*
X140301824Y-81933846D01*
X140102127Y-82189933D01*
X139931232Y-82466072D01*
X139791135Y-82759043D01*
X139683470Y-83065425D01*
X139609497Y-83381633D01*
X139570082Y-83703954D01*
X139570080Y-83703987D01*
X139565678Y-84028671D01*
X139565679Y-84028694D01*
X139596343Y-84351974D01*
X139596346Y-84351997D01*
X139661714Y-84670060D01*
X139661715Y-84670062D01*
X139661716Y-84670068D01*
X139661719Y-84670078D01*
X139753775Y-84956649D01*
X139761040Y-84979265D01*
X139893139Y-85275914D01*
X139893142Y-85275920D01*
X140056494Y-85556599D01*
X140179532Y-85723520D01*
X140249173Y-85818000D01*
X140249185Y-85818013D01*
X140468931Y-86057077D01*
X140468939Y-86057084D01*
X140570237Y-86145794D01*
X140570269Y-86145837D01*
X140590005Y-86163108D01*
X140592126Y-86165051D01*
X140790612Y-86355422D01*
X140857826Y-86420122D01*
X140884146Y-86445458D01*
X140887990Y-86449501D01*
X141040898Y-86625287D01*
X141155688Y-86758706D01*
X141159003Y-86762908D01*
X141290125Y-86944438D01*
X141397241Y-87095593D01*
X141400031Y-87099890D01*
X141512311Y-87289262D01*
X141606749Y-87453234D01*
X141609021Y-87457560D01*
X141639865Y-87522263D01*
X141702892Y-87654481D01*
X141782445Y-87828602D01*
X141784226Y-87832917D01*
X141852301Y-88016849D01*
X141859410Y-88036057D01*
X141859509Y-88036323D01*
X141922854Y-88218524D01*
X141924163Y-88222767D01*
X141980582Y-88431393D01*
X142026777Y-88619660D01*
X142027644Y-88623782D01*
X142064921Y-88836156D01*
X142093353Y-89028650D01*
X142093810Y-89032608D01*
X142111742Y-89247122D01*
X142122014Y-89441961D01*
X142122100Y-89445718D01*
X142120603Y-89660794D01*
X142112530Y-89856140D01*
X142112285Y-89859660D01*
X142091396Y-90073630D01*
X142064992Y-90267631D01*
X142064461Y-90270890D01*
X142024349Y-90482103D01*
X141979804Y-90672989D01*
X141979033Y-90675964D01*
X141920416Y-90881329D01*
X141919573Y-90884048D01*
X141857709Y-91068739D01*
X141856744Y-91071417D01*
X141779827Y-91270673D01*
X141778650Y-91273513D01*
X141699233Y-91452702D01*
X141604028Y-91645463D01*
X141602489Y-91648384D01*
X141506707Y-91819154D01*
X141394503Y-92002525D01*
X141392578Y-92005482D01*
X141281361Y-92166272D01*
X141152998Y-92338865D01*
X141150668Y-92341811D01*
X141025118Y-92491140D01*
X140881573Y-92651593D01*
X140878824Y-92654477D01*
X140740194Y-92790994D01*
X140582514Y-92938066D01*
X140579339Y-92940834D01*
X140429087Y-93063272D01*
X140258352Y-93195848D01*
X140254751Y-93198447D01*
X140094477Y-93305705D01*
X139911839Y-93422741D01*
X139907819Y-93425112D01*
X139739421Y-93516192D01*
X139545894Y-93616828D01*
X139541466Y-93618916D01*
X139367314Y-93692923D01*
X139163612Y-93776458D01*
X139158796Y-93778208D01*
X138982279Y-93834333D01*
X138768252Y-93900261D01*
X138763075Y-93901618D01*
X138591106Y-93938971D01*
X138363114Y-93987198D01*
X138357615Y-93988109D01*
X138236783Y-94002680D01*
X137953205Y-94036327D01*
X137907007Y-94039753D01*
X137792274Y-94048121D01*
X137586436Y-94085798D01*
X137472839Y-94106592D01*
X137313934Y-94153867D01*
X137161580Y-94199193D01*
X136862134Y-94324840D01*
X136577992Y-94482070D01*
X136577986Y-94482074D01*
X136312476Y-94669046D01*
X136068684Y-94883585D01*
X135849481Y-95123167D01*
X135657407Y-95385011D01*
X135657401Y-95385020D01*
X135494702Y-95666067D01*
X135363288Y-95963018D01*
X135363283Y-95963031D01*
X135264681Y-96272430D01*
X135200042Y-96590672D01*
X135200041Y-96590678D01*
X135170122Y-96914036D01*
X126114359Y-96914036D01*
X126111537Y-96869027D01*
X126083570Y-96315726D01*
X126064421Y-95878558D01*
X126063300Y-95833601D01*
X126063051Y-95814956D01*
X126055805Y-95272363D01*
X126054469Y-95052717D01*
X126053075Y-94823431D01*
X126053396Y-94798161D01*
X126066957Y-94228431D01*
X126081495Y-93768640D01*
X126081723Y-93764121D01*
X126117059Y-93185073D01*
X126149210Y-92721851D01*
X126206093Y-92143871D01*
X126208317Y-92123178D01*
X126255920Y-91679921D01*
X126333942Y-91106579D01*
X126401524Y-90642711D01*
X126403636Y-90630582D01*
X126500483Y-90074413D01*
X126500628Y-90073630D01*
X126585804Y-89611743D01*
X126705463Y-89049114D01*
X126808530Y-88588323D01*
X126948664Y-88031874D01*
X126981619Y-87906860D01*
X127069367Y-87573983D01*
X127229729Y-87024297D01*
X127343740Y-86649682D01*
X127367942Y-86570157D01*
X127548277Y-86027808D01*
X127575938Y-85947871D01*
X127703838Y-85578229D01*
X127903832Y-85043917D01*
X127937763Y-84956649D01*
X128076633Y-84599467D01*
X128295994Y-84073771D01*
X128485750Y-83635388D01*
X128602884Y-83381633D01*
X128724155Y-83118915D01*
X128930604Y-82687343D01*
X129187755Y-82180621D01*
X129410577Y-81756645D01*
X129686175Y-81260178D01*
X129925030Y-80844526D01*
X130218587Y-80359119D01*
X130473247Y-79952259D01*
X130784401Y-79478441D01*
X130938789Y-79251290D01*
X131041614Y-79100001D01*
X135511687Y-79100001D01*
X135530922Y-79418010D01*
X135530923Y-79418013D01*
X135588351Y-79731389D01*
X135683135Y-80035563D01*
X135813884Y-80326074D01*
X135813887Y-80326080D01*
X135978710Y-80598732D01*
X136175188Y-80849519D01*
X136175200Y-80849532D01*
X136400467Y-81074799D01*
X136400480Y-81074811D01*
X136636919Y-81260048D01*
X136651267Y-81271289D01*
X136923915Y-81436110D01*
X136923917Y-81436111D01*
X136923919Y-81436112D01*
X136923925Y-81436115D01*
X137214436Y-81566864D01*
X137214437Y-81566864D01*
X137214441Y-81566866D01*
X137518610Y-81661648D01*
X137831987Y-81719077D01*
X138043995Y-81731901D01*
X138149999Y-81738313D01*
X138150000Y-81738313D01*
X138150001Y-81738313D01*
X138229503Y-81733504D01*
X138468013Y-81719077D01*
X138781390Y-81661648D01*
X139085559Y-81566866D01*
X139376085Y-81436110D01*
X139648733Y-81271289D01*
X139895691Y-81077810D01*
X139899519Y-81074811D01*
X139899521Y-81074809D01*
X139899525Y-81074806D01*
X140124806Y-80849525D01*
X140321289Y-80598733D01*
X140486110Y-80326085D01*
X140499883Y-80295484D01*
X140535392Y-80216585D01*
X140616866Y-80035559D01*
X140711648Y-79731390D01*
X140769077Y-79418013D01*
X140788313Y-79100000D01*
X140785248Y-79049337D01*
X140769077Y-78781989D01*
X140769077Y-78781987D01*
X140711648Y-78468610D01*
X140616866Y-78164441D01*
X140616864Y-78164436D01*
X140486115Y-77873925D01*
X140486112Y-77873919D01*
X140433689Y-77787201D01*
X140321289Y-77601267D01*
X140283568Y-77553120D01*
X140124811Y-77350480D01*
X140124799Y-77350467D01*
X139899532Y-77125200D01*
X139899519Y-77125188D01*
X139648732Y-76928710D01*
X139376080Y-76763887D01*
X139376074Y-76763884D01*
X139085563Y-76633135D01*
X138781389Y-76538351D01*
X138468013Y-76480923D01*
X138468010Y-76480922D01*
X138150001Y-76461687D01*
X138149999Y-76461687D01*
X137831989Y-76480922D01*
X137831986Y-76480923D01*
X137518610Y-76538351D01*
X137214436Y-76633135D01*
X136923925Y-76763884D01*
X136923919Y-76763887D01*
X136651267Y-76928710D01*
X136400480Y-77125188D01*
X136400467Y-77125200D01*
X136175200Y-77350467D01*
X136175188Y-77350480D01*
X135978710Y-77601267D01*
X135813887Y-77873919D01*
X135813884Y-77873925D01*
X135683135Y-78164436D01*
X135588351Y-78468610D01*
X135530923Y-78781986D01*
X135530922Y-78781989D01*
X135511687Y-79099998D01*
X135511687Y-79100001D01*
X131041614Y-79100001D01*
X131054387Y-79081207D01*
X131382746Y-78619525D01*
X131419047Y-78570220D01*
X131667723Y-78232456D01*
X132012830Y-77783513D01*
X132241462Y-77496306D01*
X132312282Y-77407340D01*
X132673771Y-76971591D01*
X132987308Y-76606827D01*
X133364593Y-76184961D01*
X133691772Y-75832141D01*
X134084401Y-75424648D01*
X134424622Y-75084426D01*
X134832183Y-74691732D01*
X135184941Y-74364611D01*
X135606790Y-73987340D01*
X135781924Y-73836801D01*
X173208414Y-73836801D01*
X173227550Y-74116577D01*
X173227551Y-74116583D01*
X173284609Y-74391166D01*
X173284611Y-74391174D01*
X173378529Y-74655434D01*
X173507555Y-74904439D01*
X173572799Y-74996869D01*
X173572801Y-74996870D01*
X173898180Y-74671490D01*
X173964774Y-74780162D01*
X174128334Y-74971667D01*
X174319839Y-75135227D01*
X174428508Y-75201819D01*
X174100996Y-75529332D01*
X174100996Y-75529333D01*
X174317866Y-75661214D01*
X174575090Y-75772942D01*
X174845147Y-75848609D01*
X175122969Y-75886796D01*
X175122980Y-75886797D01*
X175403428Y-75886797D01*
X175403438Y-75886796D01*
X175681260Y-75848609D01*
X175951317Y-75772942D01*
X176208538Y-75661216D01*
X176425410Y-75529332D01*
X176097898Y-75201820D01*
X176206569Y-75135227D01*
X176398074Y-74971667D01*
X176561634Y-74780162D01*
X176628227Y-74671491D01*
X176953606Y-74996870D01*
X176953607Y-74996870D01*
X177018850Y-74904440D01*
X177018858Y-74904427D01*
X177147878Y-74655434D01*
X177241796Y-74391174D01*
X177241798Y-74391166D01*
X177298856Y-74116583D01*
X177298857Y-74116577D01*
X177317994Y-73836801D01*
X177317994Y-73836792D01*
X177298857Y-73557016D01*
X177298856Y-73557010D01*
X177241798Y-73282427D01*
X177241796Y-73282419D01*
X177147878Y-73018159D01*
X177018855Y-72769159D01*
X176953606Y-72676722D01*
X176628226Y-73002101D01*
X176561634Y-72893432D01*
X176398074Y-72701927D01*
X176206569Y-72538367D01*
X176097897Y-72471773D01*
X176425410Y-72144260D01*
X176208538Y-72012377D01*
X175951317Y-71900651D01*
X175681260Y-71824984D01*
X175403438Y-71786797D01*
X175122969Y-71786797D01*
X174845147Y-71824984D01*
X174575090Y-71900651D01*
X174317866Y-72012379D01*
X174100997Y-72144259D01*
X174100996Y-72144260D01*
X174428509Y-72471773D01*
X174319839Y-72538367D01*
X174128334Y-72701927D01*
X173964774Y-72893432D01*
X173898180Y-73002102D01*
X173572800Y-72676722D01*
X173572799Y-72676723D01*
X173507553Y-72769158D01*
X173507552Y-72769159D01*
X173378529Y-73018159D01*
X173284611Y-73282419D01*
X173284609Y-73282427D01*
X173227551Y-73557010D01*
X173227550Y-73557016D01*
X173208414Y-73836792D01*
X173208414Y-73836801D01*
X135781924Y-73836801D01*
X135971609Y-73673755D01*
X136407266Y-73312343D01*
X136783531Y-73012817D01*
X137232432Y-72667741D01*
X137335358Y-72591964D01*
X137619535Y-72382739D01*
X138081192Y-72054398D01*
X138478410Y-71784420D01*
X138952281Y-71473233D01*
X139228180Y-71300544D01*
X151141500Y-71300544D01*
X151152112Y-71404425D01*
X151207885Y-71572738D01*
X151300970Y-71723652D01*
X151300975Y-71723658D01*
X151426341Y-71849024D01*
X151426347Y-71849029D01*
X151426348Y-71849030D01*
X151577262Y-71942115D01*
X151745574Y-71997887D01*
X151849455Y-72008500D01*
X153150544Y-72008499D01*
X153254426Y-71997887D01*
X153422738Y-71942115D01*
X153573652Y-71849030D01*
X153699030Y-71723652D01*
X153792115Y-71572738D01*
X153847887Y-71404426D01*
X153855985Y-71325158D01*
X153882806Y-71259427D01*
X153940909Y-71218628D01*
X154011846Y-71215719D01*
X154073095Y-71251623D01*
X154080374Y-71260080D01*
X154200265Y-71412533D01*
X154200276Y-71412545D01*
X154359036Y-71550110D01*
X154359036Y-71550111D01*
X154540964Y-71655146D01*
X154540966Y-71655147D01*
X154624999Y-71684232D01*
X154625000Y-71684232D01*
X154625000Y-70820076D01*
X154637327Y-70839258D01*
X154740555Y-70928705D01*
X154864801Y-70985446D01*
X154966025Y-71000000D01*
X155033975Y-71000000D01*
X155135199Y-70985446D01*
X155259445Y-70928705D01*
X155362673Y-70839258D01*
X155375000Y-70820076D01*
X155375000Y-71688023D01*
X155552502Y-71606961D01*
X155723623Y-71485106D01*
X155868593Y-71333065D01*
X155982167Y-71156341D01*
X155992400Y-71130781D01*
X156036286Y-71074974D01*
X156103378Y-71051752D01*
X156172373Y-71068489D01*
X156221367Y-71119871D01*
X156224190Y-71125710D01*
X156305184Y-71304891D01*
X156309722Y-71314929D01*
X156439217Y-71506523D01*
X156480992Y-71550110D01*
X156599230Y-71673478D01*
X156785154Y-71810986D01*
X156812918Y-71824984D01*
X156991643Y-71915095D01*
X157212757Y-71982811D01*
X157442135Y-72012184D01*
X157673178Y-72002369D01*
X157899238Y-71953649D01*
X158113813Y-71867426D01*
X158310730Y-71746179D01*
X158484324Y-71593398D01*
X158629600Y-71413476D01*
X158742380Y-71211591D01*
X158814057Y-71008727D01*
X158819417Y-70993557D01*
X158819417Y-70993556D01*
X158819417Y-70993555D01*
X158819419Y-70993550D01*
X158858500Y-70765625D01*
X158858500Y-70342287D01*
X158843801Y-70169582D01*
X158785530Y-69945793D01*
X158690278Y-69735071D01*
X158560783Y-69543477D01*
X158400772Y-69376524D01*
X158400771Y-69376523D01*
X158400769Y-69376521D01*
X158214845Y-69239013D01*
X158079470Y-69170759D01*
X158008357Y-69134905D01*
X158008354Y-69134904D01*
X158008352Y-69134903D01*
X157882466Y-69096351D01*
X157787243Y-69067189D01*
X157557865Y-69037816D01*
X157557861Y-69037816D01*
X157557853Y-69037815D01*
X157326821Y-69047630D01*
X157100759Y-69096351D01*
X156886184Y-69182575D01*
X156886180Y-69182577D01*
X156689272Y-69303819D01*
X156689268Y-69303822D01*
X156515676Y-69456601D01*
X156381382Y-69622923D01*
X156370400Y-69636524D01*
X156296751Y-69768362D01*
X156258231Y-69837316D01*
X156257620Y-69838409D01*
X156252351Y-69853321D01*
X156228891Y-69919718D01*
X156187337Y-69977283D01*
X156121257Y-70003244D01*
X156051631Y-69989359D01*
X156000566Y-69940035D01*
X155998095Y-69935476D01*
X155929585Y-69802585D01*
X155929585Y-69802584D01*
X155799734Y-69637466D01*
X155799723Y-69637454D01*
X155640963Y-69499889D01*
X155640963Y-69499888D01*
X155459034Y-69394852D01*
X155375000Y-69365767D01*
X155375000Y-70229923D01*
X155362673Y-70210742D01*
X155259445Y-70121295D01*
X155135199Y-70064554D01*
X155033975Y-70050000D01*
X154966025Y-70050000D01*
X154864801Y-70064554D01*
X154740555Y-70121295D01*
X154637327Y-70210742D01*
X154625000Y-70229923D01*
X154625000Y-69361975D01*
X154624999Y-69361974D01*
X154447502Y-69443036D01*
X154447498Y-69443038D01*
X154276376Y-69564893D01*
X154131406Y-69716934D01*
X154087803Y-69784782D01*
X154034147Y-69831275D01*
X153963873Y-69841378D01*
X153899292Y-69811885D01*
X153860909Y-69752159D01*
X153856457Y-69729466D01*
X153847887Y-69645574D01*
X153814056Y-69543477D01*
X153792115Y-69477262D01*
X153699030Y-69326348D01*
X153699029Y-69326347D01*
X153699024Y-69326341D01*
X153573658Y-69200975D01*
X153573652Y-69200970D01*
X153543827Y-69182574D01*
X153422738Y-69107885D01*
X153328463Y-69076646D01*
X153254427Y-69052113D01*
X153254420Y-69052112D01*
X153150553Y-69041500D01*
X151849455Y-69041500D01*
X151745574Y-69052112D01*
X151577261Y-69107885D01*
X151426347Y-69200970D01*
X151426341Y-69200975D01*
X151300975Y-69326341D01*
X151300970Y-69326347D01*
X151207885Y-69477262D01*
X151152113Y-69645572D01*
X151152112Y-69645579D01*
X151141500Y-69749446D01*
X151141500Y-71300544D01*
X139228180Y-71300544D01*
X139359124Y-71218584D01*
X139497294Y-71135023D01*
X139844527Y-70925028D01*
X140260258Y-70686130D01*
X140756620Y-70410590D01*
X141180581Y-70187775D01*
X141687350Y-69930600D01*
X142118944Y-69724142D01*
X142635460Y-69485716D01*
X143073739Y-69296007D01*
X143599442Y-69076644D01*
X144043880Y-68903847D01*
X144578215Y-68703844D01*
X144758485Y-68641468D01*
X145027877Y-68548255D01*
X145570179Y-68367934D01*
X146024198Y-68229758D01*
X146574010Y-68069359D01*
X147031867Y-67948666D01*
X147588347Y-67808524D01*
X148049005Y-67705486D01*
X148611720Y-67585809D01*
X149074408Y-67500483D01*
X149642722Y-67401522D01*
X150106579Y-67333942D01*
X150679922Y-67255920D01*
X151144007Y-67206080D01*
X151721874Y-67149208D01*
X151957392Y-67132862D01*
X152185127Y-67117056D01*
X152764173Y-67081720D01*
X152768652Y-67081494D01*
X152894437Y-67077517D01*
X153228455Y-67066956D01*
X153798093Y-67053398D01*
X153823442Y-67053075D01*
X153909571Y-67053598D01*
G37*
%TD.AperFunction*%
%TD*%
M02*
