%TF.GenerationSoftware,KiCad,Pcbnew,7.0.7*%
%TF.CreationDate,2023-12-27T16:52:28+01:00*%
%TF.ProjectId,Roborock-CPAP,526f626f-726f-4636-9b2d-435041502e6b,rev?*%
%TF.SameCoordinates,Original*%
%TF.FileFunction,Drillmap*%
%TF.FilePolarity,Positive*%
%FSLAX45Y45*%
G04 Gerber Fmt 4.5, Leading zero omitted, Abs format (unit mm)*
G04 Created by KiCad (PCBNEW 7.0.7) date 2023-12-27 16:52:28*
%MOMM*%
%LPD*%
G01*
G04 APERTURE LIST*
%ADD10C,0.200000*%
G04 APERTURE END LIST*
D10*
X14940784Y-11347419D02*
G75*
G03*
X15308351Y-11114863I73296J290909D01*
G01*
X16297546Y-8161733D02*
G75*
G03*
X16847507Y-8783769I405064J-196007D01*
G01*
X16144208Y-7754694D02*
G75*
G03*
X14041527Y-8181768I-739208J-1750306D01*
G01*
X12949982Y-11405760D02*
G75*
G03*
X12968034Y-10883840I-417122J275700D01*
G01*
X17860018Y-7604240D02*
G75*
G03*
X17841966Y-8126160I417122J-275700D01*
G01*
X12949983Y-11405761D02*
G75*
G03*
X13504239Y-11960017I333697J-220559D01*
G01*
X14041528Y-8181769D02*
G75*
G03*
X14059142Y-8616368I215282J-208931D01*
G01*
X14026160Y-11941966D02*
G75*
G03*
X17841966Y-8126160I1378840J2436966D01*
G01*
X16783839Y-7068036D02*
G75*
G03*
X17305761Y-7049983I246221J435176D01*
G01*
X17860017Y-7604239D02*
G75*
G03*
X17305761Y-7049983I-333697J220559D01*
G01*
X13795425Y-9403681D02*
G75*
G03*
X13519587Y-9739980I21855J-299199D01*
G01*
X17232693Y-8985813D02*
G75*
G03*
X16847507Y-8783769I-288583J-81977D01*
G01*
X16783840Y-7068035D02*
G75*
G03*
X12968035Y-10883840I-1378840J-2436965D01*
G01*
X16122044Y-10949592D02*
G75*
G03*
X15308351Y-11114863I-372284J-252798D01*
G01*
X16297539Y-8161730D02*
G75*
G03*
X16144208Y-7754694I-270049J130670D01*
G01*
X16551205Y-11020326D02*
G75*
G03*
X17232689Y-8985814I-1146206J1515326D01*
G01*
X14026161Y-11941964D02*
G75*
G03*
X13504239Y-11960017I-246221J-435176D01*
G01*
X13519586Y-9739980D02*
G75*
G03*
X14940784Y-11347418I1885414J234980D01*
G01*
X16122042Y-10949593D02*
G75*
G03*
X16551205Y-11020326I248188J168533D01*
G01*
X13795424Y-9403671D02*
G75*
G03*
X14059142Y-8616368I-32784J448801D01*
G01*
X12855777Y-12626484D02*
X12855777Y-12426484D01*
X12855777Y-12426484D02*
X12903396Y-12426484D01*
X12903396Y-12426484D02*
X12931967Y-12436008D01*
X12931967Y-12436008D02*
X12951015Y-12455055D01*
X12951015Y-12455055D02*
X12960539Y-12474103D01*
X12960539Y-12474103D02*
X12970062Y-12512198D01*
X12970062Y-12512198D02*
X12970062Y-12540770D01*
X12970062Y-12540770D02*
X12960539Y-12578865D01*
X12960539Y-12578865D02*
X12951015Y-12597912D01*
X12951015Y-12597912D02*
X12931967Y-12616960D01*
X12931967Y-12616960D02*
X12903396Y-12626484D01*
X12903396Y-12626484D02*
X12855777Y-12626484D01*
X13055777Y-12626484D02*
X13055777Y-12493150D01*
X13055777Y-12531246D02*
X13065301Y-12512198D01*
X13065301Y-12512198D02*
X13074824Y-12502674D01*
X13074824Y-12502674D02*
X13093872Y-12493150D01*
X13093872Y-12493150D02*
X13112920Y-12493150D01*
X13179586Y-12626484D02*
X13179586Y-12493150D01*
X13179586Y-12426484D02*
X13170062Y-12436008D01*
X13170062Y-12436008D02*
X13179586Y-12445531D01*
X13179586Y-12445531D02*
X13189110Y-12436008D01*
X13189110Y-12436008D02*
X13179586Y-12426484D01*
X13179586Y-12426484D02*
X13179586Y-12445531D01*
X13303396Y-12626484D02*
X13284348Y-12616960D01*
X13284348Y-12616960D02*
X13274824Y-12597912D01*
X13274824Y-12597912D02*
X13274824Y-12426484D01*
X13408158Y-12626484D02*
X13389110Y-12616960D01*
X13389110Y-12616960D02*
X13379586Y-12597912D01*
X13379586Y-12597912D02*
X13379586Y-12426484D01*
X13636729Y-12626484D02*
X13636729Y-12426484D01*
X13636729Y-12426484D02*
X13703396Y-12569341D01*
X13703396Y-12569341D02*
X13770062Y-12426484D01*
X13770062Y-12426484D02*
X13770062Y-12626484D01*
X13951015Y-12626484D02*
X13951015Y-12521722D01*
X13951015Y-12521722D02*
X13941491Y-12502674D01*
X13941491Y-12502674D02*
X13922443Y-12493150D01*
X13922443Y-12493150D02*
X13884348Y-12493150D01*
X13884348Y-12493150D02*
X13865301Y-12502674D01*
X13951015Y-12616960D02*
X13931967Y-12626484D01*
X13931967Y-12626484D02*
X13884348Y-12626484D01*
X13884348Y-12626484D02*
X13865301Y-12616960D01*
X13865301Y-12616960D02*
X13855777Y-12597912D01*
X13855777Y-12597912D02*
X13855777Y-12578865D01*
X13855777Y-12578865D02*
X13865301Y-12559817D01*
X13865301Y-12559817D02*
X13884348Y-12550293D01*
X13884348Y-12550293D02*
X13931967Y-12550293D01*
X13931967Y-12550293D02*
X13951015Y-12540770D01*
X14046253Y-12493150D02*
X14046253Y-12693150D01*
X14046253Y-12502674D02*
X14065301Y-12493150D01*
X14065301Y-12493150D02*
X14103396Y-12493150D01*
X14103396Y-12493150D02*
X14122443Y-12502674D01*
X14122443Y-12502674D02*
X14131967Y-12512198D01*
X14131967Y-12512198D02*
X14141491Y-12531246D01*
X14141491Y-12531246D02*
X14141491Y-12588389D01*
X14141491Y-12588389D02*
X14131967Y-12607436D01*
X14131967Y-12607436D02*
X14122443Y-12616960D01*
X14122443Y-12616960D02*
X14103396Y-12626484D01*
X14103396Y-12626484D02*
X14065301Y-12626484D01*
X14065301Y-12626484D02*
X14046253Y-12616960D01*
X14227205Y-12607436D02*
X14236729Y-12616960D01*
X14236729Y-12616960D02*
X14227205Y-12626484D01*
X14227205Y-12626484D02*
X14217682Y-12616960D01*
X14217682Y-12616960D02*
X14227205Y-12607436D01*
X14227205Y-12607436D02*
X14227205Y-12626484D01*
X14227205Y-12502674D02*
X14236729Y-12512198D01*
X14236729Y-12512198D02*
X14227205Y-12521722D01*
X14227205Y-12521722D02*
X14217682Y-12512198D01*
X14217682Y-12512198D02*
X14227205Y-12502674D01*
X14227205Y-12502674D02*
X14227205Y-12521722D01*
M02*
