G04 #@! TF.GenerationSoftware,KiCad,Pcbnew,7.0.7*
G04 #@! TF.CreationDate,2023-12-27T16:52:26+01:00*
G04 #@! TF.ProjectId,Roborock-CPAP,526f626f-726f-4636-9b2d-435041502e6b,rev?*
G04 #@! TF.SameCoordinates,Original*
G04 #@! TF.FileFunction,Legend,Top*
G04 #@! TF.FilePolarity,Positive*
%FSLAX46Y46*%
G04 Gerber Fmt 4.6, Leading zero omitted, Abs format (unit mm)*
G04 Created by KiCad (PCBNEW 7.0.7) date 2023-12-27 16:52:26*
%MOMM*%
%LPD*%
G01*
G04 APERTURE LIST*
G04 Aperture macros list*
%AMRoundRect*
0 Rectangle with rounded corners*
0 $1 Rounding radius*
0 $2 $3 $4 $5 $6 $7 $8 $9 X,Y pos of 4 corners*
0 Add a 4 corners polygon primitive as box body*
4,1,4,$2,$3,$4,$5,$6,$7,$8,$9,$2,$3,0*
0 Add four circle primitives for the rounded corners*
1,1,$1+$1,$2,$3*
1,1,$1+$1,$4,$5*
1,1,$1+$1,$6,$7*
1,1,$1+$1,$8,$9*
0 Add four rect primitives between the rounded corners*
20,1,$1+$1,$2,$3,$4,$5,0*
20,1,$1+$1,$4,$5,$6,$7,0*
20,1,$1+$1,$6,$7,$8,$9,0*
20,1,$1+$1,$8,$9,$2,$3,0*%
G04 Aperture macros list end*
%ADD10C,0.150000*%
%ADD11C,0.120000*%
%ADD12RoundRect,0.250000X0.312500X0.625000X-0.312500X0.625000X-0.312500X-0.625000X0.312500X-0.625000X0*%
%ADD13R,0.600000X0.450000*%
%ADD14RoundRect,0.250000X1.000000X0.650000X-1.000000X0.650000X-1.000000X-0.650000X1.000000X-0.650000X0*%
%ADD15C,5.600000*%
%ADD16C,3.600000*%
%ADD17RoundRect,0.250000X0.725000X-0.600000X0.725000X0.600000X-0.725000X0.600000X-0.725000X-0.600000X0*%
%ADD18O,1.950000X1.700000*%
%ADD19RoundRect,0.250000X-0.600000X-0.725000X0.600000X-0.725000X0.600000X0.725000X-0.600000X0.725000X0*%
%ADD20O,1.700000X1.950000*%
%ADD21RoundRect,0.250000X0.650000X-1.000000X0.650000X1.000000X-0.650000X1.000000X-0.650000X-1.000000X0*%
%ADD22RoundRect,0.112500X0.187500X0.112500X-0.187500X0.112500X-0.187500X-0.112500X0.187500X-0.112500X0*%
%ADD23RoundRect,0.250000X0.600000X0.750000X-0.600000X0.750000X-0.600000X-0.750000X0.600000X-0.750000X0*%
%ADD24O,1.700000X2.000000*%
G04 APERTURE END LIST*
D10*
X152864285Y-94531009D02*
X152530952Y-94531009D01*
X152530952Y-95054819D02*
X152530952Y-94054819D01*
X152530952Y-94054819D02*
X153007142Y-94054819D01*
X153340476Y-94769104D02*
X153816666Y-94769104D01*
X153245238Y-95054819D02*
X153578571Y-94054819D01*
X153578571Y-94054819D02*
X153911904Y-95054819D01*
X154245238Y-95054819D02*
X154245238Y-94054819D01*
X154245238Y-94054819D02*
X154816666Y-95054819D01*
X154816666Y-95054819D02*
X154816666Y-94054819D01*
X155816666Y-95054819D02*
X155245238Y-95054819D01*
X155530952Y-95054819D02*
X155530952Y-94054819D01*
X155530952Y-94054819D02*
X155435714Y-94197676D01*
X155435714Y-94197676D02*
X155340476Y-94292914D01*
X155340476Y-94292914D02*
X155245238Y-94340533D01*
G36*
X179757886Y-84943144D02*
G01*
X179609057Y-84943144D01*
X179283302Y-84943144D01*
X178926829Y-84943144D01*
X178778001Y-84943144D01*
X178733352Y-84794316D01*
X178926829Y-84794316D01*
X179017555Y-84794316D01*
X179017555Y-84595720D01*
X179063275Y-84595720D01*
X179101137Y-84598488D01*
X179126140Y-84606793D01*
X179151857Y-84649298D01*
X179185433Y-84794316D01*
X179283302Y-84794316D01*
X179242583Y-84642869D01*
X179230349Y-84606971D01*
X179216508Y-84583576D01*
X179171860Y-84561430D01*
X179171860Y-84555001D01*
X179222580Y-84538927D01*
X179244841Y-84510709D01*
X179366884Y-84510709D01*
X179495472Y-84431414D01*
X179523332Y-84408554D01*
X179520475Y-84452845D01*
X179520475Y-84794316D01*
X179609057Y-84794316D01*
X179609057Y-84308541D01*
X179520475Y-84308541D01*
X179366884Y-84416412D01*
X179366884Y-84510709D01*
X179244841Y-84510709D01*
X179247941Y-84506780D01*
X179255442Y-84449273D01*
X179250888Y-84400338D01*
X179237225Y-84363548D01*
X179212758Y-84337116D01*
X179175789Y-84319257D01*
X179143047Y-84311716D01*
X179102446Y-84307192D01*
X179053988Y-84305684D01*
X179011840Y-84306398D01*
X178926829Y-84309256D01*
X178926829Y-84794316D01*
X178733352Y-84794316D01*
X178542114Y-84156856D01*
X178778001Y-84156856D01*
X178926829Y-84156856D01*
X179609057Y-84156856D01*
X179757886Y-84156856D01*
X179757886Y-84943144D01*
G37*
G36*
X179073633Y-84385515D02*
G01*
X179108280Y-84387123D01*
X179153286Y-84401767D01*
X179165430Y-84445701D01*
X179153643Y-84501065D01*
X179109709Y-84516424D01*
X179017555Y-84516424D01*
X179017555Y-84385694D01*
X179048273Y-84384979D01*
X179073633Y-84385515D01*
G37*
D11*
X177177064Y-87240000D02*
X175722936Y-87240000D01*
X177177064Y-89060000D02*
X175722936Y-89060000D01*
X177177064Y-82890000D02*
X175722936Y-82890000D01*
X177177064Y-84710000D02*
X175722936Y-84710000D01*
G36*
X147151682Y-117916687D02*
G01*
X146780207Y-117916687D01*
X146963564Y-117235650D01*
X146968326Y-117235650D01*
X147151682Y-117916687D01*
G37*
G36*
X150370868Y-117750000D02*
G01*
X149500389Y-119055719D01*
X149004295Y-119055719D01*
X147642220Y-119055719D01*
X145330026Y-119055719D01*
X145025226Y-119055719D01*
X144529132Y-119055719D01*
X144529132Y-116940375D01*
X145025226Y-116940375D01*
X145025226Y-118559625D01*
X145330026Y-118559625D01*
X146289670Y-118559625D01*
X146592089Y-118559625D01*
X146708770Y-118171481D01*
X147223120Y-118171481D01*
X147339801Y-118559625D01*
X147642220Y-118559625D01*
X147158826Y-116940375D01*
X147785095Y-116940375D01*
X147785095Y-118559625D01*
X148077989Y-118559625D01*
X148077989Y-117628556D01*
X148044651Y-117290419D01*
X148051795Y-117290419D01*
X148632820Y-118559625D01*
X149004295Y-118559625D01*
X149004295Y-116940375D01*
X148711401Y-116940375D01*
X148711401Y-117871444D01*
X148744739Y-118209581D01*
X148737595Y-118209581D01*
X148156570Y-116940375D01*
X147785095Y-116940375D01*
X147158826Y-116940375D01*
X146773064Y-116940375D01*
X146289670Y-118559625D01*
X145330026Y-118559625D01*
X145330026Y-117883350D01*
X146030114Y-117883350D01*
X146030114Y-117616650D01*
X145330026Y-117616650D01*
X145330026Y-117209456D01*
X146125364Y-117209456D01*
X146125364Y-116940375D01*
X145025226Y-116940375D01*
X144529132Y-116940375D01*
X144529132Y-116444281D01*
X145025226Y-116444281D01*
X149004295Y-116444281D01*
X149500389Y-116444281D01*
X150370868Y-117750000D01*
G37*
X174850000Y-80850000D02*
X174850000Y-82550000D01*
X174850000Y-80850000D02*
X177400000Y-80850000D01*
X174850000Y-82550000D02*
X177400000Y-82550000D01*
X167960000Y-74500000D02*
X167960000Y-71200000D01*
X167960000Y-74500000D02*
X162450000Y-74500000D01*
X167960000Y-71200000D02*
X162450000Y-71200000D01*
X174500000Y-99800000D02*
X175750000Y-99800000D01*
X174790000Y-99510000D02*
X180760000Y-99510000D01*
X180760000Y-99510000D02*
X180760000Y-89390000D01*
X174800000Y-99500000D02*
X175550000Y-99500000D01*
X175550000Y-99500000D02*
X175550000Y-97700000D01*
X177050000Y-99500000D02*
X177050000Y-98750000D01*
X177050000Y-98750000D02*
X180000000Y-98750000D01*
X180000000Y-98750000D02*
X180000000Y-94450000D01*
X174500000Y-98550000D02*
X174500000Y-99800000D01*
X174800000Y-97700000D02*
X174800000Y-99500000D01*
X175550000Y-97700000D02*
X174800000Y-97700000D01*
X174800000Y-96200000D02*
X175550000Y-96200000D01*
X175550000Y-96200000D02*
X175550000Y-92700000D01*
X174800000Y-92700000D02*
X174800000Y-96200000D01*
X175550000Y-92700000D02*
X174800000Y-92700000D01*
X174800000Y-91200000D02*
X175550000Y-91200000D01*
X175550000Y-91200000D02*
X175550000Y-89400000D01*
X177050000Y-90150000D02*
X180000000Y-90150000D01*
X180000000Y-90150000D02*
X180000000Y-94450000D01*
X174800000Y-89400000D02*
X174800000Y-91200000D01*
X175550000Y-89400000D02*
X174800000Y-89400000D01*
X177050000Y-89400000D02*
X177050000Y-90150000D01*
X174790000Y-89390000D02*
X174790000Y-99510000D01*
X180760000Y-89390000D02*
X174790000Y-89390000D01*
X149650000Y-67775000D02*
X149650000Y-69025000D01*
X149940000Y-68065000D02*
X149940000Y-74035000D01*
X149940000Y-74035000D02*
X160060000Y-74035000D01*
X149950000Y-68075000D02*
X149950000Y-68825000D01*
X149950000Y-68825000D02*
X151750000Y-68825000D01*
X149950000Y-70325000D02*
X150700000Y-70325000D01*
X150700000Y-70325000D02*
X150700000Y-73275000D01*
X150700000Y-73275000D02*
X155000000Y-73275000D01*
X150900000Y-67775000D02*
X149650000Y-67775000D01*
X151750000Y-68075000D02*
X149950000Y-68075000D01*
X151750000Y-68825000D02*
X151750000Y-68075000D01*
X153250000Y-68075000D02*
X153250000Y-68825000D01*
X153250000Y-68825000D02*
X156750000Y-68825000D01*
X156750000Y-68075000D02*
X153250000Y-68075000D01*
X156750000Y-68825000D02*
X156750000Y-68075000D01*
X158250000Y-68075000D02*
X158250000Y-68825000D01*
X158250000Y-68825000D02*
X160050000Y-68825000D01*
X159300000Y-70325000D02*
X159300000Y-73275000D01*
X159300000Y-73275000D02*
X155000000Y-73275000D01*
X160050000Y-68075000D02*
X158250000Y-68075000D01*
X160050000Y-68825000D02*
X160050000Y-68075000D01*
X160050000Y-70325000D02*
X159300000Y-70325000D01*
X160060000Y-68065000D02*
X149940000Y-68065000D01*
X160060000Y-74035000D02*
X160060000Y-68065000D01*
X128550000Y-98560000D02*
X131850000Y-98560000D01*
X128550000Y-98560000D02*
X128550000Y-93050000D01*
X131850000Y-98560000D02*
X131850000Y-93050000D01*
G36*
X178752727Y-85782300D02*
G01*
X178786303Y-85784979D01*
X178827469Y-85792748D01*
X178858097Y-85806053D01*
X178879797Y-85826592D01*
X178894173Y-85856060D01*
X178902210Y-85896511D01*
X178904889Y-85950000D01*
X178902121Y-86006525D01*
X178893816Y-86048941D01*
X178878904Y-86079391D01*
X178856312Y-86100019D01*
X178824343Y-86112520D01*
X178781302Y-86118593D01*
X178724867Y-86116449D01*
X178724867Y-85781407D01*
X178752727Y-85782300D01*
G37*
G36*
X179475913Y-86346002D02*
G01*
X179327085Y-86346002D01*
X178759871Y-86346002D01*
X178550559Y-86346002D01*
X178210516Y-86346002D01*
X178061688Y-86346002D01*
X178015325Y-86191459D01*
X178210516Y-86191459D01*
X178550559Y-86191459D01*
X178633426Y-86191459D01*
X178680178Y-86194634D01*
X178722326Y-86196539D01*
X178759871Y-86197174D01*
X178817100Y-86194713D01*
X178864963Y-86187331D01*
X178903460Y-86175028D01*
X178946859Y-86145471D01*
X178975612Y-86101090D01*
X178987518Y-86061839D01*
X178994662Y-86013143D01*
X178997043Y-85955001D01*
X178995294Y-85907852D01*
X179084912Y-85907852D01*
X179213499Y-85828556D01*
X179241360Y-85805696D01*
X179238502Y-85849988D01*
X179238502Y-86191459D01*
X179327085Y-86191459D01*
X179327085Y-85705684D01*
X179238502Y-85705684D01*
X179084912Y-85813554D01*
X179084912Y-85907852D01*
X178995294Y-85907852D01*
X178994980Y-85899398D01*
X178988788Y-85852607D01*
X178978470Y-85814626D01*
X178953377Y-85770603D01*
X178915247Y-85739259D01*
X178881394Y-85724496D01*
X178839365Y-85713542D01*
X178789160Y-85706398D01*
X178754870Y-85703719D01*
X178716294Y-85702826D01*
X178677003Y-85703541D01*
X178633426Y-85705684D01*
X178633426Y-86191459D01*
X178550559Y-86191459D01*
X178550559Y-86108591D01*
X178318387Y-86108591D01*
X178550559Y-85779264D01*
X178550559Y-85705684D01*
X178222661Y-85705684D01*
X178222661Y-85788551D01*
X178441260Y-85788551D01*
X178210516Y-86113592D01*
X178210516Y-86191459D01*
X178015325Y-86191459D01*
X177824087Y-85553998D01*
X178061688Y-85553998D01*
X178210516Y-85553998D01*
X179327085Y-85553998D01*
X179475913Y-85553998D01*
X179475913Y-86346002D01*
G37*
G36*
X145722218Y-119482747D02*
G01*
X145747400Y-119494266D01*
X145765170Y-119514983D01*
X145777046Y-119546416D01*
X145783744Y-119591153D01*
X145785976Y-119651786D01*
X145783744Y-119710633D01*
X145777046Y-119754299D01*
X145765170Y-119785195D01*
X145747400Y-119805734D01*
X145722218Y-119817253D01*
X145688107Y-119821093D01*
X145653906Y-119817253D01*
X145628456Y-119805734D01*
X145610418Y-119785195D01*
X145598452Y-119754299D01*
X145591755Y-119710633D01*
X145589523Y-119651786D01*
X145591755Y-119591600D01*
X145598452Y-119546773D01*
X145610418Y-119515072D01*
X145628456Y-119494266D01*
X145653906Y-119482747D01*
X145688107Y-119478907D01*
X145722218Y-119482747D01*
G37*
G36*
X146150843Y-119482747D02*
G01*
X146176025Y-119494266D01*
X146193795Y-119514983D01*
X146205671Y-119546416D01*
X146212369Y-119591153D01*
X146214601Y-119651786D01*
X146212369Y-119710633D01*
X146205671Y-119754299D01*
X146193795Y-119785195D01*
X146176025Y-119805734D01*
X146150843Y-119817253D01*
X146116732Y-119821093D01*
X146082531Y-119817253D01*
X146057081Y-119805734D01*
X146039043Y-119785195D01*
X146027077Y-119754299D01*
X146020380Y-119710633D01*
X146018148Y-119651786D01*
X146020380Y-119591600D01*
X146027077Y-119546773D01*
X146039043Y-119515072D01*
X146057081Y-119494266D01*
X146082531Y-119482747D01*
X146116732Y-119478907D01*
X146150843Y-119482747D01*
G37*
G36*
X148202000Y-119253417D02*
G01*
X148240684Y-119259155D01*
X148278619Y-119268657D01*
X148315440Y-119281832D01*
X148350792Y-119298552D01*
X148384336Y-119318658D01*
X148415747Y-119341954D01*
X148444723Y-119368216D01*
X148470986Y-119397193D01*
X148494282Y-119428604D01*
X148514387Y-119462147D01*
X148531108Y-119497500D01*
X148544283Y-119534321D01*
X148553785Y-119572256D01*
X148559523Y-119610940D01*
X148561442Y-119650000D01*
X148559523Y-119689060D01*
X148553785Y-119727744D01*
X148544283Y-119765679D01*
X148531108Y-119802500D01*
X148514387Y-119837853D01*
X148494282Y-119871396D01*
X148470986Y-119902807D01*
X148444723Y-119931784D01*
X148415747Y-119958046D01*
X148384336Y-119981342D01*
X148350792Y-120001448D01*
X148315440Y-120018168D01*
X148278619Y-120031343D01*
X148240684Y-120040845D01*
X148202000Y-120046583D01*
X148162940Y-120048502D01*
X148014112Y-120048502D01*
X147849091Y-120048502D01*
X147585487Y-120048502D01*
X147107570Y-120048502D01*
X146726808Y-120048502D01*
X146116732Y-120048502D01*
X145688107Y-120048502D01*
X145277341Y-120048502D01*
X145085888Y-120048502D01*
X144937060Y-120048502D01*
X144898000Y-120046583D01*
X144859316Y-120040845D01*
X144821381Y-120031343D01*
X144784560Y-120018168D01*
X144749208Y-120001448D01*
X144715664Y-119981342D01*
X144684253Y-119958046D01*
X144655277Y-119931784D01*
X144629014Y-119902807D01*
X144605718Y-119871396D01*
X144585613Y-119837853D01*
X144568892Y-119802500D01*
X144555717Y-119765679D01*
X144546215Y-119727744D01*
X144540477Y-119689060D01*
X144538611Y-119651072D01*
X145085888Y-119651072D01*
X145087793Y-119711317D01*
X145093508Y-119761562D01*
X145103033Y-119801805D01*
X145126072Y-119847078D01*
X145160898Y-119877171D01*
X145191933Y-119889673D01*
X145230748Y-119897174D01*
X145277341Y-119899674D01*
X145334402Y-119896549D01*
X145376996Y-119887172D01*
X145407625Y-119870206D01*
X145428788Y-119844310D01*
X145442004Y-119807609D01*
X145448791Y-119758228D01*
X145359494Y-119758228D01*
X145336634Y-119808591D01*
X145313238Y-119818503D01*
X145277341Y-119821807D01*
X145242515Y-119817967D01*
X145216619Y-119806448D01*
X145198313Y-119785821D01*
X145186258Y-119754656D01*
X145179561Y-119710543D01*
X145177355Y-119651786D01*
X145499512Y-119651786D01*
X145501377Y-119712032D01*
X145506973Y-119762276D01*
X145516299Y-119802519D01*
X145538981Y-119847703D01*
X145573449Y-119877528D01*
X145604128Y-119889832D01*
X145642347Y-119897213D01*
X145688107Y-119899674D01*
X145733866Y-119897213D01*
X145772085Y-119889832D01*
X145802764Y-119877528D01*
X145837232Y-119847703D01*
X145859914Y-119802519D01*
X145869240Y-119762276D01*
X145874836Y-119712032D01*
X145876702Y-119651786D01*
X145928137Y-119651786D01*
X145930002Y-119712032D01*
X145935598Y-119762276D01*
X145944924Y-119802519D01*
X145967606Y-119847703D01*
X146002074Y-119877528D01*
X146032753Y-119889832D01*
X146070972Y-119897213D01*
X146116732Y-119899674D01*
X146162491Y-119897213D01*
X146183037Y-119893245D01*
X146839679Y-119893245D01*
X147107570Y-119893245D01*
X147107570Y-119813949D01*
X147018273Y-119813949D01*
X147018273Y-119486765D01*
X147102569Y-119486765D01*
X147102569Y-119407470D01*
X147219727Y-119407470D01*
X147219727Y-119893245D01*
X147307595Y-119893245D01*
X147307595Y-119613924D01*
X147297593Y-119512483D01*
X147299737Y-119512483D01*
X147474044Y-119893245D01*
X147585487Y-119893245D01*
X147585487Y-119650357D01*
X147647637Y-119650357D01*
X147649661Y-119710642D01*
X147655733Y-119761006D01*
X147665854Y-119801447D01*
X147690232Y-119846989D01*
X147726933Y-119877171D01*
X147759556Y-119889673D01*
X147800275Y-119897174D01*
X147849091Y-119899674D01*
X147893025Y-119897710D01*
X147930530Y-119891816D01*
X147968213Y-119880386D01*
X148012683Y-119861812D01*
X148012683Y-119619639D01*
X147825517Y-119619639D01*
X147825517Y-119697506D01*
X147926243Y-119697506D01*
X147926243Y-119806805D01*
X147890882Y-119817878D01*
X147846948Y-119821093D01*
X147808997Y-119817342D01*
X147780868Y-119806091D01*
X147760955Y-119785821D01*
X147747650Y-119755013D01*
X147740149Y-119711347D01*
X147737648Y-119652500D01*
X147739881Y-119592314D01*
X147746578Y-119547487D01*
X147758633Y-119515697D01*
X147776939Y-119494623D01*
X147802835Y-119482836D01*
X147837661Y-119478907D01*
X147888024Y-119484622D01*
X147914813Y-119503553D01*
X147925529Y-119541772D01*
X148014112Y-119541772D01*
X148007771Y-119492480D01*
X147994466Y-119456047D01*
X147972589Y-119430330D01*
X147940531Y-119413185D01*
X147896061Y-119403541D01*
X147836947Y-119400326D01*
X147791187Y-119402826D01*
X147752968Y-119410327D01*
X147722289Y-119422829D01*
X147687731Y-119453011D01*
X147664782Y-119498552D01*
X147655257Y-119539073D01*
X147649542Y-119589675D01*
X147647637Y-119650357D01*
X147585487Y-119650357D01*
X147585487Y-119407470D01*
X147497618Y-119407470D01*
X147497618Y-119686790D01*
X147507620Y-119788232D01*
X147505477Y-119788232D01*
X147331169Y-119407470D01*
X147219727Y-119407470D01*
X147102569Y-119407470D01*
X146844680Y-119407470D01*
X146844680Y-119486765D01*
X146928976Y-119486765D01*
X146928976Y-119813949D01*
X146839679Y-119813949D01*
X146839679Y-119893245D01*
X146183037Y-119893245D01*
X146200710Y-119889832D01*
X146231389Y-119877528D01*
X146265857Y-119847703D01*
X146288539Y-119802519D01*
X146297865Y-119762276D01*
X146303461Y-119712032D01*
X146305327Y-119651786D01*
X146303461Y-119590667D01*
X146297865Y-119539708D01*
X146288539Y-119498910D01*
X146265857Y-119453100D01*
X146231389Y-119422829D01*
X146200710Y-119410327D01*
X146186153Y-119407470D01*
X146389623Y-119407470D01*
X146389623Y-119892530D01*
X146726808Y-119892530D01*
X146726808Y-119812520D01*
X146481063Y-119812520D01*
X146481063Y-119407470D01*
X146389623Y-119407470D01*
X146186153Y-119407470D01*
X146162491Y-119402826D01*
X146116732Y-119400326D01*
X146070972Y-119402826D01*
X146032753Y-119410327D01*
X146002074Y-119422829D01*
X145967606Y-119453100D01*
X145944924Y-119498910D01*
X145935598Y-119539708D01*
X145930002Y-119590667D01*
X145928137Y-119651786D01*
X145876702Y-119651786D01*
X145874836Y-119590667D01*
X145869240Y-119539708D01*
X145859914Y-119498910D01*
X145837232Y-119453100D01*
X145802764Y-119422829D01*
X145772085Y-119410327D01*
X145733866Y-119402826D01*
X145688107Y-119400326D01*
X145642347Y-119402826D01*
X145604128Y-119410327D01*
X145573449Y-119422829D01*
X145538981Y-119453100D01*
X145516299Y-119498910D01*
X145506973Y-119539708D01*
X145501377Y-119590667D01*
X145499512Y-119651786D01*
X145177355Y-119651786D01*
X145177328Y-119651072D01*
X145179561Y-119590885D01*
X145186258Y-119546058D01*
X145198313Y-119514358D01*
X145216619Y-119493552D01*
X145242515Y-119482033D01*
X145277341Y-119478193D01*
X145309845Y-119481765D01*
X145331633Y-119492480D01*
X145345742Y-119513019D01*
X145355208Y-119546058D01*
X145444505Y-119546058D01*
X145438968Y-119495427D01*
X145426645Y-119457833D01*
X145406107Y-119431223D01*
X145375925Y-119413542D01*
X145333777Y-119403630D01*
X145277341Y-119400326D01*
X145230748Y-119402826D01*
X145191933Y-119410327D01*
X145160898Y-119422829D01*
X145126072Y-119453100D01*
X145103033Y-119498910D01*
X145093508Y-119539629D01*
X145087793Y-119590350D01*
X145085888Y-119651072D01*
X144538611Y-119651072D01*
X144538558Y-119650000D01*
X144540477Y-119610940D01*
X144546215Y-119572256D01*
X144555717Y-119534321D01*
X144568892Y-119497500D01*
X144585613Y-119462147D01*
X144605718Y-119428604D01*
X144629014Y-119397193D01*
X144655277Y-119368216D01*
X144684253Y-119341954D01*
X144715664Y-119318658D01*
X144749208Y-119298552D01*
X144784560Y-119281832D01*
X144821381Y-119268657D01*
X144859316Y-119259155D01*
X144898000Y-119253417D01*
X144937060Y-119251498D01*
X145085888Y-119251498D01*
X148014112Y-119251498D01*
X148162940Y-119251498D01*
X148202000Y-119253417D01*
G37*
X177710000Y-86750000D02*
X177710000Y-85050000D01*
X177710000Y-86750000D02*
X175050000Y-86750000D01*
X177710000Y-85050000D02*
X175050000Y-85050000D01*
G36*
X179334986Y-87987658D02*
G01*
X179369633Y-87989266D01*
X179414638Y-88003910D01*
X179426783Y-88047844D01*
X179414996Y-88103208D01*
X179371062Y-88118567D01*
X179278907Y-88118567D01*
X179278907Y-87987837D01*
X179309625Y-87987122D01*
X179334986Y-87987658D01*
G37*
G36*
X180097819Y-88545288D02*
G01*
X179948991Y-88545288D01*
X179544655Y-88545288D01*
X179188182Y-88545288D01*
X179039353Y-88545288D01*
X178994704Y-88396459D01*
X179188182Y-88396459D01*
X179278907Y-88396459D01*
X179278907Y-88197863D01*
X179324627Y-88197863D01*
X179362489Y-88200631D01*
X179387492Y-88208936D01*
X179413210Y-88251441D01*
X179446785Y-88396459D01*
X179544655Y-88396459D01*
X179503935Y-88245012D01*
X179491702Y-88209115D01*
X179477861Y-88185719D01*
X179433212Y-88163573D01*
X179433212Y-88157144D01*
X179483933Y-88141070D01*
X179509293Y-88108923D01*
X179516794Y-88051416D01*
X179516329Y-88046416D01*
X179603948Y-88046416D01*
X179695388Y-88046416D01*
X179705389Y-88006768D01*
X179730035Y-87986765D01*
X179776827Y-87980693D01*
X179823261Y-87986408D01*
X179846478Y-88005339D01*
X179853265Y-88043558D01*
X179848264Y-88076419D01*
X179829690Y-88103566D01*
X179797365Y-88133748D01*
X179756110Y-88168574D01*
X179730124Y-88189380D01*
X179697888Y-88214651D01*
X179659401Y-88244387D01*
X179614663Y-88278587D01*
X179614663Y-88396459D01*
X179948991Y-88396459D01*
X179948991Y-88316449D01*
X179706818Y-88316449D01*
X179706818Y-88310020D01*
X179749244Y-88279937D01*
X179785082Y-88253505D01*
X179814331Y-88230724D01*
X179852997Y-88197685D01*
X179891127Y-88161430D01*
X179916308Y-88132855D01*
X179931846Y-88107137D01*
X179939883Y-88079455D01*
X179942562Y-88044987D01*
X179938811Y-87995606D01*
X179927560Y-87958905D01*
X179907468Y-87933009D01*
X179877196Y-87916042D01*
X179834244Y-87906666D01*
X179776112Y-87903541D01*
X179718337Y-87906755D01*
X179675028Y-87916399D01*
X179643953Y-87933634D01*
X179622879Y-87959619D01*
X179610109Y-87996499D01*
X179603948Y-88046416D01*
X179516329Y-88046416D01*
X179512240Y-88002482D01*
X179498577Y-87965691D01*
X179474110Y-87939259D01*
X179437141Y-87921400D01*
X179404399Y-87913859D01*
X179363799Y-87909335D01*
X179315340Y-87907827D01*
X179273192Y-87908541D01*
X179188182Y-87911399D01*
X179188182Y-88396459D01*
X178994704Y-88396459D01*
X178802181Y-87754712D01*
X179039353Y-87754712D01*
X179188182Y-87754712D01*
X179948991Y-87754712D01*
X180097819Y-87754712D01*
X180097819Y-88545288D01*
G37*
G36*
X178500363Y-104753302D02*
G01*
X178296052Y-104698295D01*
X178296052Y-104696867D01*
X178500363Y-104641860D01*
X178500363Y-104753302D01*
G37*
G36*
X178500363Y-103038802D02*
G01*
X178296052Y-102983795D01*
X178296052Y-102982367D01*
X178500363Y-102927360D01*
X178500363Y-103038802D01*
G37*
G36*
X178406066Y-105046910D02*
G01*
X178429640Y-105081200D01*
X178434998Y-105110490D01*
X178436784Y-105149780D01*
X178436784Y-105194786D01*
X178284622Y-105194786D01*
X178284622Y-105162639D01*
X178286319Y-105118973D01*
X178291409Y-105086558D01*
X178313912Y-105048339D01*
X178358917Y-105036909D01*
X178406066Y-105046910D01*
G37*
G36*
X178406066Y-104189660D02*
G01*
X178429640Y-104223950D01*
X178434998Y-104253240D01*
X178436784Y-104292530D01*
X178436784Y-104337536D01*
X178284622Y-104337536D01*
X178284622Y-104305389D01*
X178286319Y-104261723D01*
X178291409Y-104229308D01*
X178313912Y-104191089D01*
X178358917Y-104179659D01*
X178406066Y-104189660D01*
G37*
G36*
X178848502Y-102780198D02*
G01*
X178848502Y-103473857D01*
X178848502Y-104337536D01*
X178848502Y-104494698D01*
X178848502Y-105194786D01*
X178848502Y-105536972D01*
X178848502Y-105728424D01*
X178848502Y-105877252D01*
X178846583Y-105916312D01*
X178840845Y-105954996D01*
X178831343Y-105992931D01*
X178818168Y-106029752D01*
X178801448Y-106065105D01*
X178781342Y-106098648D01*
X178758046Y-106130059D01*
X178731784Y-106159036D01*
X178702807Y-106185299D01*
X178671396Y-106208595D01*
X178637853Y-106228700D01*
X178602500Y-106245420D01*
X178565679Y-106258595D01*
X178527744Y-106268097D01*
X178489060Y-106273835D01*
X178450000Y-106275754D01*
X178410940Y-106273835D01*
X178372256Y-106268097D01*
X178334321Y-106258595D01*
X178297500Y-106245420D01*
X178262147Y-106228700D01*
X178228604Y-106208595D01*
X178197193Y-106185299D01*
X178168216Y-106159036D01*
X178141954Y-106130059D01*
X178118658Y-106098648D01*
X178098552Y-106065105D01*
X178081832Y-106029752D01*
X178068657Y-105992931D01*
X178059155Y-105954996D01*
X178053417Y-105916312D01*
X178051498Y-105877252D01*
X178051498Y-105728424D01*
X178051498Y-105536972D01*
X178200326Y-105536972D01*
X178202826Y-105583565D01*
X178210327Y-105622379D01*
X178222829Y-105653415D01*
X178253100Y-105688240D01*
X178298910Y-105711279D01*
X178339629Y-105720804D01*
X178390350Y-105726519D01*
X178451072Y-105728424D01*
X178511317Y-105726519D01*
X178561562Y-105720804D01*
X178601805Y-105711279D01*
X178647078Y-105688240D01*
X178677171Y-105653415D01*
X178689673Y-105622379D01*
X178697174Y-105583565D01*
X178699674Y-105536972D01*
X178696549Y-105479911D01*
X178687172Y-105437316D01*
X178670206Y-105406687D01*
X178644310Y-105385524D01*
X178607609Y-105372308D01*
X178558228Y-105365522D01*
X178558228Y-105454818D01*
X178608591Y-105477678D01*
X178618503Y-105501074D01*
X178621807Y-105536972D01*
X178617967Y-105571797D01*
X178606448Y-105597693D01*
X178585821Y-105615999D01*
X178554656Y-105628054D01*
X178510543Y-105634752D01*
X178451072Y-105636984D01*
X178390885Y-105634752D01*
X178346058Y-105628054D01*
X178314358Y-105615999D01*
X178293552Y-105597693D01*
X178282033Y-105571797D01*
X178278193Y-105536972D01*
X178281765Y-105504468D01*
X178292480Y-105482679D01*
X178313019Y-105468570D01*
X178346058Y-105459105D01*
X178346058Y-105369808D01*
X178295427Y-105375344D01*
X178257833Y-105387667D01*
X178231223Y-105408205D01*
X178213542Y-105438388D01*
X178203630Y-105480536D01*
X178200326Y-105536972D01*
X178051498Y-105536972D01*
X178051498Y-105174783D01*
X178205327Y-105174783D01*
X178207470Y-105286226D01*
X178693245Y-105286226D01*
X178693245Y-105194786D01*
X178516080Y-105194786D01*
X178516080Y-105142637D01*
X178514532Y-105095091D01*
X178509888Y-105055324D01*
X178502149Y-105023336D01*
X178483486Y-104987349D01*
X178455358Y-104963686D01*
X178415531Y-104950559D01*
X178361775Y-104946183D01*
X178307304Y-104951273D01*
X178266763Y-104966543D01*
X178238099Y-104994047D01*
X178219257Y-105035838D01*
X178211518Y-105073025D01*
X178206874Y-105119340D01*
X178205327Y-105174783D01*
X178051498Y-105174783D01*
X178051498Y-104755445D01*
X178207470Y-104755445D01*
X178693245Y-104900463D01*
X178693245Y-104809738D01*
X178576802Y-104774733D01*
X178576802Y-104620428D01*
X178693245Y-104585424D01*
X178693245Y-104494698D01*
X178207470Y-104639717D01*
X178207470Y-104755445D01*
X178051498Y-104755445D01*
X178051498Y-104317533D01*
X178205327Y-104317533D01*
X178207470Y-104428976D01*
X178693245Y-104428976D01*
X178693245Y-104337536D01*
X178516080Y-104337536D01*
X178516080Y-104285387D01*
X178514532Y-104237841D01*
X178509888Y-104198074D01*
X178502149Y-104166086D01*
X178483486Y-104130099D01*
X178455358Y-104106436D01*
X178415531Y-104093309D01*
X178361775Y-104088933D01*
X178307304Y-104094023D01*
X178266763Y-104109293D01*
X178238099Y-104136797D01*
X178219257Y-104178588D01*
X178211518Y-104215775D01*
X178206874Y-104262090D01*
X178205327Y-104317533D01*
X178051498Y-104317533D01*
X178051498Y-103565297D01*
X178207470Y-103565297D01*
X178693245Y-103565297D01*
X178693245Y-103473857D01*
X178490362Y-103473857D01*
X178490362Y-103263830D01*
X178410352Y-103263830D01*
X178410352Y-103473857D01*
X178288194Y-103473857D01*
X178288194Y-103235255D01*
X178207470Y-103235255D01*
X178207470Y-103565297D01*
X178051498Y-103565297D01*
X178051498Y-103040945D01*
X178207470Y-103040945D01*
X178693245Y-103185963D01*
X178693245Y-103095238D01*
X178576802Y-103060233D01*
X178576802Y-102905928D01*
X178693245Y-102870924D01*
X178693245Y-102780198D01*
X178207470Y-102925217D01*
X178207470Y-103040945D01*
X178051498Y-103040945D01*
X178051498Y-102737336D01*
X178207470Y-102737336D01*
X178693245Y-102737336D01*
X178693245Y-102649468D01*
X178413924Y-102649468D01*
X178312483Y-102659469D01*
X178312483Y-102657326D01*
X178693245Y-102483018D01*
X178693245Y-102371576D01*
X178207470Y-102371576D01*
X178207470Y-102459444D01*
X178486790Y-102459444D01*
X178588232Y-102449443D01*
X178588232Y-102451586D01*
X178207470Y-102625893D01*
X178207470Y-102737336D01*
X178051498Y-102737336D01*
X178051498Y-102371576D01*
X178051498Y-102222748D01*
X178053417Y-102183688D01*
X178059155Y-102145004D01*
X178068657Y-102107069D01*
X178081832Y-102070248D01*
X178098552Y-102034895D01*
X178118658Y-102001352D01*
X178141954Y-101969941D01*
X178168216Y-101940964D01*
X178197193Y-101914701D01*
X178228604Y-101891405D01*
X178262147Y-101871300D01*
X178297500Y-101854580D01*
X178334321Y-101841405D01*
X178372256Y-101831903D01*
X178410940Y-101826165D01*
X178450000Y-101824246D01*
X178489060Y-101826165D01*
X178527744Y-101831903D01*
X178565679Y-101841405D01*
X178602500Y-101854580D01*
X178637853Y-101871300D01*
X178671396Y-101891405D01*
X178702807Y-101914701D01*
X178731784Y-101940964D01*
X178758046Y-101969941D01*
X178781342Y-102001352D01*
X178801448Y-102034895D01*
X178818168Y-102070248D01*
X178831343Y-102107069D01*
X178840845Y-102145004D01*
X178846583Y-102183688D01*
X178848502Y-102222748D01*
X178848502Y-102371576D01*
X178848502Y-102780198D01*
G37*
G36*
X164370954Y-70283908D02*
G01*
X164405155Y-70289801D01*
X164426318Y-70300338D01*
X164440963Y-70345344D01*
X164429890Y-70389992D01*
X164388099Y-70403208D01*
X164288087Y-70403208D01*
X164288087Y-70281765D01*
X164311661Y-70281765D01*
X164370954Y-70283908D01*
G37*
G36*
X164424890Y-70487862D02*
G01*
X164452036Y-70508936D01*
X164460251Y-70551798D01*
X164450250Y-70593589D01*
X164417032Y-70614306D01*
X164388724Y-70618860D01*
X164350238Y-70620378D01*
X164320412Y-70620021D01*
X164288087Y-70618950D01*
X164288087Y-70481790D01*
X164370240Y-70481790D01*
X164424890Y-70487862D01*
G37*
G36*
X164736714Y-70284086D02*
G01*
X164770290Y-70286765D01*
X164811456Y-70294534D01*
X164842085Y-70307839D01*
X164863784Y-70328378D01*
X164878161Y-70357846D01*
X164886197Y-70398297D01*
X164888876Y-70451786D01*
X164886108Y-70508311D01*
X164877803Y-70550727D01*
X164862891Y-70581177D01*
X164840299Y-70601805D01*
X164808330Y-70614306D01*
X164765289Y-70620378D01*
X164708854Y-70618235D01*
X164708854Y-70283193D01*
X164736714Y-70284086D01*
G37*
G36*
X165538481Y-70848502D02*
G01*
X165389653Y-70848502D01*
X164743858Y-70848502D01*
X164338093Y-70848502D01*
X163937329Y-70848502D01*
X163749448Y-70848502D01*
X163600620Y-70848502D01*
X163510109Y-70546798D01*
X163751591Y-70546798D01*
X163754092Y-70600019D01*
X163765879Y-70639667D01*
X163788292Y-70667706D01*
X163822672Y-70686101D01*
X163871517Y-70696281D01*
X163937329Y-70699674D01*
X164001176Y-70696638D01*
X164026185Y-70691816D01*
X164198076Y-70691816D01*
X164247923Y-70695785D01*
X164294596Y-70698166D01*
X164338093Y-70698960D01*
X164389965Y-70697571D01*
X164433184Y-70693403D01*
X164433970Y-70693245D01*
X164617414Y-70693245D01*
X164664166Y-70696420D01*
X164706314Y-70698325D01*
X164743858Y-70698960D01*
X164801088Y-70696499D01*
X164848951Y-70689117D01*
X164887448Y-70676814D01*
X164930846Y-70647257D01*
X164959599Y-70602876D01*
X164971506Y-70563625D01*
X164978649Y-70514929D01*
X164981031Y-70456787D01*
X164978967Y-70401184D01*
X164972776Y-70354393D01*
X164969735Y-70343201D01*
X165044610Y-70343201D01*
X165136050Y-70343201D01*
X165146051Y-70303553D01*
X165170697Y-70283551D01*
X165217489Y-70277478D01*
X165263923Y-70283193D01*
X165287140Y-70302124D01*
X165293927Y-70340343D01*
X165288926Y-70373205D01*
X165270353Y-70400351D01*
X165238027Y-70430533D01*
X165196772Y-70465359D01*
X165170787Y-70486165D01*
X165138550Y-70511436D01*
X165100063Y-70541172D01*
X165055326Y-70575373D01*
X165055326Y-70693245D01*
X165389653Y-70693245D01*
X165389653Y-70613235D01*
X165147480Y-70613235D01*
X165147480Y-70606805D01*
X165189906Y-70576722D01*
X165225744Y-70550290D01*
X165254993Y-70527510D01*
X165293659Y-70494470D01*
X165331789Y-70458215D01*
X165356971Y-70429640D01*
X165372508Y-70403923D01*
X165380545Y-70376241D01*
X165383224Y-70341772D01*
X165379473Y-70292391D01*
X165368222Y-70255690D01*
X165348130Y-70229794D01*
X165317858Y-70212827D01*
X165274907Y-70203451D01*
X165216774Y-70200326D01*
X165158999Y-70203541D01*
X165115690Y-70213185D01*
X165084615Y-70230419D01*
X165063541Y-70256404D01*
X165050772Y-70293284D01*
X165044610Y-70343201D01*
X164969735Y-70343201D01*
X164962457Y-70316412D01*
X164937364Y-70272389D01*
X164899235Y-70241045D01*
X164865381Y-70226282D01*
X164823352Y-70215328D01*
X164773148Y-70208184D01*
X164738858Y-70205505D01*
X164700281Y-70204612D01*
X164660991Y-70205327D01*
X164617414Y-70207470D01*
X164617414Y-70693245D01*
X164433970Y-70693245D01*
X164467752Y-70686458D01*
X164506596Y-70669581D01*
X164532403Y-70643953D01*
X164546869Y-70607520D01*
X164551691Y-70558228D01*
X164549816Y-70523045D01*
X164544190Y-70496077D01*
X164518473Y-70460358D01*
X164466681Y-70441785D01*
X164466681Y-70437498D01*
X164497488Y-70426247D01*
X164517044Y-70408209D01*
X164527492Y-70380170D01*
X164530974Y-70338915D01*
X164526063Y-70292034D01*
X164511329Y-70257119D01*
X164484987Y-70232384D01*
X164445249Y-70216042D01*
X164409928Y-70209295D01*
X164365874Y-70205247D01*
X164315715Y-70203965D01*
X164198076Y-70206041D01*
X164198076Y-70691816D01*
X164026185Y-70691816D01*
X164048414Y-70687530D01*
X164081722Y-70671099D01*
X164103778Y-70646096D01*
X164116101Y-70610734D01*
X164120209Y-70563228D01*
X164116815Y-70524206D01*
X164106636Y-70492862D01*
X164088508Y-70467413D01*
X164061273Y-70446071D01*
X164022786Y-70426961D01*
X163970904Y-70408209D01*
X163910986Y-70387581D01*
X163872678Y-70369990D01*
X163845174Y-70333200D01*
X163853033Y-70299624D01*
X163879107Y-70283193D01*
X163931614Y-70278193D01*
X163982692Y-70283551D01*
X164009123Y-70301410D01*
X164019482Y-70337486D01*
X164110208Y-70337486D01*
X164106636Y-70289444D01*
X164094491Y-70253904D01*
X164072792Y-70228901D01*
X164040556Y-70212470D01*
X163995282Y-70203362D01*
X163934471Y-70200326D01*
X163872410Y-70203273D01*
X163826243Y-70212113D01*
X163793561Y-70227919D01*
X163771951Y-70251761D01*
X163759896Y-70285337D01*
X163755878Y-70330342D01*
X163759271Y-70365525D01*
X163769451Y-70393922D01*
X163787757Y-70417228D01*
X163815528Y-70437141D01*
X163854908Y-70455269D01*
X163908039Y-70473217D01*
X163950455Y-70487058D01*
X163981977Y-70500006D01*
X164019482Y-70527510D01*
X164030912Y-70563943D01*
X164023054Y-70599304D01*
X163996265Y-70616807D01*
X163943044Y-70621807D01*
X163908307Y-70620200D01*
X163882679Y-70615378D01*
X163852318Y-70592875D01*
X163840888Y-70546798D01*
X163751591Y-70546798D01*
X163510109Y-70546798D01*
X163361519Y-70051498D01*
X163600620Y-70051498D01*
X163749448Y-70051498D01*
X165389653Y-70051498D01*
X165538481Y-70051498D01*
X165538481Y-70848502D01*
G37*
G36*
X176752109Y-103351368D02*
G01*
X176897662Y-103373693D01*
X177000652Y-103413281D01*
X177069112Y-103472515D01*
X177107510Y-103556454D01*
X177120309Y-103670158D01*
X177107510Y-103784161D01*
X177069112Y-103868993D01*
X177000652Y-103929119D01*
X176897662Y-103969005D01*
X176752109Y-103991329D01*
X176555953Y-103998771D01*
X176355333Y-103991329D01*
X176205909Y-103969005D01*
X176100241Y-103929119D01*
X176030887Y-103868993D01*
X175992490Y-103784161D01*
X175979691Y-103670158D01*
X175992490Y-103556454D01*
X176030887Y-103472515D01*
X176099944Y-103413281D01*
X176204719Y-103373693D01*
X176353845Y-103351368D01*
X176555953Y-103343927D01*
X176752109Y-103351368D01*
G37*
G36*
X177878341Y-103670158D02*
G01*
X177878341Y-104465496D01*
X177878341Y-105729940D01*
X177878341Y-106226033D01*
X175221659Y-106226033D01*
X175221659Y-105729940D01*
X175741566Y-105729940D01*
X177360816Y-105729940D01*
X177360816Y-105448952D01*
X176541666Y-105448952D01*
X176120184Y-105477527D01*
X176120184Y-105468002D01*
X176820272Y-105217971D01*
X176820272Y-104977465D01*
X176120184Y-104727433D01*
X176120184Y-104717908D01*
X176541666Y-104746483D01*
X177360816Y-104746483D01*
X177360816Y-104465496D01*
X175741566Y-104465496D01*
X175741566Y-104820302D01*
X176517853Y-105084621D01*
X176517853Y-105110815D01*
X175741566Y-105370371D01*
X175741566Y-105729940D01*
X175221659Y-105729940D01*
X175221659Y-103670158D01*
X175717753Y-103670158D01*
X175726088Y-103822691D01*
X175751091Y-103950088D01*
X175792762Y-104052349D01*
X175893668Y-104167244D01*
X176046366Y-104242849D01*
X176182361Y-104273938D01*
X176352224Y-104292591D01*
X176555953Y-104298808D01*
X176756772Y-104292591D01*
X176924253Y-104273938D01*
X177058397Y-104242849D01*
X177209011Y-104167244D01*
X177308428Y-104052349D01*
X177349439Y-103950088D01*
X177374045Y-103822691D01*
X177382247Y-103670158D01*
X177374045Y-103517626D01*
X177349439Y-103390229D01*
X177308428Y-103287968D01*
X177209011Y-103173072D01*
X177058397Y-103097468D01*
X176924253Y-103066379D01*
X176756772Y-103047726D01*
X176555953Y-103041508D01*
X176352224Y-103047726D01*
X176182361Y-103066379D01*
X176046366Y-103097468D01*
X175893668Y-103173072D01*
X175792762Y-103287968D01*
X175751091Y-103390229D01*
X175726088Y-103517626D01*
X175717753Y-103670158D01*
X175221659Y-103670158D01*
X175221659Y-102827196D01*
X175741566Y-102827196D01*
X176013028Y-102827196D01*
X176013028Y-102393808D01*
X177360816Y-102393808D01*
X177360816Y-102089008D01*
X176013028Y-102089008D01*
X176013028Y-101655621D01*
X175741566Y-101655621D01*
X175741566Y-102827196D01*
X175221659Y-102827196D01*
X175221659Y-101655621D01*
X175221659Y-101159527D01*
X176550000Y-100273967D01*
X177878341Y-101159527D01*
X177878341Y-101655621D01*
X177878341Y-102089008D01*
X177878341Y-103670158D01*
G37*
G36*
X176514079Y-79984444D02*
G01*
X176547655Y-79987122D01*
X176588821Y-79994891D01*
X176619450Y-80008197D01*
X176641149Y-80028735D01*
X176655526Y-80058203D01*
X176663562Y-80098654D01*
X176666241Y-80152143D01*
X176663473Y-80208668D01*
X176655169Y-80251084D01*
X176640256Y-80281534D01*
X176617664Y-80302162D01*
X176585696Y-80314663D01*
X176542654Y-80320736D01*
X176486219Y-80318593D01*
X176486219Y-79983551D01*
X176514079Y-79984444D01*
G37*
G36*
X177315846Y-80548145D02*
G01*
X177167018Y-80548145D01*
X176521223Y-80548145D01*
X176311911Y-80548145D01*
X175971869Y-80548145D01*
X175823041Y-80548145D01*
X175776678Y-80393602D01*
X175971869Y-80393602D01*
X176311911Y-80393602D01*
X176394779Y-80393602D01*
X176441531Y-80396777D01*
X176483679Y-80398682D01*
X176521223Y-80399317D01*
X176578453Y-80396856D01*
X176626316Y-80389474D01*
X176664813Y-80377171D01*
X176708211Y-80347614D01*
X176736964Y-80303233D01*
X176748871Y-80263982D01*
X176756014Y-80215286D01*
X176758396Y-80157144D01*
X176756332Y-80101542D01*
X176750141Y-80054750D01*
X176747100Y-80043558D01*
X176821975Y-80043558D01*
X176913415Y-80043558D01*
X176923416Y-80003910D01*
X176948062Y-79983908D01*
X176994854Y-79977836D01*
X177041288Y-79983551D01*
X177064505Y-80002482D01*
X177071292Y-80040701D01*
X177066291Y-80073562D01*
X177047718Y-80100708D01*
X177015392Y-80130890D01*
X176974137Y-80165716D01*
X176948152Y-80186522D01*
X176915915Y-80211793D01*
X176877428Y-80241529D01*
X176832691Y-80275730D01*
X176832691Y-80393602D01*
X177167018Y-80393602D01*
X177167018Y-80313592D01*
X176924845Y-80313592D01*
X176924845Y-80307162D01*
X176967271Y-80277079D01*
X177003109Y-80250647D01*
X177032359Y-80227867D01*
X177071024Y-80194827D01*
X177109154Y-80158572D01*
X177134336Y-80129997D01*
X177149873Y-80104280D01*
X177157910Y-80076598D01*
X177160589Y-80042129D01*
X177156838Y-79992748D01*
X177145587Y-79956047D01*
X177125495Y-79930151D01*
X177095224Y-79913185D01*
X177052272Y-79903809D01*
X176994139Y-79900683D01*
X176936364Y-79903898D01*
X176893055Y-79913542D01*
X176861980Y-79930776D01*
X176840906Y-79956762D01*
X176828137Y-79993641D01*
X176821975Y-80043558D01*
X176747100Y-80043558D01*
X176739822Y-80016769D01*
X176714730Y-79972746D01*
X176676600Y-79941402D01*
X176642746Y-79926639D01*
X176600717Y-79915685D01*
X176550513Y-79908541D01*
X176516223Y-79905862D01*
X176477646Y-79904969D01*
X176438356Y-79905684D01*
X176394779Y-79907827D01*
X176394779Y-80393602D01*
X176311911Y-80393602D01*
X176311911Y-80310734D01*
X176079739Y-80310734D01*
X176311911Y-79981407D01*
X176311911Y-79907827D01*
X175984013Y-79907827D01*
X175984013Y-79990694D01*
X176202612Y-79990694D01*
X175971869Y-80315735D01*
X175971869Y-80393602D01*
X175776678Y-80393602D01*
X175584154Y-79751855D01*
X175823041Y-79751855D01*
X175971869Y-79751855D01*
X177167018Y-79751855D01*
X177315846Y-79751855D01*
X177315846Y-80548145D01*
G37*
G36*
X148024346Y-71050000D02*
G01*
X147153867Y-72355719D01*
X146657773Y-72355719D01*
X145064717Y-72355719D01*
X144171748Y-72355719D01*
X143675654Y-72355719D01*
X143675654Y-71859625D01*
X144171748Y-71859625D01*
X145064717Y-71859625D01*
X145064717Y-71595306D01*
X144767060Y-71595306D01*
X144767060Y-70504694D01*
X145048048Y-70504694D01*
X145048048Y-70240375D01*
X145438573Y-70240375D01*
X145438573Y-71859625D01*
X145731467Y-71859625D01*
X145731467Y-70928556D01*
X145698129Y-70590419D01*
X145705273Y-70590419D01*
X146286298Y-71859625D01*
X146657773Y-71859625D01*
X146657773Y-70240375D01*
X146364879Y-70240375D01*
X146364879Y-71171444D01*
X146398217Y-71509581D01*
X146391073Y-71509581D01*
X145810048Y-70240375D01*
X145438573Y-70240375D01*
X145048048Y-70240375D01*
X144188417Y-70240375D01*
X144188417Y-70504694D01*
X144469404Y-70504694D01*
X144469404Y-71595306D01*
X144171748Y-71595306D01*
X144171748Y-71859625D01*
X143675654Y-71859625D01*
X143675654Y-69744281D01*
X144171748Y-69744281D01*
X146657773Y-69744281D01*
X147153867Y-69744281D01*
X148024346Y-71050000D01*
G37*
G36*
X132938888Y-102925172D02*
G01*
X132757278Y-102876277D01*
X132757278Y-102875007D01*
X132938888Y-102826112D01*
X132938888Y-102925172D01*
G37*
G36*
X132840780Y-104341540D02*
G01*
X132852528Y-104378687D01*
X132852528Y-104467587D01*
X132744578Y-104467587D01*
X132744578Y-104446632D01*
X132746483Y-104393927D01*
X132751721Y-104363527D01*
X132761088Y-104344715D01*
X132801093Y-104331697D01*
X132840780Y-104341540D01*
G37*
G36*
X133021755Y-104323442D02*
G01*
X133040170Y-104352970D01*
X133044218Y-104378132D01*
X133045568Y-104412342D01*
X133045250Y-104438854D01*
X133044298Y-104467587D01*
X132922378Y-104467587D01*
X132922378Y-104394562D01*
X132927775Y-104345985D01*
X132946508Y-104321855D01*
X132984608Y-104314552D01*
X133021755Y-104323442D01*
G37*
G36*
X132945952Y-106984013D02*
G01*
X132983655Y-106991395D01*
X133010722Y-107004651D01*
X133029058Y-107024732D01*
X133040170Y-107053149D01*
X133045568Y-107091407D01*
X133043663Y-107141572D01*
X132745848Y-107141572D01*
X132746641Y-107116807D01*
X132749023Y-107086962D01*
X132755928Y-107050371D01*
X132767755Y-107023145D01*
X132786011Y-107003857D01*
X132812205Y-106991077D01*
X132848162Y-106983934D01*
X132895708Y-106981552D01*
X132945952Y-106984013D01*
G37*
G36*
X132945952Y-105079013D02*
G01*
X132983655Y-105086395D01*
X133010722Y-105099651D01*
X133029058Y-105119732D01*
X133040170Y-105148149D01*
X133045568Y-105186407D01*
X133043663Y-105236572D01*
X132745848Y-105236572D01*
X132746641Y-105211807D01*
X132749023Y-105181962D01*
X132755928Y-105145371D01*
X132767755Y-105118145D01*
X132786011Y-105098857D01*
X132812205Y-105086077D01*
X132848162Y-105078934D01*
X132895708Y-105076552D01*
X132945952Y-105079013D01*
G37*
G36*
X132945952Y-103174013D02*
G01*
X132983655Y-103181395D01*
X133010722Y-103194651D01*
X133029058Y-103214732D01*
X133040170Y-103243149D01*
X133045568Y-103281407D01*
X133043663Y-103331572D01*
X132745848Y-103331572D01*
X132746641Y-103306807D01*
X132749023Y-103276962D01*
X132755928Y-103240371D01*
X132767755Y-103213145D01*
X132786011Y-103193857D01*
X132812205Y-103181077D01*
X132848162Y-103173934D01*
X132895708Y-103171552D01*
X132945952Y-103174013D01*
G37*
G36*
X132945952Y-100888013D02*
G01*
X132983655Y-100895395D01*
X133010722Y-100908651D01*
X133029058Y-100928732D01*
X133040170Y-100957149D01*
X133045568Y-100995407D01*
X133043663Y-101045572D01*
X132745848Y-101045572D01*
X132746641Y-101020807D01*
X132749023Y-100990962D01*
X132755928Y-100954371D01*
X132767755Y-100927145D01*
X132786011Y-100907857D01*
X132812205Y-100895077D01*
X132848162Y-100887934D01*
X132895708Y-100885552D01*
X132945952Y-100888013D01*
G37*
G36*
X132948016Y-107362632D02*
G01*
X132986830Y-107368585D01*
X133014294Y-107379142D01*
X133032550Y-107394937D01*
X133042789Y-107417321D01*
X133046203Y-107447642D01*
X133042789Y-107478043D01*
X133032550Y-107500665D01*
X133014294Y-107516699D01*
X132986830Y-107527335D01*
X132948016Y-107533288D01*
X132895708Y-107535272D01*
X132842209Y-107533288D01*
X132802363Y-107527335D01*
X132774184Y-107516699D01*
X132755690Y-107500665D01*
X132745451Y-107478043D01*
X132742038Y-107447642D01*
X132745451Y-107417321D01*
X132755690Y-107394937D01*
X132774105Y-107379142D01*
X132802045Y-107368585D01*
X132841812Y-107362632D01*
X132895708Y-107360647D01*
X132948016Y-107362632D01*
G37*
G36*
X133360104Y-99430767D02*
G01*
X133360104Y-99708897D01*
X133360104Y-100207372D01*
X133360104Y-100438512D01*
X133360104Y-101014457D01*
X133360104Y-101187177D01*
X133360104Y-101613897D01*
X133360104Y-101951082D01*
X133360104Y-102332082D01*
X133360104Y-102695302D01*
X133360104Y-103300457D01*
X133360104Y-103978002D01*
X133360104Y-104423137D01*
X133360104Y-105205457D01*
X133360104Y-105391512D01*
X133360104Y-105804897D01*
X133360104Y-106359887D01*
X133360104Y-106566897D01*
X133360104Y-107110457D01*
X133360104Y-107447642D01*
X133360104Y-107659732D01*
X133360104Y-107996917D01*
X133360104Y-108129209D01*
X133360104Y-108375272D01*
X132539896Y-108129209D01*
X132539896Y-107996917D01*
X132678538Y-107996917D01*
X133110338Y-107996917D01*
X133110338Y-107921987D01*
X132891898Y-107921987D01*
X132779503Y-107929607D01*
X132779503Y-107927067D01*
X132966193Y-107860392D01*
X132966193Y-107796257D01*
X132779503Y-107729582D01*
X132779503Y-107727042D01*
X132891898Y-107734662D01*
X133110338Y-107734662D01*
X133110338Y-107659732D01*
X132678538Y-107659732D01*
X132678538Y-107754347D01*
X132885548Y-107824832D01*
X132885548Y-107831817D01*
X132678538Y-107901032D01*
X132678538Y-107996917D01*
X132539896Y-107996917D01*
X132539896Y-107447642D01*
X132672188Y-107447642D01*
X132674410Y-107488318D01*
X132681078Y-107522290D01*
X132692190Y-107549560D01*
X132719098Y-107580199D01*
X132759818Y-107600360D01*
X132796083Y-107608650D01*
X132841380Y-107613624D01*
X132895708Y-107615282D01*
X132949259Y-107613624D01*
X132993921Y-107608650D01*
X133029693Y-107600360D01*
X133069856Y-107580199D01*
X133096368Y-107549560D01*
X133107304Y-107522290D01*
X133113865Y-107488318D01*
X133116053Y-107447642D01*
X133113865Y-107406967D01*
X133107304Y-107372995D01*
X133096368Y-107345725D01*
X133069856Y-107315086D01*
X133029693Y-107294925D01*
X132993921Y-107286635D01*
X132949259Y-107281661D01*
X132895708Y-107280002D01*
X132841380Y-107281661D01*
X132796083Y-107286635D01*
X132759818Y-107294925D01*
X132719098Y-107315086D01*
X132692190Y-107345725D01*
X132681078Y-107372995D01*
X132674410Y-107406967D01*
X132672188Y-107447642D01*
X132539896Y-107447642D01*
X132539896Y-107149192D01*
X132675998Y-107149192D01*
X132676633Y-107184117D01*
X132678538Y-107222852D01*
X133110338Y-107222852D01*
X133113160Y-107181295D01*
X133114853Y-107143830D01*
X133115418Y-107110457D01*
X133113230Y-107059587D01*
X133106669Y-107017042D01*
X133095733Y-106982822D01*
X133069459Y-106944246D01*
X133030010Y-106918687D01*
X132995120Y-106908104D01*
X132951834Y-106901754D01*
X132900153Y-106899637D01*
X132850728Y-106901472D01*
X132809136Y-106906975D01*
X132775375Y-106916147D01*
X132736243Y-106938452D01*
X132708383Y-106972345D01*
X132695259Y-107002437D01*
X132685522Y-107039796D01*
X132679173Y-107084422D01*
X132676791Y-107114902D01*
X132675998Y-107149192D01*
X132539896Y-107149192D01*
X132539896Y-106800577D01*
X132678538Y-106800577D01*
X132749023Y-106800577D01*
X132749023Y-106725647D01*
X133039853Y-106725647D01*
X133039853Y-106805022D01*
X133110338Y-106805022D01*
X133110338Y-106566897D01*
X133039853Y-106566897D01*
X133039853Y-106646272D01*
X132749023Y-106646272D01*
X132749023Y-106571342D01*
X132678538Y-106571342D01*
X132678538Y-106800577D01*
X132539896Y-106800577D01*
X132539896Y-106441167D01*
X132678538Y-106441167D01*
X133110338Y-106441167D01*
X133110338Y-106359887D01*
X132929998Y-106359887D01*
X132929998Y-106173197D01*
X132858878Y-106173197D01*
X132858878Y-106359887D01*
X132750293Y-106359887D01*
X132750293Y-106147797D01*
X132678538Y-106147797D01*
X132678538Y-106441167D01*
X132539896Y-106441167D01*
X132539896Y-106038577D01*
X132678538Y-106038577D01*
X132749023Y-106038577D01*
X132749023Y-105963647D01*
X133039853Y-105963647D01*
X133039853Y-106043022D01*
X133110338Y-106043022D01*
X133110338Y-105804897D01*
X133039853Y-105804897D01*
X133039853Y-105884272D01*
X132749023Y-105884272D01*
X132749023Y-105809342D01*
X132678538Y-105809342D01*
X132678538Y-106038577D01*
X132539896Y-106038577D01*
X132539896Y-105672182D01*
X132678538Y-105672182D01*
X133110338Y-105672182D01*
X133110338Y-105391512D01*
X133040488Y-105391512D01*
X133040488Y-105590902D01*
X132921108Y-105590902D01*
X132921108Y-105429612D01*
X132851258Y-105429612D01*
X132851258Y-105590902D01*
X132748388Y-105590902D01*
X132748388Y-105404212D01*
X132678538Y-105404212D01*
X132678538Y-105672182D01*
X132539896Y-105672182D01*
X132539896Y-105244192D01*
X132675998Y-105244192D01*
X132676633Y-105279117D01*
X132678538Y-105317852D01*
X133110338Y-105317852D01*
X133113160Y-105276295D01*
X133114853Y-105238830D01*
X133115418Y-105205457D01*
X133113230Y-105154587D01*
X133106669Y-105112042D01*
X133095733Y-105077822D01*
X133069459Y-105039246D01*
X133030010Y-105013687D01*
X132995120Y-105003104D01*
X132951834Y-104996754D01*
X132900153Y-104994637D01*
X132850728Y-104996472D01*
X132809136Y-105001975D01*
X132775375Y-105011147D01*
X132736243Y-105033452D01*
X132708383Y-105067345D01*
X132695259Y-105097437D01*
X132685522Y-105134796D01*
X132679173Y-105179422D01*
X132676791Y-105209902D01*
X132675998Y-105244192D01*
X132539896Y-105244192D01*
X132539896Y-104443028D01*
X132675421Y-104443028D01*
X132677267Y-104547597D01*
X133109068Y-104547597D01*
X133112595Y-104503289D01*
X133114712Y-104461802D01*
X133115418Y-104423137D01*
X133114183Y-104377029D01*
X133110479Y-104338612D01*
X133104305Y-104307885D01*
X133089303Y-104273357D01*
X133066523Y-104250417D01*
X133034137Y-104237559D01*
X132990323Y-104233272D01*
X132959049Y-104234939D01*
X132935077Y-104239940D01*
X132903328Y-104262800D01*
X132886818Y-104308837D01*
X132883008Y-104308837D01*
X132873006Y-104281453D01*
X132856973Y-104264070D01*
X132832049Y-104254783D01*
X132795378Y-104251687D01*
X132753706Y-104256053D01*
X132722670Y-104269150D01*
X132700683Y-104292566D01*
X132686158Y-104327887D01*
X132680160Y-104359285D01*
X132676562Y-104398443D01*
X132675421Y-104443028D01*
X132539896Y-104443028D01*
X132539896Y-104188187D01*
X132677267Y-104188187D01*
X132934443Y-104059282D01*
X133110338Y-104059282D01*
X133110338Y-103978002D01*
X132934443Y-103978002D01*
X132677267Y-103848462D01*
X132677267Y-103935457D01*
X132854433Y-104016737D01*
X132854433Y-104019912D01*
X132677267Y-104100557D01*
X132677267Y-104188187D01*
X132539896Y-104188187D01*
X132539896Y-103339192D01*
X132675998Y-103339192D01*
X132676633Y-103374117D01*
X132678538Y-103412852D01*
X133110338Y-103412852D01*
X133113160Y-103371295D01*
X133114853Y-103333830D01*
X133115418Y-103300457D01*
X133113230Y-103249587D01*
X133106669Y-103207042D01*
X133095733Y-103172822D01*
X133069459Y-103134246D01*
X133030010Y-103108687D01*
X132995120Y-103098104D01*
X132951834Y-103091754D01*
X132900153Y-103089637D01*
X132850728Y-103091472D01*
X132809136Y-103096975D01*
X132775375Y-103106147D01*
X132736243Y-103128452D01*
X132708383Y-103162345D01*
X132695259Y-103192437D01*
X132685522Y-103229796D01*
X132679173Y-103274422D01*
X132676791Y-103304902D01*
X132675998Y-103339192D01*
X132539896Y-103339192D01*
X132539896Y-102927077D01*
X132678538Y-102927077D01*
X133110338Y-103055982D01*
X133110338Y-102975337D01*
X133006833Y-102944222D01*
X133006833Y-102807062D01*
X133110338Y-102775947D01*
X133110338Y-102695302D01*
X132678538Y-102824207D01*
X132678538Y-102927077D01*
X132539896Y-102927077D01*
X132539896Y-102657202D01*
X132678538Y-102657202D01*
X133110338Y-102657202D01*
X133110338Y-102579097D01*
X132862053Y-102579097D01*
X132771883Y-102587987D01*
X132771883Y-102586082D01*
X133110338Y-102431142D01*
X133110338Y-102332082D01*
X132678538Y-102332082D01*
X132678538Y-102410187D01*
X132926823Y-102410187D01*
X133016993Y-102401297D01*
X133016993Y-102403202D01*
X132678538Y-102558142D01*
X132678538Y-102657202D01*
X132539896Y-102657202D01*
X132539896Y-102276202D01*
X132678538Y-102276202D01*
X133110338Y-102276202D01*
X133110338Y-102198097D01*
X132862053Y-102198097D01*
X132771883Y-102206987D01*
X132771883Y-102205082D01*
X133110338Y-102050142D01*
X133110338Y-101951082D01*
X132678538Y-101951082D01*
X132678538Y-102029187D01*
X132926823Y-102029187D01*
X133016993Y-102020297D01*
X133016993Y-102022202D01*
X132678538Y-102177142D01*
X132678538Y-102276202D01*
X132539896Y-102276202D01*
X132539896Y-101847577D01*
X132678538Y-101847577D01*
X132749023Y-101847577D01*
X132749023Y-101772647D01*
X133039853Y-101772647D01*
X133039853Y-101852022D01*
X133110338Y-101852022D01*
X133110338Y-101613897D01*
X133039853Y-101613897D01*
X133039853Y-101693272D01*
X132749023Y-101693272D01*
X132749023Y-101618342D01*
X132678538Y-101618342D01*
X132678538Y-101847577D01*
X132539896Y-101847577D01*
X132539896Y-101516107D01*
X133156693Y-101516107D01*
X133227813Y-101516107D01*
X133227813Y-101187177D01*
X133156693Y-101187177D01*
X133156693Y-101516107D01*
X132539896Y-101516107D01*
X132539896Y-101053192D01*
X132675998Y-101053192D01*
X132676633Y-101088117D01*
X132678538Y-101126852D01*
X133110338Y-101126852D01*
X133113160Y-101085295D01*
X133114853Y-101047830D01*
X133115418Y-101014457D01*
X133113230Y-100963587D01*
X133106669Y-100921042D01*
X133095733Y-100886822D01*
X133069459Y-100848246D01*
X133030010Y-100822687D01*
X132995120Y-100812104D01*
X132951834Y-100805754D01*
X132900153Y-100803637D01*
X132850728Y-100805472D01*
X132809136Y-100810975D01*
X132775375Y-100820147D01*
X132736243Y-100842452D01*
X132708383Y-100876345D01*
X132695259Y-100906437D01*
X132685522Y-100943796D01*
X132679173Y-100988422D01*
X132676791Y-101018902D01*
X132675998Y-101053192D01*
X132539896Y-101053192D01*
X132539896Y-100719182D01*
X132678538Y-100719182D01*
X133110338Y-100719182D01*
X133110338Y-100438512D01*
X133040488Y-100438512D01*
X133040488Y-100637902D01*
X132921108Y-100637902D01*
X132921108Y-100476612D01*
X132851258Y-100476612D01*
X132851258Y-100637902D01*
X132748388Y-100637902D01*
X132748388Y-100451212D01*
X132678538Y-100451212D01*
X132678538Y-100719182D01*
X132539896Y-100719182D01*
X132539896Y-100209912D01*
X132672188Y-100209912D01*
X132674807Y-100265078D01*
X132682665Y-100306115D01*
X132696714Y-100335166D01*
X132717908Y-100354375D01*
X132747753Y-100365091D01*
X132787758Y-100368662D01*
X132819031Y-100365646D01*
X132844273Y-100356597D01*
X132864989Y-100340326D01*
X132882690Y-100315640D01*
X132898803Y-100280636D01*
X132914758Y-100233407D01*
X132927061Y-100195704D01*
X132938570Y-100167685D01*
X132963018Y-100134347D01*
X132995403Y-100124187D01*
X133026835Y-100131172D01*
X133042393Y-100154985D01*
X133046838Y-100202292D01*
X133045409Y-100233169D01*
X133041123Y-100255950D01*
X133021120Y-100282937D01*
X132980163Y-100293097D01*
X132980163Y-100372472D01*
X133027470Y-100370250D01*
X133062713Y-100359772D01*
X133087636Y-100339849D01*
X133103988Y-100309290D01*
X133113036Y-100265872D01*
X133116053Y-100207372D01*
X133113354Y-100150619D01*
X133105258Y-100108630D01*
X133090653Y-100079023D01*
X133068428Y-100059417D01*
X133036995Y-100048464D01*
X132994768Y-100044812D01*
X132960081Y-100047829D01*
X132932220Y-100056877D01*
X132909598Y-100072991D01*
X132890628Y-100097200D01*
X132873641Y-100131411D01*
X132856973Y-100177527D01*
X132838637Y-100230788D01*
X132823000Y-100264840D01*
X132790298Y-100289287D01*
X132760453Y-100282302D01*
X132745848Y-100259125D01*
X132741403Y-100212452D01*
X132746165Y-100167050D01*
X132762040Y-100143555D01*
X132794108Y-100134347D01*
X132794108Y-100053702D01*
X132751404Y-100056877D01*
X132719813Y-100067672D01*
X132697588Y-100086961D01*
X132682983Y-100115615D01*
X132674886Y-100155858D01*
X132672188Y-100209912D01*
X132539896Y-100209912D01*
X132539896Y-99942577D01*
X132678538Y-99942577D01*
X132749023Y-99942577D01*
X132749023Y-99867647D01*
X133039853Y-99867647D01*
X133039853Y-99947022D01*
X133110338Y-99947022D01*
X133110338Y-99708897D01*
X133039853Y-99708897D01*
X133039853Y-99788272D01*
X132749023Y-99788272D01*
X132749023Y-99713342D01*
X132678538Y-99713342D01*
X132678538Y-99942577D01*
X132539896Y-99942577D01*
X132539896Y-99441562D01*
X132672188Y-99441562D01*
X132674410Y-99482238D01*
X132681078Y-99516210D01*
X132692190Y-99543480D01*
X132719019Y-99574198D01*
X132759500Y-99594597D01*
X132795519Y-99603064D01*
X132840498Y-99608144D01*
X132894438Y-99609838D01*
X132948024Y-99608038D01*
X132992792Y-99602641D01*
X133028740Y-99593645D01*
X133069221Y-99571976D01*
X133096050Y-99539352D01*
X133107163Y-99510354D01*
X133113830Y-99474159D01*
X133116053Y-99430767D01*
X133114306Y-99391715D01*
X133109068Y-99358377D01*
X133098908Y-99324881D01*
X133082398Y-99285352D01*
X132867133Y-99285352D01*
X132867133Y-99451723D01*
X132936348Y-99451723D01*
X132936348Y-99362187D01*
X133033503Y-99362187D01*
X133043345Y-99393620D01*
X133046203Y-99432672D01*
X133042869Y-99466407D01*
X133032868Y-99491410D01*
X133014849Y-99509111D01*
X132987465Y-99520937D01*
X132948651Y-99527605D01*
X132896343Y-99529828D01*
X132842844Y-99527843D01*
X132802998Y-99521890D01*
X132774740Y-99511174D01*
X132756008Y-99494903D01*
X132745530Y-99471884D01*
X132742038Y-99440927D01*
X132747118Y-99396160D01*
X132763945Y-99372348D01*
X132797918Y-99362822D01*
X132797918Y-99284082D01*
X132754103Y-99289718D01*
X132721718Y-99301545D01*
X132698858Y-99320992D01*
X132683618Y-99349487D01*
X132675045Y-99389016D01*
X132672188Y-99441562D01*
X132539896Y-99441562D01*
X132539896Y-99228203D01*
X132678538Y-99228203D01*
X133110338Y-99228203D01*
X133110338Y-99150098D01*
X132862053Y-99150098D01*
X132771883Y-99158987D01*
X132771883Y-99157082D01*
X133110338Y-99002142D01*
X133110338Y-98903083D01*
X132678538Y-98903083D01*
X132678538Y-98981188D01*
X132926823Y-98981188D01*
X133016993Y-98972298D01*
X133016993Y-98974202D01*
X132678538Y-99129142D01*
X132678538Y-99228203D01*
X132539896Y-99228203D01*
X132539896Y-98903083D01*
X132539896Y-98770791D01*
X132539896Y-98524728D01*
X133360104Y-98770791D01*
X133360104Y-98903083D01*
X133360104Y-99430767D01*
G37*
G36*
X144920561Y-73000363D02*
G01*
X144809118Y-73000363D01*
X144864125Y-72796052D01*
X144865554Y-72796052D01*
X144920561Y-73000363D01*
G37*
G36*
X147063686Y-73000363D02*
G01*
X146952243Y-73000363D01*
X147007250Y-72796052D01*
X147008679Y-72796052D01*
X147063686Y-73000363D01*
G37*
G36*
X146157144Y-72783908D02*
G01*
X146191344Y-72789801D01*
X146212508Y-72800338D01*
X146227152Y-72845344D01*
X146216080Y-72889992D01*
X146174289Y-72903208D01*
X146074276Y-72903208D01*
X146074276Y-72781765D01*
X146097851Y-72781765D01*
X146157144Y-72783908D01*
G37*
G36*
X147419087Y-72784444D02*
G01*
X147453734Y-72786051D01*
X147498740Y-72800696D01*
X147510884Y-72844630D01*
X147499097Y-72899994D01*
X147455163Y-72915353D01*
X147363009Y-72915353D01*
X147363009Y-72784622D01*
X147393727Y-72783908D01*
X147419087Y-72784444D01*
G37*
G36*
X146211079Y-72987862D02*
G01*
X146238225Y-73008936D01*
X146246441Y-73051798D01*
X146236439Y-73093589D01*
X146203221Y-73114306D01*
X146174914Y-73118860D01*
X146136427Y-73120378D01*
X146106602Y-73120021D01*
X146074276Y-73118950D01*
X146074276Y-72981790D01*
X146156429Y-72981790D01*
X146211079Y-72987862D01*
G37*
G36*
X147808779Y-72784086D02*
G01*
X147842354Y-72786765D01*
X147883520Y-72794534D01*
X147914149Y-72807839D01*
X147935848Y-72828378D01*
X147950225Y-72857846D01*
X147958262Y-72898297D01*
X147960941Y-72951786D01*
X147958172Y-73008311D01*
X147949868Y-73050727D01*
X147934955Y-73081177D01*
X147912363Y-73101805D01*
X147880395Y-73114306D01*
X147837354Y-73120378D01*
X147780918Y-73118235D01*
X147780918Y-72783193D01*
X147808779Y-72784086D01*
G37*
G36*
X146613451Y-72782747D02*
G01*
X146638632Y-72794266D01*
X146656403Y-72814983D01*
X146668279Y-72846416D01*
X146674976Y-72891153D01*
X146677209Y-72951786D01*
X146674976Y-73010633D01*
X146668279Y-73054299D01*
X146656403Y-73085195D01*
X146638632Y-73105734D01*
X146613451Y-73117253D01*
X146579339Y-73121093D01*
X146545139Y-73117253D01*
X146519689Y-73105734D01*
X146501651Y-73085195D01*
X146489685Y-73054299D01*
X146482988Y-73010633D01*
X146480756Y-72951786D01*
X146482988Y-72891600D01*
X146489685Y-72846773D01*
X146501651Y-72815072D01*
X146519689Y-72794266D01*
X146545139Y-72782747D01*
X146579339Y-72778907D01*
X146613451Y-72782747D01*
G37*
G36*
X148240983Y-72553417D02*
G01*
X148279667Y-72559155D01*
X148317602Y-72568657D01*
X148354423Y-72581832D01*
X148389776Y-72598552D01*
X148423319Y-72618658D01*
X148454730Y-72641954D01*
X148483707Y-72668216D01*
X148509969Y-72697193D01*
X148533266Y-72728604D01*
X148553371Y-72762147D01*
X148570091Y-72797500D01*
X148583266Y-72834321D01*
X148592768Y-72872256D01*
X148598506Y-72910940D01*
X148600425Y-72950000D01*
X148598506Y-72989060D01*
X148592768Y-73027744D01*
X148583266Y-73065679D01*
X148570091Y-73102500D01*
X148553371Y-73137853D01*
X148533266Y-73171396D01*
X148509969Y-73202807D01*
X148483707Y-73231784D01*
X148454730Y-73258046D01*
X148423319Y-73281342D01*
X148389776Y-73301448D01*
X148354423Y-73318168D01*
X148317602Y-73331343D01*
X148279667Y-73340845D01*
X148240983Y-73346583D01*
X148201923Y-73348502D01*
X148053095Y-73348502D01*
X147815922Y-73348502D01*
X147628756Y-73348502D01*
X147210847Y-73348502D01*
X146579339Y-73348502D01*
X146124282Y-73348502D01*
X145904969Y-73348502D01*
X145427052Y-73348502D01*
X145067722Y-73348502D01*
X144626238Y-73348502D01*
X144246905Y-73348502D01*
X144098077Y-73348502D01*
X144059017Y-73346583D01*
X144020333Y-73340845D01*
X143982398Y-73331343D01*
X143945577Y-73318168D01*
X143910224Y-73301448D01*
X143876681Y-73281342D01*
X143845270Y-73258046D01*
X143816293Y-73231784D01*
X143790031Y-73202807D01*
X143766734Y-73171396D01*
X143746629Y-73137853D01*
X143729909Y-73102500D01*
X143716734Y-73065679D01*
X143707232Y-73027744D01*
X143701494Y-72989060D01*
X143699575Y-72950000D01*
X143701494Y-72910940D01*
X143707232Y-72872256D01*
X143716734Y-72834321D01*
X143729909Y-72797500D01*
X143746629Y-72762147D01*
X143766734Y-72728604D01*
X143782409Y-72707470D01*
X144246905Y-72707470D01*
X144246905Y-73193245D01*
X144331201Y-73193245D01*
X144331201Y-72947500D01*
X144322629Y-72821055D01*
X144325486Y-72821055D01*
X144400496Y-73031082D01*
X144472647Y-73031082D01*
X144547657Y-72821055D01*
X144550514Y-72821055D01*
X144541942Y-72947500D01*
X144541942Y-73193245D01*
X144626238Y-73193245D01*
X144661957Y-73193245D01*
X144752682Y-73193245D01*
X144787687Y-73076802D01*
X144941992Y-73076802D01*
X144976996Y-73193245D01*
X145067722Y-73193245D01*
X145159162Y-73193245D01*
X145427052Y-73193245D01*
X145427052Y-73113949D01*
X145337756Y-73113949D01*
X145337756Y-72786765D01*
X145422052Y-72786765D01*
X145422052Y-72707470D01*
X145539209Y-72707470D01*
X145539209Y-73193245D01*
X145627077Y-73193245D01*
X145627077Y-72913924D01*
X145617076Y-72812483D01*
X145619219Y-72812483D01*
X145793527Y-73193245D01*
X145904969Y-73193245D01*
X145904969Y-73191816D01*
X145984265Y-73191816D01*
X146034112Y-73195785D01*
X146080785Y-73198166D01*
X146124282Y-73198960D01*
X146176154Y-73197571D01*
X146219374Y-73193403D01*
X146253942Y-73186458D01*
X146292786Y-73169581D01*
X146318592Y-73143953D01*
X146333059Y-73107520D01*
X146337881Y-73058228D01*
X146336005Y-73023045D01*
X146330380Y-72996077D01*
X146304662Y-72960358D01*
X146280758Y-72951786D01*
X146390744Y-72951786D01*
X146392610Y-73012032D01*
X146398206Y-73062276D01*
X146407532Y-73102519D01*
X146430214Y-73147703D01*
X146464682Y-73177528D01*
X146495361Y-73189832D01*
X146533580Y-73197213D01*
X146579339Y-73199674D01*
X146625099Y-73197213D01*
X146645645Y-73193245D01*
X146805082Y-73193245D01*
X146895807Y-73193245D01*
X146930812Y-73076802D01*
X147085117Y-73076802D01*
X147120121Y-73193245D01*
X147210847Y-73193245D01*
X147272283Y-73193245D01*
X147363009Y-73193245D01*
X147363009Y-72994648D01*
X147408729Y-72994648D01*
X147446591Y-72997417D01*
X147471594Y-73005721D01*
X147497311Y-73048227D01*
X147530887Y-73193245D01*
X147628756Y-73193245D01*
X147689478Y-73193245D01*
X147736230Y-73196420D01*
X147778378Y-73198325D01*
X147815922Y-73198960D01*
X147873152Y-73196499D01*
X147921015Y-73189117D01*
X147959512Y-73176814D01*
X148002910Y-73147257D01*
X148031664Y-73102876D01*
X148043570Y-73063625D01*
X148050714Y-73014929D01*
X148053095Y-72956787D01*
X148051031Y-72901184D01*
X148044840Y-72854393D01*
X148034521Y-72816412D01*
X148009429Y-72772389D01*
X147971299Y-72741045D01*
X147937446Y-72726282D01*
X147895417Y-72715328D01*
X147845212Y-72708184D01*
X147810922Y-72705505D01*
X147772346Y-72704612D01*
X147733055Y-72705327D01*
X147689478Y-72707470D01*
X147689478Y-73193245D01*
X147628756Y-73193245D01*
X147588037Y-73041797D01*
X147575803Y-73005900D01*
X147561962Y-72982504D01*
X147517314Y-72960358D01*
X147517314Y-72953929D01*
X147568034Y-72937856D01*
X147593395Y-72905709D01*
X147600896Y-72848202D01*
X147596341Y-72799267D01*
X147582679Y-72762477D01*
X147558212Y-72736045D01*
X147521243Y-72718185D01*
X147488501Y-72710645D01*
X147447900Y-72706120D01*
X147399442Y-72704612D01*
X147357294Y-72705327D01*
X147272283Y-72708184D01*
X147272283Y-73193245D01*
X147210847Y-73193245D01*
X147065829Y-72707470D01*
X146950100Y-72707470D01*
X146805082Y-73193245D01*
X146645645Y-73193245D01*
X146663318Y-73189832D01*
X146693997Y-73177528D01*
X146728465Y-73147703D01*
X146751147Y-73102519D01*
X146760473Y-73062276D01*
X146766069Y-73012032D01*
X146767934Y-72951786D01*
X146766069Y-72890667D01*
X146760473Y-72839708D01*
X146751147Y-72798910D01*
X146728465Y-72753100D01*
X146693997Y-72722829D01*
X146663318Y-72710327D01*
X146625099Y-72702826D01*
X146579339Y-72700326D01*
X146533580Y-72702826D01*
X146495361Y-72710327D01*
X146464682Y-72722829D01*
X146430214Y-72753100D01*
X146407532Y-72798910D01*
X146398206Y-72839708D01*
X146392610Y-72890667D01*
X146390744Y-72951786D01*
X146280758Y-72951786D01*
X146252870Y-72941785D01*
X146252870Y-72937498D01*
X146283677Y-72926247D01*
X146303233Y-72908209D01*
X146313681Y-72880170D01*
X146317164Y-72838915D01*
X146312252Y-72792034D01*
X146297518Y-72757119D01*
X146271176Y-72732384D01*
X146231439Y-72716042D01*
X146196117Y-72709295D01*
X146152064Y-72705247D01*
X146101905Y-72703965D01*
X145984265Y-72706041D01*
X145984265Y-73191816D01*
X145904969Y-73191816D01*
X145904969Y-72707470D01*
X145817101Y-72707470D01*
X145817101Y-72986790D01*
X145827102Y-73088232D01*
X145824959Y-73088232D01*
X145650652Y-72707470D01*
X145539209Y-72707470D01*
X145422052Y-72707470D01*
X145164162Y-72707470D01*
X145164162Y-72786765D01*
X145248459Y-72786765D01*
X145248459Y-73113949D01*
X145159162Y-73113949D01*
X145159162Y-73193245D01*
X145067722Y-73193245D01*
X144922704Y-72707470D01*
X144806975Y-72707470D01*
X144661957Y-73193245D01*
X144626238Y-73193245D01*
X144626238Y-72707470D01*
X144519796Y-72707470D01*
X144440501Y-72940356D01*
X144432642Y-72940356D01*
X144354776Y-72707470D01*
X144246905Y-72707470D01*
X143782409Y-72707470D01*
X143790031Y-72697193D01*
X143816293Y-72668216D01*
X143845270Y-72641954D01*
X143876681Y-72618658D01*
X143910224Y-72598552D01*
X143945577Y-72581832D01*
X143982398Y-72568657D01*
X144020333Y-72559155D01*
X144059017Y-72553417D01*
X144098077Y-72551498D01*
X144246905Y-72551498D01*
X148053095Y-72551498D01*
X148201923Y-72551498D01*
X148240983Y-72553417D01*
G37*
G36*
X127689992Y-94830819D02*
G01*
X127703208Y-94872610D01*
X127703208Y-94972622D01*
X127581765Y-94972622D01*
X127581765Y-94949048D01*
X127583908Y-94889755D01*
X127589801Y-94855554D01*
X127600338Y-94834391D01*
X127645344Y-94819746D01*
X127689992Y-94830819D01*
G37*
G36*
X127893589Y-94810459D02*
G01*
X127914306Y-94843678D01*
X127918860Y-94871985D01*
X127920378Y-94910472D01*
X127920021Y-94940297D01*
X127918950Y-94972622D01*
X127781790Y-94972622D01*
X127781790Y-94890469D01*
X127787862Y-94835820D01*
X127808936Y-94808673D01*
X127851798Y-94800458D01*
X127893589Y-94810459D01*
G37*
G36*
X127808311Y-94374601D02*
G01*
X127850727Y-94382906D01*
X127881177Y-94397818D01*
X127901805Y-94420411D01*
X127914306Y-94452379D01*
X127920378Y-94495420D01*
X127918235Y-94551856D01*
X127583193Y-94551856D01*
X127584086Y-94523995D01*
X127586765Y-94490419D01*
X127594534Y-94449253D01*
X127607839Y-94418625D01*
X127628378Y-94396926D01*
X127657846Y-94382549D01*
X127698297Y-94374512D01*
X127751786Y-94371833D01*
X127808311Y-94374601D01*
G37*
G36*
X128148502Y-94516851D02*
G01*
X128148502Y-94922616D01*
X128148502Y-95323381D01*
X128148502Y-95511261D01*
X128148502Y-95660089D01*
X127351498Y-95899191D01*
X127351498Y-95660089D01*
X127351498Y-95511261D01*
X127351498Y-95326238D01*
X127500326Y-95326238D01*
X127503273Y-95388299D01*
X127512113Y-95434466D01*
X127527919Y-95467149D01*
X127551761Y-95488758D01*
X127585337Y-95500813D01*
X127630342Y-95504832D01*
X127665525Y-95501439D01*
X127693922Y-95491259D01*
X127717228Y-95472953D01*
X127737141Y-95445182D01*
X127755269Y-95405802D01*
X127773217Y-95352670D01*
X127787058Y-95310254D01*
X127800006Y-95278732D01*
X127827510Y-95241227D01*
X127863943Y-95229797D01*
X127899304Y-95237656D01*
X127916807Y-95264445D01*
X127921807Y-95317666D01*
X127920200Y-95352402D01*
X127915378Y-95378030D01*
X127892875Y-95408391D01*
X127846798Y-95419821D01*
X127846798Y-95509118D01*
X127900019Y-95506618D01*
X127939667Y-95494831D01*
X127967706Y-95472417D01*
X127986101Y-95438038D01*
X127996281Y-95389192D01*
X127999674Y-95323381D01*
X127996638Y-95259533D01*
X127987530Y-95212295D01*
X127971099Y-95178988D01*
X127946096Y-95156931D01*
X127910734Y-95144608D01*
X127863228Y-95140501D01*
X127824206Y-95143894D01*
X127792862Y-95154074D01*
X127767413Y-95172201D01*
X127746071Y-95199437D01*
X127726961Y-95237923D01*
X127708209Y-95289805D01*
X127687581Y-95349723D01*
X127669990Y-95388032D01*
X127633200Y-95415535D01*
X127599624Y-95407677D01*
X127583193Y-95381602D01*
X127578193Y-95329096D01*
X127583551Y-95278018D01*
X127601410Y-95251586D01*
X127637486Y-95241227D01*
X127637486Y-95150502D01*
X127589444Y-95154074D01*
X127553904Y-95166218D01*
X127528901Y-95187917D01*
X127512470Y-95220153D01*
X127503362Y-95265427D01*
X127500326Y-95326238D01*
X127351498Y-95326238D01*
X127351498Y-94944993D01*
X127503965Y-94944993D01*
X127506041Y-95062634D01*
X127991816Y-95062634D01*
X127995785Y-95012786D01*
X127998166Y-94966114D01*
X127998960Y-94922616D01*
X127997571Y-94870745D01*
X127993403Y-94827525D01*
X127986458Y-94792957D01*
X127969581Y-94754113D01*
X127943953Y-94728306D01*
X127907520Y-94713840D01*
X127858228Y-94709018D01*
X127823045Y-94710893D01*
X127796077Y-94716519D01*
X127760358Y-94742237D01*
X127741785Y-94794029D01*
X127737498Y-94794029D01*
X127726247Y-94763221D01*
X127708209Y-94743665D01*
X127680170Y-94733218D01*
X127638915Y-94729735D01*
X127592034Y-94734646D01*
X127557119Y-94749380D01*
X127532384Y-94775723D01*
X127516042Y-94815460D01*
X127509295Y-94850782D01*
X127505247Y-94894835D01*
X127503965Y-94944993D01*
X127351498Y-94944993D01*
X127351498Y-94560428D01*
X127504612Y-94560428D01*
X127505327Y-94599719D01*
X127507470Y-94643296D01*
X127993245Y-94643296D01*
X127996420Y-94596544D01*
X127998325Y-94554396D01*
X127998960Y-94516851D01*
X127996499Y-94459622D01*
X127989117Y-94411759D01*
X127976814Y-94373262D01*
X127947257Y-94329864D01*
X127902876Y-94301110D01*
X127863625Y-94289204D01*
X127814929Y-94282060D01*
X127756787Y-94279679D01*
X127701184Y-94281742D01*
X127654393Y-94287934D01*
X127616412Y-94298252D01*
X127572389Y-94323345D01*
X127541045Y-94361475D01*
X127526282Y-94395328D01*
X127515328Y-94437357D01*
X127508184Y-94487562D01*
X127505505Y-94521852D01*
X127504612Y-94560428D01*
X127351498Y-94560428D01*
X127351498Y-94038220D01*
X127507470Y-94038220D01*
X127615340Y-94191811D01*
X127709638Y-94191811D01*
X127630342Y-94063223D01*
X127607482Y-94035362D01*
X127651773Y-94038220D01*
X127993245Y-94038220D01*
X127993245Y-93949637D01*
X127507470Y-93949637D01*
X127507470Y-94038220D01*
X127351498Y-94038220D01*
X127351498Y-93949637D01*
X127351498Y-93800809D01*
X128148502Y-93800809D01*
X128148502Y-93949637D01*
X128148502Y-94516851D01*
G37*
X159150000Y-122025000D02*
X159150000Y-120775000D01*
X158860000Y-121735000D02*
X158860000Y-115765000D01*
X158860000Y-115765000D02*
X151240000Y-115765000D01*
X158850000Y-121725000D02*
X158850000Y-120975000D01*
X158850000Y-120975000D02*
X157050000Y-120975000D01*
X158850000Y-119475000D02*
X158100000Y-119475000D01*
X158100000Y-119475000D02*
X158100000Y-116525000D01*
X158100000Y-116525000D02*
X155050000Y-116525000D01*
X157900000Y-122025000D02*
X159150000Y-122025000D01*
X157050000Y-121725000D02*
X158850000Y-121725000D01*
X157050000Y-120975000D02*
X157050000Y-121725000D01*
X155550000Y-121725000D02*
X155550000Y-120975000D01*
X155550000Y-120975000D02*
X154550000Y-120975000D01*
X154550000Y-121725000D02*
X155550000Y-121725000D01*
X154550000Y-120975000D02*
X154550000Y-121725000D01*
X153050000Y-121725000D02*
X153050000Y-120975000D01*
X153050000Y-120975000D02*
X151250000Y-120975000D01*
X152000000Y-119475000D02*
X152000000Y-116525000D01*
X152000000Y-116525000D02*
X155050000Y-116525000D01*
X151250000Y-121725000D02*
X153050000Y-121725000D01*
X151250000Y-120975000D02*
X151250000Y-121725000D01*
X151250000Y-119475000D02*
X152000000Y-119475000D01*
X151240000Y-121735000D02*
X158860000Y-121735000D01*
X151240000Y-115765000D02*
X151240000Y-121735000D01*
X134150000Y-111100000D02*
X134150000Y-79100000D01*
X135150000Y-101100000D02*
X135150000Y-89100000D01*
X138150000Y-75100000D02*
X170150000Y-75100000D01*
X148150000Y-76100000D02*
X160150000Y-76100000D01*
X160150000Y-114100000D02*
X148150000Y-114100000D01*
X170150000Y-115100000D02*
X138150000Y-115100000D01*
X173150000Y-89100000D02*
X173150000Y-101100000D01*
X174150000Y-79100000D02*
X174150000Y-111100000D01*
X138150000Y-75100000D02*
G75*
G03*
X134150000Y-79100000I0J-4000000D01*
G01*
X148150000Y-76100002D02*
G75*
G03*
X135150002Y-89100000I6000000J-18999998D01*
G01*
X134150000Y-111100000D02*
G75*
G03*
X138150000Y-115100000I4000000J0D01*
G01*
X135150002Y-101100000D02*
G75*
G03*
X148150000Y-114099998I18999998J6000000D01*
G01*
X173149999Y-89100000D02*
G75*
G03*
X160150000Y-76100001I-19000000J-6000001D01*
G01*
X174150000Y-79100000D02*
G75*
G03*
X170150000Y-75100000I-4000000J0D01*
G01*
X160150000Y-114099999D02*
G75*
G03*
X173149999Y-101100000I-6000001J19000000D01*
G01*
X170150000Y-115100000D02*
G75*
G03*
X174150000Y-111100000I0J4000000D01*
G01*
G36*
X131716328Y-103605685D02*
G01*
X131447939Y-103533426D01*
X131447939Y-103531549D01*
X131716328Y-103459290D01*
X131716328Y-103605685D01*
G37*
G36*
X131571341Y-106824947D02*
G01*
X131588702Y-106879845D01*
X131588702Y-107011224D01*
X131429170Y-107011224D01*
X131429170Y-106980256D01*
X131431985Y-106902367D01*
X131453569Y-106829639D01*
X131512690Y-106810401D01*
X131571341Y-106824947D01*
G37*
G36*
X130388076Y-106823246D02*
G01*
X130408555Y-106881825D01*
X130408555Y-107004697D01*
X130234247Y-107004697D01*
X130233295Y-106963740D01*
X130234009Y-106929926D01*
X130236152Y-106883730D01*
X130255678Y-106823722D01*
X130314257Y-106807530D01*
X130388076Y-106823246D01*
G37*
G36*
X130374741Y-105676436D02*
G01*
X130392362Y-105732157D01*
X130392362Y-105865507D01*
X130230437Y-105865507D01*
X130230437Y-105834075D01*
X130233295Y-105755017D01*
X130241153Y-105709416D01*
X130255202Y-105681198D01*
X130315210Y-105661672D01*
X130374741Y-105676436D01*
G37*
G36*
X130388076Y-104537246D02*
G01*
X130408555Y-104595825D01*
X130408555Y-104718697D01*
X130234247Y-104718697D01*
X130233295Y-104677740D01*
X130234009Y-104643926D01*
X130236152Y-104597730D01*
X130255678Y-104537722D01*
X130314257Y-104521530D01*
X130388076Y-104537246D01*
G37*
G36*
X130374741Y-100532936D02*
G01*
X130392362Y-100588657D01*
X130392362Y-100722007D01*
X130230437Y-100722007D01*
X130230437Y-100690575D01*
X130233295Y-100611517D01*
X130241153Y-100565916D01*
X130255202Y-100537698D01*
X130315210Y-100518172D01*
X130374741Y-100532936D01*
G37*
G36*
X131838792Y-106798202D02*
G01*
X131866006Y-106841838D01*
X131871989Y-106879023D01*
X131873983Y-106929581D01*
X131873514Y-106968760D01*
X131872106Y-107011224D01*
X131691929Y-107011224D01*
X131691929Y-106903305D01*
X131699905Y-106831516D01*
X131727589Y-106795856D01*
X131783894Y-106785064D01*
X131838792Y-106798202D01*
G37*
G36*
X130646203Y-105649290D02*
G01*
X130673826Y-105693581D01*
X130679898Y-105731324D01*
X130681922Y-105782640D01*
X130681446Y-105822407D01*
X130680017Y-105865507D01*
X130497137Y-105865507D01*
X130497137Y-105755970D01*
X130505233Y-105683103D01*
X130533332Y-105646908D01*
X130590482Y-105635955D01*
X130646203Y-105649290D01*
G37*
G36*
X131592456Y-102302214D02*
G01*
X131623424Y-102347258D01*
X131630462Y-102385734D01*
X131632808Y-102437347D01*
X131632808Y-102496468D01*
X131432924Y-102496468D01*
X131432924Y-102454239D01*
X131435153Y-102396878D01*
X131441839Y-102354297D01*
X131471399Y-102304091D01*
X131530520Y-102289076D01*
X131592456Y-102302214D01*
G37*
G36*
X130396172Y-101657362D02*
G01*
X130427605Y-101703082D01*
X130434748Y-101742135D01*
X130437130Y-101794522D01*
X130437130Y-101854530D01*
X130234247Y-101854530D01*
X130234247Y-101811667D01*
X130236509Y-101753446D01*
X130243296Y-101710226D01*
X130273300Y-101659267D01*
X130333307Y-101644027D01*
X130396172Y-101657362D01*
G37*
G36*
X130646203Y-100505790D02*
G01*
X130673826Y-100550081D01*
X130679898Y-100587824D01*
X130681922Y-100639140D01*
X130681446Y-100678907D01*
X130680017Y-100722007D01*
X130497137Y-100722007D01*
X130497137Y-100612470D01*
X130505233Y-100539603D01*
X130533332Y-100503408D01*
X130590482Y-100492455D01*
X130646203Y-100505790D01*
G37*
G36*
X131726768Y-104536483D02*
G01*
X131782487Y-104547393D01*
X131822487Y-104566982D01*
X131849584Y-104596660D01*
X131866006Y-104638654D01*
X131873983Y-104695194D01*
X131871168Y-104769330D01*
X131431047Y-104769330D01*
X131432220Y-104732731D01*
X131435739Y-104688625D01*
X131445944Y-104634549D01*
X131463423Y-104594314D01*
X131490402Y-104565809D01*
X131529112Y-104546923D01*
X131582250Y-104536366D01*
X131652515Y-104532847D01*
X131726768Y-104536483D01*
G37*
G36*
X130535594Y-106207574D02*
G01*
X130593816Y-106216503D01*
X130635011Y-106232339D01*
X130662396Y-106256032D01*
X130677755Y-106289608D01*
X130682875Y-106335090D01*
X130677755Y-106380691D01*
X130662396Y-106414623D01*
X130635011Y-106438674D01*
X130593816Y-106454628D01*
X130535594Y-106463558D01*
X130457132Y-106466535D01*
X130376884Y-106463558D01*
X130317115Y-106454628D01*
X130274847Y-106438674D01*
X130247106Y-106414623D01*
X130231747Y-106380691D01*
X130226627Y-106335090D01*
X130231747Y-106289608D01*
X130247106Y-106256032D01*
X130274728Y-106232339D01*
X130316638Y-106216503D01*
X130376289Y-106207574D01*
X130457132Y-106204597D01*
X130535594Y-106207574D01*
G37*
G36*
X130535594Y-105064574D02*
G01*
X130593816Y-105073503D01*
X130635011Y-105089339D01*
X130662396Y-105113032D01*
X130677755Y-105146608D01*
X130682875Y-105192090D01*
X130677755Y-105237691D01*
X130662396Y-105271623D01*
X130635011Y-105295674D01*
X130593816Y-105311628D01*
X130535594Y-105320558D01*
X130457132Y-105323535D01*
X130376884Y-105320558D01*
X130317115Y-105311628D01*
X130274847Y-105295674D01*
X130247106Y-105271623D01*
X130231747Y-105237691D01*
X130226627Y-105192090D01*
X130231747Y-105146608D01*
X130247106Y-105113032D01*
X130274728Y-105089339D01*
X130316638Y-105073503D01*
X130376289Y-105064574D01*
X130457132Y-105061597D01*
X130535594Y-105064574D01*
G37*
G36*
X130535594Y-103921574D02*
G01*
X130593816Y-103930503D01*
X130635011Y-103946339D01*
X130662396Y-103970032D01*
X130677755Y-104003608D01*
X130682875Y-104049090D01*
X130677755Y-104094691D01*
X130662396Y-104128623D01*
X130635011Y-104152674D01*
X130593816Y-104168628D01*
X130535594Y-104177558D01*
X130457132Y-104180535D01*
X130376884Y-104177558D01*
X130317115Y-104168628D01*
X130274847Y-104152674D01*
X130247106Y-104128623D01*
X130231747Y-104094691D01*
X130226627Y-104049090D01*
X130231747Y-104003608D01*
X130247106Y-103970032D01*
X130274728Y-103946339D01*
X130316638Y-103930503D01*
X130376289Y-103921574D01*
X130457132Y-103918597D01*
X130535594Y-103921574D01*
G37*
G36*
X132176585Y-101167777D02*
G01*
X132176585Y-101854530D01*
X132176585Y-102496468D01*
X132176585Y-102629865D01*
X132176585Y-102967556D01*
X132176585Y-103265975D01*
X132176585Y-103896596D01*
X132176585Y-104723347D01*
X132176585Y-104972029D01*
X132176585Y-105798832D01*
X132176585Y-106287699D01*
X132176585Y-106650367D01*
X132176585Y-106945534D01*
X132176585Y-107129465D01*
X132176585Y-107327903D01*
X132176585Y-108003854D01*
X129923415Y-107327903D01*
X129923415Y-107129465D01*
X129923415Y-106956120D01*
X130127567Y-106956120D01*
X130128520Y-107012317D01*
X130132330Y-107125665D01*
X130779077Y-107125665D01*
X130779077Y-107004697D01*
X130514282Y-107004697D01*
X130514282Y-106974929D01*
X131326970Y-106974929D01*
X131329697Y-107129465D01*
X131967825Y-107129465D01*
X131973039Y-107063984D01*
X131976167Y-107002674D01*
X131977209Y-106945534D01*
X131975385Y-106877394D01*
X131969911Y-106820620D01*
X131960787Y-106775210D01*
X131938617Y-106724184D01*
X131904951Y-106690283D01*
X131857091Y-106671280D01*
X131792340Y-106664946D01*
X131746123Y-106667409D01*
X131710697Y-106674799D01*
X131663776Y-106708582D01*
X131639377Y-106776618D01*
X131633746Y-106776618D01*
X131618966Y-106736148D01*
X131595271Y-106710459D01*
X131558438Y-106696735D01*
X131504244Y-106692160D01*
X131442660Y-106698612D01*
X131396794Y-106717967D01*
X131364302Y-106752571D01*
X131342835Y-106804771D01*
X131333972Y-106851171D01*
X131328654Y-106909040D01*
X131326970Y-106974929D01*
X130514282Y-106974929D01*
X130514282Y-106943737D01*
X130517973Y-106893255D01*
X130529046Y-106859917D01*
X130585720Y-106825627D01*
X130779077Y-106780860D01*
X130779077Y-106650367D01*
X130577147Y-106704660D01*
X130529284Y-106720971D01*
X130498090Y-106739426D01*
X130468562Y-106798957D01*
X130459990Y-106798957D01*
X130438558Y-106731330D01*
X130395696Y-106697516D01*
X130319020Y-106687515D01*
X130253773Y-106693587D01*
X130204720Y-106711803D01*
X130169477Y-106744427D01*
X130145665Y-106793718D01*
X130135610Y-106837375D01*
X130129578Y-106891508D01*
X130127567Y-106956120D01*
X129923415Y-106956120D01*
X129923415Y-106335090D01*
X130121852Y-106335090D01*
X130125186Y-106396103D01*
X130135187Y-106447061D01*
X130151856Y-106487966D01*
X130192218Y-106533924D01*
X130253297Y-106564166D01*
X130307695Y-106576601D01*
X130375640Y-106584063D01*
X130457132Y-106586550D01*
X130537460Y-106584063D01*
X130604452Y-106576601D01*
X130658110Y-106564166D01*
X130718355Y-106533924D01*
X130758122Y-106487966D01*
X130774526Y-106447061D01*
X130784369Y-106396103D01*
X130787650Y-106335090D01*
X130784369Y-106274077D01*
X130774856Y-106224825D01*
X131329697Y-106224825D01*
X131570040Y-106335090D01*
X131591517Y-106344943D01*
X131591517Y-106349635D01*
X131329697Y-106468815D01*
X131329697Y-106598318D01*
X131709759Y-106407818D01*
X131969702Y-106407818D01*
X131969702Y-106287699D01*
X131709759Y-106287699D01*
X131329697Y-106096261D01*
X131329697Y-106224825D01*
X130774856Y-106224825D01*
X130774526Y-106223118D01*
X130758122Y-106182213D01*
X130718355Y-106136255D01*
X130658110Y-106106013D01*
X130604452Y-106093578D01*
X130537460Y-106086117D01*
X130457132Y-106083630D01*
X130375640Y-106086117D01*
X130307695Y-106093578D01*
X130253297Y-106106013D01*
X130192218Y-106136255D01*
X130151856Y-106182213D01*
X130135187Y-106223118D01*
X130125186Y-106274077D01*
X130121852Y-106335090D01*
X129923415Y-106335090D01*
X129923415Y-105828669D01*
X130126704Y-105828669D01*
X130129472Y-105985522D01*
X130777172Y-105985522D01*
X130782464Y-105919059D01*
X130785639Y-105856829D01*
X130786697Y-105798832D01*
X130784845Y-105729670D01*
X130779289Y-105672044D01*
X130770028Y-105625953D01*
X130747526Y-105574161D01*
X130713355Y-105539752D01*
X130664777Y-105520464D01*
X130599055Y-105514035D01*
X130552144Y-105516535D01*
X130516187Y-105524036D01*
X130468562Y-105558326D01*
X130443797Y-105627382D01*
X130438082Y-105627382D01*
X130423080Y-105586306D01*
X130399030Y-105560231D01*
X130361644Y-105546301D01*
X130306637Y-105541657D01*
X130244129Y-105548206D01*
X130197576Y-105567851D01*
X130164596Y-105602974D01*
X130142807Y-105655957D01*
X130133811Y-105703053D01*
X130128414Y-105761791D01*
X130126704Y-105828669D01*
X129923415Y-105828669D01*
X129923415Y-105192090D01*
X130121852Y-105192090D01*
X130125186Y-105253103D01*
X130135187Y-105304061D01*
X130151856Y-105344966D01*
X130192218Y-105390924D01*
X130253297Y-105421166D01*
X130307695Y-105433601D01*
X130375640Y-105441063D01*
X130457132Y-105443550D01*
X130537460Y-105441063D01*
X130604452Y-105433601D01*
X130658110Y-105421166D01*
X130718355Y-105390924D01*
X130758122Y-105344966D01*
X130774526Y-105304061D01*
X130784369Y-105253103D01*
X130787650Y-105192090D01*
X130784369Y-105131077D01*
X130780656Y-105111854D01*
X131331574Y-105111854D01*
X131567220Y-105192090D01*
X131637500Y-105216019D01*
X131637500Y-105226342D01*
X131331574Y-105328630D01*
X131331574Y-105470332D01*
X131969702Y-105470332D01*
X131969702Y-105359598D01*
X131646884Y-105359598D01*
X131480783Y-105370859D01*
X131480783Y-105367106D01*
X131756680Y-105268571D01*
X131756680Y-105173790D01*
X131480783Y-105075256D01*
X131480783Y-105071502D01*
X131646884Y-105082763D01*
X131969702Y-105082763D01*
X131969702Y-104972029D01*
X131331574Y-104972029D01*
X131331574Y-105111854D01*
X130780656Y-105111854D01*
X130774526Y-105080118D01*
X130758122Y-105039213D01*
X130718355Y-104993255D01*
X130658110Y-104963013D01*
X130604452Y-104950578D01*
X130537460Y-104943117D01*
X130457132Y-104940630D01*
X130375640Y-104943117D01*
X130307695Y-104950578D01*
X130253297Y-104963013D01*
X130192218Y-104993255D01*
X130151856Y-105039213D01*
X130135187Y-105080118D01*
X130125186Y-105131077D01*
X130121852Y-105192090D01*
X129923415Y-105192090D01*
X129923415Y-104670120D01*
X130127567Y-104670120D01*
X130128520Y-104726317D01*
X130132330Y-104839665D01*
X130779077Y-104839665D01*
X130779077Y-104780591D01*
X131327820Y-104780591D01*
X131328759Y-104832204D01*
X131331574Y-104889448D01*
X131969702Y-104889448D01*
X131973873Y-104828033D01*
X131976375Y-104772666D01*
X131977209Y-104723347D01*
X131973977Y-104648169D01*
X131964280Y-104585295D01*
X131948118Y-104534724D01*
X131909291Y-104477715D01*
X131850992Y-104439943D01*
X131799430Y-104424303D01*
X131735461Y-104414919D01*
X131659084Y-104411790D01*
X131586043Y-104414501D01*
X131524576Y-104422634D01*
X131474684Y-104436189D01*
X131416853Y-104469152D01*
X131375680Y-104519240D01*
X131356286Y-104563711D01*
X131341897Y-104618921D01*
X131332512Y-104684872D01*
X131328993Y-104729916D01*
X131327820Y-104780591D01*
X130779077Y-104780591D01*
X130779077Y-104718697D01*
X130514282Y-104718697D01*
X130514282Y-104657737D01*
X130517973Y-104607255D01*
X130529046Y-104573917D01*
X130585720Y-104539627D01*
X130779077Y-104494860D01*
X130779077Y-104364367D01*
X130577147Y-104418660D01*
X130529284Y-104434971D01*
X130498090Y-104453426D01*
X130468562Y-104512957D01*
X130459990Y-104512957D01*
X130438558Y-104445330D01*
X130395696Y-104411516D01*
X130319020Y-104401515D01*
X130253773Y-104407587D01*
X130204720Y-104425803D01*
X130169477Y-104458427D01*
X130145665Y-104507718D01*
X130135610Y-104551375D01*
X130129578Y-104605508D01*
X130127567Y-104670120D01*
X129923415Y-104670120D01*
X129923415Y-104049090D01*
X130121852Y-104049090D01*
X130125186Y-104110103D01*
X130135187Y-104161061D01*
X130151856Y-104201966D01*
X130192218Y-104247924D01*
X130253297Y-104278166D01*
X130307695Y-104290601D01*
X130375640Y-104298063D01*
X130457132Y-104300550D01*
X130537460Y-104298063D01*
X130604452Y-104290601D01*
X130658110Y-104278166D01*
X130718355Y-104247924D01*
X130758122Y-104201966D01*
X130774526Y-104161061D01*
X130784369Y-104110103D01*
X130787650Y-104049090D01*
X131331574Y-104049090D01*
X131331574Y-104163108D01*
X131717266Y-104223167D01*
X131833631Y-104229736D01*
X131833631Y-104230675D01*
X131331574Y-104267273D01*
X131331574Y-104364367D01*
X131331574Y-104370500D01*
X131969702Y-104294487D01*
X131969702Y-104170616D01*
X131414155Y-104097419D01*
X131414155Y-104093665D01*
X131969702Y-104021406D01*
X131969702Y-103896596D01*
X131331574Y-103820584D01*
X131331574Y-103923810D01*
X131833631Y-103961347D01*
X131833631Y-103962286D01*
X131717266Y-103969793D01*
X131331574Y-104027975D01*
X131331574Y-104049090D01*
X130787650Y-104049090D01*
X130784369Y-103988077D01*
X130774526Y-103937118D01*
X130758122Y-103896213D01*
X130718355Y-103850255D01*
X130658110Y-103820013D01*
X130604452Y-103807578D01*
X130537460Y-103800117D01*
X130457132Y-103797630D01*
X130375640Y-103800117D01*
X130307695Y-103807578D01*
X130253297Y-103820013D01*
X130192218Y-103850255D01*
X130151856Y-103896213D01*
X130135187Y-103937118D01*
X130125186Y-103988077D01*
X130121852Y-104049090D01*
X129923415Y-104049090D01*
X129923415Y-103453777D01*
X130121852Y-103453777D01*
X130125186Y-103515901D01*
X130135187Y-103567654D01*
X130151856Y-103609035D01*
X130192218Y-103655469D01*
X130253297Y-103686187D01*
X130307590Y-103698887D01*
X130375217Y-103706507D01*
X130456180Y-103709047D01*
X130536507Y-103706507D01*
X130603500Y-103698887D01*
X130657157Y-103686187D01*
X130717522Y-103655469D01*
X130757646Y-103609035D01*
X130757862Y-103608500D01*
X131331574Y-103608500D01*
X131969702Y-103799000D01*
X131969702Y-103679820D01*
X131816739Y-103633837D01*
X131816739Y-103431138D01*
X131969702Y-103385155D01*
X131969702Y-103265975D01*
X131340612Y-103453777D01*
X131331574Y-103456475D01*
X131331574Y-103608500D01*
X130757862Y-103608500D01*
X130774315Y-103567654D01*
X130784316Y-103515901D01*
X130787650Y-103453777D01*
X130783482Y-103377696D01*
X130770981Y-103320903D01*
X130748359Y-103280065D01*
X130713831Y-103251847D01*
X130664896Y-103234226D01*
X130599055Y-103225177D01*
X130599055Y-103344240D01*
X130666206Y-103374720D01*
X130679422Y-103405914D01*
X130683827Y-103453777D01*
X130678707Y-103500212D01*
X130663348Y-103534740D01*
X130635845Y-103559148D01*
X130594292Y-103575221D01*
X130535475Y-103584151D01*
X130456180Y-103587127D01*
X130375931Y-103584151D01*
X130316162Y-103575221D01*
X130273895Y-103559148D01*
X130246153Y-103534740D01*
X130230794Y-103500212D01*
X130225675Y-103453777D01*
X130230437Y-103410438D01*
X130244725Y-103381387D01*
X130272109Y-103362575D01*
X130316162Y-103349955D01*
X130316162Y-103230892D01*
X130248654Y-103238274D01*
X130198528Y-103254705D01*
X130163048Y-103282089D01*
X130139473Y-103322332D01*
X130126257Y-103378530D01*
X130121852Y-103453777D01*
X129923415Y-103453777D01*
X129923415Y-103139452D01*
X130131377Y-103139452D01*
X130779077Y-103139452D01*
X130779077Y-103018485D01*
X130470467Y-103018485D01*
X130531851Y-102971310D01*
X131322190Y-102971310D01*
X131326061Y-103052836D01*
X131337674Y-103113481D01*
X131358436Y-103156414D01*
X131389756Y-103184802D01*
X131433862Y-103200637D01*
X131492983Y-103205916D01*
X131539200Y-103201459D01*
X131576503Y-103188086D01*
X131607119Y-103164039D01*
X131633277Y-103127558D01*
X131657090Y-103075827D01*
X131680668Y-103006032D01*
X131698850Y-102950313D01*
X131715858Y-102908905D01*
X131751988Y-102859638D01*
X131799847Y-102844623D01*
X131846299Y-102854946D01*
X131869291Y-102890136D01*
X131875860Y-102960049D01*
X131873748Y-103005680D01*
X131867414Y-103039346D01*
X131837854Y-103079229D01*
X131777325Y-103094244D01*
X131777325Y-103211547D01*
X131847238Y-103208262D01*
X131899320Y-103192778D01*
X131936153Y-103163335D01*
X131960318Y-103118173D01*
X131973690Y-103054009D01*
X131978148Y-102967556D01*
X131974160Y-102883685D01*
X131962195Y-102821632D01*
X131940611Y-102777878D01*
X131907766Y-102748904D01*
X131861314Y-102732716D01*
X131798909Y-102727320D01*
X131747648Y-102731777D01*
X131706474Y-102745150D01*
X131673043Y-102768963D01*
X131645008Y-102804740D01*
X131619905Y-102855298D01*
X131595271Y-102923451D01*
X131568174Y-103002161D01*
X131545065Y-103052484D01*
X131496737Y-103088613D01*
X131452631Y-103078290D01*
X131431047Y-103044038D01*
X131424478Y-102975064D01*
X131431516Y-102907967D01*
X131454977Y-102873245D01*
X131502367Y-102859638D01*
X131502367Y-102740458D01*
X131439258Y-102745150D01*
X131392572Y-102761103D01*
X131359727Y-102789608D01*
X131338143Y-102831954D01*
X131326178Y-102891427D01*
X131322190Y-102971310D01*
X130531851Y-102971310D01*
X130779077Y-102781312D01*
X130779077Y-102629865D01*
X130450465Y-102898470D01*
X130447607Y-102898470D01*
X130131377Y-102666060D01*
X130131377Y-102806077D01*
X130428557Y-103018485D01*
X130131377Y-103018485D01*
X130131377Y-103139452D01*
X129923415Y-103139452D01*
X129923415Y-102470192D01*
X131328759Y-102470192D01*
X131331574Y-102616586D01*
X131969702Y-102616586D01*
X131969702Y-102496468D01*
X131736973Y-102496468D01*
X131736973Y-102427963D01*
X131734940Y-102365506D01*
X131728840Y-102313267D01*
X131718674Y-102271246D01*
X131694157Y-102223973D01*
X131657207Y-102192888D01*
X131604890Y-102175644D01*
X131534274Y-102169896D01*
X131462719Y-102176583D01*
X131409463Y-102196641D01*
X131371809Y-102232771D01*
X131347058Y-102287669D01*
X131336892Y-102336519D01*
X131330792Y-102397360D01*
X131328759Y-102470192D01*
X129923415Y-102470192D01*
X129923415Y-101827860D01*
X130128520Y-101827860D01*
X130131377Y-101976450D01*
X130779077Y-101976450D01*
X130779077Y-101854530D01*
X130542857Y-101854530D01*
X130542857Y-101784997D01*
X130540793Y-101721603D01*
X130534602Y-101668581D01*
X130524283Y-101625930D01*
X130499399Y-101577948D01*
X130461895Y-101546396D01*
X130408793Y-101528894D01*
X130337117Y-101523060D01*
X130264489Y-101529846D01*
X130210435Y-101550206D01*
X130172216Y-101586877D01*
X130147093Y-101642598D01*
X130136775Y-101692181D01*
X130130583Y-101753935D01*
X130128520Y-101827860D01*
X129923415Y-101827860D01*
X129923415Y-101167777D01*
X130121852Y-101167777D01*
X130125186Y-101229901D01*
X130135187Y-101281654D01*
X130151856Y-101323035D01*
X130192218Y-101369469D01*
X130253297Y-101400187D01*
X130307590Y-101412887D01*
X130375217Y-101420507D01*
X130456180Y-101423047D01*
X130536507Y-101420507D01*
X130603500Y-101412887D01*
X130657157Y-101400187D01*
X130717522Y-101369469D01*
X130757646Y-101323035D01*
X130774315Y-101281654D01*
X130784316Y-101229901D01*
X130787650Y-101167777D01*
X130783482Y-101091696D01*
X130770981Y-101034903D01*
X130748359Y-100994065D01*
X130713831Y-100965847D01*
X130664896Y-100948226D01*
X130599055Y-100939177D01*
X130599055Y-101058240D01*
X130666206Y-101088720D01*
X130679422Y-101119914D01*
X130683827Y-101167777D01*
X130678707Y-101214212D01*
X130663348Y-101248740D01*
X130635845Y-101273148D01*
X130594292Y-101289221D01*
X130535475Y-101298151D01*
X130456180Y-101301127D01*
X130375931Y-101298151D01*
X130316162Y-101289221D01*
X130273895Y-101273148D01*
X130246153Y-101248740D01*
X130230794Y-101214212D01*
X130225675Y-101167777D01*
X130230437Y-101124438D01*
X130244725Y-101095387D01*
X130272109Y-101076575D01*
X130316162Y-101063955D01*
X130316162Y-100944892D01*
X130248654Y-100952274D01*
X130198528Y-100968705D01*
X130163048Y-100996089D01*
X130139473Y-101036332D01*
X130126257Y-101092530D01*
X130121852Y-101167777D01*
X129923415Y-101167777D01*
X129923415Y-100685169D01*
X130126704Y-100685169D01*
X130129472Y-100842022D01*
X130777172Y-100842022D01*
X130782464Y-100775559D01*
X130785639Y-100713329D01*
X130786697Y-100655332D01*
X130784845Y-100586170D01*
X130779289Y-100528544D01*
X130770028Y-100482453D01*
X130747526Y-100430661D01*
X130713355Y-100396252D01*
X130664777Y-100376964D01*
X130599055Y-100370535D01*
X130552144Y-100373035D01*
X130516187Y-100380536D01*
X130468562Y-100414826D01*
X130443797Y-100483882D01*
X130438082Y-100483882D01*
X130423080Y-100442806D01*
X130399030Y-100416731D01*
X130361644Y-100402801D01*
X130306637Y-100398157D01*
X130244129Y-100404706D01*
X130197576Y-100424351D01*
X130164596Y-100459474D01*
X130142807Y-100512457D01*
X130133811Y-100559553D01*
X130128414Y-100618291D01*
X130126704Y-100685169D01*
X129923415Y-100685169D01*
X129923415Y-100370535D01*
X129923415Y-100172097D01*
X129923415Y-99496146D01*
X132176585Y-100172097D01*
X132176585Y-100370535D01*
X132176585Y-100655332D01*
X132176585Y-101167777D01*
G37*
%LPC*%
D12*
X177912500Y-88150000D03*
X174987500Y-88150000D03*
X177912500Y-83800000D03*
X174987500Y-83800000D03*
D13*
X175300000Y-81700000D03*
X177400000Y-81700000D03*
D14*
X166450000Y-72850000D03*
X162450000Y-72850000D03*
D15*
X132836798Y-116263203D03*
D16*
X132836798Y-116263203D03*
D17*
X177250000Y-96950000D03*
D18*
X177250000Y-94450000D03*
X177250000Y-91950000D03*
D19*
X152500000Y-70525000D03*
D20*
X155000000Y-70525000D03*
X157500000Y-70525000D03*
D21*
X130200000Y-97050000D03*
X130200000Y-93050000D03*
D22*
X177150000Y-85900000D03*
X175050000Y-85900000D03*
D16*
X175263204Y-73836797D03*
D15*
X175263204Y-73836797D03*
D23*
X156300000Y-119275000D03*
D24*
X153800000Y-119275000D03*
%LPD*%
M02*
