%TF.GenerationSoftware,KiCad,Pcbnew,7.0.8*%
%TF.CreationDate,2024-01-11T14:36:18+01:00*%
%TF.ProjectId,Roborock-CPAP,526f626f-726f-4636-9b2d-435041502e6b,rev?*%
%TF.SameCoordinates,Original*%
%TF.FileFunction,Copper,L1,Top*%
%TF.FilePolarity,Positive*%
%FSLAX46Y46*%
G04 Gerber Fmt 4.6, Leading zero omitted, Abs format (unit mm)*
G04 Created by KiCad (PCBNEW 7.0.8) date 2024-01-11 14:36:18*
%MOMM*%
%LPD*%
G01*
G04 APERTURE LIST*
G04 Aperture macros list*
%AMRoundRect*
0 Rectangle with rounded corners*
0 $1 Rounding radius*
0 $2 $3 $4 $5 $6 $7 $8 $9 X,Y pos of 4 corners*
0 Add a 4 corners polygon primitive as box body*
4,1,4,$2,$3,$4,$5,$6,$7,$8,$9,$2,$3,0*
0 Add four circle primitives for the rounded corners*
1,1,$1+$1,$2,$3*
1,1,$1+$1,$4,$5*
1,1,$1+$1,$6,$7*
1,1,$1+$1,$8,$9*
0 Add four rect primitives between the rounded corners*
20,1,$1+$1,$2,$3,$4,$5,0*
20,1,$1+$1,$4,$5,$6,$7,0*
20,1,$1+$1,$6,$7,$8,$9,0*
20,1,$1+$1,$8,$9,$2,$3,0*%
G04 Aperture macros list end*
%TA.AperFunction,SMDPad,CuDef*%
%ADD10R,0.600000X0.450000*%
%TD*%
%TA.AperFunction,SMDPad,CuDef*%
%ADD11RoundRect,0.250000X0.312500X0.625000X-0.312500X0.625000X-0.312500X-0.625000X0.312500X-0.625000X0*%
%TD*%
%TA.AperFunction,SMDPad,CuDef*%
%ADD12RoundRect,0.250000X1.000000X0.650000X-1.000000X0.650000X-1.000000X-0.650000X1.000000X-0.650000X0*%
%TD*%
%TA.AperFunction,ConnectorPad*%
%ADD13C,5.600000*%
%TD*%
%TA.AperFunction,ComponentPad*%
%ADD14C,3.600000*%
%TD*%
%TA.AperFunction,ComponentPad*%
%ADD15RoundRect,0.250000X0.725000X-0.600000X0.725000X0.600000X-0.725000X0.600000X-0.725000X-0.600000X0*%
%TD*%
%TA.AperFunction,ComponentPad*%
%ADD16O,1.950000X1.700000*%
%TD*%
%TA.AperFunction,ComponentPad*%
%ADD17RoundRect,0.250000X-0.600000X-0.725000X0.600000X-0.725000X0.600000X0.725000X-0.600000X0.725000X0*%
%TD*%
%TA.AperFunction,ComponentPad*%
%ADD18O,1.700000X1.950000*%
%TD*%
%TA.AperFunction,SMDPad,CuDef*%
%ADD19RoundRect,0.250000X0.650000X-1.000000X0.650000X1.000000X-0.650000X1.000000X-0.650000X-1.000000X0*%
%TD*%
%TA.AperFunction,SMDPad,CuDef*%
%ADD20RoundRect,0.112500X0.187500X0.112500X-0.187500X0.112500X-0.187500X-0.112500X0.187500X-0.112500X0*%
%TD*%
%TA.AperFunction,ComponentPad*%
%ADD21RoundRect,0.250000X0.600000X0.750000X-0.600000X0.750000X-0.600000X-0.750000X0.600000X-0.750000X0*%
%TD*%
%TA.AperFunction,ComponentPad*%
%ADD22O,1.700000X2.000000*%
%TD*%
%TA.AperFunction,ComponentPad*%
%ADD23C,4.250000*%
%TD*%
%TA.AperFunction,Conductor*%
%ADD24C,0.500000*%
%TD*%
G04 APERTURE END LIST*
D10*
%TO.P,ZD2,1,K*%
%TO.N,Net-(SBD2-K)*%
X175300000Y-81700000D03*
%TO.P,ZD2,2,A*%
%TO.N,GND*%
X177400000Y-81700000D03*
%TD*%
D11*
%TO.P,R2,1*%
%TO.N,PWM_OUT*%
X177912500Y-88150000D03*
%TO.P,R2,2*%
%TO.N,GND*%
X174987500Y-88150000D03*
%TD*%
D12*
%TO.P,SBD2,1,K*%
%TO.N,Net-(SBD2-K)*%
X166450000Y-72850000D03*
%TO.P,SBD2,2,A*%
%TO.N,PWM_IN*%
X162450000Y-72850000D03*
%TD*%
D13*
%TO.P,H2,1,1*%
%TO.N,GND*%
X132836798Y-116263203D03*
D14*
%TO.P,H2,2,1*%
X132836798Y-116263203D03*
%TD*%
D15*
%TO.P,J2,1,Pin_1*%
%TO.N,VCC_FUSED*%
X177250000Y-96950000D03*
D16*
%TO.P,J2,2,Pin_2*%
%TO.N,GND*%
X177250000Y-94450000D03*
%TO.P,J2,3,Pin_3*%
%TO.N,PWM_OUT*%
X177250000Y-91950000D03*
%TD*%
D17*
%TO.P,J1,1,Pin_1*%
%TO.N,VCC*%
X152500000Y-70525000D03*
D18*
%TO.P,J1,2,Pin_2*%
%TO.N,GND*%
X155000000Y-70525000D03*
%TO.P,J1,3,Pin_3*%
%TO.N,PWM_IN*%
X157500000Y-70525000D03*
%TD*%
D19*
%TO.P,SBD1,1,K*%
%TO.N,VCC_FUSED*%
X130200000Y-97050000D03*
%TO.P,SBD1,2,A*%
%TO.N,VCC*%
X130200000Y-93050000D03*
%TD*%
D20*
%TO.P,ZD1,1,K*%
%TO.N,PWM_OUT*%
X177150000Y-85900000D03*
%TO.P,ZD1,2,A*%
%TO.N,GND*%
X175050000Y-85900000D03*
%TD*%
D11*
%TO.P,R1,1*%
%TO.N,PWM_OUT*%
X177912500Y-83800000D03*
%TO.P,R1,2*%
%TO.N,Net-(SBD2-K)*%
X174987500Y-83800000D03*
%TD*%
D14*
%TO.P,H1,1,1*%
%TO.N,GND*%
X175263204Y-73836797D03*
D13*
X175263204Y-73836797D03*
%TD*%
D21*
%TO.P,J3,1,Pin_1*%
%TO.N,VCC_FUSED*%
X156300000Y-119275000D03*
D22*
%TO.P,J3,2,Pin_2*%
%TO.N,GND*%
X153800000Y-119275000D03*
%TD*%
D23*
%TO.P,FAN1,HOLE1*%
%TO.N,N/C*%
X138150000Y-79100000D03*
%TO.P,FAN1,HOLE3*%
X170150000Y-111100000D03*
%TD*%
D24*
%TO.N,PWM_IN*%
X160125000Y-70525000D02*
X162450000Y-72850000D01*
X157500000Y-70525000D02*
X160125000Y-70525000D01*
%TO.N,PWM_OUT*%
X177012500Y-91712500D02*
X177250000Y-91950000D01*
X177150000Y-87387500D02*
X177912500Y-88150000D01*
X177912500Y-85137500D02*
X177150000Y-85900000D01*
X177250000Y-91950000D02*
X177200000Y-92400000D01*
X177912500Y-83800000D02*
X177912500Y-85137500D01*
X177912500Y-88150000D02*
X177912500Y-91287500D01*
X177150000Y-85900000D02*
X177150000Y-87387500D01*
X177912500Y-91287500D02*
X177250000Y-91950000D01*
%TO.N,Net-(SBD2-K)*%
X166450000Y-72850000D02*
X169150000Y-72850000D01*
X170600000Y-74300000D02*
X175300000Y-79000000D01*
X175300000Y-79000000D02*
X175300000Y-81700000D01*
X174950000Y-84112500D02*
X175087500Y-84250000D01*
X175300000Y-83487500D02*
X174987500Y-83800000D01*
X170600000Y-74300000D02*
X169950000Y-73650000D01*
X169150000Y-72850000D02*
X170600000Y-74300000D01*
X175300000Y-81700000D02*
X175300000Y-83487500D01*
%TD*%
%TA.AperFunction,Conductor*%
%TO.N,VCC_FUSED*%
G36*
X176373035Y-90540621D02*
G01*
X176441116Y-90560742D01*
X176487515Y-90614480D01*
X176497495Y-90684771D01*
X176467888Y-90749300D01*
X176443366Y-90771012D01*
X176268478Y-90889216D01*
X176268477Y-90889217D01*
X176101521Y-91049230D01*
X175964013Y-91235154D01*
X175859903Y-91441647D01*
X175826489Y-91550756D01*
X175792189Y-91662757D01*
X175764514Y-91878880D01*
X175762815Y-91892144D01*
X175772630Y-92123178D01*
X175821351Y-92349240D01*
X175907575Y-92563815D01*
X175907577Y-92563819D01*
X176028819Y-92760727D01*
X176028821Y-92760730D01*
X176181602Y-92934324D01*
X176361524Y-93079600D01*
X176382733Y-93091448D01*
X176432446Y-93142129D01*
X176446869Y-93211645D01*
X176421418Y-93277923D01*
X176391839Y-93305838D01*
X176268478Y-93389216D01*
X176268477Y-93389217D01*
X176101521Y-93549230D01*
X175964013Y-93735154D01*
X175859903Y-93941647D01*
X175815200Y-94087618D01*
X175792189Y-94162757D01*
X175771491Y-94324395D01*
X175762815Y-94392144D01*
X175772630Y-94623178D01*
X175821351Y-94849240D01*
X175860580Y-94946864D01*
X175906542Y-95061246D01*
X175907575Y-95063815D01*
X175907577Y-95063819D01*
X176028819Y-95260727D01*
X176028822Y-95260731D01*
X176138207Y-95385018D01*
X176181602Y-95434324D01*
X176361524Y-95579600D01*
X176443431Y-95625356D01*
X176493145Y-95676038D01*
X176507566Y-95745555D01*
X176482115Y-95811832D01*
X176424872Y-95853829D01*
X176423125Y-95854350D01*
X176282910Y-95906647D01*
X176167810Y-95992810D01*
X176081647Y-96107910D01*
X176031400Y-96242628D01*
X176025000Y-96302159D01*
X176025000Y-96575000D01*
X176957427Y-96575000D01*
X176887327Y-96635742D01*
X176813481Y-96750649D01*
X176775000Y-96881705D01*
X176775000Y-97018295D01*
X176813481Y-97149351D01*
X176887327Y-97264258D01*
X176990555Y-97353705D01*
X177114801Y-97410446D01*
X177216025Y-97425000D01*
X177283975Y-97425000D01*
X177385199Y-97410446D01*
X177509445Y-97353705D01*
X177542573Y-97325000D01*
X177625000Y-97325000D01*
X177625000Y-98050000D01*
X178022824Y-98050000D01*
X178022840Y-98049999D01*
X178082371Y-98043599D01*
X178217089Y-97993352D01*
X178332189Y-97907189D01*
X178418352Y-97792089D01*
X178468599Y-97657371D01*
X178474999Y-97597840D01*
X178475000Y-97597823D01*
X178475000Y-97325000D01*
X177625000Y-97325000D01*
X177542573Y-97325000D01*
X177612673Y-97264258D01*
X177686519Y-97149351D01*
X177725000Y-97018295D01*
X177725000Y-96881705D01*
X177686519Y-96750649D01*
X177612673Y-96635742D01*
X177542573Y-96575000D01*
X178475000Y-96575000D01*
X178475000Y-96302176D01*
X178474999Y-96302159D01*
X178468599Y-96242628D01*
X178418352Y-96107910D01*
X178332189Y-95992810D01*
X178217089Y-95906647D01*
X178078144Y-95854824D01*
X178021308Y-95812277D01*
X177996497Y-95745757D01*
X178011588Y-95676383D01*
X178051616Y-95632378D01*
X178231523Y-95510783D01*
X178398476Y-95350772D01*
X178535985Y-95164847D01*
X178640095Y-94958357D01*
X178707811Y-94737243D01*
X178737184Y-94507865D01*
X178736507Y-94491935D01*
X178727369Y-94276821D01*
X178708913Y-94191190D01*
X178678649Y-94050762D01*
X178592426Y-93836187D01*
X178560425Y-93784215D01*
X178471180Y-93639272D01*
X178471179Y-93639270D01*
X178318398Y-93465676D01*
X178138476Y-93320400D01*
X178117264Y-93308550D01*
X178067552Y-93257869D01*
X178053131Y-93188352D01*
X178078582Y-93122074D01*
X178108161Y-93094161D01*
X178231523Y-93010783D01*
X178398476Y-92850772D01*
X178535985Y-92664847D01*
X178640095Y-92458357D01*
X178707811Y-92237243D01*
X178737184Y-92007865D01*
X178733275Y-91915854D01*
X178727369Y-91776821D01*
X178693108Y-91617853D01*
X178678649Y-91550762D01*
X178662722Y-91511126D01*
X178655881Y-91440460D01*
X178657023Y-91435122D01*
X178671000Y-91376156D01*
X178671000Y-91376153D01*
X178671852Y-91368868D01*
X178671918Y-91368875D01*
X178672684Y-91361377D01*
X178672618Y-91361372D01*
X178673256Y-91354065D01*
X178673258Y-91354058D01*
X178671000Y-91276454D01*
X178671000Y-90670889D01*
X178691002Y-90602768D01*
X178744658Y-90556275D01*
X178797220Y-90544889D01*
X181573737Y-90549777D01*
X181641817Y-90569898D01*
X181688216Y-90623636D01*
X181697860Y-90655454D01*
X181701154Y-90675606D01*
X181769702Y-91109063D01*
X181844681Y-91706711D01*
X181897592Y-92148660D01*
X181949857Y-92743381D01*
X181986512Y-93192342D01*
X182016429Y-93784215D01*
X182036330Y-94238554D01*
X182044194Y-94827448D01*
X182046983Y-95285942D01*
X182033048Y-95871419D01*
X182018455Y-96332984D01*
X181982951Y-96914771D01*
X181950787Y-97378186D01*
X181893926Y-97955944D01*
X181844077Y-98420106D01*
X181766080Y-98993266D01*
X181698467Y-99457349D01*
X181599562Y-100025339D01*
X181514175Y-100488361D01*
X181394555Y-101050807D01*
X181291461Y-101511716D01*
X181151362Y-102068028D01*
X181030621Y-102526060D01*
X180870312Y-103075565D01*
X180732039Y-103529904D01*
X180551767Y-104072061D01*
X180396126Y-104521869D01*
X180196175Y-105056064D01*
X180023355Y-105500563D01*
X179804032Y-106026169D01*
X179614247Y-106464623D01*
X179375863Y-106981046D01*
X179231311Y-107283226D01*
X179169379Y-107412692D01*
X178912272Y-107919326D01*
X178689385Y-108343425D01*
X178413907Y-108839676D01*
X178174920Y-109255559D01*
X177881462Y-109740804D01*
X177626719Y-110147793D01*
X177315653Y-110621478D01*
X177045556Y-111018873D01*
X176717301Y-111480410D01*
X176432228Y-111867609D01*
X176087214Y-112316429D01*
X175787628Y-112692769D01*
X175426294Y-113128332D01*
X175112615Y-113493261D01*
X174735462Y-113914978D01*
X174408179Y-114267910D01*
X174015653Y-114675297D01*
X173675303Y-115015647D01*
X173267889Y-115408199D01*
X172915002Y-115735440D01*
X172493255Y-116112620D01*
X172128325Y-116426299D01*
X171692783Y-116787618D01*
X171316429Y-117087215D01*
X170867598Y-117432236D01*
X170480412Y-117717300D01*
X170018881Y-118045551D01*
X169621474Y-118315656D01*
X169147793Y-118626719D01*
X168740796Y-118881466D01*
X168255578Y-119174909D01*
X167839641Y-119413927D01*
X167343441Y-119689376D01*
X166919317Y-119912277D01*
X166412675Y-120169387D01*
X165981038Y-120375867D01*
X165464636Y-120614241D01*
X165026150Y-120804040D01*
X164500572Y-121023351D01*
X164056012Y-121196194D01*
X163521909Y-121396111D01*
X163072009Y-121551785D01*
X162529916Y-121732035D01*
X162075542Y-121870319D01*
X161526071Y-122030619D01*
X161068007Y-122151367D01*
X160511725Y-122291459D01*
X160050787Y-122394559D01*
X159488367Y-122514173D01*
X159025327Y-122599564D01*
X158457350Y-122698467D01*
X157993266Y-122766080D01*
X157420106Y-122844077D01*
X156955940Y-122893926D01*
X156378189Y-122950787D01*
X155914807Y-122982948D01*
X155332952Y-123018456D01*
X154871502Y-123033045D01*
X154285939Y-123046983D01*
X153827449Y-123044194D01*
X153238554Y-123036330D01*
X152784216Y-123016429D01*
X152192344Y-122986512D01*
X151743368Y-122949855D01*
X151148663Y-122897592D01*
X150706701Y-122844680D01*
X150109060Y-122769701D01*
X149675754Y-122701177D01*
X149074927Y-122603009D01*
X148652496Y-122519780D01*
X148047757Y-122397755D01*
X147638772Y-122301034D01*
X147028958Y-122154218D01*
X146636979Y-122045771D01*
X146019993Y-121872748D01*
X145649926Y-121755183D01*
X145022243Y-121553729D01*
X144682039Y-121431357D01*
X144037125Y-121197615D01*
X143740936Y-121078289D01*
X143065972Y-120804884D01*
X142844253Y-120705693D01*
X142110214Y-120376114D01*
X142051616Y-120347202D01*
X141176500Y-119914534D01*
X140943614Y-119788419D01*
X140379094Y-119482713D01*
X152441500Y-119482713D01*
X152456198Y-119655417D01*
X152456199Y-119655421D01*
X152514468Y-119879201D01*
X152514470Y-119879207D01*
X152567991Y-119997609D01*
X152601989Y-120072823D01*
X152609722Y-120089929D01*
X152739217Y-120281523D01*
X152899228Y-120448476D01*
X152899230Y-120448478D01*
X153085154Y-120585986D01*
X153141195Y-120614241D01*
X153291643Y-120690095D01*
X153512757Y-120757811D01*
X153742135Y-120787184D01*
X153973178Y-120777369D01*
X154199238Y-120728649D01*
X154413813Y-120642426D01*
X154610730Y-120521179D01*
X154784324Y-120368398D01*
X154929600Y-120188476D01*
X154975357Y-120106566D01*
X155026038Y-120056854D01*
X155095554Y-120042433D01*
X155161832Y-120067883D01*
X155203829Y-120125127D01*
X155204350Y-120126874D01*
X155256647Y-120267089D01*
X155342810Y-120382189D01*
X155457910Y-120468352D01*
X155592628Y-120518599D01*
X155652159Y-120524999D01*
X155652176Y-120525000D01*
X155925000Y-120525000D01*
X155925000Y-119611656D01*
X156026900Y-119699952D01*
X156157685Y-119759680D01*
X156264237Y-119775000D01*
X156335763Y-119775000D01*
X156442315Y-119759680D01*
X156573100Y-119699952D01*
X156630748Y-119650000D01*
X156675000Y-119650000D01*
X156675000Y-120525000D01*
X156947824Y-120525000D01*
X156947840Y-120524999D01*
X157007371Y-120518599D01*
X157142089Y-120468352D01*
X157257189Y-120382189D01*
X157343352Y-120267089D01*
X157393599Y-120132371D01*
X157399999Y-120072840D01*
X157400000Y-120072823D01*
X157400000Y-119650000D01*
X156675000Y-119650000D01*
X156630748Y-119650000D01*
X156681761Y-119605798D01*
X156759493Y-119484844D01*
X156800000Y-119346889D01*
X156800000Y-119203111D01*
X156759493Y-119065156D01*
X156681761Y-118944202D01*
X156573100Y-118850048D01*
X156442315Y-118790320D01*
X156335763Y-118775000D01*
X156264237Y-118775000D01*
X156157685Y-118790320D01*
X156026900Y-118850048D01*
X155925000Y-118938343D01*
X155925000Y-118025000D01*
X156675000Y-118025000D01*
X156675000Y-118900000D01*
X157400000Y-118900000D01*
X157400000Y-118477176D01*
X157399999Y-118477159D01*
X157393599Y-118417628D01*
X157343352Y-118282910D01*
X157257189Y-118167810D01*
X157142089Y-118081647D01*
X157007371Y-118031400D01*
X156947840Y-118025000D01*
X156675000Y-118025000D01*
X155925000Y-118025000D01*
X155652159Y-118025000D01*
X155592628Y-118031400D01*
X155457910Y-118081647D01*
X155342810Y-118167810D01*
X155256648Y-118282909D01*
X155204824Y-118421856D01*
X155162277Y-118478691D01*
X155095757Y-118503502D01*
X155026383Y-118488411D01*
X154982376Y-118448380D01*
X154964449Y-118421856D01*
X154860783Y-118268477D01*
X154700772Y-118101524D01*
X154700771Y-118101523D01*
X154700769Y-118101521D01*
X154514845Y-117964013D01*
X154364548Y-117888236D01*
X154308357Y-117859905D01*
X154308354Y-117859904D01*
X154308352Y-117859903D01*
X154182466Y-117821351D01*
X154087243Y-117792189D01*
X153857865Y-117762816D01*
X153857861Y-117762816D01*
X153857853Y-117762815D01*
X153626821Y-117772630D01*
X153400759Y-117821351D01*
X153186184Y-117907575D01*
X153186180Y-117907577D01*
X152989272Y-118028819D01*
X152989268Y-118028822D01*
X152815676Y-118181601D01*
X152699550Y-118325422D01*
X152670400Y-118361524D01*
X152598866Y-118489573D01*
X152557619Y-118563410D01*
X152480582Y-118781442D01*
X152480582Y-118781443D01*
X152480581Y-118781450D01*
X152441500Y-119009375D01*
X152441500Y-119009378D01*
X152441500Y-119482713D01*
X140379094Y-119482713D01*
X140262412Y-119419526D01*
X140261853Y-119419210D01*
X140261854Y-119419210D01*
X140077816Y-119315036D01*
X140077817Y-119315036D01*
X140077813Y-119315034D01*
X140077811Y-119315033D01*
X139693413Y-119138574D01*
X139693410Y-119138572D01*
X139693408Y-119138572D01*
X139489647Y-119065156D01*
X139295489Y-118995200D01*
X138886881Y-118885937D01*
X138651604Y-118843911D01*
X138470508Y-118811563D01*
X138049338Y-118772611D01*
X137626386Y-118769357D01*
X137626385Y-118769357D01*
X137626384Y-118769357D01*
X137469427Y-118781442D01*
X137204669Y-118801827D01*
X136995934Y-118835806D01*
X136787198Y-118869786D01*
X136787199Y-118869786D01*
X136688407Y-118894582D01*
X136376959Y-118972752D01*
X135976876Y-119109987D01*
X135589810Y-119280512D01*
X135218523Y-119483109D01*
X135145053Y-119531688D01*
X135043412Y-119598896D01*
X135040791Y-119600538D01*
X134805036Y-119740301D01*
X134706345Y-119798566D01*
X134700994Y-119801387D01*
X134495679Y-119897373D01*
X134493312Y-119898465D01*
X134345264Y-119966698D01*
X134339871Y-119968888D01*
X134135604Y-120041029D01*
X133969281Y-120098080D01*
X133963916Y-120099658D01*
X133757644Y-120150504D01*
X133582131Y-120191413D01*
X133576861Y-120192407D01*
X133368841Y-120222542D01*
X133187654Y-120245780D01*
X133182537Y-120246225D01*
X132973973Y-120255836D01*
X132789756Y-120260648D01*
X132784850Y-120260585D01*
X132577233Y-120249828D01*
X132392391Y-120235879D01*
X132387746Y-120235354D01*
X132302733Y-120222542D01*
X132182766Y-120204461D01*
X131999483Y-120171722D01*
X131995132Y-120170785D01*
X131794546Y-120120121D01*
X131688812Y-120089923D01*
X131614950Y-120068827D01*
X131610939Y-120067535D01*
X131416497Y-119997609D01*
X131242586Y-119928219D01*
X131238925Y-119926622D01*
X131052376Y-119838105D01*
X130886087Y-119751305D01*
X130882802Y-119749463D01*
X130705841Y-119643182D01*
X130597336Y-119571702D01*
X130548952Y-119539828D01*
X130546066Y-119537808D01*
X130381481Y-119415606D01*
X130379229Y-119413854D01*
X130234566Y-119295920D01*
X130232057Y-119293762D01*
X130080220Y-119156096D01*
X130078004Y-119153986D01*
X129946018Y-119021999D01*
X129943912Y-119019789D01*
X129806223Y-118867927D01*
X129804075Y-118865430D01*
X129686146Y-118720771D01*
X129684394Y-118718520D01*
X129562172Y-118553907D01*
X129560178Y-118551058D01*
X129456828Y-118394177D01*
X129350523Y-118217177D01*
X129348697Y-118213919D01*
X129261891Y-118047616D01*
X129251160Y-118025000D01*
X129186228Y-117888158D01*
X129170202Y-117853246D01*
X129168972Y-117850377D01*
X129102393Y-117683511D01*
X129062268Y-117571936D01*
X129024302Y-117460701D01*
X129023355Y-117457682D01*
X128979879Y-117305455D01*
X128966701Y-117253281D01*
X128959482Y-117224702D01*
X128920324Y-117055540D01*
X128919693Y-117052463D01*
X128895546Y-116917281D01*
X128886512Y-116857339D01*
X128877588Y-116786911D01*
X128859287Y-116642475D01*
X128858966Y-116639296D01*
X128850173Y-116522787D01*
X128847807Y-116477132D01*
X128842544Y-116263206D01*
X129523439Y-116263206D01*
X129542862Y-116621440D01*
X129600901Y-116975472D01*
X129696882Y-117321162D01*
X129740661Y-117431040D01*
X129829675Y-117654446D01*
X129933551Y-117850377D01*
X129997720Y-117971413D01*
X129997722Y-117971417D01*
X130072460Y-118081647D01*
X130199056Y-118268362D01*
X130385967Y-118488411D01*
X130431314Y-118541798D01*
X130691760Y-118788507D01*
X130691775Y-118788520D01*
X130977384Y-119005634D01*
X131284793Y-119190596D01*
X131610397Y-119341236D01*
X131950381Y-119455790D01*
X132300756Y-119532914D01*
X132657416Y-119571703D01*
X132657424Y-119571703D01*
X133016172Y-119571703D01*
X133016180Y-119571703D01*
X133372840Y-119532914D01*
X133723215Y-119455790D01*
X134063199Y-119341236D01*
X134388803Y-119190596D01*
X134696212Y-119005634D01*
X134981821Y-118788520D01*
X134983818Y-118786629D01*
X135055719Y-118718520D01*
X135242282Y-118541798D01*
X135474540Y-118268362D01*
X135675873Y-117971418D01*
X135843921Y-117654446D01*
X135976713Y-117321164D01*
X136072693Y-116975477D01*
X136130734Y-116621440D01*
X136147439Y-116313322D01*
X136150157Y-116263206D01*
X136150157Y-116263199D01*
X136142721Y-116126053D01*
X136130734Y-115904966D01*
X136072693Y-115550929D01*
X135976713Y-115205242D01*
X135843921Y-114871960D01*
X135675873Y-114554988D01*
X135474540Y-114258044D01*
X135242282Y-113984608D01*
X135133402Y-113881471D01*
X134981835Y-113737898D01*
X134981820Y-113737885D01*
X134696216Y-113520775D01*
X134696210Y-113520771D01*
X134685566Y-113514367D01*
X134388803Y-113335810D01*
X134063199Y-113185170D01*
X133735665Y-113074811D01*
X133723224Y-113070619D01*
X133723223Y-113070618D01*
X133723215Y-113070616D01*
X133675713Y-113060159D01*
X133372852Y-112993494D01*
X133372828Y-112993490D01*
X133016187Y-112954703D01*
X133016180Y-112954703D01*
X132657416Y-112954703D01*
X132657408Y-112954703D01*
X132300767Y-112993490D01*
X132300743Y-112993494D01*
X131950385Y-113070615D01*
X131950371Y-113070619D01*
X131610399Y-113185169D01*
X131610397Y-113185170D01*
X131309724Y-113324276D01*
X131284787Y-113335813D01*
X130977385Y-113520771D01*
X130977379Y-113520775D01*
X130691775Y-113737885D01*
X130691760Y-113737898D01*
X130431314Y-113984607D01*
X130199054Y-114258046D01*
X129997722Y-114554988D01*
X129997720Y-114554992D01*
X129829674Y-114871962D01*
X129829670Y-114871971D01*
X129696882Y-115205243D01*
X129600901Y-115550933D01*
X129542862Y-115904965D01*
X129523439Y-116263199D01*
X129523439Y-116263206D01*
X128842544Y-116263206D01*
X128841630Y-116226067D01*
X128841631Y-116222912D01*
X128844162Y-116126053D01*
X128845835Y-116089747D01*
X128867298Y-115810967D01*
X128867618Y-115807864D01*
X128877449Y-115731212D01*
X128881917Y-115700366D01*
X128935706Y-115401858D01*
X128936343Y-115398778D01*
X128938966Y-115387523D01*
X128949475Y-115342432D01*
X128956561Y-115313688D01*
X129045783Y-115003078D01*
X129046715Y-115000118D01*
X129058880Y-114964647D01*
X129069641Y-114934178D01*
X129195978Y-114618930D01*
X129197216Y-114616054D01*
X129202443Y-114604711D01*
X129219887Y-114567399D01*
X129221078Y-114564994D01*
X129383519Y-114254942D01*
X129385061Y-114252180D01*
X129411946Y-114206829D01*
X129504412Y-114063123D01*
X129628529Y-113870674D01*
X129709871Y-113719076D01*
X129845057Y-113467125D01*
X129845060Y-113467120D01*
X130023779Y-113045456D01*
X130121036Y-112741114D01*
X130127237Y-112723038D01*
X130128304Y-112718783D01*
X130129384Y-112714991D01*
X130163188Y-112609214D01*
X130218088Y-112361060D01*
X130230201Y-112312804D01*
X130230201Y-112312806D01*
X130230886Y-112308596D01*
X130233915Y-112289989D01*
X130234573Y-112286556D01*
X130262119Y-112162052D01*
X130288134Y-111956919D01*
X130298161Y-111895330D01*
X130301464Y-111852425D01*
X130301775Y-111849376D01*
X130306927Y-111808755D01*
X130319742Y-111707717D01*
X130325561Y-111539449D01*
X130330631Y-111473614D01*
X130330123Y-111407590D01*
X130330637Y-111392733D01*
X130335574Y-111250015D01*
X130327959Y-111116575D01*
X130327861Y-111113505D01*
X130327378Y-111050662D01*
X130327378Y-111050663D01*
X130319077Y-110960917D01*
X130309484Y-110792784D01*
X130294154Y-110690370D01*
X130293731Y-110686865D01*
X130288425Y-110629495D01*
X130267551Y-110512634D01*
X130241690Y-110339860D01*
X130241556Y-110339312D01*
X130223677Y-110266303D01*
X130222863Y-110262451D01*
X130214052Y-110213123D01*
X130173708Y-110062253D01*
X130132758Y-109895023D01*
X130116639Y-109848231D01*
X130115344Y-109843990D01*
X130108060Y-109816751D01*
X130104789Y-109804516D01*
X130031818Y-109601990D01*
X130017281Y-109559789D01*
X129983603Y-109462017D01*
X129973529Y-109439658D01*
X129971709Y-109435162D01*
X129966103Y-109419601D01*
X129961418Y-109406596D01*
X129961418Y-109406598D01*
X129961416Y-109406593D01*
X129882060Y-109233724D01*
X129811116Y-109079180D01*
X129802894Y-109060931D01*
X129795475Y-109044465D01*
X129794827Y-109043290D01*
X129792753Y-109039179D01*
X129784957Y-109022196D01*
X129717833Y-108903612D01*
X129684927Y-108843914D01*
X129666883Y-108811673D01*
X129653306Y-108787414D01*
X129272563Y-108084331D01*
X129099534Y-107749690D01*
X128808991Y-107162036D01*
X128779816Y-107099987D01*
X128636757Y-106795730D01*
X128394102Y-106255288D01*
X128378300Y-106219965D01*
X128210149Y-105824265D01*
X128021606Y-105358801D01*
X127980733Y-105257346D01*
X127959964Y-105202854D01*
X127820404Y-104836681D01*
X127714105Y-104543390D01*
X127668660Y-104418004D01*
X127619190Y-104280474D01*
X127584530Y-104178100D01*
X127468164Y-103834391D01*
X127344779Y-103449953D01*
X127294171Y-103290648D01*
X127269785Y-103208558D01*
X127230278Y-103075565D01*
X127153972Y-102818692D01*
X127054208Y-102462943D01*
X127006143Y-102289212D01*
X126908756Y-101909503D01*
X126878353Y-101790962D01*
X126798863Y-101460794D01*
X126755536Y-101277583D01*
X126641788Y-100752616D01*
X126580181Y-100447306D01*
X126542686Y-100256992D01*
X126444689Y-99704963D01*
X126398786Y-99424019D01*
X126367946Y-99228997D01*
X126287450Y-98649388D01*
X126255300Y-98393130D01*
X126231569Y-98194910D01*
X126227791Y-98157371D01*
X126170431Y-97587464D01*
X126156154Y-97425000D01*
X129050000Y-97425000D01*
X129050000Y-98097840D01*
X129056400Y-98157371D01*
X129106647Y-98292089D01*
X129192810Y-98407189D01*
X129307910Y-98493352D01*
X129442628Y-98543599D01*
X129502159Y-98549999D01*
X129502176Y-98550000D01*
X129825000Y-98550000D01*
X129825000Y-97425000D01*
X130575000Y-97425000D01*
X130575000Y-98550000D01*
X130897824Y-98550000D01*
X130897840Y-98549999D01*
X130957371Y-98543599D01*
X131092089Y-98493352D01*
X131207189Y-98407189D01*
X131293352Y-98292089D01*
X131343599Y-98157371D01*
X131349999Y-98097840D01*
X131350000Y-98097823D01*
X131350000Y-97425000D01*
X130575000Y-97425000D01*
X129825000Y-97425000D01*
X129050000Y-97425000D01*
X126156154Y-97425000D01*
X126150130Y-97356458D01*
X126133777Y-97156146D01*
X126121867Y-96966194D01*
X126103608Y-96675000D01*
X129050000Y-96675000D01*
X129825000Y-96675000D01*
X129825000Y-95550000D01*
X130575000Y-95550000D01*
X130575000Y-96675000D01*
X131350000Y-96675000D01*
X131350000Y-96002176D01*
X131349999Y-96002159D01*
X131343599Y-95942628D01*
X131293352Y-95807910D01*
X131207189Y-95692810D01*
X131092089Y-95606647D01*
X130957371Y-95556400D01*
X130897840Y-95550000D01*
X130575000Y-95550000D01*
X129825000Y-95550000D01*
X129502159Y-95550000D01*
X129442628Y-95556400D01*
X129307910Y-95606647D01*
X129192810Y-95692810D01*
X129106647Y-95807910D01*
X129056400Y-95942628D01*
X129050000Y-96002159D01*
X129050000Y-96675000D01*
X126103608Y-96675000D01*
X126093916Y-96520424D01*
X126083567Y-96315678D01*
X126074741Y-96114168D01*
X126072643Y-96030015D01*
X126058173Y-95449753D01*
X126055805Y-95272400D01*
X126055285Y-95186833D01*
X126074871Y-95118596D01*
X126128243Y-95071777D01*
X126198454Y-95061246D01*
X126199085Y-95061334D01*
X126214150Y-95063500D01*
X126214154Y-95063500D01*
X129047996Y-95063500D01*
X129048002Y-95063500D01*
X129174997Y-95047549D01*
X129235383Y-95032136D01*
X129354482Y-94985275D01*
X129471487Y-94897686D01*
X129521692Y-94847481D01*
X129521692Y-94847480D01*
X129523770Y-94845403D01*
X129586083Y-94811378D01*
X129612865Y-94808499D01*
X130788200Y-94808499D01*
X130856321Y-94828501D01*
X130883430Y-94851993D01*
X130894685Y-94864983D01*
X130895597Y-94866096D01*
X131006256Y-94961980D01*
X131006259Y-94961982D01*
X131139208Y-95022698D01*
X131207329Y-95042700D01*
X131351998Y-95063500D01*
X135644559Y-95063500D01*
X135712680Y-95083502D01*
X135759173Y-95137158D01*
X135769277Y-95207432D01*
X135746156Y-95264026D01*
X135657407Y-95385011D01*
X135657401Y-95385020D01*
X135494702Y-95666067D01*
X135363288Y-95963018D01*
X135363283Y-95963031D01*
X135264681Y-96272430D01*
X135200042Y-96590672D01*
X135200041Y-96590678D01*
X135170122Y-96914036D01*
X135175272Y-97238736D01*
X135191700Y-97370442D01*
X135191696Y-97370481D01*
X135195369Y-97399861D01*
X135247571Y-97818919D01*
X135389159Y-98651561D01*
X135567600Y-99477090D01*
X135782543Y-100293876D01*
X136033562Y-101100306D01*
X136320163Y-101894787D01*
X136641779Y-102675750D01*
X136997774Y-103441653D01*
X137387447Y-104190983D01*
X137598441Y-104556108D01*
X137810027Y-104922259D01*
X138264679Y-105634039D01*
X138750507Y-106324917D01*
X139266550Y-106993527D01*
X139811789Y-107638549D01*
X140385147Y-108258710D01*
X140985493Y-108852785D01*
X141611640Y-109419601D01*
X142262351Y-109958037D01*
X142936343Y-110467032D01*
X143632283Y-110945578D01*
X144348798Y-111392733D01*
X145084471Y-111807611D01*
X145837851Y-112189394D01*
X146607449Y-112537329D01*
X146847695Y-112633329D01*
X146848779Y-112634180D01*
X146868978Y-112641833D01*
X147391746Y-112850727D01*
X147554754Y-112907603D01*
X147651331Y-112941301D01*
X147653996Y-112943208D01*
X147698623Y-112957802D01*
X148033972Y-113074811D01*
X148189192Y-113128970D01*
X148468084Y-113212580D01*
X148472397Y-113215386D01*
X148537762Y-113233469D01*
X148998213Y-113371509D01*
X149355671Y-113461550D01*
X149355707Y-113461572D01*
X149365281Y-113463985D01*
X149365292Y-113463991D01*
X149372173Y-113465722D01*
X149565161Y-113514367D01*
X149565160Y-113514367D01*
X149718757Y-113535808D01*
X149886788Y-113559264D01*
X150211382Y-113569190D01*
X150535151Y-113544030D01*
X150854314Y-113484079D01*
X151165144Y-113390035D01*
X151464010Y-113262998D01*
X151747422Y-113104451D01*
X152012070Y-112916246D01*
X152254862Y-112700581D01*
X152472964Y-112459975D01*
X152663827Y-112197238D01*
X152825222Y-111915439D01*
X152955266Y-111617868D01*
X153052438Y-111308002D01*
X153083734Y-111150090D01*
X153084335Y-111147382D01*
X153095977Y-111100001D01*
X167511687Y-111100001D01*
X167530922Y-111418010D01*
X167530923Y-111418013D01*
X167588351Y-111731389D01*
X167683135Y-112035563D01*
X167813884Y-112326074D01*
X167813887Y-112326080D01*
X167978710Y-112598732D01*
X168175188Y-112849519D01*
X168175200Y-112849532D01*
X168400467Y-113074799D01*
X168400480Y-113074811D01*
X168640682Y-113262996D01*
X168651267Y-113271289D01*
X168923915Y-113436110D01*
X168923917Y-113436111D01*
X168923919Y-113436112D01*
X168923925Y-113436115D01*
X169214436Y-113566864D01*
X169214437Y-113566864D01*
X169214441Y-113566866D01*
X169518610Y-113661648D01*
X169831987Y-113719077D01*
X170043995Y-113731901D01*
X170149999Y-113738313D01*
X170150000Y-113738313D01*
X170150001Y-113738313D01*
X170229503Y-113733504D01*
X170468013Y-113719077D01*
X170781390Y-113661648D01*
X171085559Y-113566866D01*
X171376085Y-113436110D01*
X171648733Y-113271289D01*
X171899525Y-113074806D01*
X172124806Y-112849525D01*
X172321289Y-112598733D01*
X172486110Y-112326085D01*
X172616866Y-112035559D01*
X172711648Y-111731390D01*
X172769077Y-111418013D01*
X172788313Y-111100000D01*
X172769077Y-110781987D01*
X172711648Y-110468610D01*
X172616866Y-110164441D01*
X172611778Y-110153136D01*
X172486115Y-109873925D01*
X172486112Y-109873919D01*
X172470583Y-109848231D01*
X172321289Y-109601267D01*
X172288793Y-109559789D01*
X172124811Y-109350480D01*
X172124799Y-109350467D01*
X171899532Y-109125200D01*
X171899519Y-109125188D01*
X171648732Y-108928710D01*
X171376080Y-108763887D01*
X171376074Y-108763884D01*
X171085563Y-108633135D01*
X170781389Y-108538351D01*
X170468013Y-108480923D01*
X170468010Y-108480922D01*
X170150001Y-108461687D01*
X170149999Y-108461687D01*
X169831989Y-108480922D01*
X169831986Y-108480923D01*
X169518610Y-108538351D01*
X169214436Y-108633135D01*
X168923925Y-108763884D01*
X168923919Y-108763887D01*
X168651267Y-108928710D01*
X168400480Y-109125188D01*
X168400467Y-109125200D01*
X168175200Y-109350467D01*
X168175188Y-109350480D01*
X167978710Y-109601267D01*
X167813887Y-109873919D01*
X167813884Y-109873925D01*
X167683135Y-110164436D01*
X167588351Y-110468610D01*
X167530923Y-110781986D01*
X167530922Y-110781989D01*
X167511687Y-111099998D01*
X167511687Y-111100001D01*
X153095977Y-111100001D01*
X153150040Y-110879967D01*
X153181177Y-110754220D01*
X153182750Y-110748894D01*
X153197689Y-110705462D01*
X153258577Y-110528442D01*
X153316703Y-110362388D01*
X153318655Y-110357492D01*
X153410334Y-110153102D01*
X153434179Y-110101204D01*
X153487676Y-109984765D01*
X153489969Y-109980267D01*
X153597851Y-109788304D01*
X153692647Y-109624514D01*
X153695243Y-109620405D01*
X153818851Y-109440641D01*
X153929890Y-109284653D01*
X153932689Y-109281014D01*
X154071263Y-109114041D01*
X154197368Y-108968098D01*
X154200334Y-108964900D01*
X154352876Y-108811649D01*
X154492810Y-108677520D01*
X154495880Y-108674769D01*
X154661259Y-108536218D01*
X154813716Y-108415372D01*
X154816839Y-108413054D01*
X154993747Y-108290198D01*
X155157334Y-108183891D01*
X155160467Y-108181984D01*
X155347556Y-108075697D01*
X155520755Y-107985021D01*
X155523841Y-107983512D01*
X155719687Y-107894573D01*
X155900923Y-107820429D01*
X155903902Y-107819301D01*
X156106958Y-107748402D01*
X156294539Y-107691535D01*
X156297404Y-107690742D01*
X156504762Y-107638773D01*
X156507350Y-107638186D01*
X156698340Y-107599393D01*
X156701048Y-107598907D01*
X156912164Y-107565875D01*
X156915137Y-107565484D01*
X157110053Y-107544662D01*
X157324660Y-107530725D01*
X157327820Y-107530603D01*
X157523695Y-107528166D01*
X157738646Y-107533650D01*
X157742101Y-107533835D01*
X157936980Y-107549759D01*
X158150662Y-107574630D01*
X158154321Y-107575166D01*
X158346416Y-107609229D01*
X158557209Y-107653327D01*
X158561052Y-107654259D01*
X158748573Y-107706051D01*
X158954821Y-107769079D01*
X158958764Y-107770430D01*
X159139970Y-107839350D01*
X159340166Y-107920927D01*
X159344179Y-107922730D01*
X159511838Y-108005259D01*
X159517195Y-108007896D01*
X159709921Y-108107571D01*
X159713984Y-108109867D01*
X159877023Y-108210141D01*
X160060978Y-108327443D01*
X160064979Y-108330219D01*
X160216158Y-108444044D01*
X160346366Y-108544686D01*
X160390348Y-108578681D01*
X160394267Y-108581973D01*
X160450373Y-108633135D01*
X160531147Y-108706791D01*
X160695270Y-108859191D01*
X160699033Y-108862996D01*
X160817361Y-108993243D01*
X160973087Y-109166535D01*
X160976635Y-109170855D01*
X161024053Y-109234099D01*
X161064029Y-109287418D01*
X161153077Y-109406593D01*
X161219028Y-109494859D01*
X161219921Y-109496172D01*
X161219966Y-109496238D01*
X161220247Y-109496651D01*
X161249067Y-109539009D01*
X161311212Y-109630545D01*
X161469538Y-109816751D01*
X161521569Y-109877945D01*
X161521573Y-109877949D01*
X161757399Y-110101204D01*
X161974623Y-110266303D01*
X162015934Y-110297701D01*
X162294170Y-110465157D01*
X162294171Y-110465158D01*
X162588853Y-110601610D01*
X162588856Y-110601611D01*
X162739839Y-110652574D01*
X162896536Y-110705466D01*
X163050589Y-110739496D01*
X163213631Y-110775512D01*
X163213637Y-110775513D01*
X163371042Y-110792784D01*
X163536435Y-110810932D01*
X163861175Y-110811310D01*
X163861175Y-110811309D01*
X163861177Y-110811310D01*
X163918254Y-110805181D01*
X164184060Y-110776643D01*
X164501318Y-110707335D01*
X164809245Y-110604195D01*
X165104243Y-110468430D01*
X165382868Y-110301623D01*
X165511616Y-110204217D01*
X165511957Y-110203960D01*
X165511958Y-110203961D01*
X165512357Y-110203660D01*
X165518995Y-110198640D01*
X165849171Y-109948922D01*
X166499466Y-109409983D01*
X166565110Y-109350467D01*
X166884487Y-109060902D01*
X166919046Y-109030787D01*
X166921502Y-109027342D01*
X167125175Y-108842683D01*
X167525062Y-108446360D01*
X167540329Y-108431764D01*
X167541299Y-108430268D01*
X167725061Y-108248145D01*
X168297940Y-107627540D01*
X168842680Y-106982097D01*
X169358206Y-106313088D01*
X169843499Y-105621835D01*
X170297601Y-104909704D01*
X170719616Y-104178100D01*
X171108709Y-103428470D01*
X171464113Y-102662292D01*
X171785125Y-101881081D01*
X172071111Y-101086379D01*
X172321507Y-100279755D01*
X172535818Y-99462803D01*
X172713621Y-98637136D01*
X172854565Y-97804385D01*
X172913935Y-97325000D01*
X176025000Y-97325000D01*
X176025000Y-97597840D01*
X176031400Y-97657371D01*
X176081647Y-97792089D01*
X176167810Y-97907189D01*
X176282910Y-97993352D01*
X176417628Y-98043599D01*
X176477159Y-98049999D01*
X176477176Y-98050000D01*
X176875000Y-98050000D01*
X176875000Y-97325000D01*
X176025000Y-97325000D01*
X172913935Y-97325000D01*
X172958371Y-96966194D01*
X173024835Y-96124219D01*
X173053825Y-95280122D01*
X173045283Y-94435571D01*
X172999228Y-93592233D01*
X172915749Y-92751774D01*
X172795011Y-91915854D01*
X172637254Y-91086124D01*
X172543316Y-90689100D01*
X172547096Y-90618208D01*
X172588605Y-90560611D01*
X172654665Y-90534598D01*
X172666112Y-90534094D01*
X176373035Y-90540621D01*
G37*
%TD.AperFunction*%
%TD*%
%TA.AperFunction,Conductor*%
%TO.N,VCC*%
G36*
X153138737Y-67089805D02*
G01*
X153186902Y-67141965D01*
X153200000Y-67197903D01*
X153200000Y-69174000D01*
X153179998Y-69242121D01*
X153126342Y-69288614D01*
X153074000Y-69300000D01*
X152875000Y-69300000D01*
X152875000Y-70229923D01*
X152862673Y-70210742D01*
X152759445Y-70121295D01*
X152635199Y-70064554D01*
X152533975Y-70050000D01*
X152466025Y-70050000D01*
X152364801Y-70064554D01*
X152240555Y-70121295D01*
X152137327Y-70210742D01*
X152063481Y-70325649D01*
X152025000Y-70456705D01*
X152025000Y-70593295D01*
X152063481Y-70724351D01*
X152137327Y-70839258D01*
X152240555Y-70928705D01*
X152364801Y-70985446D01*
X152466025Y-71000000D01*
X152533975Y-71000000D01*
X152635199Y-70985446D01*
X152759445Y-70928705D01*
X152862673Y-70839258D01*
X152875000Y-70820076D01*
X152875000Y-71750000D01*
X153074000Y-71750000D01*
X153142121Y-71770002D01*
X153188614Y-71823658D01*
X153200000Y-71876000D01*
X153200000Y-75948024D01*
X153179998Y-76016145D01*
X153126342Y-76062638D01*
X153079647Y-76073897D01*
X152776614Y-76087492D01*
X151935383Y-76162792D01*
X151098329Y-76275393D01*
X150267103Y-76425072D01*
X149443349Y-76611535D01*
X148628692Y-76834412D01*
X147824742Y-77093263D01*
X147033086Y-77387578D01*
X146255288Y-77716774D01*
X145492885Y-78080203D01*
X144747381Y-78477145D01*
X144020249Y-78906818D01*
X143312924Y-79368372D01*
X142626805Y-79860897D01*
X142423512Y-80020980D01*
X142422228Y-80021494D01*
X142405413Y-80035232D01*
X141963246Y-80383418D01*
X141754991Y-80562958D01*
X141752007Y-80564311D01*
X141717025Y-80595689D01*
X141642501Y-80659938D01*
X141323557Y-80934906D01*
X140709002Y-81514269D01*
X140414916Y-81817334D01*
X140414568Y-81817693D01*
X140410113Y-81822288D01*
X140301824Y-81933846D01*
X140102127Y-82189933D01*
X139931232Y-82466072D01*
X139791135Y-82759043D01*
X139683470Y-83065425D01*
X139609497Y-83381633D01*
X139570082Y-83703954D01*
X139570080Y-83703987D01*
X139565678Y-84028671D01*
X139565679Y-84028694D01*
X139596343Y-84351974D01*
X139596346Y-84351997D01*
X139661714Y-84670060D01*
X139661715Y-84670062D01*
X139661716Y-84670068D01*
X139661719Y-84670078D01*
X139761039Y-84979262D01*
X139761040Y-84979265D01*
X139893139Y-85275914D01*
X139893142Y-85275920D01*
X140056494Y-85556599D01*
X140179532Y-85723520D01*
X140249173Y-85818000D01*
X140249185Y-85818013D01*
X140468931Y-86057077D01*
X140468939Y-86057084D01*
X140570237Y-86145794D01*
X140570269Y-86145837D01*
X140590005Y-86163108D01*
X140592126Y-86165051D01*
X140790612Y-86355422D01*
X140857826Y-86420122D01*
X140884146Y-86445458D01*
X140887990Y-86449501D01*
X141040898Y-86625287D01*
X141155688Y-86758706D01*
X141159003Y-86762908D01*
X141290125Y-86944438D01*
X141397241Y-87095593D01*
X141400031Y-87099890D01*
X141512311Y-87289262D01*
X141606749Y-87453234D01*
X141609021Y-87457560D01*
X141661244Y-87567111D01*
X141702892Y-87654481D01*
X141782445Y-87828602D01*
X141784226Y-87832917D01*
X141859509Y-88036323D01*
X141922854Y-88218524D01*
X141924163Y-88222767D01*
X141980582Y-88431393D01*
X142026777Y-88619660D01*
X142027644Y-88623782D01*
X142064921Y-88836156D01*
X142093353Y-89028650D01*
X142093810Y-89032608D01*
X142111742Y-89247122D01*
X142122014Y-89441961D01*
X142122100Y-89445718D01*
X142120603Y-89660794D01*
X142112530Y-89856140D01*
X142112285Y-89859660D01*
X142091396Y-90073630D01*
X142064992Y-90267631D01*
X142064461Y-90270890D01*
X142024349Y-90482103D01*
X141979804Y-90672989D01*
X141979033Y-90675964D01*
X141920416Y-90881329D01*
X141919573Y-90884048D01*
X141857709Y-91068739D01*
X141856744Y-91071417D01*
X141779827Y-91270673D01*
X141778650Y-91273513D01*
X141699233Y-91452702D01*
X141604028Y-91645463D01*
X141602489Y-91648384D01*
X141506707Y-91819154D01*
X141394503Y-92002525D01*
X141392578Y-92005482D01*
X141281361Y-92166272D01*
X141152998Y-92338865D01*
X141150668Y-92341811D01*
X141025118Y-92491140D01*
X140881573Y-92651593D01*
X140878824Y-92654477D01*
X140740194Y-92790994D01*
X140582514Y-92938066D01*
X140579339Y-92940834D01*
X140429087Y-93063272D01*
X140258352Y-93195848D01*
X140254751Y-93198447D01*
X140094477Y-93305705D01*
X139911839Y-93422741D01*
X139907819Y-93425112D01*
X139739421Y-93516192D01*
X139545894Y-93616828D01*
X139541466Y-93618916D01*
X139367314Y-93692923D01*
X139163612Y-93776458D01*
X139158796Y-93778208D01*
X138982279Y-93834333D01*
X138768252Y-93900261D01*
X138763075Y-93901618D01*
X138591106Y-93938971D01*
X138363114Y-93987198D01*
X138357615Y-93988109D01*
X138236783Y-94002680D01*
X137953205Y-94036327D01*
X137907007Y-94039753D01*
X137792274Y-94048121D01*
X137586436Y-94085798D01*
X137472839Y-94106592D01*
X137472836Y-94106593D01*
X137161580Y-94199193D01*
X136862134Y-94324840D01*
X136577992Y-94482070D01*
X136577986Y-94482074D01*
X136514161Y-94527020D01*
X136446948Y-94549887D01*
X136441615Y-94550000D01*
X131351998Y-94550000D01*
X131283877Y-94529998D01*
X131237384Y-94476342D01*
X131227280Y-94406068D01*
X131251130Y-94348490D01*
X131293353Y-94292087D01*
X131343599Y-94157371D01*
X131349999Y-94097840D01*
X131350000Y-94097823D01*
X131350000Y-93425000D01*
X129050000Y-93425000D01*
X129050000Y-94097840D01*
X129056400Y-94157371D01*
X129106646Y-94292087D01*
X129148870Y-94348490D01*
X129173681Y-94415010D01*
X129158590Y-94484385D01*
X129108388Y-94534587D01*
X129048002Y-94550000D01*
X126214150Y-94550000D01*
X126146029Y-94529998D01*
X126099536Y-94476342D01*
X126088782Y-94436609D01*
X126067587Y-94225858D01*
X126067302Y-94217554D01*
X126081492Y-93768740D01*
X126081513Y-93768332D01*
X126081732Y-93763976D01*
X126117055Y-93185143D01*
X126134012Y-92940834D01*
X126149210Y-92721849D01*
X126153821Y-92675000D01*
X129050000Y-92675000D01*
X129825000Y-92675000D01*
X129825000Y-91550000D01*
X130575000Y-91550000D01*
X130575000Y-92675000D01*
X131350000Y-92675000D01*
X131350000Y-92002176D01*
X131349999Y-92002159D01*
X131343599Y-91942628D01*
X131293352Y-91807910D01*
X131207189Y-91692810D01*
X131092089Y-91606647D01*
X130957371Y-91556400D01*
X130897840Y-91550000D01*
X130575000Y-91550000D01*
X129825000Y-91550000D01*
X129502159Y-91550000D01*
X129442628Y-91556400D01*
X129307910Y-91606647D01*
X129192810Y-91692810D01*
X129106647Y-91807910D01*
X129056400Y-91942628D01*
X129050000Y-92002159D01*
X129050000Y-92675000D01*
X126153821Y-92675000D01*
X126206088Y-92143927D01*
X126255923Y-91679902D01*
X126333942Y-91106580D01*
X126339066Y-91071417D01*
X126401519Y-90642741D01*
X126500478Y-90074440D01*
X126585809Y-89611723D01*
X126705474Y-89049060D01*
X126808526Y-88588340D01*
X126948659Y-88031893D01*
X127069372Y-87573966D01*
X127229729Y-87024297D01*
X127314324Y-86746334D01*
X127367956Y-86570114D01*
X127548252Y-86027884D01*
X127703861Y-85578168D01*
X127903851Y-85043867D01*
X128076648Y-84599432D01*
X128296005Y-84073745D01*
X128485746Y-83635396D01*
X128724163Y-83118897D01*
X128930607Y-82687338D01*
X129187752Y-82180627D01*
X129317450Y-81933846D01*
X129410584Y-81756633D01*
X129686170Y-81260187D01*
X129925026Y-80844531D01*
X130218602Y-80359093D01*
X130473246Y-79952262D01*
X130533245Y-79860897D01*
X130784396Y-79478448D01*
X131041615Y-79100001D01*
X135511687Y-79100001D01*
X135530922Y-79418010D01*
X135530923Y-79418013D01*
X135588351Y-79731389D01*
X135683135Y-80035563D01*
X135813884Y-80326074D01*
X135813887Y-80326080D01*
X135978710Y-80598732D01*
X136175188Y-80849519D01*
X136175200Y-80849532D01*
X136400467Y-81074799D01*
X136400480Y-81074811D01*
X136638032Y-81260920D01*
X136651267Y-81271289D01*
X136923915Y-81436110D01*
X136923917Y-81436111D01*
X136923919Y-81436112D01*
X136923925Y-81436115D01*
X137214436Y-81566864D01*
X137214437Y-81566864D01*
X137214441Y-81566866D01*
X137518610Y-81661648D01*
X137831987Y-81719077D01*
X138043995Y-81731901D01*
X138149999Y-81738313D01*
X138150000Y-81738313D01*
X138150001Y-81738313D01*
X138229503Y-81733504D01*
X138468013Y-81719077D01*
X138781390Y-81661648D01*
X139085559Y-81566866D01*
X139376085Y-81436110D01*
X139648733Y-81271289D01*
X139899525Y-81074806D01*
X140124806Y-80849525D01*
X140321289Y-80598733D01*
X140486110Y-80326085D01*
X140616866Y-80035559D01*
X140711648Y-79731390D01*
X140769077Y-79418013D01*
X140788313Y-79100000D01*
X140769077Y-78781987D01*
X140711648Y-78468610D01*
X140616866Y-78164441D01*
X140616864Y-78164436D01*
X140486115Y-77873925D01*
X140486112Y-77873919D01*
X140431479Y-77783545D01*
X140321289Y-77601267D01*
X140279240Y-77547595D01*
X140124811Y-77350480D01*
X140124799Y-77350467D01*
X139899532Y-77125200D01*
X139899519Y-77125188D01*
X139648732Y-76928710D01*
X139376080Y-76763887D01*
X139376074Y-76763884D01*
X139085563Y-76633135D01*
X138781389Y-76538351D01*
X138468013Y-76480923D01*
X138468010Y-76480922D01*
X138150001Y-76461687D01*
X138149999Y-76461687D01*
X137831989Y-76480922D01*
X137831986Y-76480923D01*
X137518610Y-76538351D01*
X137214436Y-76633135D01*
X136923925Y-76763884D01*
X136923919Y-76763887D01*
X136651267Y-76928710D01*
X136400480Y-77125188D01*
X136400467Y-77125200D01*
X136175200Y-77350467D01*
X136175188Y-77350480D01*
X135978710Y-77601267D01*
X135813887Y-77873919D01*
X135813884Y-77873925D01*
X135683135Y-78164436D01*
X135588351Y-78468610D01*
X135530923Y-78781986D01*
X135530922Y-78781989D01*
X135511687Y-79099998D01*
X135511687Y-79100001D01*
X131041615Y-79100001D01*
X131054402Y-79081187D01*
X131382756Y-78619511D01*
X131667724Y-78232455D01*
X132012821Y-77783525D01*
X132065959Y-77716774D01*
X132312298Y-77407320D01*
X132673787Y-76971572D01*
X132987308Y-76606826D01*
X133364597Y-76184957D01*
X133691772Y-75832141D01*
X134084401Y-75424648D01*
X134424649Y-75084400D01*
X134832183Y-74691732D01*
X135184917Y-74364632D01*
X135606787Y-73987343D01*
X135971639Y-73673730D01*
X136407228Y-73312374D01*
X136783538Y-73012811D01*
X137232421Y-72667750D01*
X137619583Y-72382705D01*
X138081164Y-72054417D01*
X138478447Y-71784396D01*
X138952289Y-71473228D01*
X139359123Y-71218584D01*
X139370686Y-71211591D01*
X139844518Y-70925033D01*
X139888081Y-70900000D01*
X151400000Y-70900000D01*
X151400000Y-71297840D01*
X151406400Y-71357371D01*
X151456647Y-71492089D01*
X151542810Y-71607189D01*
X151657910Y-71693352D01*
X151792628Y-71743599D01*
X151852159Y-71749999D01*
X151852176Y-71750000D01*
X152125000Y-71750000D01*
X152125000Y-70900000D01*
X151400000Y-70900000D01*
X139888081Y-70900000D01*
X140010142Y-70829858D01*
X140260301Y-70686105D01*
X140756598Y-70410602D01*
X140937939Y-70315298D01*
X141180681Y-70187725D01*
X141255019Y-70150000D01*
X151400000Y-70150000D01*
X152125000Y-70150000D01*
X152125000Y-69300000D01*
X151852159Y-69300000D01*
X151792628Y-69306400D01*
X151657910Y-69356647D01*
X151542810Y-69442810D01*
X151456647Y-69557910D01*
X151406400Y-69692628D01*
X151400000Y-69752159D01*
X151400000Y-70150000D01*
X141255019Y-70150000D01*
X141687328Y-69930612D01*
X142118936Y-69724145D01*
X142635418Y-69485736D01*
X143073754Y-69296001D01*
X143599439Y-69076645D01*
X143884795Y-68965699D01*
X144043868Y-68903851D01*
X144578202Y-68703849D01*
X145027797Y-68548281D01*
X145570165Y-68367939D01*
X145887956Y-68271223D01*
X146024267Y-68229738D01*
X146573998Y-68069363D01*
X147031861Y-67948667D01*
X147588343Y-67808525D01*
X148049039Y-67705479D01*
X148611712Y-67585811D01*
X149074429Y-67500480D01*
X149642702Y-67401526D01*
X150106549Y-67333946D01*
X150679941Y-67255917D01*
X151143982Y-67206082D01*
X151721844Y-67149211D01*
X152185099Y-67117058D01*
X152764146Y-67081721D01*
X152768703Y-67081492D01*
X152936592Y-67076184D01*
X153070019Y-67071966D01*
X153138737Y-67089805D01*
G37*
%TD.AperFunction*%
%TD*%
%TA.AperFunction,Conductor*%
%TO.N,GND*%
G36*
X154272403Y-67055805D02*
G01*
X154366655Y-67057064D01*
X154977283Y-67072290D01*
X155165161Y-67076975D01*
X155257998Y-67081040D01*
X155315548Y-67083560D01*
X155438427Y-67089772D01*
X155769984Y-67110561D01*
X156208776Y-67138074D01*
X156356601Y-67150143D01*
X156506556Y-67163321D01*
X156813468Y-67194211D01*
X157249022Y-67238048D01*
X157393074Y-67255293D01*
X157565458Y-67276920D01*
X157569890Y-67277476D01*
X158284388Y-67376706D01*
X158424095Y-67398799D01*
X158626870Y-67431930D01*
X159180593Y-67530226D01*
X159313525Y-67553823D01*
X159447328Y-67580186D01*
X159676172Y-67626363D01*
X160335009Y-67769117D01*
X160460843Y-67798874D01*
X160716219Y-67860358D01*
X161347441Y-68022253D01*
X161382379Y-68031919D01*
X161462697Y-68054139D01*
X161745789Y-68133528D01*
X162349422Y-68312843D01*
X162449649Y-68344682D01*
X162763409Y-68445383D01*
X163339672Y-68640482D01*
X163417620Y-68668521D01*
X163526524Y-68707992D01*
X163767725Y-68795413D01*
X164316665Y-69004631D01*
X164358633Y-69021538D01*
X164757361Y-69183049D01*
X165197237Y-69369973D01*
X165273960Y-69402576D01*
X165277686Y-69404159D01*
X165730963Y-69607678D01*
X166218667Y-69836990D01*
X166687245Y-70068661D01*
X166942754Y-70200776D01*
X167142211Y-70303907D01*
X167707042Y-70609781D01*
X167842981Y-70685860D01*
X167998126Y-70771347D01*
X168022191Y-70784969D01*
X168024018Y-70785808D01*
X168028112Y-70787871D01*
X168043549Y-70796377D01*
X168153654Y-70845985D01*
X168232177Y-70881364D01*
X168406588Y-70961428D01*
X168406590Y-70961429D01*
X168406593Y-70961430D01*
X168406589Y-70961429D01*
X168412410Y-70963526D01*
X168420732Y-70966524D01*
X168425229Y-70968344D01*
X168461098Y-70984505D01*
X168461109Y-70984508D01*
X168461114Y-70984511D01*
X168678148Y-71059272D01*
X168774637Y-71094037D01*
X168802863Y-71104207D01*
X168804515Y-71104802D01*
X168807512Y-71105603D01*
X168828356Y-71111177D01*
X168832562Y-71112462D01*
X168871020Y-71125710D01*
X168894105Y-71133662D01*
X168961584Y-71150186D01*
X169111833Y-71186980D01*
X169185308Y-71206627D01*
X169213124Y-71214066D01*
X169228548Y-71216820D01*
X169245582Y-71219863D01*
X169249476Y-71220687D01*
X169275210Y-71226988D01*
X169338931Y-71242593D01*
X169475483Y-71263033D01*
X169548228Y-71273922D01*
X169629494Y-71288438D01*
X169629495Y-71288438D01*
X169668839Y-71292077D01*
X169672363Y-71292504D01*
X169724230Y-71300267D01*
X169791858Y-71310390D01*
X169987645Y-71321562D01*
X170046909Y-71327043D01*
X170050662Y-71327391D01*
X170050661Y-71327391D01*
X170051681Y-71327398D01*
X170094329Y-71327726D01*
X170097362Y-71327824D01*
X170249087Y-71336483D01*
X170428043Y-71330293D01*
X170473616Y-71330644D01*
X170473616Y-71330643D01*
X170473618Y-71330644D01*
X170479813Y-71330166D01*
X170519057Y-71327145D01*
X170706787Y-71320653D01*
X170865062Y-71300579D01*
X170868098Y-71300270D01*
X170890014Y-71298583D01*
X170895336Y-71298174D01*
X170895333Y-71298174D01*
X170935185Y-71291686D01*
X171161121Y-71263033D01*
X171298460Y-71232649D01*
X171301901Y-71231988D01*
X171312802Y-71230214D01*
X171337612Y-71223986D01*
X171608282Y-71164106D01*
X172044522Y-71024701D01*
X172466186Y-70845987D01*
X172869740Y-70629460D01*
X172977191Y-70560163D01*
X173062190Y-70505345D01*
X173213346Y-70408084D01*
X173245777Y-70388858D01*
X173248588Y-70387290D01*
X173572706Y-70217475D01*
X173575143Y-70216268D01*
X173604635Y-70202480D01*
X173605708Y-70201985D01*
X173606849Y-70201459D01*
X173609754Y-70200207D01*
X173945687Y-70065579D01*
X173964580Y-70058906D01*
X173988402Y-70050735D01*
X173991409Y-70049789D01*
X174329617Y-69952636D01*
X174342398Y-69949485D01*
X174346695Y-69948484D01*
X174384646Y-69939638D01*
X174387731Y-69939001D01*
X174721480Y-69878860D01*
X174727157Y-69878037D01*
X174731175Y-69877456D01*
X174764585Y-69873170D01*
X174791472Y-69869721D01*
X174794597Y-69869401D01*
X175116857Y-69844587D01*
X175126038Y-69844163D01*
X175180599Y-69842737D01*
X175204537Y-69842111D01*
X175207691Y-69842110D01*
X175511280Y-69849577D01*
X175522789Y-69850174D01*
X175584950Y-69854864D01*
X175619338Y-69857459D01*
X175622496Y-69857779D01*
X175899916Y-69892930D01*
X175917302Y-69895550D01*
X176031308Y-69915915D01*
X176034409Y-69916551D01*
X176277650Y-69972858D01*
X176281859Y-69973921D01*
X176305505Y-69979893D01*
X176435808Y-70017108D01*
X176438830Y-70018055D01*
X176638403Y-70086173D01*
X176683508Y-70102394D01*
X176828316Y-70160172D01*
X176831251Y-70161430D01*
X176973855Y-70226892D01*
X177047621Y-70261894D01*
X177204316Y-70343685D01*
X177207085Y-70345220D01*
X177268898Y-70381587D01*
X177312972Y-70408058D01*
X177394153Y-70456815D01*
X177444060Y-70489692D01*
X177551051Y-70560175D01*
X177553933Y-70562192D01*
X177718528Y-70684402D01*
X177720779Y-70686154D01*
X177801818Y-70752218D01*
X177861898Y-70801198D01*
X177865424Y-70804072D01*
X177867933Y-70806230D01*
X178019789Y-70943913D01*
X178021987Y-70946007D01*
X178153990Y-71078010D01*
X178156096Y-71080222D01*
X178293761Y-71232058D01*
X178295919Y-71234568D01*
X178413850Y-71379229D01*
X178415602Y-71381480D01*
X178537802Y-71546061D01*
X178539830Y-71548960D01*
X178643178Y-71705836D01*
X178749464Y-71882804D01*
X178751305Y-71886089D01*
X178838104Y-72052377D01*
X178926616Y-72238914D01*
X178928213Y-72242576D01*
X178997609Y-72416500D01*
X179067534Y-72610939D01*
X179068829Y-72614958D01*
X179120117Y-72794536D01*
X179170790Y-72995158D01*
X179171723Y-72999495D01*
X179204455Y-73182739D01*
X179235353Y-73387745D01*
X179235878Y-73392395D01*
X179249826Y-73577232D01*
X179260584Y-73784850D01*
X179260647Y-73789757D01*
X179255835Y-73973972D01*
X179246224Y-74182536D01*
X179245779Y-74187653D01*
X179222537Y-74368868D01*
X179192409Y-74576847D01*
X179191415Y-74582118D01*
X179150500Y-74757656D01*
X179099654Y-74963927D01*
X179098076Y-74969291D01*
X179041046Y-75135554D01*
X178968884Y-75339877D01*
X178966694Y-75345271D01*
X178897425Y-75495564D01*
X178801380Y-75701007D01*
X178798558Y-75706357D01*
X178740553Y-75804609D01*
X178600538Y-76040791D01*
X178598880Y-76043436D01*
X178570948Y-76085637D01*
X178570781Y-76085957D01*
X178483124Y-76218525D01*
X178483122Y-76218529D01*
X178280525Y-76589815D01*
X178158354Y-76867125D01*
X178117297Y-76960318D01*
X178110000Y-76976880D01*
X177972765Y-77376962D01*
X177869800Y-77787201D01*
X177801841Y-78204670D01*
X177769371Y-78626386D01*
X177769727Y-78672613D01*
X177772624Y-79049337D01*
X177811577Y-79470505D01*
X177848731Y-79678507D01*
X177885950Y-79886877D01*
X177995214Y-80295484D01*
X178138586Y-80693407D01*
X178210297Y-80849622D01*
X178315048Y-81077810D01*
X178418207Y-81260056D01*
X178419184Y-81261782D01*
X178905070Y-82159023D01*
X178923853Y-82195349D01*
X179328037Y-83012852D01*
X179347063Y-83051334D01*
X179374227Y-83106388D01*
X179375953Y-83110059D01*
X179378000Y-83114414D01*
X179705542Y-83843917D01*
X179804892Y-84065989D01*
X180078252Y-84740844D01*
X180197612Y-85037115D01*
X180431333Y-85681972D01*
X180553729Y-86022243D01*
X180755162Y-86649861D01*
X180872750Y-87020000D01*
X181045775Y-87636993D01*
X181154216Y-88028951D01*
X181301041Y-88638798D01*
X181397755Y-89047757D01*
X181519779Y-89652490D01*
X181565724Y-89885687D01*
X181559268Y-89956389D01*
X181515612Y-90012378D01*
X181448617Y-90035875D01*
X181441879Y-90036044D01*
X178796778Y-90031387D01*
X178728693Y-90011265D01*
X178682294Y-89957527D01*
X178671000Y-89905387D01*
X178671000Y-89453873D01*
X178691002Y-89385752D01*
X178707905Y-89364778D01*
X178824024Y-89248658D01*
X178824030Y-89248652D01*
X178917115Y-89097738D01*
X178972887Y-88929426D01*
X178983500Y-88825545D01*
X178983499Y-87474456D01*
X178979129Y-87431682D01*
X178972887Y-87370574D01*
X178951753Y-87306796D01*
X178917115Y-87202262D01*
X178824030Y-87051348D01*
X178824029Y-87051347D01*
X178824024Y-87051341D01*
X178698658Y-86925975D01*
X178698652Y-86925970D01*
X178620284Y-86877632D01*
X178547738Y-86832885D01*
X178463582Y-86804999D01*
X178379427Y-86777113D01*
X178379420Y-86777112D01*
X178275553Y-86766500D01*
X178275545Y-86766500D01*
X178034500Y-86766500D01*
X177966379Y-86746498D01*
X177919886Y-86692842D01*
X177908500Y-86640500D01*
X177908500Y-86290915D01*
X177913502Y-86255766D01*
X177917684Y-86241371D01*
X177923554Y-86221166D01*
X177955453Y-86167226D01*
X178403278Y-85719401D01*
X178417117Y-85707441D01*
X178436558Y-85692969D01*
X178470501Y-85652515D01*
X178474200Y-85648479D01*
X178480081Y-85642600D01*
X178490047Y-85629994D01*
X178500635Y-85616605D01*
X178536429Y-85573947D01*
X178550532Y-85557140D01*
X178550533Y-85557136D01*
X178550536Y-85557134D01*
X178554570Y-85551002D01*
X178554627Y-85551039D01*
X178558671Y-85544691D01*
X178558612Y-85544655D01*
X178562461Y-85538412D01*
X178562467Y-85538405D01*
X178595275Y-85468047D01*
X178630109Y-85398688D01*
X178630110Y-85398682D01*
X178632619Y-85391791D01*
X178632684Y-85391814D01*
X178635158Y-85384697D01*
X178635094Y-85384676D01*
X178637403Y-85377708D01*
X178653107Y-85301650D01*
X178659714Y-85273775D01*
X178671000Y-85226156D01*
X178671000Y-85226149D01*
X178671852Y-85218868D01*
X178671919Y-85218875D01*
X178672685Y-85211377D01*
X178672619Y-85211372D01*
X178673257Y-85204065D01*
X178673259Y-85204058D01*
X178671000Y-85126420D01*
X178671000Y-85103873D01*
X178691002Y-85035752D01*
X178707905Y-85014778D01*
X178824024Y-84898658D01*
X178824030Y-84898652D01*
X178917115Y-84747738D01*
X178972887Y-84579426D01*
X178983500Y-84475545D01*
X178983499Y-83124456D01*
X178972887Y-83020574D01*
X178917115Y-82852262D01*
X178824030Y-82701348D01*
X178824029Y-82701347D01*
X178824024Y-82701341D01*
X178698658Y-82575975D01*
X178698652Y-82575970D01*
X178547738Y-82482885D01*
X178444868Y-82448798D01*
X178379427Y-82427113D01*
X178379420Y-82427112D01*
X178275553Y-82416500D01*
X177789818Y-82416500D01*
X177721697Y-82396498D01*
X177675204Y-82342842D01*
X177675033Y-82341654D01*
X177637818Y-82391368D01*
X177571298Y-82416179D01*
X177562317Y-82416500D01*
X177549457Y-82416500D01*
X177445574Y-82427112D01*
X177277261Y-82482885D01*
X177126347Y-82575970D01*
X177126341Y-82575975D01*
X177000975Y-82701341D01*
X177000970Y-82701347D01*
X176907885Y-82852262D01*
X176852113Y-83020572D01*
X176852112Y-83020579D01*
X176841500Y-83124446D01*
X176841500Y-84475544D01*
X176852112Y-84579425D01*
X176852113Y-84579427D01*
X176907885Y-84747738D01*
X176978309Y-84861913D01*
X176997046Y-84930391D01*
X176975787Y-84998130D01*
X176960163Y-85017154D01*
X176807774Y-85169543D01*
X176753834Y-85201444D01*
X176713911Y-85213043D01*
X176578859Y-85292913D01*
X176578855Y-85292916D01*
X176467916Y-85403855D01*
X176467913Y-85403859D01*
X176388045Y-85538908D01*
X176388044Y-85538910D01*
X176388044Y-85538911D01*
X176382750Y-85557134D01*
X176344269Y-85689584D01*
X176341500Y-85724776D01*
X176341500Y-86075224D01*
X176344269Y-86110415D01*
X176386497Y-86255764D01*
X176391500Y-86290917D01*
X176391500Y-87323059D01*
X176390170Y-87341319D01*
X176388682Y-87351482D01*
X176386659Y-87365289D01*
X176391238Y-87417628D01*
X176391260Y-87417872D01*
X176391500Y-87423366D01*
X176391500Y-87431682D01*
X176395347Y-87464594D01*
X176402112Y-87541919D01*
X176403596Y-87549106D01*
X176403531Y-87549119D01*
X176405165Y-87556489D01*
X176405229Y-87556475D01*
X176406921Y-87563616D01*
X176433473Y-87636564D01*
X176457885Y-87710236D01*
X176460987Y-87716888D01*
X176460926Y-87716916D01*
X176464211Y-87723702D01*
X176464270Y-87723673D01*
X176467560Y-87730224D01*
X176510233Y-87795105D01*
X176550967Y-87861148D01*
X176555522Y-87866908D01*
X176555468Y-87866950D01*
X176560228Y-87872792D01*
X176560279Y-87872750D01*
X176564993Y-87878368D01*
X176564998Y-87878373D01*
X176564999Y-87878374D01*
X176621482Y-87931663D01*
X176804596Y-88114777D01*
X176838620Y-88177087D01*
X176841500Y-88203871D01*
X176841500Y-88825544D01*
X176852112Y-88929425D01*
X176907885Y-89097738D01*
X177000970Y-89248652D01*
X177000975Y-89248658D01*
X177117095Y-89364778D01*
X177151121Y-89427090D01*
X177154000Y-89453873D01*
X177154000Y-90282342D01*
X177133998Y-90350463D01*
X177080342Y-90396956D01*
X177010068Y-90407060D01*
X176945488Y-90377566D01*
X176921883Y-90350277D01*
X176876184Y-90278893D01*
X176829786Y-90225155D01*
X176719496Y-90129248D01*
X176586657Y-90068299D01*
X176586650Y-90068297D01*
X176547771Y-90056807D01*
X176518587Y-90048182D01*
X176518569Y-90048176D01*
X176423221Y-90034296D01*
X176373939Y-90027122D01*
X172661141Y-90020584D01*
X172649393Y-90020833D01*
X172632077Y-90021595D01*
X172608753Y-90023154D01*
X172506336Y-90047386D01*
X172435440Y-90043605D01*
X172377843Y-90002095D01*
X172356124Y-89959209D01*
X172341665Y-89908321D01*
X172341666Y-89908203D01*
X172283057Y-89701802D01*
X172283053Y-89701789D01*
X172263082Y-89652490D01*
X172161123Y-89400807D01*
X172052839Y-89199268D01*
X172007424Y-89114739D01*
X171995764Y-89097738D01*
X171823747Y-88846922D01*
X171612244Y-88600493D01*
X171531758Y-88525000D01*
X174175000Y-88525000D01*
X174175000Y-88822840D01*
X174181400Y-88882371D01*
X174231647Y-89017089D01*
X174317810Y-89132189D01*
X174432910Y-89218352D01*
X174567627Y-89268598D01*
X174612499Y-89273422D01*
X174612500Y-89273421D01*
X174612500Y-88525000D01*
X175362500Y-88525000D01*
X175362500Y-89273422D01*
X175407372Y-89268598D01*
X175542089Y-89218352D01*
X175657189Y-89132189D01*
X175743352Y-89017089D01*
X175793599Y-88882371D01*
X175799999Y-88822840D01*
X175800000Y-88822823D01*
X175800000Y-88525000D01*
X175362500Y-88525000D01*
X174612500Y-88525000D01*
X174175000Y-88525000D01*
X171531758Y-88525000D01*
X171375384Y-88378327D01*
X171246736Y-88281485D01*
X171115929Y-88183017D01*
X170836914Y-88016849D01*
X170541595Y-87881759D01*
X170233441Y-87779334D01*
X170233438Y-87779333D01*
X170233431Y-87779331D01*
X170213384Y-87775000D01*
X174175000Y-87775000D01*
X174612500Y-87775000D01*
X174612500Y-87026577D01*
X175362500Y-87026577D01*
X175362500Y-87775000D01*
X175800000Y-87775000D01*
X175800000Y-87477176D01*
X175799999Y-87477159D01*
X175793599Y-87417628D01*
X175743352Y-87282910D01*
X175657189Y-87167810D01*
X175542089Y-87081647D01*
X175407376Y-87031402D01*
X175362500Y-87026577D01*
X174612500Y-87026577D01*
X174612499Y-87026577D01*
X174567623Y-87031402D01*
X174432910Y-87081647D01*
X174317810Y-87167810D01*
X174231647Y-87282910D01*
X174181400Y-87417628D01*
X174175000Y-87477159D01*
X174175000Y-87775000D01*
X170213384Y-87775000D01*
X169916007Y-87710754D01*
X169916006Y-87710753D01*
X169916002Y-87710753D01*
X169593031Y-87676832D01*
X169268285Y-87677962D01*
X168945573Y-87714128D01*
X168902835Y-87723673D01*
X168628626Y-87784913D01*
X168628622Y-87784914D01*
X168628619Y-87784915D01*
X168476253Y-87836755D01*
X168473531Y-87837613D01*
X168209426Y-87914318D01*
X168084694Y-87950300D01*
X168079270Y-87951607D01*
X167850508Y-87996149D01*
X167677636Y-88028836D01*
X167672340Y-88029607D01*
X167449510Y-88052402D01*
X167265121Y-88069581D01*
X167260005Y-88069849D01*
X167039818Y-88072401D01*
X166850630Y-88072198D01*
X166845738Y-88072003D01*
X166628255Y-88054835D01*
X166437713Y-88036672D01*
X166433085Y-88036057D01*
X166219227Y-87999538D01*
X166029838Y-87963309D01*
X166025509Y-87962321D01*
X165816595Y-87906860D01*
X165630460Y-87852733D01*
X165626457Y-87851423D01*
X165423902Y-87777520D01*
X165243007Y-87705906D01*
X165239350Y-87704323D01*
X165044570Y-87612575D01*
X164870731Y-87524067D01*
X164867435Y-87522263D01*
X164681895Y-87413412D01*
X164516791Y-87308768D01*
X164513865Y-87306796D01*
X164338992Y-87181711D01*
X164184190Y-87061847D01*
X164181633Y-87059758D01*
X164148728Y-87031402D01*
X164100737Y-86990045D01*
X164018782Y-86919419D01*
X163926422Y-86832885D01*
X163875737Y-86785396D01*
X163873564Y-86783259D01*
X163867614Y-86777113D01*
X163724975Y-86629763D01*
X163723069Y-86627703D01*
X163594042Y-86481767D01*
X163592262Y-86479659D01*
X163458107Y-86313354D01*
X163456264Y-86310951D01*
X163407983Y-86244734D01*
X163340769Y-86152547D01*
X163322387Y-86125000D01*
X174513998Y-86125000D01*
X174563400Y-86226052D01*
X174563401Y-86226054D01*
X174648945Y-86311598D01*
X174648949Y-86311601D01*
X174757631Y-86364732D01*
X174757637Y-86364733D01*
X174825000Y-86374547D01*
X174825000Y-86125000D01*
X175275000Y-86125000D01*
X175275000Y-86374546D01*
X175342365Y-86364733D01*
X175342366Y-86364733D01*
X175451050Y-86311601D01*
X175451054Y-86311598D01*
X175536598Y-86226054D01*
X175536599Y-86226052D01*
X175586001Y-86125000D01*
X175275000Y-86125000D01*
X174825000Y-86125000D01*
X174513998Y-86125000D01*
X163322387Y-86125000D01*
X163253816Y-86022243D01*
X163221423Y-85973700D01*
X163219696Y-85970958D01*
X163119695Y-85802621D01*
X163113040Y-85790384D01*
X163016969Y-85613721D01*
X163015370Y-85610574D01*
X162998034Y-85573947D01*
X162931763Y-85433929D01*
X162846450Y-85236412D01*
X162845081Y-85232967D01*
X162778539Y-85049586D01*
X162711332Y-84844978D01*
X162710214Y-84841172D01*
X162661318Y-84652916D01*
X162612777Y-84442775D01*
X162611974Y-84438681D01*
X162581057Y-84247274D01*
X162573332Y-84191093D01*
X162551612Y-84033138D01*
X162551169Y-84028776D01*
X162538416Y-83836338D01*
X162528375Y-83619597D01*
X162528333Y-83614988D01*
X162533655Y-83423600D01*
X162543265Y-83205642D01*
X162543666Y-83200827D01*
X162566656Y-83012964D01*
X162596164Y-82794771D01*
X162597049Y-82789772D01*
X162636683Y-82608920D01*
X162686638Y-82390440D01*
X162688024Y-82385380D01*
X162741646Y-82217818D01*
X162813912Y-81996147D01*
X162815861Y-81990957D01*
X162860426Y-81886561D01*
X162975911Y-81617549D01*
X162975910Y-81617548D01*
X162975993Y-81617357D01*
X162977177Y-81614762D01*
X163046583Y-81471364D01*
X163155659Y-81165485D01*
X163231089Y-80849622D01*
X163271993Y-80527463D01*
X163277894Y-80202772D01*
X163248721Y-79879340D01*
X163184817Y-79560945D01*
X163086926Y-79251305D01*
X162956194Y-78954037D01*
X162794145Y-78672613D01*
X162782943Y-78657268D01*
X162602678Y-78410324D01*
X162602676Y-78410322D01*
X162602674Y-78410319D01*
X162384016Y-78170219D01*
X162245811Y-78048028D01*
X162140722Y-77955116D01*
X161875641Y-77767525D01*
X161875636Y-77767522D01*
X161591862Y-77609635D01*
X161442737Y-77546674D01*
X161442738Y-77546674D01*
X161442278Y-77546479D01*
X161442138Y-77546420D01*
X161441749Y-77546256D01*
X161053261Y-77382160D01*
X160261378Y-77088457D01*
X159766664Y-76929593D01*
X159723229Y-76914697D01*
X159719006Y-76914289D01*
X159457228Y-76830227D01*
X159401452Y-76815014D01*
X158914236Y-76682124D01*
X158893810Y-76676157D01*
X158892018Y-76676064D01*
X158642399Y-76607980D01*
X157818501Y-76422154D01*
X156987160Y-76273117D01*
X156150018Y-76161163D01*
X155308729Y-76086513D01*
X154464955Y-76049315D01*
X153839548Y-76049555D01*
X153771420Y-76029579D01*
X153724906Y-75975941D01*
X153713500Y-75923555D01*
X153713500Y-71876005D01*
X153713499Y-71875990D01*
X153712387Y-71865652D01*
X153702016Y-71769180D01*
X153714622Y-71699314D01*
X153720044Y-71689582D01*
X153792115Y-71572738D01*
X153847887Y-71404426D01*
X153855985Y-71325158D01*
X153882806Y-71259427D01*
X153940909Y-71218628D01*
X154011846Y-71215719D01*
X154073095Y-71251623D01*
X154080374Y-71260080D01*
X154200265Y-71412533D01*
X154200276Y-71412545D01*
X154359036Y-71550110D01*
X154359036Y-71550111D01*
X154540964Y-71655146D01*
X154540966Y-71655147D01*
X154624999Y-71684232D01*
X154625000Y-71684232D01*
X154625000Y-70820076D01*
X154637327Y-70839258D01*
X154740555Y-70928705D01*
X154864801Y-70985446D01*
X154966025Y-71000000D01*
X155033975Y-71000000D01*
X155135199Y-70985446D01*
X155259445Y-70928705D01*
X155362673Y-70839258D01*
X155375000Y-70820076D01*
X155375000Y-71688023D01*
X155552502Y-71606961D01*
X155723623Y-71485106D01*
X155868593Y-71333065D01*
X155982167Y-71156341D01*
X155992400Y-71130781D01*
X156036286Y-71074974D01*
X156103378Y-71051752D01*
X156172373Y-71068489D01*
X156221367Y-71119871D01*
X156224188Y-71125707D01*
X156233568Y-71146457D01*
X156304556Y-71303502D01*
X156309722Y-71314929D01*
X156439217Y-71506523D01*
X156480992Y-71550110D01*
X156599230Y-71673478D01*
X156785154Y-71810986D01*
X156852841Y-71845112D01*
X156991643Y-71915095D01*
X157212757Y-71982811D01*
X157442135Y-72012184D01*
X157673178Y-72002369D01*
X157899238Y-71953649D01*
X158113813Y-71867426D01*
X158310730Y-71746179D01*
X158484324Y-71593398D01*
X158629600Y-71413476D01*
X158666150Y-71348049D01*
X158716835Y-71298334D01*
X158776149Y-71283500D01*
X159758629Y-71283500D01*
X159826750Y-71303502D01*
X159847724Y-71320405D01*
X160654595Y-72127276D01*
X160688621Y-72189588D01*
X160691500Y-72216371D01*
X160691500Y-73550544D01*
X160702112Y-73654425D01*
X160757885Y-73822738D01*
X160850970Y-73973652D01*
X160850975Y-73973658D01*
X160976341Y-74099024D01*
X160976347Y-74099029D01*
X160976348Y-74099030D01*
X161127262Y-74192115D01*
X161295574Y-74247887D01*
X161399455Y-74258500D01*
X163500544Y-74258499D01*
X163604426Y-74247887D01*
X163772738Y-74192115D01*
X163923652Y-74099030D01*
X164049030Y-73973652D01*
X164142115Y-73822738D01*
X164197887Y-73654426D01*
X164208500Y-73550545D01*
X164208500Y-73550544D01*
X164691500Y-73550544D01*
X164702112Y-73654425D01*
X164757885Y-73822738D01*
X164850970Y-73973652D01*
X164850975Y-73973658D01*
X164976341Y-74099024D01*
X164976347Y-74099029D01*
X164976348Y-74099030D01*
X165127262Y-74192115D01*
X165295574Y-74247887D01*
X165399455Y-74258500D01*
X167500544Y-74258499D01*
X167604426Y-74247887D01*
X167772738Y-74192115D01*
X167923652Y-74099030D01*
X168049030Y-73973652D01*
X168142115Y-73822738D01*
X168184487Y-73694864D01*
X168224899Y-73636496D01*
X168290455Y-73609240D01*
X168304090Y-73608500D01*
X168783629Y-73608500D01*
X168851750Y-73628502D01*
X168872724Y-73645405D01*
X174504595Y-79277276D01*
X174538621Y-79339588D01*
X174541500Y-79366371D01*
X174541500Y-81226466D01*
X174533556Y-81270498D01*
X174498010Y-81365800D01*
X174498009Y-81365804D01*
X174491500Y-81426350D01*
X174491500Y-81973649D01*
X174498009Y-82034196D01*
X174498011Y-82034204D01*
X174533555Y-82129497D01*
X174541500Y-82173530D01*
X174541500Y-82329193D01*
X174521498Y-82397314D01*
X174467842Y-82443807D01*
X174455139Y-82448795D01*
X174420357Y-82460321D01*
X174352261Y-82482885D01*
X174201347Y-82575970D01*
X174201341Y-82575975D01*
X174075975Y-82701341D01*
X174075970Y-82701347D01*
X173982885Y-82852262D01*
X173927113Y-83020572D01*
X173927112Y-83020579D01*
X173916500Y-83124446D01*
X173916500Y-84475544D01*
X173927112Y-84579425D01*
X173982885Y-84747738D01*
X174075970Y-84898652D01*
X174075975Y-84898658D01*
X174201341Y-85024024D01*
X174201347Y-85024029D01*
X174201348Y-85024030D01*
X174352262Y-85117115D01*
X174520574Y-85172887D01*
X174624455Y-85183500D01*
X174746903Y-85183499D01*
X174815022Y-85203501D01*
X174861515Y-85257156D01*
X174871620Y-85327430D01*
X174842127Y-85392011D01*
X174782401Y-85430395D01*
X174765073Y-85434182D01*
X174757636Y-85435265D01*
X174757633Y-85435266D01*
X174648949Y-85488398D01*
X174648945Y-85488401D01*
X174563401Y-85573945D01*
X174563400Y-85573947D01*
X174513998Y-85674999D01*
X174513999Y-85675000D01*
X175586001Y-85675000D01*
X175586001Y-85674999D01*
X175536599Y-85573947D01*
X175536598Y-85573945D01*
X175451054Y-85488401D01*
X175451052Y-85488400D01*
X175342366Y-85435267D01*
X175342364Y-85435266D01*
X175334929Y-85434183D01*
X175270404Y-85404569D01*
X175232132Y-85344771D01*
X175232264Y-85273775D01*
X175270760Y-85214121D01*
X175335395Y-85184748D01*
X175347360Y-85183903D01*
X175347359Y-85183889D01*
X175347353Y-85183825D01*
X175347356Y-85183824D01*
X175347348Y-85183662D01*
X175350536Y-85183499D01*
X175350544Y-85183499D01*
X175454426Y-85172887D01*
X175622738Y-85117115D01*
X175773652Y-85024030D01*
X175899030Y-84898652D01*
X175992115Y-84747738D01*
X176047887Y-84579426D01*
X176058500Y-84475545D01*
X176058499Y-83590830D01*
X176058500Y-83590822D01*
X176058500Y-83577871D01*
X176060185Y-83561377D01*
X176060119Y-83561372D01*
X176060757Y-83554065D01*
X176060759Y-83554058D01*
X176058500Y-83476420D01*
X176058500Y-82173530D01*
X176066445Y-82129497D01*
X176101988Y-82034204D01*
X176101990Y-82034196D01*
X176108499Y-81973649D01*
X176108500Y-81973632D01*
X176108500Y-81925000D01*
X176850000Y-81925000D01*
X176850000Y-81949626D01*
X176864504Y-82022544D01*
X176864505Y-82022545D01*
X176919759Y-82105240D01*
X177002454Y-82160494D01*
X177002455Y-82160495D01*
X177075373Y-82174999D01*
X177075377Y-82175000D01*
X177175000Y-82175000D01*
X177175000Y-81925000D01*
X177625000Y-81925000D01*
X177625000Y-82175001D01*
X177651404Y-82201405D01*
X177676560Y-82247474D01*
X177694594Y-82207988D01*
X177754320Y-82169604D01*
X177765238Y-82166921D01*
X177797544Y-82160495D01*
X177797545Y-82160494D01*
X177880240Y-82105240D01*
X177935494Y-82022545D01*
X177935495Y-82022544D01*
X177949999Y-81949626D01*
X177950000Y-81949622D01*
X177950000Y-81925000D01*
X177625000Y-81925000D01*
X177175000Y-81925000D01*
X176850000Y-81925000D01*
X176108500Y-81925000D01*
X176108500Y-81475000D01*
X176850000Y-81475000D01*
X177175000Y-81475000D01*
X177175000Y-81225000D01*
X177625000Y-81225000D01*
X177625000Y-81475000D01*
X177950000Y-81475000D01*
X177950000Y-81450377D01*
X177949999Y-81450373D01*
X177935495Y-81377455D01*
X177935494Y-81377454D01*
X177880240Y-81294759D01*
X177797545Y-81239505D01*
X177797544Y-81239504D01*
X177724626Y-81225000D01*
X177625000Y-81225000D01*
X177175000Y-81225000D01*
X177075373Y-81225000D01*
X177002455Y-81239504D01*
X177002454Y-81239505D01*
X176919759Y-81294759D01*
X176864505Y-81377454D01*
X176864504Y-81377455D01*
X176850000Y-81450373D01*
X176850000Y-81475000D01*
X176108500Y-81475000D01*
X176108500Y-81426367D01*
X176108499Y-81426350D01*
X176101990Y-81365804D01*
X176101989Y-81365800D01*
X176066444Y-81270498D01*
X176058500Y-81226466D01*
X176058500Y-79064441D01*
X176059830Y-79046182D01*
X176060940Y-79038600D01*
X176063341Y-79022211D01*
X176060875Y-78994027D01*
X176058740Y-78969614D01*
X176058500Y-78964121D01*
X176058500Y-78955819D01*
X176054652Y-78922905D01*
X176054652Y-78922904D01*
X176047887Y-78845574D01*
X176047885Y-78845570D01*
X176046403Y-78838388D01*
X176046469Y-78838374D01*
X176044837Y-78831012D01*
X176044772Y-78831028D01*
X176043080Y-78823890D01*
X176016526Y-78750934D01*
X175992114Y-78677262D01*
X175992109Y-78677255D01*
X175989012Y-78670611D01*
X175989074Y-78670581D01*
X175985788Y-78663795D01*
X175985728Y-78663826D01*
X175982433Y-78657265D01*
X175939766Y-78592394D01*
X175908723Y-78542065D01*
X175899030Y-78526349D01*
X175899027Y-78526346D01*
X175894478Y-78520592D01*
X175894531Y-78520549D01*
X175889766Y-78514700D01*
X175889715Y-78514744D01*
X175884998Y-78509122D01*
X175828518Y-78455837D01*
X174372933Y-77000252D01*
X174338908Y-76937940D01*
X174343972Y-76867125D01*
X174386519Y-76810289D01*
X174453039Y-76785478D01*
X174496910Y-76790082D01*
X174583447Y-76815013D01*
X174583445Y-76815013D01*
X174921179Y-76872395D01*
X174921177Y-76872395D01*
X175263204Y-76891602D01*
X175605229Y-76872395D01*
X175942955Y-76815014D01*
X176272146Y-76720175D01*
X176588624Y-76589086D01*
X176588647Y-76589075D01*
X176888452Y-76423379D01*
X176888463Y-76423372D01*
X177140568Y-76244492D01*
X177140569Y-76244491D01*
X176097898Y-75201820D01*
X176206569Y-75135227D01*
X176398074Y-74971667D01*
X176561634Y-74780162D01*
X176628227Y-74671491D01*
X177670898Y-75714162D01*
X177670899Y-75714161D01*
X177849779Y-75462056D01*
X177849786Y-75462045D01*
X178015482Y-75162240D01*
X178015493Y-75162217D01*
X178146582Y-74845739D01*
X178241421Y-74516548D01*
X178298802Y-74178822D01*
X178318009Y-73836797D01*
X178298802Y-73494771D01*
X178241421Y-73157045D01*
X178146582Y-72827854D01*
X178015493Y-72511376D01*
X178015482Y-72511353D01*
X177849786Y-72211549D01*
X177670898Y-71959430D01*
X176628226Y-73002101D01*
X176561634Y-72893432D01*
X176398074Y-72701927D01*
X176206569Y-72538367D01*
X176097897Y-72471773D01*
X177140569Y-71429101D01*
X176888447Y-71250211D01*
X176588647Y-71084518D01*
X176588624Y-71084507D01*
X176272146Y-70953418D01*
X175942955Y-70858579D01*
X175605228Y-70801198D01*
X175605230Y-70801198D01*
X175263204Y-70781991D01*
X174921178Y-70801198D01*
X174583452Y-70858579D01*
X174254261Y-70953418D01*
X173937783Y-71084507D01*
X173937760Y-71084518D01*
X173637959Y-71250212D01*
X173637952Y-71250216D01*
X173385838Y-71429101D01*
X174428509Y-72471773D01*
X174319839Y-72538367D01*
X174128334Y-72701927D01*
X173964774Y-72893432D01*
X173898180Y-73002103D01*
X172855508Y-71959431D01*
X172676623Y-72211545D01*
X172676619Y-72211552D01*
X172510925Y-72511353D01*
X172510914Y-72511376D01*
X172379825Y-72827854D01*
X172284986Y-73157045D01*
X172227605Y-73494771D01*
X172208398Y-73836797D01*
X172227605Y-74178822D01*
X172284986Y-74516548D01*
X172309919Y-74603091D01*
X172309556Y-74674087D01*
X172270868Y-74733616D01*
X172206138Y-74762779D01*
X172135917Y-74752317D01*
X172099748Y-74727067D01*
X169731908Y-72359227D01*
X169719936Y-72345375D01*
X169705469Y-72325942D01*
X169705467Y-72325940D01*
X169665024Y-72292003D01*
X169660970Y-72288289D01*
X169655107Y-72282425D01*
X169629104Y-72261864D01*
X169623773Y-72257391D01*
X169569640Y-72211968D01*
X169569638Y-72211967D01*
X169569636Y-72211965D01*
X169563506Y-72207933D01*
X169563541Y-72207878D01*
X169557187Y-72203829D01*
X169557153Y-72203886D01*
X169550906Y-72200033D01*
X169480540Y-72167220D01*
X169445148Y-72149446D01*
X169411188Y-72132391D01*
X169411186Y-72132390D01*
X169411183Y-72132389D01*
X169404289Y-72129880D01*
X169404311Y-72129817D01*
X169397189Y-72127341D01*
X169397169Y-72127404D01*
X169390209Y-72125097D01*
X169314150Y-72109392D01*
X169238652Y-72091499D01*
X169231367Y-72090648D01*
X169231374Y-72090580D01*
X169223877Y-72089814D01*
X169223872Y-72089881D01*
X169216559Y-72089241D01*
X169216558Y-72089241D01*
X169138920Y-72091500D01*
X168304090Y-72091500D01*
X168235969Y-72071498D01*
X168189476Y-72017842D01*
X168184492Y-72005150D01*
X168142115Y-71877262D01*
X168049030Y-71726348D01*
X168049029Y-71726347D01*
X168049024Y-71726341D01*
X167923658Y-71600975D01*
X167923652Y-71600970D01*
X167877879Y-71572737D01*
X167772738Y-71507885D01*
X167688582Y-71479999D01*
X167604427Y-71452113D01*
X167604420Y-71452112D01*
X167500553Y-71441500D01*
X165399455Y-71441500D01*
X165295574Y-71452112D01*
X165127261Y-71507885D01*
X164976347Y-71600970D01*
X164976341Y-71600975D01*
X164850975Y-71726341D01*
X164850970Y-71726347D01*
X164757885Y-71877262D01*
X164702113Y-72045572D01*
X164702112Y-72045579D01*
X164691500Y-72149446D01*
X164691500Y-73550544D01*
X164208500Y-73550544D01*
X164208499Y-72149456D01*
X164205466Y-72119770D01*
X164197887Y-72045574D01*
X164186823Y-72012184D01*
X164142115Y-71877262D01*
X164049030Y-71726348D01*
X164049029Y-71726347D01*
X164049024Y-71726341D01*
X163923658Y-71600975D01*
X163923652Y-71600970D01*
X163877879Y-71572737D01*
X163772738Y-71507885D01*
X163688582Y-71479999D01*
X163604427Y-71452113D01*
X163604420Y-71452112D01*
X163500553Y-71441500D01*
X163500545Y-71441500D01*
X162166371Y-71441500D01*
X162098250Y-71421498D01*
X162077276Y-71404595D01*
X160706908Y-70034227D01*
X160694936Y-70020375D01*
X160688404Y-70011601D01*
X160680469Y-70000942D01*
X160680467Y-70000940D01*
X160640024Y-69967003D01*
X160635970Y-69963289D01*
X160630107Y-69957425D01*
X160625058Y-69953433D01*
X160604103Y-69936863D01*
X160544640Y-69886968D01*
X160544638Y-69886967D01*
X160544636Y-69886965D01*
X160538506Y-69882933D01*
X160538541Y-69882878D01*
X160532187Y-69878829D01*
X160532153Y-69878886D01*
X160525906Y-69875033D01*
X160455540Y-69842220D01*
X160447951Y-69838409D01*
X160386188Y-69807391D01*
X160386186Y-69807390D01*
X160386183Y-69807389D01*
X160379289Y-69804880D01*
X160379311Y-69804817D01*
X160372189Y-69802341D01*
X160372169Y-69802404D01*
X160365209Y-69800097D01*
X160289150Y-69784392D01*
X160213652Y-69766499D01*
X160206367Y-69765648D01*
X160206374Y-69765580D01*
X160198877Y-69764814D01*
X160198872Y-69764881D01*
X160191559Y-69764241D01*
X160191558Y-69764241D01*
X160113920Y-69766500D01*
X158778439Y-69766500D01*
X158710318Y-69746498D01*
X158674047Y-69711057D01*
X158661228Y-69692090D01*
X158560783Y-69543477D01*
X158400772Y-69376524D01*
X158400771Y-69376523D01*
X158400769Y-69376521D01*
X158214845Y-69239013D01*
X158079470Y-69170759D01*
X158008357Y-69134905D01*
X158008354Y-69134904D01*
X158008352Y-69134903D01*
X157882466Y-69096351D01*
X157787243Y-69067189D01*
X157557865Y-69037816D01*
X157557861Y-69037816D01*
X157557853Y-69037815D01*
X157326821Y-69047630D01*
X157100759Y-69096351D01*
X156886184Y-69182575D01*
X156886180Y-69182577D01*
X156689272Y-69303819D01*
X156689268Y-69303822D01*
X156515676Y-69456601D01*
X156370403Y-69636520D01*
X156370400Y-69636524D01*
X156297791Y-69766500D01*
X156258231Y-69837316D01*
X156257620Y-69838409D01*
X156253463Y-69850174D01*
X156228891Y-69919718D01*
X156187337Y-69977283D01*
X156121257Y-70003244D01*
X156051631Y-69989359D01*
X156000566Y-69940035D01*
X155998095Y-69935476D01*
X155929585Y-69802585D01*
X155929585Y-69802584D01*
X155799734Y-69637466D01*
X155799723Y-69637454D01*
X155640963Y-69499889D01*
X155640963Y-69499888D01*
X155459034Y-69394852D01*
X155375000Y-69365767D01*
X155375000Y-70229923D01*
X155362673Y-70210742D01*
X155259445Y-70121295D01*
X155135199Y-70064554D01*
X155033975Y-70050000D01*
X154966025Y-70050000D01*
X154864801Y-70064554D01*
X154740555Y-70121295D01*
X154637327Y-70210742D01*
X154625000Y-70229923D01*
X154625000Y-69361975D01*
X154624999Y-69361974D01*
X154447502Y-69443036D01*
X154447498Y-69443038D01*
X154276376Y-69564893D01*
X154131406Y-69716934D01*
X154087803Y-69784782D01*
X154034147Y-69831275D01*
X153963873Y-69841378D01*
X153899292Y-69811885D01*
X153860909Y-69752159D01*
X153856457Y-69729466D01*
X153847887Y-69645574D01*
X153814056Y-69543477D01*
X153792115Y-69477262D01*
X153716976Y-69355443D01*
X153698240Y-69286967D01*
X153699501Y-69271367D01*
X153713499Y-69174005D01*
X153713500Y-69174000D01*
X153713500Y-67197894D01*
X153713292Y-67194277D01*
X153714439Y-67194211D01*
X153725657Y-67128992D01*
X153773610Y-67076636D01*
X153837174Y-67058481D01*
X154119628Y-67054877D01*
X154272403Y-67055805D01*
G37*
%TD.AperFunction*%
%TD*%
M02*
